<?xml version="1.0" encoding="utf-8"?>
<!-- Generator: Adobe Illustrator 26.4.1, SVG Export Plug-In . SVG Version: 6.00 Build 0)  -->
<svg version="1.1" id="Pattern_1" xmlns="http://www.w3.org/2000/svg" xmlns:xlink="http://www.w3.org/1999/xlink" x="0px" y="0px"
	 viewBox="0 0 3200 3200" style="enable-background:new 0 0 3200 3200;" xml:space="preserve">
<style type="text/css">
	.Pattern_1_st0_confetti{fill:#29495c;}
</style>
<rect x="591.1" y="1655" transform="matrix(0.3377 -0.9413 0.9413 0.3377 -1163.1876 1663.2036)" class="Pattern_1_st0_confetti" width="18.3" height="6.2"/>
<rect x="591.6" y="1713" transform="matrix(0.2126 -0.9771 0.9771 0.2126 -1210.2198 1931.3041)" class="Pattern_1_st0_confetti" width="3.1" height="7.1"/>
<rect x="642.9" y="1642.2" transform="matrix(0.9614 -0.275 0.275 0.9614 -428.7889 241.299)" class="Pattern_1_st0_confetti" width="6.2" height="14.9"/>
<polygon class="Pattern_1_st0_confetti" points="649.6,1860.6 647.6,1873.5 653.9,1873.5 655.8,1861.6 "/>
<rect x="578.3" y="1801.7" transform="matrix(0.9991 -4.357074e-02 4.357074e-02 0.9991 -78.0322 26.9763)" class="Pattern_1_st0_confetti" width="3.1" height="3.6"/>
<rect x="530.2" y="1831.8" transform="matrix(0.9665 -0.2567 0.2567 0.9665 -453.037 199.1319)" class="Pattern_1_st0_confetti" width="12.2" height="6.2"/>
<rect x="465.6" y="1878.1" transform="matrix(0.9376 -0.3477 0.3477 0.9376 -623.5421 284.2287)" class="Pattern_1_st0_confetti" width="29.3" height="3.1"/>
<rect x="635.2" y="1791.7" transform="matrix(0.9933 -0.1156 0.1156 0.9933 -203.7795 85.8827)" class="Pattern_1_st0_confetti" width="6.2" height="15"/>
<rect x="571.4" y="1638.9" transform="matrix(0.1302 -0.9915 0.9915 0.1302 -1124.5989 1998.9579)" class="Pattern_1_st0_confetti" width="11.1" height="3.1"/>
<rect x="762.2" y="1733.7" transform="matrix(0.6756 -0.7372 0.7372 0.6756 -1033.5599 1128.1738)" class="Pattern_1_st0_confetti" width="6.2" height="9.9"/>
<rect x="726.4" y="1862.4" transform="matrix(0.7042 -0.71 0.71 0.7042 -1105.2113 1075.0786)" class="Pattern_1_st0_confetti" width="22.4" height="3.1"/>
<rect x="783" y="1632" transform="matrix(0.9933 -0.1156 0.1156 0.9933 -184.3164 101.9065)" class="Pattern_1_st0_confetti" width="6.2" height="15"/>
<rect x="792.2" y="1705.4" transform="matrix(0.1566 -0.9877 0.9877 0.1566 -1013.1967 2230.6008)" class="Pattern_1_st0_confetti" width="14.5" height="6.2"/>
<rect x="719.8" y="1688.5" transform="matrix(0.7757 -0.6311 0.6311 0.7757 -904.6823 837.8349)" class="Pattern_1_st0_confetti" width="13" height="6.2"/>
<rect x="697.9" y="1856.6" transform="matrix(4.145797e-02 -0.9991 0.9991 4.145797e-02 -1185.5103 2480.531)" class="Pattern_1_st0_confetti" width="4.2" height="3.1"/>
<rect x="683.3" y="1775.6" transform="matrix(0.2788 -0.9603 0.9603 0.2788 -1216.4113 1944.3082)" class="Pattern_1_st0_confetti" width="6.2" height="12.9"/>
<rect x="726.1" y="1642" transform="matrix(0.9991 -4.357060e-02 4.357060e-02 0.9991 -70.9321 33.2656)" class="Pattern_1_st0_confetti" width="3.1" height="3.6"/>
<rect x="532.9" y="1652.9" transform="matrix(0.9027 -0.4303 0.4303 0.9027 -662.1646 391.5089)" class="Pattern_1_st0_confetti" width="3.1" height="13.6"/>
<rect x="617.3" y="1578.9" transform="matrix(0.7418 -0.6706 0.6706 0.7418 -898.9803 828.0222)" class="Pattern_1_st0_confetti" width="17.1" height="5.3"/>
<rect x="339.8" y="1768.9" transform="matrix(4.149189e-02 -0.9991 0.9991 4.149189e-02 -1441.2479 2038.5809)" class="Pattern_1_st0_confetti" width="4.2" height="3.1"/>
<rect x="543" y="1398" transform="matrix(0.6257 -0.7801 0.7801 0.6257 -886.6285 952.5584)" class="Pattern_1_st0_confetti" width="12.6" height="4.4"/>
<rect x="611.3" y="1499.9" transform="matrix(0.5269 -0.8499 0.8499 0.5269 -983.6515 1237.7872)" class="Pattern_1_st0_confetti" width="17.5" height="5.3"/>
<rect x="366.6" y="1693.7" transform="matrix(0.996 -8.986176e-02 8.986176e-02 0.996 -151.3984 40.1032)" class="Pattern_1_st0_confetti" width="6.2" height="15.4"/>
<rect x="390.1" y="1690.5" transform="matrix(0.2639 -0.9646 0.9646 0.2639 -1341.1505 1629.9177)" class="Pattern_1_st0_confetti" width="14.5" height="6.2"/>
<rect x="668.3" y="1395.3" transform="matrix(0.9976 -6.877016e-02 6.877016e-02 0.9976 -94.8972 49.3582)" class="Pattern_1_st0_confetti" width="2.2" height="15.4"/>
<rect x="406.6" y="1637.4" transform="matrix(1 -5.986052e-03 5.986052e-03 1 -9.8389 2.4824)" class="Pattern_1_st0_confetti" width="6.2" height="15"/>
<rect x="538.7" y="1622.3" transform="matrix(0.6325 -0.7745 0.7745 0.6325 -1062.4384 1018.2169)" class="Pattern_1_st0_confetti" width="6.2" height="13"/>
<rect x="785" y="1781.5" transform="matrix(0.5439 -0.8391 0.8391 0.5439 -1140.8688 1476.7837)" class="Pattern_1_st0_confetti" width="6.2" height="13"/>
<rect x="547.2" y="1794.7" transform="matrix(2.412306e-02 -0.9997 0.9997 2.412306e-02 -1258.108 2306.8333)" class="Pattern_1_st0_confetti" width="10.7" height="6.2"/>
<rect x="539.1" y="1713.4" transform="matrix(0.8783 -0.4781 0.4781 0.8783 -759.8617 468.6482)" class="Pattern_1_st0_confetti" width="3.1" height="27.1"/>
<rect x="537.1" y="1458" transform="matrix(0.9861 -0.166 0.166 0.9861 -235.0061 110.2259)" class="Pattern_1_st0_confetti" width="9.2" height="5.3"/>
<rect x="631.4" y="1566" transform="matrix(0.3178 -0.9481 0.9481 0.3178 -1056.4034 1670.7927)" class="Pattern_1_st0_confetti" width="3.1" height="7.1"/>
<rect x="1125.3" y="1769.7" transform="matrix(0.7042 -0.71 0.71 0.7042 -921.4297 1330.7383)" class="Pattern_1_st0_confetti" width="22.4" height="3.1"/>
<rect x="1112.5" y="1651.5" transform="matrix(0.9888 -0.1492 0.1492 0.9888 -234.3547 185.4166)" class="Pattern_1_st0_confetti" width="12.2" height="6.2"/>
<rect x="1112.6" y="1627.4" transform="matrix(6.594668e-02 -0.9978 0.9978 6.594668e-02 -584.5278 2633.5088)" class="Pattern_1_st0_confetti" width="3.6" height="3.1"/>
<rect x="1074.9" y="1736.1" transform="matrix(0.8209 -0.571 0.571 0.8209 -806.33 927.9946)" class="Pattern_1_st0_confetti" width="3.1" height="27.1"/>
<rect x="1085.8" y="1864.7" transform="matrix(0.1441 -0.9896 0.9896 0.1441 -917.0532 2676.825)" class="Pattern_1_st0_confetti" width="6.2" height="7.7"/>
<rect x="1088.4" y="1809" transform="matrix(0.8501 -0.5266 0.5266 0.8501 -792.8464 846.1636)" class="Pattern_1_st0_confetti" width="3.1" height="13.6"/>
<rect x="782.7" y="1812.7" transform="matrix(0.8502 -0.5265 0.5265 0.8502 -840.4695 685.504)" class="Pattern_1_st0_confetti" width="3.1" height="13.6"/>
<rect x="1276.7" y="1694" transform="matrix(0.1507 -0.9886 0.9886 0.1507 -590.1 2704.26)" class="Pattern_1_st0_confetti" width="4.2" height="3.1"/>
<rect x="1222.3" y="1697.2" transform="matrix(0.2639 -0.9646 0.9646 0.2639 -734.9799 2437.5847)" class="Pattern_1_st0_confetti" width="14.5" height="6.2"/>
<rect x="1302.6" y="1849.1" transform="matrix(0.5311 -0.8473 0.8473 0.5311 -954.8922 1979.0677)" class="Pattern_1_st0_confetti" width="15.9" height="6.2"/>
<rect x="1270.4" y="1612" transform="matrix(0.3819 -0.9242 0.9242 0.3819 -708.6451 2177.3193)" class="Pattern_1_st0_confetti" width="6.2" height="12.9"/>
<rect x="1161.8" y="1707.4" transform="matrix(0.996 -8.986176e-02 8.986176e-02 0.996 -149.4083 111.6185)" class="Pattern_1_st0_confetti" width="6.2" height="15.4"/>
<rect x="1215.3" y="1763.9" transform="matrix(0.1566 -0.9877 0.9877 0.1566 -714.0623 2697.8906)" class="Pattern_1_st0_confetti" width="14.5" height="6.2"/>
<rect x="1015.6" y="1821.4" transform="matrix(0.2328 -0.9725 0.9725 0.2328 -988.1984 2396.4333)" class="Pattern_1_st0_confetti" width="18.3" height="6.2"/>
<rect x="1184.7" y="1846.8" transform="matrix(0.2787 -0.9604 0.9604 0.2787 -923.0571 2477.3276)" class="Pattern_1_st0_confetti" width="6.2" height="12.9"/>
<rect x="831.1" y="1615.9" transform="matrix(0.2788 -0.9603 0.9603 0.2788 -956.4081 1971.0864)" class="Pattern_1_st0_confetti" width="6.2" height="12.9"/>
<rect x="890.9" y="1789.9" transform="matrix(0.9256 -0.3785 0.3785 0.9256 -613.7559 472.0937)" class="Pattern_1_st0_confetti" width="6.2" height="14.9"/>
<rect x="874.3" y="1702.7" transform="matrix(0.7042 -0.71 0.71 0.7042 -948.0497 1132.7002)" class="Pattern_1_st0_confetti" width="22.4" height="3.1"/>
<rect x="854" y="1752.7" transform="matrix(0.996 -8.986176e-02 8.986176e-02 0.996 -154.7303 84.1421)" class="Pattern_1_st0_confetti" width="6.2" height="15.4"/>
<polygon class="Pattern_1_st0_confetti" points="789.8,1874.6 791.9,1874.6 791.2,1873.6 "/>
<rect x="818.8" y="1794.1" transform="matrix(2.083196e-02 -0.9998 0.9998 2.083196e-02 -988.1136 2582.4863)" class="Pattern_1_st0_confetti" width="11.1" height="3.1"/>
<rect x="986.8" y="1708.6" transform="matrix(0.582 -0.8132 0.8132 0.582 -975.9449 1524.7819)" class="Pattern_1_st0_confetti" width="16.8" height="6.2"/>
<rect x="988.1" y="1647.9" transform="matrix(0.2328 -0.9725 0.9725 0.2328 -840.5461 2236.5925)" class="Pattern_1_st0_confetti" width="18.3" height="6.2"/>
<rect x="930" y="1603.2" transform="matrix(0.1441 -0.9896 0.9896 0.1441 -791.598 2298.7944)" class="Pattern_1_st0_confetti" width="6.2" height="7.7"/>
<rect x="1018.3" y="1760.7" transform="matrix(0.582 -0.8132 0.8132 0.582 -1005.1459 1572.2914)" class="Pattern_1_st0_confetti" width="16.8" height="6.2"/>
<rect x="1690.3" y="1914.2" transform="matrix(0.7042 -0.71 0.71 0.7042 -856.8757 1774.5969)" class="Pattern_1_st0_confetti" width="22.4" height="3.1"/>
<rect x="1639.9" y="1880.5" transform="matrix(0.8209 -0.571 0.571 0.8209 -787.6361 1276.5037)" class="Pattern_1_st0_confetti" width="3.1" height="27.1"/>
<rect x="1583.3" y="1905.1" transform="matrix(0.582 -0.8132 0.8132 0.582 -886.4197 2092.1516)" class="Pattern_1_st0_confetti" width="16.8" height="6.2"/>
<rect x="1075.9" y="1691.6" transform="matrix(0.9256 -0.3785 0.3785 0.9256 -562.8229 534.82)" class="Pattern_1_st0_confetti" width="6.2" height="14.9"/>
<rect x="966.6" y="1634.4" transform="matrix(2.090380e-02 -0.9998 0.9998 2.090380e-02 -683.7357 2573.7659)" class="Pattern_1_st0_confetti" width="11.1" height="3.1"/>
<rect x="949" y="1795.1" transform="matrix(0.8494 -0.5278 0.5278 0.8494 -807.5183 773.9612)" class="Pattern_1_st0_confetti" width="6.2" height="13.2"/>
<rect x="944" y="1712.4" transform="matrix(0.8209 -0.571 0.571 0.8209 -816.24 849.0015)" class="Pattern_1_st0_confetti" width="3.1" height="27.1"/>
<rect x="977" y="1830.5" transform="matrix(0.9256 -0.3785 0.3785 0.9256 -622.7578 507.7302)" class="Pattern_1_st0_confetti" width="6.2" height="14.9"/>
<rect x="772.3" y="1939.3" transform="matrix(0.1441 -0.9896 0.9896 0.1441 -1259.1664 2430.446)" class="Pattern_1_st0_confetti" width="6.2" height="7.7"/>
<rect x="774.9" y="1883.6" transform="matrix(0.8501 -0.5266 0.5266 0.8501 -879.1141 692.2549)" class="Pattern_1_st0_confetti" width="3.1" height="13.6"/>
<rect x="702.1" y="1896" transform="matrix(0.2328 -0.9725 0.9725 0.2328 -1301.2463 2148.7805)" class="Pattern_1_st0_confetti" width="18.3" height="6.2"/>
<rect x="871.2" y="1901.2" transform="matrix(0.2787 -0.9604 0.9604 0.2787 -1201.3655 2215.5454)" class="Pattern_1_st0_confetti" width="6.2" height="12.9"/>
<rect x="663.5" y="1905.1" transform="matrix(0.9256 -0.3785 0.3785 0.9256 -674.3108 394.6228)" class="Pattern_1_st0_confetti" width="6.2" height="14.9"/>
<rect x="1365" y="1920.8" transform="matrix(0.4253 -0.905 0.905 0.4253 -955.3181 2343.5771)" class="Pattern_1_st0_confetti" width="5.5" height="6.5"/>
<rect x="290.2" y="1915" transform="matrix(0.166 -0.9861 0.9861 0.166 -1648.1659 1887.1733)" class="Pattern_1_st0_confetti" width="2.7" height="6"/>
<rect x="251.4" y="1933" transform="matrix(0.166 -0.9861 0.9861 0.166 -1698.3484 1863.9338)" class="Pattern_1_st0_confetti" width="2.7" height="6"/>
<rect x="1185.7" y="1933.7" transform="matrix(0.1563 -0.9877 0.9877 0.1563 -906.5508 2812.3152)" class="Pattern_1_st0_confetti" width="14.5" height="6.2"/>
<rect x="978.9" y="1924.2" transform="matrix(0.9692 -0.2463 0.2463 0.9692 -446.5661 301.0439)" class="Pattern_1_st0_confetti" width="2.7" height="23.3"/>
<rect x="497.4" y="1927.7" transform="matrix(0.9991 -4.357074e-02 4.357074e-02 0.9991 -83.5973 23.5743)" class="Pattern_1_st0_confetti" width="3.1" height="3.6"/>
<rect x="1339.7" y="1888.7" transform="matrix(0.3642 -0.9313 0.9313 0.3642 -905.3187 2454.0771)" class="Pattern_1_st0_confetti" width="10.1" height="2.7"/>
<rect x="514.1" y="1921.6" transform="matrix(0.9665 -0.2567 0.2567 0.9665 -476.6167 198.0238)" class="Pattern_1_st0_confetti" width="12.2" height="6.2"/>
<rect x="304.1" y="1923.3" transform="matrix(0.2328 -0.9725 0.9725 0.2328 -1633.1528 1782.679)" class="Pattern_1_st0_confetti" width="18.3" height="6.2"/>
<rect x="276.4" y="1890" transform="matrix(0.4997 -0.8662 0.8662 0.4997 -1497.5198 1192.5189)" class="Pattern_1_st0_confetti" width="14.5" height="5.5"/>
<rect x="1450.8" y="1929.4" transform="matrix(0.5551 -0.8318 0.8318 0.5551 -962.6723 2069.8674)" class="Pattern_1_st0_confetti" width="5.5" height="10.8"/>
<polygon class="Pattern_1_st0_confetti" points="2852.2,1857.7 2831.2,1886.9 2836.8,1890.9 2837.2,1890.9 2858,1862 "/>
<path class="Pattern_1_st0_confetti" d="M2702.2,1594.8l2.6,6.3c1.6-1.6,3.2-3.2,4.8-4.8l-1.6-3.8L2702.2,1594.8z"/>
<rect x="1142.4" y="1945.4" transform="matrix(4.145797e-02 -0.9991 0.9991 4.145797e-02 -848.2349 3009.7253)" class="Pattern_1_st0_confetti" width="4.2" height="3.1"/>
<rect x="495.1" y="1892.7" transform="matrix(0.2787 -0.9604 0.9604 0.2787 -1464.4691 1848.2367)" class="Pattern_1_st0_confetti" width="6.2" height="12.9"/>
<rect x="1265.5" y="1926" transform="matrix(0.996 -8.986176e-02 8.986176e-02 0.996 -168.6314 121.825)" class="Pattern_1_st0_confetti" width="6.2" height="15.4"/>
<rect x="1285.4" y="1865.5" transform="matrix(0.9997 -2.445074e-02 2.445074e-02 0.9997 -45.3861 32.0564)" class="Pattern_1_st0_confetti" width="5.5" height="13"/>
<rect x="1407.9" y="1922.8" transform="matrix(0.1254 -0.9921 0.9921 0.1254 -681.6687 3085.917)" class="Pattern_1_st0_confetti" width="3.1" height="13.6"/>
<rect x="1095.6" y="1939.5" transform="matrix(0.7042 -0.71 0.71 0.7042 -1050.7374 1359.9167)" class="Pattern_1_st0_confetti" width="22.4" height="3.1"/>
<rect x="682.2" y="1357.6" transform="matrix(0.2185 -0.9758 0.9758 0.2185 -790.0267 1733.0529)" class="Pattern_1_st0_confetti" width="9.7" height="4.4"/>
<rect x="634.7" y="1382.1" transform="matrix(0.6624 -0.7492 0.7492 0.6624 -819.9935 948.9781)" class="Pattern_1_st0_confetti" width="16.4" height="4.4"/>
<rect x="566.5" y="1376.7" transform="matrix(9.381473e-03 -1 1 9.381473e-03 -812.5526 1935.3433)" class="Pattern_1_st0_confetti" width="7.9" height="2.2"/>
<rect x="303.2" y="1869.6" transform="matrix(0.9994 -3.531542e-02 3.531542e-02 0.9994 -65.8921 11.9243)" class="Pattern_1_st0_confetti" width="2.7" height="3.3"/>
<rect x="545.5" y="1345.8" transform="matrix(0.327 -0.945 0.945 0.327 -906.8055 1425.7491)" class="Pattern_1_st0_confetti" width="4.4" height="7.5"/>
<rect x="473.5" y="1565.6" transform="matrix(0.8565 -0.5161 0.5161 0.8565 -743.0694 471.3778)" class="Pattern_1_st0_confetti" width="5.5" height="13.2"/>
<rect x="621.8" y="1336.4" transform="matrix(0.1533 -0.9882 0.9882 0.1533 -794.6304 1750.2648)" class="Pattern_1_st0_confetti" width="4.4" height="4.9"/>
<rect x="438.2" y="1605.4" transform="matrix(0.3819 -0.9242 0.9242 0.3819 -1216.8387 1404.0369)" class="Pattern_1_st0_confetti" width="6.2" height="12.9"/>
<rect x="444.5" y="1687.3" transform="matrix(0.1504 -0.9886 0.9886 0.1504 -1290.2606 1876.3314)" class="Pattern_1_st0_confetti" width="4.2" height="3.1"/>
<rect x="400.5" y="1821.9" transform="matrix(0.9933 -0.1156 0.1156 0.9933 -208.8448 58.9497)" class="Pattern_1_st0_confetti" width="6.2" height="15"/>
<rect x="487.1" y="1720.4" transform="matrix(0.7777 -0.6286 0.6286 0.7777 -971.7176 696.0679)" class="Pattern_1_st0_confetti" width="22.4" height="3.1"/>
<rect x="460.5" y="1823.2" transform="matrix(0.9991 -4.357074e-02 4.357074e-02 0.9991 -79.0786 21.8666)" class="Pattern_1_st0_confetti" width="3.1" height="3.6"/>
<rect x="596.6" y="1412.8" transform="matrix(0.2425 -0.9702 0.9702 0.2425 -928.2396 1658.1357)" class="Pattern_1_st0_confetti" width="2.2" height="21.3"/>
<rect x="550.1" y="1537.7" transform="matrix(0.3861 -0.9224 0.9224 0.3861 -1080.8038 1454.0457)" class="Pattern_1_st0_confetti" width="3.8" height="2.6"/>
<rect x="344.3" y="1858.4" transform="matrix(1.745472e-02 -0.9998 0.9998 1.745472e-02 -1522.4963 2178.1406)" class="Pattern_1_st0_confetti" width="5.5" height="10.6"/>
<rect x="599.1" y="1472.7" transform="matrix(7.598873e-03 -1 1 7.598873e-03 -876.4689 2066.6514)" class="Pattern_1_st0_confetti" width="7.7" height="4.4"/>
<rect x="511.3" y="1487.2" transform="matrix(0.249 -0.9685 0.9685 0.249 -1054.095 1620.2834)" class="Pattern_1_st0_confetti" width="12.9" height="5.3"/>
<rect x="529.1" y="1428.4" transform="matrix(0.443 -0.8965 0.8965 0.443 -989.5821 1273.8556)" class="Pattern_1_st0_confetti" width="2.6" height="9.9"/>
<rect x="445.3" y="1908.1" transform="matrix(0.1441 -0.9896 0.9896 0.1441 -1508.1934 2080.2048)" class="Pattern_1_st0_confetti" width="6.2" height="7.7"/>
<rect x="1292.8" y="1829.9" transform="matrix(0.9991 -4.357074e-02 4.357074e-02 0.9991 -78.5797 58.1343)" class="Pattern_1_st0_confetti" width="3.1" height="3.6"/>
<rect x="495.4" y="1580.9" transform="matrix(0.4401 -0.8979 0.8979 0.4401 -1138.5488 1341.057)" class="Pattern_1_st0_confetti" width="21.5" height="5.3"/>
<rect x="349" y="1813" transform="matrix(0.9888 -0.1494 0.1494 0.9888 -267.3173 73.4221)" class="Pattern_1_st0_confetti" width="12.2" height="6.2"/>
<rect x="571" y="1542.6" transform="matrix(0.8114 -0.5845 0.5845 0.8114 -792.5239 631.5463)" class="Pattern_1_st0_confetti" width="22.8" height="2.6"/>
<rect x="2622.1" y="1732.5" transform="matrix(0.821 -0.571 0.571 0.821 -527.2377 1810.7103)" class="Pattern_1_st0_confetti" width="3.1" height="27.1"/>
<rect x="2611" y="1641.9" transform="matrix(0.5439 -0.8392 0.8392 0.5439 -190.8558 2945.5999)" class="Pattern_1_st0_confetti" width="6.2" height="13"/>
<rect x="2608.6" y="1673.1" transform="matrix(0.8501 -0.5265 0.5265 0.8501 -493.4113 1626.1082)" class="Pattern_1_st0_confetti" width="3.1" height="13.6"/>
<rect x="2644.7" y="1654.5" transform="matrix(2.082314e-02 -0.9998 0.9998 2.082314e-02 939.373 4271.3569)" class="Pattern_1_st0_confetti" width="11.1" height="3.1"/>
<rect x="2569" y="1810" transform="matrix(0.9256 -0.3785 0.3785 0.9256 -496.5605 1108.8414)" class="Pattern_1_st0_confetti" width="6.2" height="14.9"/>
<rect x="2591.7" y="1860.2" transform="matrix(0.2326 -0.9726 0.9726 0.2326 183.6458 3959.3511)" class="Pattern_1_st0_confetti" width="18.3" height="6.2"/>
<rect x="2662.8" y="1864.4" transform="matrix(0.2325 -0.9726 0.9726 0.2325 234.2434 4031.9695)" class="Pattern_1_st0_confetti" width="18.3" height="6.2"/>
<rect x="2857.8" y="1741" transform="matrix(0.5514 -0.8342 0.8342 0.5514 -170.5618 3168.4648)" class="Pattern_1_st0_confetti" width="6.5" height="3.6"/>
<rect x="2319.7" y="1744.3" transform="matrix(0.4694 -0.883 0.883 0.4694 -306.7514 2985.4209)" class="Pattern_1_st0_confetti" width="21.9" height="7.2"/>
<rect x="2532.1" y="1772.9" transform="matrix(0.996 -8.986176e-02 8.986176e-02 0.996 -149.7504 235.0212)" class="Pattern_1_st0_confetti" width="6.2" height="15.4"/>
<rect x="2748" y="1800.6" transform="matrix(0.8494 -0.5277 0.5277 0.8494 -539.4348 1723.9935)" class="Pattern_1_st0_confetti" width="6.2" height="13.2"/>
<rect x="2721.6" y="1759.7" transform="matrix(0.582 -0.8132 0.8132 0.582 -292.3773 2956.8147)" class="Pattern_1_st0_confetti" width="16.8" height="6.2"/>
<rect x="2716.9" y="1650.3" transform="matrix(0.9256 -0.3785 0.3785 0.9256 -425.0939 1152.8746)" class="Pattern_1_st0_confetti" width="6.2" height="14.9"/>
<rect x="2786.4" y="1653.9" transform="matrix(0.5083 -0.8612 0.8612 0.5083 -54.4787 3216.0369)" class="Pattern_1_st0_confetti" width="5.4" height="3.6"/>
<rect x="2410.4" y="1852.1" transform="matrix(4.145797e-02 -0.9991 0.9991 4.145797e-02 460.3773 4187.2563)" class="Pattern_1_st0_confetti" width="4.2" height="3.1"/>
<rect x="2356.1" y="1692.2" transform="matrix(0.9666 -0.2563 0.2563 0.9666 -355.602 662.0298)" class="Pattern_1_st0_confetti" width="12.2" height="6.2"/>
<polygon class="Pattern_1_st0_confetti" points="2422.6,1875 2410.2,1887.5 2412.5,1889.6 2424.8,1877.2 "/>
<rect x="2404.2" y="1662.2" transform="matrix(0.9991 -4.357060e-02 4.357060e-02 0.9991 -70.2157 106.4009)" class="Pattern_1_st0_confetti" width="3.1" height="3.6"/>
<rect x="2269.2" y="1675.1" transform="matrix(0.3377 -0.9413 0.9413 0.3377 -70.6899 3256.0779)" class="Pattern_1_st0_confetti" width="18.3" height="6.2"/>
<rect x="2271.3" y="1769.2" transform="matrix(0.2116 -0.9773 0.9773 0.2116 59.278 3618.9385)" class="Pattern_1_st0_confetti" width="3.1" height="7.1"/>
<rect x="2321" y="1662.4" transform="matrix(0.9614 -0.275 0.275 0.9614 -369.6132 703.5986)" class="Pattern_1_st0_confetti" width="6.2" height="14.9"/>
<rect x="2422.3" y="1638.5" transform="matrix(0.5311 -0.8473 0.8473 0.5311 -251.3449 2828.9976)" class="Pattern_1_st0_confetti" width="15.9" height="6.2"/>
<rect x="2496.9" y="1814.3" transform="matrix(2.082314e-02 -0.9998 0.9998 2.082314e-02 634.9257 4279.9609)" class="Pattern_1_st0_confetti" width="11.1" height="3.1"/>
<rect x="2509.2" y="1636.1" transform="matrix(0.2788 -0.9603 0.9603 0.2788 234.5069 3597.2417)" class="Pattern_1_st0_confetti" width="6.2" height="12.9"/>
<rect x="2460.8" y="1832.9" transform="matrix(0.8502 -0.5265 0.5265 0.8502 -599.6529 1572.0359)" class="Pattern_1_st0_confetti" width="3.1" height="13.6"/>
<rect x="2523.9" y="1717" transform="matrix(4.145797e-02 -0.9991 0.9991 4.145797e-02 704.2025 4171.0913)" class="Pattern_1_st0_confetti" width="4.2" height="3.1"/>
<rect x="2440.3" y="1753.8" transform="matrix(0.6756 -0.7372 0.7372 0.6756 -504.0698 2371.8794)" class="Pattern_1_st0_confetti" width="6.2" height="9.9"/>
<rect x="2463.1" y="1801.6" transform="matrix(0.5439 -0.8392 0.8392 0.5439 -392.3671 2894.3044)" class="Pattern_1_st0_confetti" width="6.2" height="13"/>
<rect x="2461.1" y="1652.1" transform="matrix(0.9933 -0.1152 0.1152 0.9933 -174.77 294.9071)" class="Pattern_1_st0_confetti" width="6.2" height="15"/>
<rect x="2653.8" y="1406.2" transform="matrix(9.735663e-03 -1 1 9.735663e-03 1224.7151 4051.2578)" class="Pattern_1_st0_confetti" width="7.9" height="2.2"/>
<rect x="2654.2" y="1610.8" transform="matrix(0.2325 -0.9726 0.9726 0.2325 474.3696 3828.969)" class="Pattern_1_st0_confetti" width="18.3" height="6.2"/>
<rect x="2555.3" y="1359.1" transform="matrix(0.9976 -6.873491e-02 6.873491e-02 0.9976 -87.9031 178.9452)" class="Pattern_1_st0_confetti" width="2.2" height="15.4"/>
<path class="Pattern_1_st0_confetti" d="M2685.5,1927.4l10.8,15.5c0.7-0.8,1.5-1.5,2.2-2.3l-10.4-15L2685.5,1927.4z"/>
<rect x="2596.6" y="1615.9" transform="matrix(0.8501 -0.5267 0.5267 0.8501 -465.0726 1611.6243)" class="Pattern_1_st0_confetti" width="3.1" height="13.6"/>
<rect x="2694.9" y="1552.1" transform="matrix(2.090380e-02 -0.9998 0.9998 2.090380e-02 1090.7032 4221.0063)" class="Pattern_1_st0_confetti" width="11.1" height="3.1"/>
<rect x="2633.2" y="1460.5" transform="matrix(0.9039 -0.4277 0.4277 0.9039 -372.552 1267.5885)" class="Pattern_1_st0_confetti" width="4.3" height="5.1"/>
<rect x="2506.9" y="1367.6" transform="matrix(0.5122 -0.8589 0.8589 0.5122 48.0887 2821.9578)" class="Pattern_1_st0_confetti" width="2.9" height="2.2"/>
<rect x="2676.2" y="1384.6" transform="matrix(0.5537 -0.8327 0.8327 0.5537 41.5413 2851.0574)" class="Pattern_1_st0_confetti" width="8.8" height="4.3"/>
<polygon class="Pattern_1_st0_confetti" points="2629,1309.5 2633.4,1301.3 2628.4,1301.4 2625.1,1307.4 "/>
<rect x="2719.9" y="1490.1" transform="matrix(0.2376 -0.9714 0.9714 0.2376 625.0898 3780.9312)" class="Pattern_1_st0_confetti" width="2.2" height="4.3"/>
<rect x="2598.9" y="1584.6" transform="matrix(0.5439 -0.8392 0.8392 0.5439 -148.3052 2909.3843)" class="Pattern_1_st0_confetti" width="6.2" height="13"/>
<rect x="2596.1" y="1364.6" transform="matrix(0.8347 -0.5507 0.5507 0.8347 -325.4767 1657.4055)" class="Pattern_1_st0_confetti" width="4.4" height="12.6"/>
<rect x="2525.6" y="1425.8" transform="matrix(0.1918 -0.9814 0.9814 0.1918 645.8882 3640.2524)" class="Pattern_1_st0_confetti" width="15.1" height="4.4"/>
<rect x="1752.5" y="1894.6" transform="matrix(0.8394 -0.5435 0.5435 0.8394 -746.5745 1266.1707)" class="Pattern_1_st0_confetti" width="33.3" height="3.6"/>
<rect x="2306.1" y="1907.7" transform="matrix(0.9854 -0.1703 0.1703 0.9854 -291.9372 421.2046)" class="Pattern_1_st0_confetti" width="7.3" height="9.7"/>
<rect x="2264.8" y="1910.1" transform="matrix(0.9102 -0.4141 0.4141 0.9102 -589.7918 1111.4198)" class="Pattern_1_st0_confetti" width="7.2" height="11.6"/>
<rect x="2741.9" y="1570.1" transform="matrix(0.9933 -0.1157 0.1157 0.9933 -164.0689 328.1277)" class="Pattern_1_st0_confetti" width="6.2" height="15"/>
<rect x="2832.1" y="1937.6" transform="matrix(0.9778 -0.2094 0.2094 0.9778 -343.4243 639.1954)" class="Pattern_1_st0_confetti" width="28.7" height="7.2"/>
<rect x="1934.1" y="1937.7" transform="matrix(0.1486 -0.9889 0.9889 0.1486 -264.4128 3571.9727)" class="Pattern_1_st0_confetti" width="16" height="3.6"/>
<polygon class="Pattern_1_st0_confetti" points="2876.1,1881.9 2874.7,1891.2 2882.1,1891.3 2883.3,1882.9 "/>
<rect x="1979.4" y="1907.1" transform="matrix(0.5771 -0.8167 0.8167 0.5771 -723.3387 2428.4629)" class="Pattern_1_st0_confetti" width="7.2" height="11"/>
<rect x="2095.3" y="1918.8" transform="matrix(9.543046e-02 -0.9954 0.9954 9.543046e-02 -2.5376 3838.3586)" class="Pattern_1_st0_confetti" width="30.9" height="3.6"/>
<rect x="2564.3" y="1585" transform="matrix(4.217463e-02 -0.9991 0.9991 4.217463e-02 873.0145 4083.8501)" class="Pattern_1_st0_confetti" width="4.2" height="3.1"/>
<rect x="2522.7" y="1937.2" transform="matrix(0.1564 -0.9877 0.9877 0.1564 217.7616 4135.521)" class="Pattern_1_st0_confetti" width="14.5" height="6.2"/>
<rect x="2565.9" y="1420.6" transform="matrix(0.2183 -0.9759 0.9759 0.2183 621.058 3620.8574)" class="Pattern_1_st0_confetti" width="9.7" height="4.4"/>
<rect x="2517.9" y="1341.7" transform="matrix(0.6624 -0.7492 0.7492 0.6624 -153.8642 2346.2583)" class="Pattern_1_st0_confetti" width="16.4" height="4.3"/>
<rect x="2614.4" y="1422.7" transform="matrix(0.5511 -0.8344 0.8344 0.5511 -12.3546 2824.5933)" class="Pattern_1_st0_confetti" width="9.2" height="2.2"/>
<rect x="2609" y="1536.9" transform="matrix(0.6756 -0.7372 0.7372 0.6756 -289.3597 2425.9246)" class="Pattern_1_st0_confetti" width="6.2" height="9.9"/>
<rect x="2524.5" y="1597.5" transform="matrix(0.996 -8.986176e-02 8.986176e-02 0.996 -134.0246 233.6314)" class="Pattern_1_st0_confetti" width="6.2" height="15.4"/>
<rect x="2623.3" y="1914.4" transform="matrix(0.7042 -0.71 0.71 0.7042 -581.0808 2437.0503)" class="Pattern_1_st0_confetti" width="22.4" height="3.1"/>
<rect x="2256.4" y="1821.9" transform="matrix(0.9991 -4.357074e-02 4.357074e-02 0.9991 -77.3159 100.1118)" class="Pattern_1_st0_confetti" width="3.1" height="3.6"/>
<rect x="1614.9" y="1819.4" transform="matrix(0.8501 -0.5265 0.5265 0.8501 -719.343 1124.8062)" class="Pattern_1_st0_confetti" width="3.1" height="13.6"/>
<rect x="1568.1" y="1799.6" transform="matrix(0.5439 -0.8392 0.8392 0.5439 -798.9576 2142.3242)" class="Pattern_1_st0_confetti" width="6.2" height="13"/>
<rect x="1615.2" y="1638.7" transform="matrix(0.9933 -0.1157 0.1157 0.9933 -179.5577 198.2563)" class="Pattern_1_st0_confetti" width="6.2" height="15"/>
<polygon class="Pattern_1_st0_confetti" points="1622.1,1881.2 1624.1,1881.3 1623.5,1880.3 "/>
<rect x="1558.7" y="1869.1" transform="matrix(0.7042 -0.71 0.71 0.7042 -863.7824 1667.8217)" class="Pattern_1_st0_confetti" width="22.4" height="3.1"/>
<rect x="1576.4" y="1625" transform="matrix(0.5311 -0.8473 0.8473 0.5311 -636.6063 2105.968)" class="Pattern_1_st0_confetti" width="15.9" height="6.2"/>
<rect x="1594.4" y="1740.4" transform="matrix(0.6756 -0.7372 0.7372 0.6756 -768.5355 1743.9094)" class="Pattern_1_st0_confetti" width="6.2" height="9.9"/>
<rect x="1765.1" y="1628.4" transform="matrix(0.5441 -0.839 0.839 0.5441 -565.5834 2228.9722)" class="Pattern_1_st0_confetti" width="6.2" height="13"/>
<rect x="1706.5" y="1709.4" transform="matrix(0.7042 -0.71 0.71 0.7042 -706.6597 1725.5348)" class="Pattern_1_st0_confetti" width="22.4" height="3.1"/>
<rect x="1781.3" y="1801.8" transform="matrix(0.8493 -0.5279 0.5279 0.8493 -685.7435 1214.4827)" class="Pattern_1_st0_confetti" width="6.2" height="13.2"/>
<rect x="1776.2" y="1719" transform="matrix(0.8209 -0.5711 0.5711 0.8209 -671.0607 1325.6268)" class="Pattern_1_st0_confetti" width="3.1" height="27.1"/>
<rect x="1739.2" y="1736.1" transform="matrix(0.996 -8.986176e-02 8.986176e-02 0.996 -149.6513 163.622)" class="Pattern_1_st0_confetti" width="6.2" height="15.4"/>
<rect x="1678" y="1703.5" transform="matrix(4.145797e-02 -0.9991 0.9991 4.145797e-02 -93.1625 3313.0669)" class="Pattern_1_st0_confetti" width="4.2" height="3.1"/>
<rect x="1663.3" y="1622.6" transform="matrix(0.2788 -0.9603 0.9603 0.2788 -362.6143 2775.2219)" class="Pattern_1_st0_confetti" width="6.2" height="12.9"/>
<rect x="1558.3" y="1648.7" transform="matrix(0.9991 -4.357060e-02 4.357060e-02 0.9991 -70.4333 69.5333)" class="Pattern_1_st0_confetti" width="3.1" height="3.6"/>
<rect x="1672.5" y="1814.3" transform="matrix(0.2326 -0.9726 0.9726 0.2326 -477.1258 3030.178)" class="Pattern_1_st0_confetti" width="18.3" height="6.2"/>
<rect x="1368" y="1803.1" transform="matrix(0.902 -0.4318 0.4318 0.902 -646.9935 769.476)" class="Pattern_1_st0_confetti" width="6.2" height="13.2"/>
<rect x="1762.8" y="1659.7" transform="matrix(0.8501 -0.5265 0.5265 0.8501 -613.0862 1178.71)" class="Pattern_1_st0_confetti" width="3.1" height="13.6"/>
<rect x="1365.2" y="1659.6" transform="matrix(0.9026 -0.4304 0.4304 0.9026 -584.1487 750.4788)" class="Pattern_1_st0_confetti" width="3.1" height="13.6"/>
<rect x="1362.4" y="1838.5" transform="matrix(0.9665 -0.2567 0.2567 0.9665 -426.8315 412.9329)" class="Pattern_1_st0_confetti" width="12.2" height="6.2"/>
<rect x="1414.9" y="1668.8" transform="matrix(0.6325 -0.7745 0.7745 0.6325 -776.5054 1713.9967)" class="Pattern_1_st0_confetti" width="6.2" height="13"/>
<rect x="1309.6" y="1787.7" transform="matrix(2.412306e-02 -0.9997 0.9997 2.412306e-02 -507.1029 3062.1631)" class="Pattern_1_st0_confetti" width="10.7" height="6.2"/>
<rect x="1371.3" y="1720" transform="matrix(0.8783 -0.4781 0.4781 0.8783 -661.7784 867.3634)" class="Pattern_1_st0_confetti" width="3.1" height="27.1"/>
<rect x="1510.2" y="1678.8" transform="matrix(0.9665 -0.2567 0.2567 0.9665 -380.9983 445.7004)" class="Pattern_1_st0_confetti" width="12.2" height="6.2"/>
<polygon class="Pattern_1_st0_confetti" points="1481.9,1867.3 1479.8,1880.1 1486.2,1880.2 1488,1868.3 "/>
<rect x="1530.2" y="1863.3" transform="matrix(4.145797e-02 -0.9991 0.9991 4.145797e-02 -394.4566 3318.4697)" class="Pattern_1_st0_confetti" width="4.2" height="3.1"/>
<rect x="1475.2" y="1648.9" transform="matrix(0.9614 -0.275 0.275 0.9614 -398.535 470.4452)" class="Pattern_1_st0_confetti" width="6.2" height="14.9"/>
<rect x="1467.4" y="1798.4" transform="matrix(0.9933 -0.1156 0.1156 0.9933 -198.9697 182.169)" class="Pattern_1_st0_confetti" width="6.2" height="15"/>
<rect x="1463.3" y="1755.6" transform="matrix(0.2126 -0.9771 0.9771 0.2126 -565.5024 2816.6143)" class="Pattern_1_st0_confetti" width="3.1" height="7.1"/>
<rect x="1410.5" y="1808.4" transform="matrix(0.9991 -4.357074e-02 4.357074e-02 0.9991 -77.5334 63.2441)" class="Pattern_1_st0_confetti" width="3.1" height="3.6"/>
<rect x="2107.8" y="1864.4" transform="matrix(0.5311 -0.8473 0.8473 0.5311 -590.2967 2668.4702)" class="Pattern_1_st0_confetti" width="15.9" height="6.2"/>
<rect x="2116.3" y="1625.5" transform="matrix(0.3819 -0.9242 0.9242 0.3819 -198.2726 2967.3669)" class="Pattern_1_st0_confetti" width="6.2" height="12.9"/>
<rect x="2138.6" y="1843.3" transform="matrix(0.9991 -4.357074e-02 4.357074e-02 0.9991 -78.3622 95.002)" class="Pattern_1_st0_confetti" width="3.1" height="3.6"/>
<rect x="2122.6" y="1707.4" transform="matrix(0.1507 -0.9886 0.9886 0.1507 115.0068 3551.8823)" class="Pattern_1_st0_confetti" width="4.2" height="3.1"/>
<rect x="2168.1" y="1735.4" transform="matrix(0.7777 -0.6286 0.6286 0.7777 -607.4838 1756.1188)" class="Pattern_1_st0_confetti" width="22.4" height="3.1"/>
<rect x="2119.3" y="1768.6" transform="matrix(1.944235e-02 -0.9998 0.9998 1.944235e-02 314.3204 3863.9016)" class="Pattern_1_st0_confetti" width="15.4" height="6.2"/>
<rect x="2078.6" y="1842" transform="matrix(0.9933 -0.1157 0.1157 0.9933 -199.9714 253.2236)" class="Pattern_1_st0_confetti" width="6.2" height="15"/>
<rect x="2061.2" y="1777.3" transform="matrix(0.1566 -0.9877 0.9877 0.1566 -13.9007 3544.6633)" class="Pattern_1_st0_confetti" width="14.5" height="6.2"/>
<rect x="2068.2" y="1710.6" transform="matrix(0.2639 -0.9646 0.9646 0.2639 -125.2933 3263.363)" class="Pattern_1_st0_confetti" width="14.5" height="6.2"/>
<rect x="2211" y="1673.1" transform="matrix(0.9026 -0.4304 0.4304 0.9026 -507.6057 1115.9648)" class="Pattern_1_st0_confetti" width="3.1" height="13.6"/>
<rect x="2213.9" y="1816.5" transform="matrix(0.902 -0.4318 0.4318 0.902 -569.8773 1136.0388)" class="Pattern_1_st0_confetti" width="6.2" height="13.2"/>
<rect x="2066.6" y="1636.2" transform="matrix(1 -5.970044e-03 5.970044e-03 1 -9.7759 12.3857)" class="Pattern_1_st0_confetti" width="6.2" height="15"/>
<rect x="2216.8" y="1642.4" transform="matrix(0.6328 -0.7743 0.7743 0.6328 -461.6078 2324.4075)" class="Pattern_1_st0_confetti" width="6.2" height="13"/>
<rect x="2155.5" y="1801.1" transform="matrix(2.398038e-02 -0.9997 0.9997 2.398038e-02 305.2202 3921.1643)" class="Pattern_1_st0_confetti" width="10.7" height="6.2"/>
<rect x="2030" y="1618.9" transform="matrix(0.6206 -0.7841 0.7841 0.6206 -498.7141 2213.3157)" class="Pattern_1_st0_confetti" width="15.9" height="6.2"/>
<rect x="1861.5" y="1834.8" transform="matrix(0.2326 -0.9726 0.9726 0.2326 -352.1069 3229.6782)" class="Pattern_1_st0_confetti" width="18.3" height="6.2"/>
<rect x="2295.1" y="1840.1" transform="matrix(0.9933 -0.1152 0.1152 0.9933 -197.5274 277.0386)" class="Pattern_1_st0_confetti" width="6.2" height="15"/>
<rect x="1920.7" y="1749.5" transform="matrix(0.8209 -0.5711 0.5711 0.8209 -662.5625 1413.6183)" class="Pattern_1_st0_confetti" width="3.1" height="27.1"/>
<rect x="1820.4" y="1654.6" transform="matrix(0.2326 -0.9726 0.9726 0.2326 -208.3379 3051.3823)" class="Pattern_1_st0_confetti" width="18.3" height="6.2"/>
<rect x="1822.9" y="1844" transform="matrix(0.9256 -0.3785 0.3785 0.9256 -564.9121 828.8978)" class="Pattern_1_st0_confetti" width="6.2" height="14.9"/>
<rect x="1871" y="1636.9" transform="matrix(0.9256 -0.3785 0.3785 0.9256 -482.9398 831.7071)" class="Pattern_1_st0_confetti" width="6.2" height="14.9"/>
<rect x="1811.1" y="1699.7" transform="matrix(0.5819 -0.8133 0.8133 0.5819 -624.1007 2191.8108)" class="Pattern_1_st0_confetti" width="16.8" height="6.2"/>
<rect x="1912.6" y="1680.7" transform="matrix(0.8493 -0.5279 0.5279 0.8493 -602.0414 1265.5386)" class="Pattern_1_st0_confetti" width="6.2" height="13.2"/>
<rect x="1850.6" y="1767.4" transform="matrix(0.5819 -0.8133 0.8133 0.5819 -662.6202 2252.218)" class="Pattern_1_st0_confetti" width="16.8" height="6.2"/>
<rect x="2017.9" y="1789" transform="matrix(4.149189e-02 -0.9991 0.9991 4.149189e-02 147.1123 3734.5427)" class="Pattern_1_st0_confetti" width="4.2" height="3.1"/>
<rect x="2030.5" y="1860.2" transform="matrix(0.2787 -0.9604 0.9604 0.2787 -325.8863 3299.3623)" class="Pattern_1_st0_confetti" width="6.2" height="12.9"/>
<rect x="2009.3" y="1640.1" transform="matrix(6.594668e-02 -0.9978 0.9978 6.594668e-02 240.4779 3540.1401)" class="Pattern_1_st0_confetti" width="3.6" height="3.1"/>
<polygon class="Pattern_1_st0_confetti" points="1931.4,1878.3 1930.6,1883.7 1938.4,1883.8 1939,1879.4 "/>
<rect x="1980.9" y="1676.9" transform="matrix(0.1332 -0.9911 0.9911 0.1332 56.5971 3424.7278)" class="Pattern_1_st0_confetti" width="10.7" height="6.2"/>
<rect x="1956.8" y="1629.2" transform="matrix(0.9887 -0.1497 0.1497 0.9887 -222.2282 312.2043)" class="Pattern_1_st0_confetti" width="12.2" height="6.2"/>
<rect x="1945.7" y="1691.7" transform="matrix(0.1111 -0.9938 0.9938 0.1111 55.5632 3451.7468)" class="Pattern_1_st0_confetti" width="23.2" height="6.2"/>
<rect x="466.6" y="1545.5" transform="matrix(0.8994 -0.4372 0.4372 0.8994 -630.7105 360.5687)" class="Pattern_1_st0_confetti" width="2.6" height="9.7"/>
</svg>
