<svg xmlns="http://www.w3.org/2000/svg" width="315" height="38.091" viewBox="0 0 315 38.091">
  <path id="Path_1" data-name="Path 1" d="M328.474,38.605a6.119,6.119,0,0,0-1.389-1.746,10.4,10.4,0,0,0-1.928-1.334q-1.074-.58-2.149-1.079c-.629-.289-1.218-.575-1.779-.846a8.776,8.776,0,0,1-1.456-.861,4.244,4.244,0,0,1-.992-1.005,2.151,2.151,0,0,1-.367-1.243,2.532,2.532,0,0,1,.189-.972,2.243,2.243,0,0,1,.565-.813,2.751,2.751,0,0,1,.943-.551,3.81,3.81,0,0,1,1.3-.2s.064,0,.174,0c.058,0,.12,0,.184.014.125.015.222.025.285.039,0,0,.009,0,.014.01,1.223.217,3.286,1.19,3.855,5.141l.781-.041.919-4.893q-.653-.218-1.421-.406t-1.582-.32c-.546-.092-1.092-.165-1.638-.213s-1.07-.072-1.573-.072a16.318,16.318,0,0,0-3.5.348,8.49,8.49,0,0,0-2.711,1.059,5.157,5.157,0,0,0-1.762,1.794A5.045,5.045,0,0,0,312.805,33a4.83,4.83,0,0,0,.547,2.364,6.313,6.313,0,0,0,1.421,1.766,10.426,10.426,0,0,0,1.958,1.344q1.081.58,2.171,1.078c.619.281,1.2.557,1.747.827a10.286,10.286,0,0,1,1.439.856,4.216,4.216,0,0,1,.987.981,2.092,2.092,0,0,1,.367,1.214,3.289,3.289,0,0,1-.159,1.025,2.067,2.067,0,0,1-.546.856,2.837,2.837,0,0,1-1.045.595,5.056,5.056,0,0,1-1.658.232c-.111,0-.29,0-.527-.018a4.044,4.044,0,0,1-.546-.055.037.037,0,0,1-.014,0,4.585,4.585,0,0,1-4.187-5.682l-.865-.353L312.651,45.4a9.379,9.379,0,0,0,1.412.56c.566.174,1.181.334,1.838.469s1.34.242,2.045.32a17.789,17.789,0,0,0,2.05.12,15.781,15.781,0,0,0,3.516-.377,9.4,9.4,0,0,0,2.857-1.122,5.88,5.88,0,0,0,1.925-1.852A4.671,4.671,0,0,0,329,40.946a4.988,4.988,0,0,0-.526-2.34m-27.939,4.874a3.776,3.776,0,0,1-1.3.231,3.235,3.235,0,0,1-3-1.914,12.5,12.5,0,0,1-1.016-5.687,13.556,13.556,0,0,1,1.083-6.1,3.358,3.358,0,0,1,3.081-2.07,1.874,1.874,0,0,1,1.571.744,4.534,4.534,0,0,1,.765,2.181V33.6h0v9.2a4.006,4.006,0,0,1-1.189.671m9.45,1.555a8.325,8.325,0,0,1-1.309-4.512V34.735h-.006v-.2h.022V18.591l-.247-.2-8.379,1.8v.275a7.6,7.6,0,0,1,1.658,4.739V27.74a7.416,7.416,0,0,0-3.221-.682,11.511,11.511,0,0,0-4.362.793,9.471,9.471,0,0,0-3.312,2.2,9.671,9.671,0,0,0-2.1,3.376,12.93,12.93,0,0,0-.218,7.916,8.6,8.6,0,0,0,1.475,2.843,6.7,6.7,0,0,0,2.325,1.857,6.957,6.957,0,0,0,3.061.663,7.8,7.8,0,0,0,2.128-.276,8.517,8.517,0,0,0,1.78-.715,9.528,9.528,0,0,0,1.452-.977c.36-.3.693-.595.989-.884v2.434h8.893v-.271Zm-32.321-1.192q-.849,2.29-2.637,2.29t-2.628-2.29a20.932,20.932,0,0,1-.837-6.8,21.114,21.114,0,0,1,.829-6.789q.828-2.3,2.617-2.3t2.646,2.3a20.51,20.51,0,0,1,.857,6.789,20.756,20.756,0,0,1-.847,6.8m7.249-10.7a9.468,9.468,0,0,0-2.242-3.12,10.412,10.412,0,0,0-3.4-2.061,11.947,11.947,0,0,0-4.265-.745,11.737,11.737,0,0,0-4.228.745,10.467,10.467,0,0,0-3.38,2.061,9.574,9.574,0,0,0-2.25,3.12,9.321,9.321,0,0,0-.819,3.9,9.435,9.435,0,0,0,.811,3.92,9.317,9.317,0,0,0,2.24,3.109,10.52,10.52,0,0,0,3.38,2.052,11.8,11.8,0,0,0,4.246.745,11.943,11.943,0,0,0,4.265-.745,10.469,10.469,0,0,0,3.4-2.052,9.333,9.333,0,0,0,2.241-3.109,9.828,9.828,0,0,0,0-7.82m-31.524,10.7q-.848,2.29-2.636,2.29t-2.628-2.29a20.928,20.928,0,0,1-.838-6.8,21.141,21.141,0,0,1,.829-6.789q.829-2.3,2.618-2.3t2.646,2.3a20.511,20.511,0,0,1,.857,6.789,20.726,20.726,0,0,1-.848,6.8m7.249-10.7a9.452,9.452,0,0,0-2.241-3.12,10.416,10.416,0,0,0-3.4-2.061,11.939,11.939,0,0,0-4.265-.745,11.735,11.735,0,0,0-4.227.745,10.466,10.466,0,0,0-3.38,2.061,9.591,9.591,0,0,0-2.251,3.12,9.335,9.335,0,0,0-.818,3.9,9.479,9.479,0,0,0,.809,3.92,9.333,9.333,0,0,0,2.241,3.109,10.54,10.54,0,0,0,3.38,2.052,11.8,11.8,0,0,0,4.247.745A11.947,11.947,0,0,0,255,46.124a10.485,10.485,0,0,0,3.4-2.052,9.336,9.336,0,0,0,2.242-3.109,9.845,9.845,0,0,0,0-7.82m-31.685,5.537a2.447,2.447,0,0,1-4.3-.009,9.833,9.833,0,0,1-.667-4.237,10.26,10.26,0,0,1,.658-4.346,2.252,2.252,0,0,1,2.165-1.276,2.229,2.229,0,0,1,2.146,1.326,10.442,10.442,0,0,1,.657,4.336A9.829,9.829,0,0,1,228.953,38.679Zm-8.8,12.18a2.5,2.5,0,0,1,.116-.378,7.377,7.377,0,0,0,1.064.279,5.661,5.661,0,0,0,1.024.1,15.188,15.188,0,0,0,4.127-.7,15.325,15.325,0,0,1,3.084-.7,2.555,2.555,0,0,1,1.731.559,1.853,1.853,0,0,1,.649,1.475,2.759,2.759,0,0,1-1.548,2.422,7.957,7.957,0,0,1-4.117.926,8.305,8.305,0,0,1-4.407-1.076,3.048,3.048,0,0,1-1.76-2.552A1.646,1.646,0,0,1,220.157,50.859Zm19.075-26.868a3.346,3.346,0,0,0-.792-1.1,3.672,3.672,0,0,0-1.215-.736,4.272,4.272,0,0,0-1.534-.267,4.492,4.492,0,0,0-1.052.12c-3.333.63-5.223,5.6-5.223,5.6-.4-.08-.782-.139-1.15-.179a9.97,9.97,0,0,0-1.073-.06,11.092,11.092,0,0,0-6.92,2.024,6.293,6.293,0,0,0-2.648,5.233,5.979,5.979,0,0,0,2.764,5.143,6.327,6.327,0,0,0-2.958,2.1,5.41,5.41,0,0,0-1.005,3.3,5.592,5.592,0,0,0,.552,2.512,4.882,4.882,0,0,0,1.594,1.854,3.407,3.407,0,0,0-.967,1.136,3.067,3.067,0,0,0-.309,1.4,3.587,3.587,0,0,0,2.358,3.23,14.818,14.818,0,0,0,6.514,1.176,13.366,13.366,0,0,0,8.1-2.223,6.97,6.97,0,0,0,3.016-5.89,6.228,6.228,0,0,0-1.808-4.636,6.413,6.413,0,0,0-4.707-1.784,9.906,9.906,0,0,0-2.281.279,23.106,23.106,0,0,0-3.074,1.036l-.212.08a10.58,10.58,0,0,1-3.228.938,2.326,2.326,0,0,1-1.556-.5,1.615,1.615,0,0,1-.59-1.3,1.562,1.562,0,0,1,.531-1.176,2.773,2.773,0,0,1,1.459-.657,15.2,15.2,0,0,0,2.311.637,12.23,12.23,0,0,0,2.309.219,11.324,11.324,0,0,0,6.921-1.952,6.054,6.054,0,0,0,2.628-5.084,6.18,6.18,0,0,0-1.372-4,8.627,8.627,0,0,0-3.983-2.622,1.1,1.1,0,0,1,.369-.389.94.94,0,0,1,.5-.129,3.935,3.935,0,0,1,1.566.668,6.4,6.4,0,0,0,.765.388c.113.054.218.117.339.162a4.29,4.29,0,0,0,1.516.257,4.446,4.446,0,0,0,1.534-.257,3.713,3.713,0,0,0,1.215-.709,3.14,3.14,0,0,0,.792-1.086,3.419,3.419,0,0,0,.282-1.407A3.243,3.243,0,0,0,239.232,23.991ZM191.8,46.741a2.307,2.307,0,0,1,.1.22Zm6.1-18.806a6.462,6.462,0,0,1,.488,6.036l-2.522,5.851-2.323-5.874a6.843,6.843,0,0,1,.478-6.012V27.7H182.555v.24l.97,1.368a19.235,19.235,0,0,1,1.823,3.178L191.9,46.961a2.424,2.424,0,0,1,.13,1.453,2.994,2.994,0,0,1-.078.293,1.691,1.691,0,0,1-1.259,1.017,1.818,1.818,0,0,1-.715.063,5.647,5.647,0,0,1-1.2-.321c-.044-.016-.1-.034-.173-.061a3.8,3.8,0,0,0-2.263-.291,2.092,2.092,0,0,0-1.268.987,1.909,1.909,0,0,0-.159,1.549,2.271,2.271,0,0,0,1.41,1.5,3.643,3.643,0,0,0,2.457.014,5.4,5.4,0,0,0,3.173-2.7,11.407,11.407,0,0,0,.891-2.123l.437-1.217,5.828-12.972a26.5,26.5,0,0,1,3.785-6.072l.122-.147V27.7H197.9Zm-23.7,13.153a10.173,10.173,0,0,1-.687,2.6,4.362,4.362,0,0,1-1.205,1.684,2.69,2.69,0,0,1-1.751.6,2.94,2.94,0,0,1-2.636-1.564V30.5a3.842,3.842,0,0,1,1.035-.561,3.529,3.529,0,0,1,4.378,1.9,13.1,13.1,0,0,1,1.084,5.907,23.756,23.756,0,0,1-.218,3.34m6.8-8.8a8.544,8.544,0,0,0-1.7-2.88,7.1,7.1,0,0,0-2.467-1.757,7.4,7.4,0,0,0-2.928-.6,7.066,7.066,0,0,0-1.892.248,9.14,9.14,0,0,0-1.666.636,8.93,8.93,0,0,0-1.394.854,9.31,9.31,0,0,0-1.035.892v-11.1l-.227-.2-8.7,1.8v.239a8.01,8.01,0,0,1,1.977,5.268V46.268h.46a6.35,6.35,0,0,1,1.694-1.108.24.24,0,0,0,.022.011,13.244,13.244,0,0,0,2.439.939,15.575,15.575,0,0,0,2.448.469,21.313,21.313,0,0,0,2.241.129,13.921,13.921,0,0,0,4.8-.773,10.249,10.249,0,0,0,3.568-2.153,9.117,9.117,0,0,0,2.221-3.293,11.266,11.266,0,0,0,.763-4.214,11.557,11.557,0,0,0-.631-3.984m-33.947,10.7a1.307,1.307,0,0,1-1.137-.683,3.373,3.373,0,0,1-.434-1.829,6.761,6.761,0,0,1,.8-3.4,4.722,4.722,0,0,1,2.335-2.037v3.429a12.433,12.433,0,0,1-.334,3.775,1.23,1.23,0,0,1-1.233.748m9.323,2.155a8.756,8.756,0,0,1-1.229-4.514V34.843h0v-.469a11.517,11.517,0,0,0-.339-3.25,4.521,4.521,0,0,0-1.161-1.885,6.508,6.508,0,0,0-2.582-1.509,11.191,11.191,0,0,0-3.515-.52,9.35,9.35,0,0,0-5.657,1.605,4.843,4.843,0,0,0-2.2,4.045,2.571,2.571,0,0,0,.633,1.823,2.136,2.136,0,0,0,1.669.693,2.292,2.292,0,0,0,1.832-.8,3.112,3.112,0,0,0,.692-2.111c0-.106-.015-.361-.039-.763s-.034-.749-.034-1.045a1.866,1.866,0,0,1,.595-1.412,2.09,2.09,0,0,1,1.5-.565,1.678,1.678,0,0,1,1.591.871,6.244,6.244,0,0,1,.488,2.878v1.279q-6.136,2.492-8.124,4.2a5.2,5.2,0,0,0-1.983,4.035,4.242,4.242,0,0,0,1.306,3.2,4.711,4.711,0,0,0,3.4,1.248,6.342,6.342,0,0,0,3.008-.763,7.917,7.917,0,0,0,1.518-1.081,9.421,9.421,0,0,0,.875-.876V46.4h8.351v-.269Zm-27.348-4.057a10.172,10.172,0,0,1-.687,2.6,4.36,4.36,0,0,1-1.2,1.684,2.69,2.69,0,0,1-1.751.6,2.943,2.943,0,0,1-2.637-1.564V30.5a3.861,3.861,0,0,1,1.036-.561,3.529,3.529,0,0,1,4.378,1.9,13.11,13.11,0,0,1,1.083,5.907,23.768,23.768,0,0,1-.217,3.34m6.8-8.8a8.542,8.542,0,0,0-1.694-2.88,7.1,7.1,0,0,0-2.467-1.757,7.4,7.4,0,0,0-2.927-.6,7.062,7.062,0,0,0-1.893.248,9.175,9.175,0,0,0-1.667.636,8.964,8.964,0,0,0-1.393.854,9.414,9.414,0,0,0-1.036.892v-11.1l-.226-.2-8.7,1.8v.239a8.01,8.01,0,0,1,1.977,5.268V46.268h.46a6.35,6.35,0,0,1,1.694-1.108.239.239,0,0,0,.022.011,13.243,13.243,0,0,0,2.439.939,15.575,15.575,0,0,0,2.448.469,21.314,21.314,0,0,0,2.241.129,13.908,13.908,0,0,0,4.8-.773,10.232,10.232,0,0,0,3.568-2.153A9.108,9.108,0,0,0,135.7,40.49a11.266,11.266,0,0,0,.763-4.214,11.557,11.557,0,0,0-.632-3.984M99.1,45.811a11.626,11.626,0,0,1-1.755-6.217V32.517a4.979,4.979,0,0,0-.461-2.153,5.154,5.154,0,0,0-1.253-1.674A5.7,5.7,0,0,0,93.77,27.6a6.782,6.782,0,0,0-2.316-.387,8.557,8.557,0,0,0-2.043.239,9.524,9.524,0,0,0-1.817.644,9.637,9.637,0,0,0-1.582.948,11.384,11.384,0,0,0-1.337,1.15V18.771l-.227-.2-8.4,1.8v.258a7.6,7.6,0,0,1,1.658,4.738V39.923a10.825,10.825,0,0,1-1.959,6.211v.294H86.483v-.294a11.518,11.518,0,0,1-1.807-6.195V31.155a3.791,3.791,0,0,1,1.346-.9,4.49,4.49,0,0,1,1.685-.313,2.549,2.549,0,0,1,2.024.763,2.975,2.975,0,0,1,.669,2.033v7.269a11.287,11.287,0,0,1-1.807,6.127v.295H99.326v-.295Zm-35.3-2.822a1.307,1.307,0,0,1-1.136-.683,3.364,3.364,0,0,1-.435-1.829,6.761,6.761,0,0,1,.8-3.4,4.722,4.722,0,0,1,2.336-2.037v3.429a12.466,12.466,0,0,1-.334,3.775,1.231,1.231,0,0,1-1.234.748m9.323,2.155A8.764,8.764,0,0,1,71.9,40.631V34.843h0v-.469a11.517,11.517,0,0,0-.339-3.25A4.541,4.541,0,0,0,70.4,29.239a6.514,6.514,0,0,0-2.582-1.509,11.2,11.2,0,0,0-3.515-.52,9.351,9.351,0,0,0-5.658,1.605,4.845,4.845,0,0,0-2.2,4.045,2.567,2.567,0,0,0,.633,1.823,2.134,2.134,0,0,0,1.668.693,2.294,2.294,0,0,0,1.833-.8,3.116,3.116,0,0,0,.691-2.111c0-.106-.014-.361-.039-.763s-.033-.749-.033-1.045a1.866,1.866,0,0,1,.595-1.412,2.087,2.087,0,0,1,1.5-.565,1.678,1.678,0,0,1,1.591.871,6.256,6.256,0,0,1,.488,2.878v1.279q-6.137,2.492-8.124,4.2a5.2,5.2,0,0,0-1.983,4.035,4.242,4.242,0,0,0,1.306,3.2,4.709,4.709,0,0,0,3.4,1.248,6.338,6.338,0,0,0,3.007-.763A7.923,7.923,0,0,0,64.5,44.557a9.422,9.422,0,0,0,.875-.876V46.4h8.35v-.269ZM41.144,32.288a11.549,11.549,0,0,1,.49-2.265,3.616,3.616,0,0,1,.829-1.425,1.752,1.752,0,0,1,2.3-.13,2.574,2.574,0,0,1,.734,1.178,9.408,9.408,0,0,1,.414,2.107c.033.321.06.669.081,1.042a2.175,2.175,0,0,1-2.017,2.281l-3.015.218a26.362,26.362,0,0,1,.187-3.006M51.163,42.324a7.123,7.123,0,0,1-1.111.5,9.07,9.07,0,0,1-1.356.359,8.58,8.58,0,0,1-1.582.137,6.432,6.432,0,0,1-2.486-.46,5.031,5.031,0,0,1-1.9-1.371,6.757,6.757,0,0,1-1.252-2.236,10.728,10.728,0,0,1-.537-3.072,1.441,1.441,0,0,1,.019-.277H52.839a9.566,9.566,0,0,0-.594-3.385,7.99,7.99,0,0,0-1.723-2.76A8.082,8.082,0,0,0,47.753,27.9a9.635,9.635,0,0,0-3.728-.681,11.087,11.087,0,0,0-4.133.745,9.419,9.419,0,0,0-3.211,2.079,9.232,9.232,0,0,0-2.071,3.2,11.078,11.078,0,0,0-.735,4.094,10.633,10.633,0,0,0,.669,3.828,8.517,8.517,0,0,0,4.915,5,10.49,10.49,0,0,0,3.946.709,12.248,12.248,0,0,0,2.965-.332,9.436,9.436,0,0,0,2.421-.957,8.838,8.838,0,0,0,1.958-1.518,12.48,12.48,0,0,0,1.582-2.015l-.3-.257Q51.652,42.049,51.163,42.324ZM23.248,46.741s.046.086.1.22Zm6.1-18.806a6.462,6.462,0,0,1,.488,6.036l-2.522,5.851-2.324-5.874a6.846,6.846,0,0,1,.479-6.012V27.7H14v.24l.97,1.368a19.163,19.163,0,0,1,1.823,3.178l6.555,14.479a2.431,2.431,0,0,1,.131,1.453c-.023.1-.049.2-.079.293a1.689,1.689,0,0,1-1.259,1.017,1.817,1.817,0,0,1-.715.063,5.647,5.647,0,0,1-1.2-.321c-.043-.016-.1-.034-.174-.061a3.789,3.789,0,0,0-2.262-.291,2.091,2.091,0,0,0-1.269.987,1.909,1.909,0,0,0-.159,1.549,2.271,2.271,0,0,0,1.41,1.5,3.643,3.643,0,0,0,2.457.014,5.407,5.407,0,0,0,3.174-2.7,11.409,11.409,0,0,0,.89-2.123h0l.436-1.217L30.56,34.155a26.509,26.509,0,0,1,3.787-6.072l.121-.147V27.7H29.347Z" transform="translate(-14 -18.391)" fill="#da8450"/>
</svg>
