
<!-- Generator: Adobe Illustrator 26.4.1, SVG Export Plug-In . SVG Version: 6.00 Build 0)  -->
<svg version="1.1" id="Pattern_4" xmlns="http://www.w3.org/2000/svg" xmlns:xlink="http://www.w3.org/1999/xlink" x="0px" y="0px"
	 viewBox="0 0 3200 3200" style="enable-background:new 0 0 3200 3200;" xml:space="preserve">
<style type="text/css">
	.st0{fill:#b55a30;}
</style>
<polygon class="st0" points="773.5,1766.1 775.9,1766.9 778.4,1761.6 776,1760.7 "/>
<polygon class="st0" points="875.6,1799.9 871.7,1804.3 876.1,1808 880,1803.6 "/>
<polygon class="st0" points="645.6,1715 645.7,1713.1 642.7,1713 642.6,1714.9 "/>
<polygon class="st0" points="577.3,1478.8 577.1,1480.2 579.4,1479.4 579.6,1478.1 "/>
<polygon class="st0" points="1343.6,1778.8 1348.9,1776.3 1345.8,1771.2 1340.5,1773.7 "/>
<polygon class="st0" points="1440.9,1836.5 1443.6,1838.7 1448.4,1835.2 1445.6,1833 "/>
<polygon class="st0" points="2114.7,1914.9 2117.5,1917.1 2122.3,1913.7 2119.5,1911.5 "/>
<polygon class="st0" points="1426.4,1656.1 1429.7,1658.3 1434.1,1654.4 1430.7,1652.2 "/>
<polygon class="st0" points="1035.6,1822.6 1037,1819 1031.4,1817.1 1030,1820.7 "/>
<polygon class="st0" points="1060.2,1641.2 1054.6,1643.1 1055.4,1645.4 1061,1643.6 "/>
<rect x="1191.4" y="1714.8" transform="matrix(0.5499 -0.8352 0.8352 0.5499 -896.3461 1769.0713)" class="st0" width="3.8" height="2.9"/>
<rect x="627.4" y="1521.2" transform="matrix(1 -6.426068e-03 6.426068e-03 1 -9.7985 4.0799)" class="st0" width="5.2" height="11.2"/>
<polygon class="st0" points="663.7,1359.2 665.8,1357.2 664,1355.5 661.9,1357.6 "/>
<polygon class="st0" points="339.7,1766.3 334.3,1768.8 336,1772.2 341.4,1769.7 "/>
<polygon class="st0" points="638.3,1906.8 633.7,1905.6 629.3,1909.7 634.8,1910.1 "/>
<rect x="552.4" y="1648.3" transform="matrix(0.5333 -0.8459 0.8459 0.5333 -1134.6996 1243.0084)" class="st0" width="13.4" height="2.9"/>
<polygon class="st0" points="608.9,1366.4 608.7,1369 612.6,1370.2 612.9,1367.5 "/>
<polygon class="st0" points="485.2,1443.5 484.3,1445.6 488.5,1448.2 489.4,1446 "/>
<polygon class="st0" points="436.9,1737.5 441.9,1736.1 440.5,1733.4 435.5,1734.7 "/>
<polygon class="st0" points="659.9,1457.6 658.1,1454.5 654.1,1457.5 656,1460.6 "/>
<polygon class="st0" points="478.1,1819.3 476.5,1817.2 470.9,1819.1 472.5,1821.2 "/>
<polygon class="st0" points="2908.4,1931.8 2912.2,1926.5 2909.2,1924.8 2905.5,1930.1 "/>
<polygon class="st0" points="2544.4,1617.5 2539.1,1613.2 2537.4,1616.5 2542.6,1620.8 "/>
<polygon class="st0" points="2721.4,1908.8 2719.3,1901.6 2712.6,1902.9 2714.7,1910.1 "/>
<polygon class="st0" points="2395.7,1912.8 2393.5,1910.1 2390.2,1912.8 2392.4,1915.4 "/>
<polygon class="st0" points="2596.5,1670.1 2600.6,1672.9 2604.5,1668.5 2600.4,1665.7 "/>
<rect x="2693" y="1417.5" transform="matrix(0.9988 -4.874483e-02 4.874483e-02 0.9988 -65.9948 133.0167)" class="st0" width="2.5" height="4.1"/>
<polygon class="st0" points="2660.5,1327 2663.6,1329.7 2666.7,1326 2663.7,1323.3 "/>
<path class="st0" d="M2342.7,1611.4l1.3-3.8c-2,0-3.9,0-5.9,0l-1.3,3.5L2342.7,1611.4z"/>
<polygon class="st0" points="2571.6,1584.3 2567.7,1588.7 2572.9,1593.1 2576.8,1588.7 "/>
<rect x="2491" y="1341.2" transform="matrix(0.2383 -0.9712 0.9712 0.2383 596.0475 3446.4402)" class="st0" width="8.5" height="4.1"/>
<polygon class="st0" points="1769.9,1745.4 1775.8,1745.1 1776,1743.6 1770.1,1743.9 "/>
<polygon class="st0" points="1586.4,1626.6 1584.4,1623.9 1581.8,1625.3 1583.8,1628 "/>
<rect x="1579.5" y="1758.2" transform="matrix(0.899 -0.438 0.438 0.899 -611.5201 870.4105)" class="st0" width="2.9" height="5.2"/>
<polygon class="st0" points="2352,1725 2353.6,1727.7 2359.3,1726.2 2357.7,1723.5 "/>
<polygon class="st0" points="2471.8,1736.8 2473.9,1734.3 2468.4,1732.3 2466.2,1734.9 "/>
<polygon class="st0" points="2427.3,1852.5 2432.7,1850 2432.4,1847.6 2427.1,1850.1 "/>
<polygon class="st0" points="1728.6,1942.5 1734,1940 1733.7,1937.6 1728.4,1940.1 "/>
<polygon class="st0" points="2237.5,1845 2239.7,1847.8 2244.5,1844.3 2242.2,1841.5 "/>
<polygon class="st0" points="2000.8,1647.9 1997.9,1653.1 2001,1655 2003.8,1649.8 "/>
<polygon class="st0" points="2140.2,1787.3 2145.5,1784.8 2143.3,1782 2137.9,1784.5 "/>
</svg>
