
<!-- Generator: Adobe Illustrator 26.4.1, SVG Export Plug-In . SVG Version: 6.00 Build 0)  -->
<svg version="1.1" id="Pattern_1" xmlns="http://www.w3.org/2000/svg" xmlns:xlink="http://www.w3.org/1999/xlink" x="0px" y="0px"
	 viewBox="0 0 3200 3200" style="enable-background:new 0 0 3200 3200;" xml:space="preserve">
<style type="text/css">
	.Pattern_1_st0_speckle{fill:#af6d04;}
</style>
<rect x="773.7" y="1744.9" transform="matrix(0.2075 -0.9782 0.9782 0.2075 -1095.851 2143.7625)" class="Pattern_1_st0_speckle" width="2.9" height="6.7"/>
<polygon class="Pattern_1_st0_speckle" points="826.8,1653.3 821.2,1655 822.1,1658.6 827.7,1656.9 "/>
<polygon class="Pattern_1_st0_speckle" points="826.3,1857.1 825.5,1861.8 831.5,1861.8 832.1,1858 "/>
<rect x="759.9" y="1794.6" transform="matrix(0.9988 -4.874483e-02 4.874483e-02 0.9988 -86.6549 39.2473)" class="Pattern_1_st0_speckle" width="2.9" height="3.4"/>
<rect x="752.6" y="1641.2" transform="matrix(0.125 -0.9922 0.9922 0.125 -966.6766 2189.209)" class="Pattern_1_st0_speckle" width="10.5" height="2.9"/>
<polygon class="Pattern_1_st0_speckle" points="719.7,1795.2 725,1792.6 722.8,1789.1 717.5,1791.6 "/>
<rect x="932.7" y="1729.6" transform="matrix(0.6718 -0.7407 0.7407 0.6718 -977.519 1262.2714)" class="Pattern_1_st0_speckle" width="5.9" height="9.3"/>
<polygon class="Pattern_1_st0_speckle" points="903.9,1861 906.8,1857.8 904.7,1855.8 901.8,1858.9 "/>
<polygon class="Pattern_1_st0_speckle" points="852.6,1673.6 854.1,1679.3 857.7,1678.1 856.2,1672.5 "/>
<polygon class="Pattern_1_st0_speckle" points="958.5,1643.7 952.7,1644.5 952.7,1648.1 958.6,1647.4 "/>
<rect x="858.6" y="1828.7" transform="matrix(3.628228e-02 -0.9993 0.9993 3.628228e-02 -999.5843 2623.8306)" class="Pattern_1_st0_speckle" width="4" height="2.9"/>
<polygon class="Pattern_1_st0_speckle" points="713.9,1655.9 716.5,1659.2 719.2,1658 716.5,1654.7 "/>
<rect x="526.4" y="1624.6" transform="matrix(6.077724e-02 -0.9982 0.9982 6.077724e-02 -1127.0458 2054.3057)" class="Pattern_1_st0_speckle" width="3.4" height="2.9"/>
<polygon class="Pattern_1_st0_speckle" points="605.4,1504.3 610.4,1504.1 609.9,1501.7 605,1501.9 "/>
<polygon class="Pattern_1_st0_speckle" points="552.6,1499.1 554.6,1499.6 556.1,1496.5 554.1,1496 "/>
<polygon class="Pattern_1_st0_speckle" points="580.4,1634.8 586.3,1634.7 586.4,1632.5 580.5,1632.5 "/>
<polygon class="Pattern_1_st0_speckle" points="722.9,1608.6 721.3,1608 719.9,1613.7 721.4,1614.3 "/>
<polygon class="Pattern_1_st0_speckle" points="686.6,1637.5 690.3,1632.9 686.5,1632 682.9,1636.6 "/>
<polygon class="Pattern_1_st0_speckle" points="501.1,1449.1 502.9,1449.8 506.9,1446.9 505.1,1446.1 "/>
<polygon class="Pattern_1_st0_speckle" points="505.4,1487.5 508.7,1489.2 511.9,1485.4 508.6,1483.7 "/>
<rect x="545.6" y="1576.4" transform="matrix(0.3129 -0.9498 0.9498 0.3129 -1124.5458 1604.9911)" class="Pattern_1_st0_speckle" width="2.9" height="6.7"/>
<polygon class="Pattern_1_st0_speckle" points="534.1,1493.4 531.8,1492.5 531,1494.4 533.3,1495.3 "/>
<polygon class="Pattern_1_st0_speckle" points="1279,1771.8 1282.3,1768.6 1280.2,1766.5 1276.9,1769.7 "/>
<polygon class="Pattern_1_st0_speckle" points="1292.1,1659.9 1286.2,1659.2 1286.3,1660.9 1292.2,1661.7 "/>
<polygon class="Pattern_1_st0_speckle" points="1261.8,1651.4 1262.7,1657.2 1267.3,1656.1 1266.4,1650.3 "/>
<rect x="1310.1" y="1626.8" transform="matrix(6.077724e-02 -0.9982 0.9982 6.077724e-02 -393.1749 2838.7039)" class="Pattern_1_st0_speckle" width="3.4" height="2.9"/>
<polygon class="Pattern_1_st0_speckle" points="1230.5,1749.2 1234.9,1754.4 1237.3,1752.7 1232.9,1747.5 "/>
<polygon class="Pattern_1_st0_speckle" points="1234.7,1829.3 1231.5,1834.2 1234.3,1835.7 1237.4,1830.8 "/>
<polygon class="Pattern_1_st0_speckle" points="1223.5,1676.7 1226.1,1680.2 1231.1,1677.1 1228.5,1673.5 "/>
<polygon class="Pattern_1_st0_speckle" points="1237.1,1857.4 1239.4,1858.1 1240.2,1852.3 1237.9,1851.6 "/>
<rect x="1240.3" y="1798.9" transform="matrix(0.8474 -0.531 0.531 0.8474 -769.1033 934.9583)" class="Pattern_1_st0_speckle" width="2.9" height="12.8"/>
<polygon class="Pattern_1_st0_speckle" points="949.3,1805.7 951.8,1808.2 954.3,1806.7 951.8,1804.1 "/>
<rect x="1417.1" y="1689.7" transform="matrix(0.1456 -0.9893 0.9893 0.1456 -460.6877 2848.9177)" class="Pattern_1_st0_speckle" width="4" height="2.9"/>
<polygon class="Pattern_1_st0_speckle" points="1371.1,1692.4 1376.8,1694 1377.3,1690.1 1371.6,1688.6 "/>
<polygon class="Pattern_1_st0_speckle" points="1405,1845.3 1410,1848.4 1411.8,1845.3 1406.8,1842.2 "/>
<polygon class="Pattern_1_st0_speckle" points="1416.6,1616.9 1414.4,1622.3 1418.2,1623.6 1420.4,1618.2 "/>
<polygon class="Pattern_1_st0_speckle" points="1309.3,1708.7 1315.2,1708.2 1314.1,1702.6 1308.3,1703.2 "/>
<polygon class="Pattern_1_st0_speckle" points="1364.6,1751.6 1363.9,1754.2 1369.7,1755.1 1370.4,1752.5 "/>
<polygon class="Pattern_1_st0_speckle" points="1179.3,1808.9 1185,1810.2 1185.2,1806.2 1179.5,1804.8 "/>
<polygon class="Pattern_1_st0_speckle" points="1364.5,1634.2 1364.1,1637 1370,1637 1370.4,1634.1 "/>
<polygon class="Pattern_1_st0_speckle" points="1377.2,1831.1 1383.1,1830.4 1382.8,1827.5 1377,1828.2 "/>
<polygon class="Pattern_1_st0_speckle" points="1329.1,1835.6 1327.5,1841.2 1329.5,1842.2 1331.1,1836.5 "/>
<polygon class="Pattern_1_st0_speckle" points="1098.5,1745.2 1092.6,1744.6 1093,1750.1 1098.8,1750.7 "/>
<polygon class="Pattern_1_st0_speckle" points="1088.6,1672.8 1091.8,1667.8 1089.2,1664.9 1086,1669.8 "/>
<polygon class="Pattern_1_st0_speckle" points="1051.8,1783.5 1053.6,1786.8 1059.1,1784.5 1057.2,1781.3 "/>
<polygon class="Pattern_1_st0_speckle" points="1052.6,1698.9 1057.2,1694.8 1055.1,1692.7 1050.5,1696.8 "/>
<polygon class="Pattern_1_st0_speckle" points="1024.5,1746.8 1018.6,1747.4 1019.3,1753.9 1025.1,1753.4 "/>
<polygon class="Pattern_1_st0_speckle" points="1010.4,1809.4 1016.2,1810.8 1018.1,1805.2 1012.3,1803.8 "/>
<polygon class="Pattern_1_st0_speckle" points="895,1826.4 900.8,1827.7 902.7,1822.1 896.9,1820.8 "/>
<rect x="1011.3" y="1694.5" transform="matrix(3.664070e-02 -0.9993 0.9993 3.664070e-02 -718.6822 2646.375)" class="Pattern_1_st0_speckle" width="4" height="2.9"/>
<polygon class="Pattern_1_st0_speckle" points="1156.6,1692.6 1157.4,1688.9 1152.6,1685.5 1151.8,1689.2 "/>
<polygon class="Pattern_1_st0_speckle" points="1158.5,1642.9 1152.8,1641.6 1152.8,1645.5 1158.5,1646.8 "/>
<polygon class="Pattern_1_st0_speckle" points="1097,1607.1 1094.8,1606.7 1094,1612.5 1096.2,1612.9 "/>
<rect x="1198.8" y="1826.4" transform="matrix(1.565322e-02 -0.9999 0.9999 1.565322e-02 -642.453 3003.2239)" class="Pattern_1_st0_speckle" width="10.5" height="2.9"/>
<polygon class="Pattern_1_st0_speckle" points="1184.2,1748.5 1182.4,1751.5 1187.2,1754.9 1189,1751.9 "/>
<polygon class="Pattern_1_st0_speckle" points="1106.2,1789 1107.1,1792.9 1112,1789.8 1111.2,1785.9 "/>
<polygon class="Pattern_1_st0_speckle" points="1065.5,1724.2 1067.7,1727 1070.1,1725.3 1067.9,1722.5 "/>
<polygon class="Pattern_1_st0_speckle" points="1138.4,1834.3 1143.9,1832 1140.6,1828.3 1135.1,1830.6 "/>
<polygon class="Pattern_1_st0_speckle" points="439.2,1676.3 444.2,1673.2 442.7,1671.2 437.8,1674.4 "/>
<polygon class="Pattern_1_st0_speckle" points="457,1512.3 459.6,1513.8 461.8,1509.2 459.1,1507.6 "/>
<polygon class="Pattern_1_st0_speckle" points="619.9,1573.5 615.6,1570.7 613.3,1573.4 617.7,1576.2 "/>
<polygon class="Pattern_1_st0_speckle" points="663.2,1608.6 658.9,1605.8 656.6,1608.5 661,1611.2 "/>
<polygon class="Pattern_1_st0_speckle" points="471.5,1468.6 466.9,1471 468.2,1473.6 472.7,1471.2 "/>
<polygon class="Pattern_1_st0_speckle" points="254.7,1940 256.3,1937 251.3,1933.9 249.7,1936.9 "/>
<polygon class="Pattern_1_st0_speckle" points="520.1,1422.2 518.8,1425.1 521.2,1426 522.5,1423.1 "/>
<polygon class="Pattern_1_st0_speckle" points="309.6,1822.7 312.4,1822.5 310.9,1816.8 308.1,1817.1 "/>
<polygon class="Pattern_1_st0_speckle" points="403.1,1784.4 408.8,1785.7 409.7,1783.3 404,1782 "/>
<polygon class="Pattern_1_st0_speckle" points="685,1390.7 680.6,1388.3 678.7,1391.5 683.1,1393.9 "/>
<polygon class="Pattern_1_st0_speckle" points="412.2,1717.4 410.1,1719.8 413.5,1723.8 415.5,1721.3 "/>
<polygon class="Pattern_1_st0_speckle" points="640,1396.7 644.7,1399 646,1396.4 641.4,1394.2 "/>
<polygon class="Pattern_1_st0_speckle" points="354.7,1832.1 360.1,1829.8 357.9,1826.4 352.5,1828.6 "/>
<polygon class="Pattern_1_st0_speckle" points="409.8,1656.1 411.7,1657.5 414.6,1653.2 412.6,1651.8 "/>
<polygon class="Pattern_1_st0_speckle" points="464.8,1567.6 467.6,1565.9 466.4,1563.7 463.6,1565.4 "/>
<polygon class="Pattern_1_st0_speckle" points="426.5,1595.1 421.7,1593.7 420,1596.1 424.8,1597.5 "/>
<polygon class="Pattern_1_st0_speckle" points="2886.6,1859.5 2881.8,1863.8 2887.1,1867.6 2887.5,1867.6 2892.2,1863.4 "/>
<polygon class="Pattern_1_st0_speckle" points="680.3,1931.3 680.5,1928.7 677.6,1928.6 677.4,1931.2 "/>
<polygon class="Pattern_1_st0_speckle" points="2772.5,1859.4 2768.5,1864.8 2771.7,1867.2 2775.2,1867.2 2777.9,1863.5 "/>
<path class="Pattern_1_st0_speckle" d="M2672.3,1473.5l2.5,5.9c1.5-1.5,3-3.1,4.5-4.6l-1.5-3.6L2672.3,1473.5z"/>
<polygon class="Pattern_1_st0_speckle" points="318.5,1935.6 324.3,1934.9 324.3,1931.5 318.5,1932.2 "/>
<polygon class="Pattern_1_st0_speckle" points="616.3,1925.3 610.9,1927.5 613.3,1932.4 618.7,1930.1 "/>
<path class="Pattern_1_st0_speckle" d="M2496.9,1610l0.6-2.9l-1.7-0.4c-1.7,0-3.4,0-5,0l-0.4,1.8L2496.9,1610z"/>
<path class="Pattern_1_st0_speckle" d="M1341.5,1611.5l2.4-5.9l-0.1-0.1c-2.4,0-4.8,0-7.3,0l0.3,2.4L1341.5,1611.5z"/>
<rect x="545.5" y="1941.6" transform="matrix(3.628228e-02 -0.9993 0.9993 3.628228e-02 -1414.2275 2419.7212)" class="Pattern_1_st0_speckle" width="4" height="2.9"/>
<rect x="585.3" y="1904.1" transform="matrix(3.628228e-02 -0.9993 0.9993 3.628228e-02 -1338.333 2423.3396)" class="Pattern_1_st0_speckle" width="4" height="2.9"/>
<rect x="488" y="1917.9" transform="matrix(3.628228e-02 -0.9993 0.9993 3.628228e-02 -1445.8922 2339.4038)" class="Pattern_1_st0_speckle" width="4" height="2.9"/>
<polygon class="Pattern_1_st0_speckle" points="812,1935.4 810.4,1941.1 814,1942.6 815.6,1937 "/>
<polygon class="Pattern_1_st0_speckle" points="388.4,1643.2 382.5,1643.8 383.1,1646.4 388.9,1645.9 "/>
<polygon class="Pattern_1_st0_speckle" points="453.2,1905.4 447.3,1905.9 447.9,1908.6 453.7,1908 "/>
<polygon class="Pattern_1_st0_speckle" points="555.3,1359.3 555.4,1362.8 560.6,1362.7 560.4,1359.2 "/>
<polygon class="Pattern_1_st0_speckle" points="721.2,1908 719.3,1905.3 716.8,1906.8 718.8,1909.6 "/>
<polygon class="Pattern_1_st0_speckle" points="530,1336.9 529.5,1338.6 533.5,1339.4 534,1337.8 "/>
<polygon class="Pattern_1_st0_speckle" points="649.3,1324.7 649.7,1327.1 653.4,1325.3 653,1322.9 "/>
<polygon class="Pattern_1_st0_speckle" points="644.6,1352.4 641.6,1355.3 642.9,1356.1 645.9,1353.2 "/>
<polygon class="Pattern_1_st0_speckle" points="655,1436.4 657.8,1437.6 659.3,1432.8 656.5,1431.6 "/>
<polygon class="Pattern_1_st0_speckle" points="671.4,1386.1 673.1,1387.2 674.5,1385.6 672.8,1384.5 "/>
<polygon class="Pattern_1_st0_speckle" points="628.6,1373 629.1,1374.9 631.1,1375 630.7,1373 "/>
<rect x="432.5" y="1710" transform="matrix(0.3018 -0.9534 0.9534 0.3018 -1328.4692 1608.6744)" class="Pattern_1_st0_speckle" width="3.1" height="2.6"/>
<polygon class="Pattern_1_st0_speckle" points="565.9,1461.1 567.1,1458.2 563.8,1455.7 562.6,1458.6 "/>
<rect x="580.3" y="1375.3" transform="matrix(0.5596 -0.8288 0.8288 0.5596 -884.3251 1088.51)" class="Pattern_1_st0_speckle" width="3.3" height="2"/>
<polygon class="Pattern_1_st0_speckle" points="634.3,1614.4 632.1,1619.8 634.5,1621.4 636.7,1615.9 "/>
<polygon class="Pattern_1_st0_speckle" points="580.8,1749.3 580.5,1752.8 586.3,1753.7 586.6,1750.2 "/>
<rect x="633.3" y="1687.5" transform="matrix(0.1453 -0.9894 0.9894 0.1453 -1128.0131 2072.1094)" class="Pattern_1_st0_speckle" width="4" height="2.9"/>
<polygon class="Pattern_1_st0_speckle" points="593.5,1828.8 599.3,1828.1 598.3,1825.6 592.4,1826.3 "/>
<polygon class="Pattern_1_st0_speckle" points="600.9,1888.5 606.8,1887.8 605.7,1885.2 599.9,1885.9 "/>
<polygon class="Pattern_1_st0_speckle" points="672.6,1783.5 672.9,1780.7 667,1780.6 666.7,1783.4 "/>
<polygon class="Pattern_1_st0_speckle" points="677.2,1690.3 675.1,1692.1 677,1694.4 679.1,1692.6 "/>
<rect x="649.1" y="1815.4" transform="matrix(0.9988 -4.874483e-02 4.874483e-02 0.9988 -87.7991 33.8724)" class="Pattern_1_st0_speckle" width="2.9" height="3.4"/>
<polygon class="Pattern_1_st0_speckle" points="457.4,1799.4 455.9,1796.9 453.4,1798.4 455,1801 "/>
<polygon class="Pattern_1_st0_speckle" points="475.2,1693.6 471.8,1693.3 471.8,1698.5 475.1,1698.7 "/>
<polygon class="Pattern_1_st0_speckle" points="610.2,1468.6 614.3,1468.6 614.3,1466.6 610.2,1466.6 "/>
<rect x="484.1" y="1581.2" transform="matrix(0.3774 -0.926 0.926 0.3774 -1162.8702 1435.2349)" class="Pattern_1_st0_speckle" width="3.6" height="2.6"/>
<rect x="452.4" y="1836.1" transform="matrix(0.139 -0.9903 0.9903 0.139 -1429.74 2035.0022)" class="Pattern_1_st0_speckle" width="5.9" height="7.2"/>
<rect x="1432.9" y="1817.6" transform="matrix(0.9988 -4.874483e-02 4.874483e-02 0.9988 -86.9767 72.0784)" class="Pattern_1_st0_speckle" width="2.9" height="3.4"/>
<polygon class="Pattern_1_st0_speckle" points="2677.1,1722.6 2680.9,1726.9 2683.3,1725.2 2679.6,1720.9 "/>
<polygon class="Pattern_1_st0_speckle" points="2671.2,1640.4 2674.3,1635.4 2672.7,1634.4 2669.5,1639.4 "/>
<polygon class="Pattern_1_st0_speckle" points="2722.8,1644.5 2719.3,1643.7 2718.5,1649.6 2722,1650.3 "/>
<polygon class="Pattern_1_st0_speckle" points="2690,1807.4 2693.1,1810.3 2698.1,1807.2 2695,1804.2 "/>
<polygon class="Pattern_1_st0_speckle" points="2637.1,1686.1 2639,1689.6 2641.5,1688.1 2639.6,1684.5 "/>
<polygon class="Pattern_1_st0_speckle" points="2712.8,1686.1 2713.4,1688.6 2716.3,1688.6 2715.8,1686.2 "/>
<polygon class="Pattern_1_st0_speckle" points="2636,1802.8 2637.5,1807.2 2643,1805 2641.4,1800.6 "/>
<polygon class="Pattern_1_st0_speckle" points="2667.2,1847.3 2661.4,1846 2660,1850.4 2665.7,1851.7 "/>
<polygon class="Pattern_1_st0_speckle" points="2728.8,1850.8 2726.9,1854.1 2732.6,1855.4 2734.5,1852.1 "/>
<polygon class="Pattern_1_st0_speckle" points="2671.6,1888.6 2669.8,1891.9 2675.5,1893.2 2677.3,1889.9 "/>
<polygon class="Pattern_1_st0_speckle" points="2428.3,1885.1 2432.7,1890.3 2436.2,1887.3 2431.8,1882.2 "/>
<polygon class="Pattern_1_st0_speckle" points="2405.5,1916 2409.9,1921.2 2413.4,1918.3 2409,1913.1 "/>
<polygon class="Pattern_1_st0_speckle" points="2448.9,1913.9 2454.9,1917 2457.8,1912.7 2451.8,1909.6 "/>
<polygon class="Pattern_1_st0_speckle" points="2604.8,1757.6 2599,1758.2 2599.5,1761.8 2605.3,1761.3 "/>
<rect x="2829.9" y="1767.9" transform="matrix(0.8467 -0.5321 0.5321 0.8467 -509.689 1779.3947)" class="Pattern_1_st0_speckle" width="5.9" height="12.4"/>
<polygon class="Pattern_1_st0_speckle" points="2779.4,1650.6 2774,1652.8 2775.9,1656.1 2781.4,1653.9 "/>
<rect x="2760.6" y="1719.2" transform="matrix(0.5038 -0.8638 0.8638 0.5038 -115.5185 3240.6211)" class="Pattern_1_st0_speckle" width="5.1" height="3.4"/>
<polygon class="Pattern_1_st0_speckle" points="2784.8,1697.6 2790.6,1701.3 2791.8,1697.9 2786,1694.3 "/>
<rect x="2453.2" y="1856.4" transform="matrix(3.628228e-02 -0.9993 0.9993 3.628228e-02 509.4534 4243.9961)" class="Pattern_1_st0_speckle" width="4" height="2.9"/>
<polygon class="Pattern_1_st0_speckle" points="2433,1684.4 2434.5,1690 2437.9,1689.6 2436.4,1683.9 "/>
<rect x="2478.7" y="1654.2" transform="matrix(0.9988 -4.874491e-02 4.874491e-02 0.9988 -77.77 122.8621)" class="Pattern_1_st0_speckle" width="2.9" height="3.4"/>
<polygon class="Pattern_1_st0_speckle" points="2457.8,1695.9 2457.9,1699.5 2463.8,1699.6 2463.7,1696 "/>
<polygon class="Pattern_1_st0_speckle" points="2365.8,1662.9 2360.3,1660.9 2359.2,1662.9 2364.7,1664.9 "/>
<polygon class="Pattern_1_st0_speckle" points="2404.2,1654.3 2398.5,1655.9 2399,1658.5 2404.7,1656.8 "/>
<polygon class="Pattern_1_st0_speckle" points="2407.7,1860.5 2406.8,1866.2 2412.8,1866.2 2413.5,1861.3 "/>
<polygon class="Pattern_1_st0_speckle" points="2368.3,1854.6 2367.4,1860.4 2373.4,1860.4 2374.1,1855.5 "/>
<polygon class="Pattern_1_st0_speckle" points="2496.6,1639.5 2501.6,1642.6 2503.6,1640 2498.6,1636.9 "/>
<polygon class="Pattern_1_st0_speckle" points="2564.3,1818.9 2565.7,1821.1 2568.7,1821.1 2567.2,1818.9 "/>
<rect x="2532" y="1767.8" transform="matrix(0.139 -0.9903 0.9903 0.139 428.4975 4035.5818)" class="Pattern_1_st0_speckle" width="5.9" height="7.2"/>
<polygon class="Pattern_1_st0_speckle" points="2590.8,1820.2 2596.5,1821.6 2597.6,1817.1 2591.9,1815.7 "/>
<polygon class="Pattern_1_st0_speckle" points="2605.1,1620.4 2608.5,1621.4 2610.1,1615.8 2606.7,1614.7 "/>
<polygon class="Pattern_1_st0_speckle" points="2529.6,1816.5 2531.4,1819.7 2533.9,1818.2 2532.1,1814.9 "/>
<rect x="2591.6" y="1705.2" transform="matrix(3.628228e-02 -0.9993 0.9993 3.628228e-02 793.8979 4236.6846)" class="Pattern_1_st0_speckle" width="4" height="2.9"/>
<polygon class="Pattern_1_st0_speckle" points="2513,1747.3 2516.9,1742.9 2514.6,1739.7 2510.6,1744.1 "/>
<polygon class="Pattern_1_st0_speckle" points="2552.7,1707 2553.1,1703.3 2547.3,1702.4 2546.9,1706.1 "/>
<polygon class="Pattern_1_st0_speckle" points="2539.9,1670.8 2534,1671.5 2534.8,1674.9 2540.7,1674.2 "/>
<polygon class="Pattern_1_st0_speckle" points="2574.2,1530.8 2572.6,1536.5 2578.1,1538 2579.7,1532.3 "/>
<rect x="2561.9" y="1364.1" transform="matrix(4.555954e-03 -1 1 4.555954e-03 1188.8127 3924.5618)" class="Pattern_1_st0_speckle" width="7.5" height="2"/>
<polygon class="Pattern_1_st0_speckle" points="2636.7,1500.7 2636.4,1495.1 2630.7,1493.8 2631,1499.4 "/>
<rect x="2551.1" y="1425.4" transform="matrix(0.3215 -0.9469 0.9469 0.3215 379.2033 3387.1038)" class="Pattern_1_st0_speckle" width="4.1" height="7.1"/>
<rect x="2555.9" y="1397.1" transform="matrix(0.1481 -0.989 0.989 0.1481 794.9863 3721.8125)" class="Pattern_1_st0_speckle" width="4.1" height="4.6"/>
<rect x="2520.7" y="1325.5" transform="matrix(0.5363 -0.844 0.844 0.5363 52.5402 2748.6318)" class="Pattern_1_st0_speckle" width="14.5" height="2.1"/>
<path class="Pattern_1_st0_speckle" d="M2755,1566.8l6,6.2c0.7-0.7,1.4-1.4,2.1-2.1l-5.7-5.8L2755,1566.8z"/>
<polygon class="Pattern_1_st0_speckle" points="2729.9,1508.6 2733.4,1513.7 2735.9,1512.2 2732.4,1507.1 "/>
<rect x="2660.7" y="1387.1" transform="matrix(0.5078 -0.8615 0.8615 0.5078 114.5112 2976.6323)" class="Pattern_1_st0_speckle" width="2.8" height="2"/>
<polygon class="Pattern_1_st0_speckle" points="2592.6,1309 2596.7,1301.3 2592,1301.4 2589,1307.1 "/>
<polygon class="Pattern_1_st0_speckle" points="2603.9,1323.8 2601.8,1326.6 2605,1329.1 2607.1,1326.4 "/>
<polygon class="Pattern_1_st0_speckle" points="2852.5,1922.4 2846.3,1925.3 2845.7,1928.3 2851.9,1925.4 "/>
<polygon class="Pattern_1_st0_speckle" points="2879.7,1940.1 2882.6,1941.9 2884.5,1937.1 2881.6,1935.3 "/>
<polygon class="Pattern_1_st0_speckle" points="2536.1,1553.6 2530.3,1554.3 2532,1559 2537.8,1558.3 "/>
<polygon class="Pattern_1_st0_speckle" points="2543.6,1517.1 2549.6,1519.4 2550.8,1516.3 2544.8,1514 "/>
<polygon class="Pattern_1_st0_speckle" points="2509.6,1936.9 2504.3,1932.5 2500.6,1938.4 2505.9,1942.7 "/>
<polygon class="Pattern_1_st0_speckle" points="2481.6,1924.5 2481.8,1927.2 2485.2,1927.7 2485,1924.9 "/>
<polygon class="Pattern_1_st0_speckle" points="2924.1,1858.8 2922.9,1867.7 2929.8,1867.7 2930.9,1859.8 "/>
<rect x="2805.1" y="1891.5" transform="matrix(0.5728 -0.8197 0.8197 0.5728 -354.9552 3112.3035)" class="Pattern_1_st0_speckle" width="6.8" height="10.4"/>
<polygon class="Pattern_1_st0_speckle" points="2725.2,1930.5 2726,1925.4 2722.6,1925.1 2721.8,1930.2 "/>
<rect x="2603.5" y="1587.7" transform="matrix(3.699909e-02 -0.9993 0.9993 3.699909e-02 921.0198 4134.1177)" class="Pattern_1_st0_speckle" width="4" height="2.9"/>
<polygon class="Pattern_1_st0_speckle" points="2496.9,1379.2 2500.9,1380 2501.5,1376 2497.4,1375.1 "/>
<rect x="2539.6" y="1379.7" transform="matrix(0.5468 -0.8373 0.8373 0.5468 -3.0346 2755.8459)" class="Pattern_1_st0_speckle" width="8.7" height="2.1"/>
<rect x="2677.8" y="1512" transform="matrix(0.6718 -0.7407 0.7407 0.6718 -243.6372 2483.49)" class="Pattern_1_st0_speckle" width="5.9" height="9.3"/>
<polygon class="Pattern_1_st0_speckle" points="2599.1,1929.3 2598.7,1923.8 2592.1,1921.8 2592.5,1927.4 "/>
<rect x="2696.7" y="1539.4" transform="matrix(0.1392 -0.9903 0.9903 0.1392 795.9552 4001.7222)" class="Pattern_1_st0_speckle" width="5.9" height="7.2"/>
<polygon class="Pattern_1_st0_speckle" points="2666.9,1571.2 2661.1,1571.8 2661.4,1574.8 2667.3,1574.2 "/>
<polygon class="Pattern_1_st0_speckle" points="2780.8,1594.4 2784.1,1590.1 2782,1588.1 2778.7,1592.3 "/>
<rect x="2340.2" y="1805.4" transform="matrix(0.9988 -4.874483e-02 4.874483e-02 0.9988 -85.3015 116.2937)" class="Pattern_1_st0_speckle" width="2.9" height="3.4"/>
<polygon class="Pattern_1_st0_speckle" points="1733,1807.9 1734.7,1810.4 1737.2,1808.8 1735.5,1806.4 "/>
<polygon class="Pattern_1_st0_speckle" points="1754.9,1703.9 1755.3,1701.7 1749.5,1700.8 1749.1,1703 "/>
<polygon class="Pattern_1_st0_speckle" points="1740.6,1635.6 1734.8,1636.3 1735.7,1642.2 1741.6,1641.5 "/>
<polygon class="Pattern_1_st0_speckle" points="1738.7,1760 1735.2,1759.4 1734.4,1765.3 1737.9,1765.8 "/>
<polygon class="Pattern_1_st0_speckle" points="1700.2,1850.9 1702.5,1848.1 1700.4,1846.1 1698.1,1848.9 "/>
<polygon class="Pattern_1_st0_speckle" points="1708.1,1622.4 1713.1,1625.5 1712.9,1621.4 1707.9,1618.3 "/>
<polygon class="Pattern_1_st0_speckle" points="1720.9,1741.8 1724.8,1737.4 1722,1736.3 1718,1740.6 "/>
<polygon class="Pattern_1_st0_speckle" points="1877.3,1609.7 1873.6,1608.3 1872.8,1614.1 1876.5,1615.5 "/>
<polygon class="Pattern_1_st0_speckle" points="1883.2,1637.4 1886.4,1632.5 1883.6,1630.5 1880.4,1635.5 "/>
<polygon class="Pattern_1_st0_speckle" points="1838.6,1793.7 1840.9,1798.7 1846.3,1796.5 1844,1791.5 "/>
<polygon class="Pattern_1_st0_speckle" points="1839,1699.2 1840.9,1697 1838.8,1694.9 1836.9,1697.1 "/>
<polygon class="Pattern_1_st0_speckle" points="1893,1797.2 1896.5,1801.8 1901.5,1798.6 1898,1794 "/>
<polygon class="Pattern_1_st0_speckle" points="1880.5,1714 1883.1,1718.7 1885.5,1717 1883,1712.3 "/>
<polygon class="Pattern_1_st0_speckle" points="1808.2,1749.1 1802.4,1749.6 1802,1752.3 1807.9,1751.8 "/>
<polygon class="Pattern_1_st0_speckle" points="1784.7,1630.8 1788.8,1631.1 1790.4,1625.5 1786.3,1625.2 "/>
<polygon class="Pattern_1_st0_speckle" points="1794.2,1811.7 1799.9,1813 1801.4,1808 1795.7,1806.7 "/>
<polygon class="Pattern_1_st0_speckle" points="1661.5,1680.9 1662.1,1683.4 1668,1683.5 1667.4,1681 "/>
<polygon class="Pattern_1_st0_speckle" points="1503.4,1797.1 1508.7,1794.5 1506.5,1791.3 1501.2,1793.9 "/>
<polygon class="Pattern_1_st0_speckle" points="1871.5,1656.8 1874.1,1660.6 1876.6,1659 1874,1655.2 "/>
<polygon class="Pattern_1_st0_speckle" points="1497.6,1658.2 1499.3,1660.4 1501.9,1659.1 1500.2,1656.9 "/>
<polygon class="Pattern_1_st0_speckle" points="1499.5,1832.6 1502.1,1831.8 1500.5,1826.1 1497.9,1827 "/>
<polygon class="Pattern_1_st0_speckle" points="1511.4,1640.2 1515.1,1635.7 1512,1632.7 1508.3,1637.3 "/>
<polygon class="Pattern_1_st0_speckle" points="1535.2,1656.5 1535.5,1660.2 1538.4,1660.5 1538.1,1656.9 "/>
<polygon class="Pattern_1_st0_speckle" points="1456.2,1778 1456.5,1775.7 1450.7,1775.6 1450.4,1777.9 "/>
<polygon class="Pattern_1_st0_speckle" points="1507.8,1611.5 1505.1,1610.2 1503.6,1615.9 1506.4,1617.2 "/>
<polygon class="Pattern_1_st0_speckle" points="1471.3,1728 1473.8,1726.6 1471.9,1722.2 1469.3,1723.6 "/>
<polygon class="Pattern_1_st0_speckle" points="1643.7,1673.6 1645.2,1679.3 1649,1678.5 1647.4,1672.8 "/>
<polygon class="Pattern_1_st0_speckle" points="1610.3,1858.9 1609.3,1864 1615.2,1864 1616.1,1859.8 "/>
<rect x="1656.6" y="1847.9" transform="matrix(3.628228e-02 -0.9993 0.9993 3.628228e-02 -249.7191 3439.6929)" class="Pattern_1_st0_speckle" width="4" height="2.9"/>
<rect x="1679.6" y="1822.8" transform="matrix(3.628228e-02 -0.9993 0.9993 3.628228e-02 -202.5142 3438.5669)" class="Pattern_1_st0_speckle" width="4" height="2.9"/>
<polygon class="Pattern_1_st0_speckle" points="2078.8,1923.8 2083.8,1926.9 2085.7,1923.8 2080.7,1920.7 "/>
<rect x="2106.7" y="1896" transform="matrix(0.9988 -4.874483e-02 4.874483e-02 0.9988 -89.9993 105.0185)" class="Pattern_1_st0_speckle" width="2.9" height="3.4"/>
<polygon class="Pattern_1_st0_speckle" points="2379.9,1942.3 2382.2,1939.5 2380.1,1937.5 2377.8,1940.3 "/>
<polygon class="Pattern_1_st0_speckle" points="2173.3,1911.1 2175.9,1910.3 2174.4,1904.6 2171.8,1905.4 "/>
<polygon class="Pattern_1_st0_speckle" points="2284.2,1937.4 2283.1,1942.4 2289.1,1942.4 2290,1938.3 "/>
<rect x="2342" y="1936.2" transform="matrix(3.628228e-02 -0.9993 0.9993 3.628228e-02 322.5686 4209.7476)" class="Pattern_1_st0_speckle" width="4" height="2.9"/>
<polygon class="Pattern_1_st0_speckle" points="1646.7,1782.8 1650.3,1782.3 1652,1776.6 1648.3,1777.1 "/>
<polygon class="Pattern_1_st0_speckle" points="1610.2,1656.5 1604.6,1658.2 1605.8,1660.8 1611.5,1659.2 "/>
<polygon class="Pattern_1_st0_speckle" points="1603.8,1797.1 1597.9,1797.8 1598,1801.5 1603.9,1800.8 "/>
<rect x="1535.4" y="1688.4" transform="matrix(0.2075 -0.9782 0.9782 0.2075 -436.906 2844.1772)" class="Pattern_1_st0_speckle" width="2.9" height="6.7"/>
<polygon class="Pattern_1_st0_speckle" points="1566.4,1665.5 1560.9,1663.6 1558,1668.6 1563.5,1670.6 "/>
<rect x="1543.6" y="1796.8" transform="matrix(0.9988 -4.874483e-02 4.874483e-02 0.9988 -85.8325 77.4533)" class="Pattern_1_st0_speckle" width="2.9" height="3.4"/>
<polygon class="Pattern_1_st0_speckle" points="2002.1,1841.7 2002.3,1837.7 1999.4,1837.7 1999.1,1841.7 "/>
<polygon class="Pattern_1_st0_speckle" points="2214,1626 2211.8,1631.5 2214.8,1632.2 2217,1626.7 "/>
<rect x="2229.5" y="1826.1" transform="matrix(0.9988 -4.874483e-02 4.874483e-02 0.9988 -86.4457 110.9189)" class="Pattern_1_st0_speckle" width="2.9" height="3.4"/>
<rect x="2213.7" y="1698.2" transform="matrix(0.1456 -0.9893 0.9893 0.1456 211.5088 3644.3259)" class="Pattern_1_st0_speckle" width="4" height="2.9"/>
<polygon class="Pattern_1_st0_speckle" points="2256,1706 2259.4,1703.3 2257.6,1701.1 2254.1,1703.7 "/>
<polygon class="Pattern_1_st0_speckle" points="2215.6,1754.7 2221.5,1754.8 2221.2,1751.5 2215.3,1751.4 "/>
<polygon class="Pattern_1_st0_speckle" points="2172.7,1827.4 2178.5,1826.7 2178,1824.9 2172.1,1825.6 "/>
<polygon class="Pattern_1_st0_speckle" points="2161.2,1760.1 2160.4,1763.6 2166.2,1764.5 2167,1761 "/>
<polygon class="Pattern_1_st0_speckle" points="2164.7,1710.3 2170.3,1711.8 2171.3,1708 2165.6,1706.5 "/>
<polygon class="Pattern_1_st0_speckle" points="2298.1,1674.3 2299.8,1678.2 2302.4,1676.9 2300.7,1673 "/>
<polygon class="Pattern_1_st0_speckle" points="2296.1,1841.2 2299.6,1840.3 2298.1,1834.6 2294.5,1835.5 "/>
<polygon class="Pattern_1_st0_speckle" points="2299.6,1805.7 2304.9,1803.2 2303.1,1799.8 2297.8,1802.4 "/>
<polygon class="Pattern_1_st0_speckle" points="2160.6,1631.4 2160,1634.7 2165.9,1634.6 2166.5,1631.4 "/>
<polygon class="Pattern_1_st0_speckle" points="2300.9,1644.7 2304.6,1640.2 2302.2,1636.5 2298.5,1641.1 "/>
<polygon class="Pattern_1_st0_speckle" points="2253,1794.3 2252.8,1792.3 2247,1792.2 2247.1,1794.2 "/>
<polygon class="Pattern_1_st0_speckle" points="2299.6,1728.5 2302.2,1727.1 2299.5,1723.2 2297,1724.6 "/>
<polygon class="Pattern_1_st0_speckle" points="2135.8,1610.5 2132.9,1613.9 2137.5,1617.5 2140.5,1614.2 "/>
<polygon class="Pattern_1_st0_speckle" points="1972.2,1830.1 1977.9,1831.4 1978.6,1828 1972.9,1826.6 "/>
<polygon class="Pattern_1_st0_speckle" points="2043,1818.4 2040.5,1816.3 2038,1817.8 2040.5,1820 "/>
<polygon class="Pattern_1_st0_speckle" points="2036.2,1847.2 2038.4,1849.3 2041.6,1844.4 2039.4,1842.2 "/>
<polygon class="Pattern_1_st0_speckle" points="2398.8,1795.3 2393,1796 2394.1,1798.9 2400,1798.1 "/>
<polygon class="Pattern_1_st0_speckle" points="1991.3,1897.4 1994.4,1900.3 1999.4,1897.2 1996.3,1894.3 "/>
<polygon class="Pattern_1_st0_speckle" points="1937.3,1892.9 1938.8,1897.3 1944.3,1895 1942.7,1890.6 "/>
<polygon class="Pattern_1_st0_speckle" points="1968.5,1937.3 1962.7,1936 1961.3,1940.4 1967,1941.8 "/>
<polygon class="Pattern_1_st0_speckle" points="1865.6,1908.9 1867,1911.1 1870,1911.2 1868.5,1909 "/>
<polygon class="Pattern_1_st0_speckle" points="1892.1,1910.3 1897.8,1911.6 1898.9,1907.1 1893.2,1905.8 "/>
<polygon class="Pattern_1_st0_speckle" points="1830.9,1906.5 1832.7,1909.8 1835.2,1908.2 1833.4,1904.9 "/>
<rect x="1641.5" y="1895.4" transform="matrix(0.9988 -4.874483e-02 4.874483e-02 0.9988 -90.5212 82.3433)" class="Pattern_1_st0_speckle" width="2.9" height="3.4"/>
<polygon class="Pattern_1_st0_speckle" points="1597.4,1931.2 1600.9,1930.3 1599.4,1924.7 1595.8,1925.5 "/>
<polygon class="Pattern_1_st0_speckle" points="1600.9,1895.8 1606.2,1893.2 1604.4,1889.9 1599.1,1892.4 "/>
<polygon class="Pattern_1_st0_speckle" points="1682.2,1892.3 1676.4,1893 1677.5,1895.9 1683.4,1895.2 "/>
<polygon class="Pattern_1_st0_speckle" points="2026.8,1758.6 2031.5,1762.9 2033.9,1761.2 2029.2,1756.9 "/>
<polygon class="Pattern_1_st0_speckle" points="1932.6,1660.6 1938.3,1661.9 1939.9,1658 1934.2,1656.6 "/>
<polygon class="Pattern_1_st0_speckle" points="1939,1835.5 1933.6,1837.8 1935,1842.8 1940.5,1840.6 "/>
<polygon class="Pattern_1_st0_speckle" points="1480.4,1869.4 1482.7,1874.3 1488.1,1872.1 1485.8,1867.1 "/>
<polygon class="Pattern_1_st0_speckle" points="1449.2,1893.3 1452.7,1898 1457.7,1894.8 1454.2,1890.2 "/>
<polygon class="Pattern_1_st0_speckle" points="1405.5,1907.9 1411.2,1909.2 1412.7,1904.2 1407,1902.9 "/>
<polygon class="Pattern_1_st0_speckle" points="1613.4,1937.9 1613.6,1933.9 1610.7,1933.9 1610.4,1937.9 "/>
<polygon class="Pattern_1_st0_speckle" points="1583.5,1926.3 1589.2,1927.6 1589.9,1924.2 1584.2,1922.8 "/>
<polygon class="Pattern_1_st0_speckle" points="1647.6,1943.4 1649.7,1945.5 1652.9,1940.6 1650.7,1938.4 "/>
<polygon class="Pattern_1_st0_speckle" points="1550.3,1931.7 1544.9,1934 1546.3,1939 1551.8,1936.8 "/>
<polygon class="Pattern_1_st0_speckle" points="1538.9,1885.3 1533.4,1887.5 1534.9,1892.5 1540.4,1890.3 "/>
<polygon class="Pattern_1_st0_speckle" points="1979.4,1632.4 1974,1634.7 1976.3,1639.6 1981.7,1637.4 "/>
<polygon class="Pattern_1_st0_speckle" points="2017.1,1683.5 2019.6,1687.1 2024.5,1684 2022,1680.4 "/>
<polygon class="Pattern_1_st0_speckle" points="1965.4,1753.7 1970.2,1757.1 1972.7,1754.1 1967.9,1750.7 "/>
<rect x="2115.5" y="1775.6" transform="matrix(3.631596e-02 -0.9993 0.9993 3.631596e-02 264.6803 3828.5759)" class="Pattern_1_st0_speckle" width="4" height="2.9"/>
<polygon class="Pattern_1_st0_speckle" points="2106.2,1726.2 2112.1,1725.6 2111.2,1722.3 2105.3,1722.9 "/>
<rect x="1908.5" y="1637.3" transform="matrix(1.565322e-02 -0.9999 0.9999 1.565322e-02 245.2158 3526.678)" class="Pattern_1_st0_speckle" width="10.5" height="2.9"/>
<polygon class="Pattern_1_st0_speckle" points="2125.7,1844.1 2124.1,1849.8 2126.9,1849.5 2128.5,1843.8 "/>
<polygon class="Pattern_1_st0_speckle" points="2045.7,1900.2 2040.1,1898.5 2040.3,1901.3 2046,1903 "/>
<rect x="2106.7" y="1635.3" transform="matrix(6.077724e-02 -0.9982 0.9982 6.077724e-02 346.495 3641.8484)" class="Pattern_1_st0_speckle" width="3.4" height="2.9"/>
<polygon class="Pattern_1_st0_speckle" points="2075.6,1780.3 2078.1,1777.7 2076,1775.7 2073.6,1778.2 "/>
<polygon class="Pattern_1_st0_speckle" points="2034.5,1860.1 2033.8,1865.2 2041.1,1865.2 2041.6,1861.1 "/>
<polygon class="Pattern_1_st0_speckle" points="984.3,1884.6 986,1887.1 988.4,1885.5 986.8,1883.1 "/>
<polygon class="Pattern_1_st0_speckle" points="951.7,1873.5 953.3,1876 955.8,1874.4 954.1,1872 "/>
<polygon class="Pattern_1_st0_speckle" points="994.5,1941.1 996.4,1941.1 995.8,1940.2 "/>
<polygon class="Pattern_1_st0_speckle" points="951.4,1927.6 953.7,1924.8 951.6,1922.8 949.3,1925.6 "/>
<polygon class="Pattern_1_st0_speckle" points="1089.9,1870.4 1092.2,1875.4 1097.6,1873.2 1095.3,1868.2 "/>
<polygon class="Pattern_1_st0_speckle" points="823.1,1902 825.4,1906.9 830.8,1904.7 828.5,1899.7 "/>
<polygon class="Pattern_1_st0_speckle" points="1144.3,1873.8 1147.8,1878.5 1152.8,1875.3 1149.3,1870.7 "/>
<polygon class="Pattern_1_st0_speckle" points="1045.4,1888.4 1051.2,1889.7 1052.7,1884.7 1047,1883.4 "/>
<polygon class="Pattern_1_st0_speckle" points="861.6,1935.6 860.5,1940.7 866.5,1940.7 867.4,1936.5 "/>
<rect x="907.8" y="1924.5" transform="matrix(3.628228e-02 -0.9993 0.9993 3.628228e-02 -1047.9393 2765.3625)" class="Pattern_1_st0_speckle" width="4" height="2.9"/>
<polygon class="Pattern_1_st0_speckle" points="1263.2,1882.4 1263.4,1878.4 1260.5,1878.3 1260.2,1882.3 "/>
<polygon class="Pattern_1_st0_speckle" points="1423.9,1904.1 1429.8,1903.4 1429.2,1901.6 1423.4,1902.3 "/>
<polygon class="Pattern_1_st0_speckle" points="1392.9,1891 1398.8,1890.3 1398.2,1888.5 1392.4,1889.2 "/>
<polygon class="Pattern_1_st0_speckle" points="1223.5,1906.8 1229.2,1908.1 1229.9,1904.7 1224.2,1903.3 "/>
<polygon class="Pattern_1_st0_speckle" points="1294.3,1871 1291.7,1868.9 1289.2,1870.4 1291.8,1872.6 "/>
<polygon class="Pattern_1_st0_speckle" points="1286.6,1911 1288.7,1913.1 1291.9,1908.2 1289.8,1906 "/>
<polygon class="Pattern_1_st0_speckle" points="1190.2,1912.2 1184.8,1914.5 1186.3,1919.5 1191.7,1917.3 "/>
<polygon class="Pattern_1_st0_speckle" points="1370.5,1926.2 1368.9,1931.8 1371.7,1931.5 1373.3,1925.9 "/>
<polygon class="Pattern_1_st0_speckle" points="1312,1940.1 1311.3,1945.2 1318.5,1945.2 1319.1,1941.1 "/>
<polygon class="Pattern_1_st0_speckle" points="2088.7,1668.5 2082.8,1667.7 2082.6,1671.4 2088.4,1672.1 "/>
<polygon class="Pattern_1_st0_speckle" points="2067.4,1658.1 2068.3,1663.9 2070.7,1663.9 2069.7,1658.1 "/>
</svg>
