
<!-- Generator: Adobe Illustrator 26.4.1, SVG Export Plug-In . SVG Version: 6.00 Build 0)  -->
<svg version="1.1" id="Pattern_2" xmlns="http://www.w3.org/2000/svg" xmlns:xlink="http://www.w3.org/1999/xlink" x="0px" y="0px"
	 viewBox="0 0 3200 3200" style="enable-background:new 0 0 3200 3200;" xml:space="preserve">
<style type="text/css">
	.st0{fill:#91552b;}
</style>
<polygon class="st0" points="723.2,1856.9 722.3,1861.5 716.4,1861.5 717.3,1856.7 "/>
<polygon class="st0" points="744.8,1838.5 742.7,1842.3 748.1,1844.5 750.2,1840.8 "/>
<polygon class="st0" points="787.7,1830.1 790.5,1828 786.8,1823.5 783.9,1825.6 "/>
<rect x="760.5" y="1690.9" transform="matrix(0.9611 -0.2762 0.2762 0.9611 -438.0455 276.7803)" class="st0" width="5.9" height="4.8"/>
<polygon class="st0" points="593.4,1402.1 596.4,1401.8 595.9,1397.8 593,1398.1 "/>
<path class="st0" d="M678.4,1404.2c0.7-0.5,1.4-1,2.1-1.6l-1.1-0.5L678.4,1404.2z"/>
<polygon class="st0" points="592.7,1446.1 594.7,1443.7 591.2,1441.7 589.2,1444 "/>
<polygon class="st0" points="868,1748.4 870.8,1746.4 868.2,1741.2 865.4,1743.2 "/>
<polygon class="st0" points="854.4,1703.4 860.3,1703.6 861.1,1698.3 855.2,1698.1 "/>
<polygon class="st0" points="852.8,1624.3 850.5,1626.5 853.6,1631.5 856,1629.3 "/>
<polygon class="st0" points="711.8,1732.6 717.7,1732.8 716.8,1728 710.9,1727.8 "/>
<polygon class="st0" points="719.5,1694.1 719.4,1688.2 717,1687.8 717.1,1693.7 "/>
<polygon class="st0" points="594.5,1319.6 595.7,1315.7 593.6,1314.8 592.4,1318.7 "/>
<rect x="623.6" y="1747.5" transform="matrix(0.9451 -0.3267 0.3267 0.9451 -538.5258 300.4568)" class="st0" width="2.9" height="11.5"/>
<polygon class="st0" points="655.6,1789.3 654.7,1790.9 658.4,1795.5 659.4,1793.8 "/>
<polygon class="st0" points="677.7,1658.6 676.7,1660.2 680.5,1664.8 681.4,1663.1 "/>
<rect x="596.3" y="1678.7" transform="matrix(0.2716 -0.9624 0.9624 0.2716 -1181.728 1801.9017)" class="st0" width="6.4" height="5.9"/>
<polygon class="st0" points="431.9,1648 434.5,1648.1 434.5,1646.2 432,1646.1 "/>
<polygon class="st0" points="660.8,1698.1 661.2,1692.2 659.1,1691.3 658.7,1697.2 "/>
<polygon class="st0" points="643.5,1753 641.2,1758.2 646,1761.7 648.3,1756.4 "/>
<polygon class="st0" points="609.6,1714.8 611,1710.8 605.8,1708.1 604.4,1712.1 "/>
<polygon class="st0" points="1235.4,1706.5 1229.5,1706.7 1231,1710.2 1236.9,1709.9 "/>
<polygon class="st0" points="1226.3,1780.3 1228.8,1779.5 1228.1,1773.7 1225.6,1774.4 "/>
<polygon class="st0" points="1310.8,1643.7 1306.3,1646.4 1309.5,1651.3 1314,1648.6 "/>
<polygon class="st0" points="1273.3,1837.1 1273.9,1833.5 1268,1833.3 1267.4,1836.9 "/>
<rect x="1143.7" y="1758" transform="matrix(0.9931 -0.1169 0.1169 0.9931 -198.1991 145.9311)" class="st0" width="2.9" height="9.8"/>
<polygon class="st0" points="1190.4,1702.5 1187.5,1702.9 1188.1,1706.6 1191,1706.3 "/>
<polygon class="st0" points="894.7,1672.9 896.9,1671 893.1,1666.4 891,1668.4 "/>
<polygon class="st0" points="1347,1732.1 1352.5,1734.2 1354.4,1730 1348.9,1727.9 "/>
<polygon class="st0" points="1392.8,1718.1 1394.8,1713 1389.5,1710.3 1387.6,1715.4 "/>
<polygon class="st0" points="1382.5,1616 1388,1618.2 1389.7,1613.7 1384.2,1611.6 "/>
<polygon class="st0" points="1369.4,1825.6 1370.6,1820.7 1364.9,1819.1 1363.7,1824 "/>
<polygon class="st0" points="1325.9,1881 1327,1876.2 1321.3,1874.6 1320.2,1879.5 "/>
<rect x="1328.7" y="1688.7" transform="matrix(0.9751 -0.2217 0.2217 0.9751 -342.5516 337.0473)" class="st0" width="2.9" height="11.5"/>
<polygon class="st0" points="1288.1,1673.1 1293.3,1675.9 1295.9,1671.3 1290.7,1668.4 "/>
<rect x="1354" y="1768.9" transform="matrix(0.1645 -0.9864 0.9864 0.1645 -613.81 2819.0286)" class="st0" width="6.4" height="5.9"/>
<polygon class="st0" points="1300.9,1768.1 1302.4,1770.6 1305.1,1769.3 1303.5,1766.8 "/>
<rect x="1283" y="1744.4" transform="matrix(0.1792 -0.9838 0.9838 0.1792 -664.8463 2700.4431)" class="st0" width="5.9" height="8.5"/>
<polygon class="st0" points="1215.3,1667 1212.4,1666.8 1211.8,1672.4 1214.7,1672.6 "/>
<rect x="958.3" y="1681.8" transform="matrix(0.1645 -0.9864 0.9864 0.1645 -858.5473 2355.9373)" class="st0" width="6.4" height="5.9"/>
<polygon class="st0" points="982.9,1708.5 980,1712.1 985.5,1714.2 988.4,1710.6 "/>
<polygon class="st0" points="968.2,1625.1 973.9,1626.6 975.6,1622.2 969.9,1620.6 "/>
<polygon class="st0" points="956.7,1842.8 961.9,1842 961.2,1836.1 955.9,1837 "/>
<polygon class="st0" points="924.8,1703 922,1704 923.5,1709.5 926.3,1708.6 "/>
<polygon class="st0" points="916.9,1792.7 922.8,1792.9 923.3,1787.7 917.5,1787.5 "/>
<polygon class="st0" points="988.3,1794.8 987.3,1791.1 981.9,1793.4 982.9,1797 "/>
<polygon class="st0" points="1036.3,1621.6 1042.1,1621.8 1042.1,1618.4 1036.2,1618.2 "/>
<polygon class="st0" points="1104.7,1861.3 1108.3,1859 1104.6,1854.4 1101,1856.7 "/>
<polygon class="st0" points="1117.1,1635.6 1118.9,1640.3 1124.3,1638.1 1122.5,1633.4 "/>
<polygon class="st0" points="1113.5,1671.9 1110.6,1672.4 1111.3,1678.3 1114.3,1677.7 "/>
<rect x="1049.1" y="1847.8" transform="matrix(0.9931 -0.1169 0.1169 0.9931 -209.3524 135.4877)" class="st0" width="2.9" height="9.8"/>
<polygon class="st0" points="1076.8,1799.9 1078.3,1796.3 1075.4,1796.1 1073.9,1799.7 "/>
<polygon class="st0" points="1117.4,1819.3 1120.3,1819.5 1121.3,1814.2 1118.3,1814 "/>
<polygon class="st0" points="511.3,1535.4 516.8,1537.5 518.1,1533.1 512.6,1531 "/>
<rect x="448.8" y="1540.6" transform="matrix(0.9932 -0.1167 0.1167 0.9932 -176.9278 63.0471)" class="st0" width="2.5" height="4.2"/>
<polygon class="st0" points="352,1861.8 349.2,1862.8 350.6,1865.9 353.4,1865 "/>
<polygon class="st0" points="389.8,1871.2 395.3,1873.4 396.7,1870.5 391.3,1868.3 "/>
<polygon class="st0" points="444.9,1933.6 450.3,1935.9 451.8,1933 446.3,1930.7 "/>
<polygon class="st0" points="423.5,1622.8 425.5,1627.6 429.4,1625.7 427.5,1620.9 "/>
<rect x="527.7" y="1939.2" transform="matrix(0.9003 -0.4352 0.4352 0.9003 -792.4587 423.8755)" class="st0" width="2.9" height="5.5"/>
<polygon class="st0" points="322.9,1856.5 319.3,1851.9 317.3,1854.5 321,1859.1 "/>
<polygon class="st0" points="285,1925.3 283.8,1929.5 288.8,1931 289.9,1926.8 "/>
<polygon class="st0" points="661.8,1561.3 665.1,1561.9 665.9,1556.8 662.6,1556.2 "/>
<polygon class="st0" points="1408.4,1749.6 1405.6,1750.6 1407,1753.5 1409.8,1752.6 "/>
<rect x="470" y="1574.7" transform="matrix(0.9962 -8.765079e-02 8.765079e-02 0.9962 -136.4208 47.3795)" class="st0" width="2.6" height="4.8"/>
<rect x="494.4" y="1888.3" transform="matrix(0.9962 -8.765079e-02 8.765079e-02 0.9962 -163.8131 50.7203)" class="st0" width="2.6" height="4.8"/>
<rect x="523.5" y="1458.2" transform="matrix(0.9962 -8.765079e-02 8.765079e-02 0.9962 -126.0046 51.6203)" class="st0" width="2.6" height="4.8"/>
<path class="st0" d="M2114.2,1612.4l-1.4-4.4c-2,0-3.9,0-5.9,0l1.5,4.8L2114.2,1612.4z"/>
<path class="st0" d="M1317.1,1612.3l-0.5-6.9c-2,0-3.9,0-5.9,0l0.5,7.4L1317.1,1612.3z"/>
<path class="st0" d="M2012.9,1614.3l3.9-4.4l-1.6-2c-1.8,0-3.5,0-5.3,0l-0.6,1.8L2012.9,1614.3z"/>
<path class="st0" d="M2516.9,1593.2l-0.2-6.3l-4.3-0.1c-0.5,0.2-1.1,0.4-1.6,0.6l0.2,5.6L2516.9,1593.2z"/>
<polygon class="st0" points="600.8,1531.6 602.9,1523.1 601.8,1522.9 600,1524.2 598.3,1531 "/>
<polygon class="st0" points="264.5,1908.9 266.9,1903.1 265.3,1902.5 260.4,1905.9 259.9,1907 "/>
<polygon class="st0" points="309.5,1878.2 306.9,1874 302.7,1876.3 301.6,1877 304.2,1881.2 "/>
<path class="st0" d="M1223.9,1614.9l9.1-7.2l-2.2-2.8c-1.2,0-2.4,0-3.6,0l-6.9,5.4L1223.9,1614.9z"/>
<polygon class="st0" points="687,1946.2 689.5,1946.2 687.2,1945.6 "/>
<polygon class="st0" points="372.6,1932.4 369.7,1932.8 370.3,1937 373.2,1936.7 "/>
<polygon class="st0" points="691.9,1926.9 689.6,1924.3 684.2,1926.6 686.5,1929.2 "/>
<path class="st0" d="M2482.4,1319.1l3.5-6.7l-1.6-0.8c-0.2,0.2-0.3,0.3-0.5,0.5l-3.2,6.2L2482.4,1319.1z"/>
<polygon class="st0" points="2628.8,1858.8 2629.8,1866.8 2632.7,1866.8 2631.8,1858.5 "/>
<polygon class="st0" points="286.8,1859.3 287,1862.1 293,1862.1 292.6,1858.2 "/>
<polygon class="st0" points="783.5,1855.1 785.8,1861.7 788.9,1861.7 786.3,1854.2 "/>
<polygon class="st0" points="1567.3,1857.4 1569.5,1863.9 1572.7,1863.9 1570.1,1856.4 "/>
<polygon class="st0" points="528,1648.3 530.3,1646.4 527.1,1641.5 524.8,1643.4 "/>
<rect x="517.3" y="1762.4" transform="matrix(0.9002 -0.4354 0.4354 0.9002 -716.8542 402.0363)" class="st0" width="2.9" height="5.5"/>
<polygon class="st0" points="533.3,1398.1 536.5,1400.7 537.2,1399.2 534,1396.6 "/>
<polygon class="st0" points="461.7,1670.6 465.6,1674 468.1,1671.4 464.2,1668 "/>
<rect x="544.9" y="1686.5" transform="matrix(0.9751 -0.2217 0.2217 0.9751 -361.5566 163.242)" class="st0" width="2.9" height="11.5"/>
<polygon class="st0" points="442.6,1778 445.3,1777.5 444.6,1771.7 441.8,1772.2 "/>
<polygon class="st0" points="483.4,1854.6 489.2,1854.8 488.9,1851.7 483,1851.4 "/>
<polygon class="st0" points="497.5,1748.5 500.4,1749.2 501.4,1743.4 498.5,1742.8 "/>
<polygon class="st0" points="478.2,1611.7 480.6,1612.8 482.5,1608 480.1,1606.9 "/>
<rect x="511.8" y="1591.4" transform="matrix(0.4859 -0.874 0.874 0.4859 -1128.5909 1269.2911)" class="st0" width="5.8" height="5.2"/>
<polygon class="st0" points="693.3,1375.4 697.7,1377.8 699.5,1374.6 695.2,1372.2 "/>
<rect x="359.9" y="1755.7" transform="matrix(0.9931 -0.1169 0.1169 0.9931 -203.309 54.3099)" class="st0" width="2.9" height="9.8"/>
<polygon class="st0" points="560.4,1826.3 554.8,1824.8 552.1,1830.7 557.8,1832.2 "/>
<polygon class="st0" points="567.9,1886 562.2,1884.4 559.6,1890.3 565.3,1891.9 "/>
<rect x="559.5" y="1543.6" transform="matrix(0.247 -0.969 0.969 0.247 -1072.5386 1709.4941)" class="st0" width="8.4" height="2.5"/>
<polygon class="st0" points="570.8,1730.4 570.6,1727.8 565.2,1725.7 565.3,1728.3 "/>
<polygon class="st0" points="426.9,1822.4 432.4,1820.2 429.1,1816.3 423.6,1818.5 "/>
<rect x="486.5" y="1410.4" transform="matrix(0.2773 -0.9608 0.9608 0.2773 -1001.7003 1491.2902)" class="st0" width="7.8" height="2"/>
<polygon class="st0" points="487.6,1536.7 490.2,1536.7 489.7,1531.8 487,1531.8 "/>
<polygon class="st0" points="2746.1,1821 2747.9,1814.4 2743.2,1813 2741.4,1819.6 "/>
<polygon class="st0" points="2621.8,1893.4 2624.2,1899.8 2631.7,1895.8 2629.4,1889.4 "/>
<rect x="2796" y="1817.9" transform="matrix(0.4888 -0.8724 0.8724 0.4888 -157.9148 3372.2117)" class="st0" width="5.1" height="5.9"/>
<polygon class="st0" points="2676.9,1696.1 2674.7,1696.7 2675.4,1702.5 2677.6,1701.9 "/>
<polygon class="st0" points="2680.2,1669.7 2681,1672.3 2686.5,1670 2685.6,1667.5 "/>
<polygon class="st0" points="2678.4,1782.2 2684.2,1781.9 2684.9,1778.2 2679,1778.5 "/>
<polygon class="st0" points="2829.1,1860 2823.3,1859.8 2822.2,1863.7 2828,1863.9 "/>
<polygon class="st0" points="2585.6,1861.9 2579.7,1858.5 2576.1,1864.8 2582,1868.2 "/>
<rect x="2679" y="1937.3" transform="matrix(0.2411 -0.9705 0.9705 0.2411 153.8481 4074.8474)" class="st0" width="6.9" height="3.4"/>
<polygon class="st0" points="2440.7,1631.1 2437.7,1632.6 2440.8,1637.6 2443.8,1636.1 "/>
<rect x="2806.8" y="1730.1" transform="matrix(0.3313 -0.9435 0.9435 0.3313 247.9193 3813.5334)" class="st0" width="15.4" height="3.4"/>
<polygon class="st0" points="2827.7,1666.4 2824.4,1668.4 2827.8,1674.3 2831,1672.4 "/>
<polygon class="st0" points="2807.3,1617.1 2810.9,1621.8 2813.4,1618.5 2809.8,1613.9 "/>
<polygon class="st0" points="2708.2,1892.3 2702.7,1888.2 2700.1,1892.4 2705.5,1896.5 "/>
<polygon class="st0" points="2869.2,1814.8 2873.7,1819.8 2877.1,1815.5 2872.6,1810.4 "/>
<polygon class="st0" points="2479.9,1619.2 2474.1,1620.3 2475.8,1625.7 2481.6,1624.7 "/>
<polygon class="st0" points="2664.8,1768.8 2662.2,1772.2 2665.9,1776.8 2668.5,1773.5 "/>
<polygon class="st0" points="2505.1,1713.8 2502.3,1714.8 2502.6,1717.3 2505.3,1716.3 "/>
<polygon class="st0" points="2483.9,1830.1 2489.8,1830.3 2490.2,1826.8 2484.3,1826.6 "/>
<rect x="2472" y="1856.2" transform="matrix(0.9001 -0.4356 0.4356 0.9001 -562.7925 1263.245)" class="st0" width="2.9" height="5.5"/>
<polygon class="st0" points="2435.3,1765.1 2439.8,1763.4 2437.2,1758.1 2432.7,1759.8 "/>
<polygon class="st0" points="2463.1,1781.1 2467.6,1781.4 2468,1775.5 2463.5,1775.2 "/>
<polygon class="st0" points="2481,1677.4 2484.6,1675.9 2480.8,1671.4 2477.3,1672.9 "/>
<rect x="2610.4" y="1705.1" transform="matrix(0.9003 -0.4353 0.4353 0.9003 -482.9734 1307.2919)" class="st0" width="2.9" height="5.5"/>
<polygon class="st0" points="2601,1783.4 2606.1,1786.3 2607.4,1783.6 2602.3,1780.7 "/>
<polygon class="st0" points="2656.6,1834.6 2657.9,1830.3 2655,1830.1 2653.7,1834.3 "/>
<polygon class="st0" points="2640,1623.4 2645.9,1623.6 2647.4,1618.4 2641.5,1618.2 "/>
<polygon class="st0" points="2592.6,1736.5 2598.4,1737.5 2598.6,1732.6 2592.8,1731.7 "/>
<polygon class="st0" points="2561.9,1740 2560.1,1745.2 2565.5,1747.3 2567.3,1742.1 "/>
<polygon class="st0" points="2575.4,1637.7 2581.1,1639.2 2581.7,1634.8 2576.1,1633.3 "/>
<polygon class="st0" points="2537,1853.6 2540.9,1853.4 2540.1,1847.5 2536.3,1847.8 "/>
<polygon class="st0" points="2640.3,1925.9 2645.2,1923.3 2640.3,1918.6 2635.3,1921.2 "/>
<polygon class="st0" points="2626.4,1422.6 2629.7,1420.4 2628.3,1416.6 2624.9,1418.7 "/>
<rect x="2551.4" y="1347.1" transform="matrix(0.1473 -0.9891 0.9891 0.1473 843.6545 3674.8455)" class="st0" width="3.5" height="2"/>
<polygon class="st0" points="2613.5,1387.3 2609.8,1391.2 2612.8,1394 2616.6,1390 "/>
<polygon class="st0" points="2636.7,1314.1 2639.5,1317.1 2642.2,1314.7 2639.3,1311.8 "/>
<polygon class="st0" points="2755.5,1537.5 2762.5,1536.7 2761.8,1530.9 2754.8,1531.7 "/>
<polygon class="st0" points="2753.2,1899.6 2753.1,1892.7 2747.9,1892.3 2748,1899.1 "/>
<polygon class="st0" points="2521.8,1411.2 2525.7,1407.3 2522.3,1405 2518.4,1408.9 "/>
<rect x="2601.6" y="1356" transform="matrix(0.6277 -0.7784 0.7784 0.6277 -87.6126 2532.9253)" class="st0" width="5.6" height="4.1"/>
<path class="st0" d="M2312.3,1607.7c-1.3,0-2.6,0-4,0l1.9,2L2312.3,1607.7z"/>
<polygon class="st0" points="2531.9,1301.3 2528.1,1301.4 2530.9,1303.1 "/>
<path class="st0" d="M729.9,1598.9l2.7-2.6c-1.9-0.2-3.8-0.4-5.7-0.5L729.9,1598.9z"/>
<polygon class="st0" points="2676,1374 2679.1,1372.2 2677.2,1368.6 2674.1,1370.4 "/>
<rect x="2629" y="1338.7" transform="matrix(0.2774 -0.9608 0.9608 0.2774 615.5091 3497.7903)" class="st0" width="7.8" height="2"/>
<rect x="2673" y="1340.7" transform="matrix(0.558 -0.8299 0.8299 0.558 69.4948 2816.0361)" class="st0" width="10.3" height="4.1"/>
<rect x="2533.1" y="1472.5" transform="matrix(0.945 -0.327 0.327 0.945 -344.0417 909.9994)" class="st0" width="2.9" height="11.5"/>
<polygon class="st0" points="2883.3,1912.8 2886.9,1907 2883.1,1904.9 2879.5,1910.7 "/>
<polygon class="st0" points="2817.2,1933.6 2818.5,1930.3 2815.4,1928.7 2814.1,1932 "/>
<polygon class="st0" points="1448.3,1699.6 1450.9,1700 1451.3,1694.2 1448.7,1693.8 "/>
<rect x="2846.2" y="1895.2" transform="matrix(7.053272e-02 -0.9975 0.9975 7.053272e-02 753.4297 4607.5269)" class="st0" width="5.9" height="8.6"/>
<rect x="2577.4" y="1486.6" transform="matrix(0.1644 -0.9864 0.9864 0.1644 686.9719 3790.073)" class="st0" width="6.4" height="5.9"/>
<polygon class="st0" points="2538.9,1576.1 2539.5,1580.6 2544.9,1582.9 2544.3,1578.3 "/>
<polygon class="st0" points="2607.9,1526.5 2610.6,1531.7 2615.9,1528.9 2613.2,1523.6 "/>
<polygon class="st0" points="2667.8,1541 2668.5,1548.7 2674.3,1548.9 2673.6,1541.2 "/>
<polygon class="st0" points="2607,1938.5 2612.8,1932.9 2609.9,1930.9 2604.2,1936.5 "/>
<rect x="2716" y="1556.5" transform="matrix(0.9003 -0.4353 0.4353 0.9003 -407.7551 1338.2498)" class="st0" width="2.9" height="5.5"/>
<polygon class="st0" points="2563.8,1562.3 2569.5,1563.9 2570.8,1559.5 2565.1,1557.9 "/>
<polygon class="st0" points="2680.3,1610.3 2683.4,1608.4 2680.1,1602.5 2677,1604.3 "/>
<polygon class="st0" points="2605.3,1477.5 2604.6,1474.5 2599.2,1476.7 2599.9,1479.7 "/>
<polygon class="st0" points="1761.9,1763.2 1757.6,1761.8 1756.1,1767.5 1760.4,1768.9 "/>
<polygon class="st0" points="1845,1850.2 1840.8,1848.8 1839.3,1854.5 1843.6,1855.9 "/>
<polygon class="st0" points="1708.5,1705.3 1705.7,1706.2 1707.7,1709.9 1710.5,1708.9 "/>
<polygon class="st0" points="1769.4,1789.9 1767.8,1786.8 1762.4,1789 1763.9,1792.2 "/>
<polygon class="st0" points="1769.8,1720.4 1767.7,1725 1773.2,1727.1 1775.2,1722.6 "/>
<polygon class="st0" points="1685.3,1670 1688,1667.4 1684.2,1662.8 1681.6,1665.5 "/>
<polygon class="st0" points="1666.5,1772.5 1669.7,1773.1 1670.1,1767.2 1666.9,1766.7 "/>
<polygon class="st0" points="1752.2,1629.4 1757.9,1630.9 1759.3,1624.4 1753.6,1622.9 "/>
<rect x="1675.4" y="1860.2" transform="matrix(0.9001 -0.4356 0.4356 0.9001 -644.106 916.6052)" class="st0" width="2.9" height="5.5"/>
<polygon class="st0" points="1683.3,1610.7 1677.5,1611.7 1678.1,1616.5 1683.9,1615.5 "/>
<polygon class="st0" points="1843.7,1613.2 1849.6,1613.4 1850.7,1609.9 1844.9,1609.6 "/>
<polygon class="st0" points="1860,1826 1860.5,1820.6 1857.6,1820.4 1857.1,1825.8 "/>
<polygon class="st0" points="1471.3,1922.2 1471.8,1916.8 1468.9,1916.6 1468.4,1922 "/>
<polygon class="st0" points="1874.7,1756.5 1871.3,1758.5 1874.9,1763.2 1878.4,1761.1 "/>
<polygon class="st0" points="1883.3,1687.2 1878.1,1688.1 1878.8,1694 1884,1693.1 "/>
<polygon class="st0" points="1810,1764.3 1815.1,1767.1 1817.3,1763.8 1812.1,1761 "/>
<polygon class="st0" points="1749.8,1843.4 1753.8,1843.4 1753.1,1837.6 1749.1,1837.6 "/>
<rect x="1813.8" y="1696.5" transform="matrix(0.9001 -0.4356 0.4356 0.9001 -558.9739 960.5642)" class="st0" width="2.9" height="5.5"/>
<rect x="1762.4" y="1870.5" transform="matrix(0.9931 -0.1169 0.1169 0.9931 -207.1171 219.0235)" class="st0" width="2.9" height="9.8"/>
<polygon class="st0" points="1666.9,1689.6 1666.1,1692.3 1671.5,1694.5 1672.4,1691.9 "/>
<polygon class="st0" points="1482.1,1609.3 1476.3,1608.4 1475.7,1610.9 1481.6,1611.8 "/>
<polygon class="st0" points="1425.9,1758.9 1430.7,1762.4 1432,1758.7 1427.2,1755.2 "/>
<polygon class="st0" points="1477.2,1686.6 1477.3,1692.5 1482,1693 1481.9,1687.1 "/>
<polygon class="st0" points="1524.5,1746.4 1518.7,1746.1 1519.1,1749.4 1525,1749.8 "/>
<polygon class="st0" points="1499.4,1860.9 1500.1,1863.7 1506,1863.7 1505.3,1861.1 "/>
<polygon class="st0" points="1431.8,1797.5 1429.9,1799.3 1433.6,1803.9 1435.5,1802.1 "/>
<polygon class="st0" points="1651.7,1749.8 1654.5,1748.7 1651.9,1743.4 1649.1,1744.5 "/>
<polygon class="st0" points="1434.6,1856 1440.3,1855 1438.9,1849.8 1433.2,1850.9 "/>
<polygon class="st0" points="1625.2,1846.5 1625.6,1843.3 1619.8,1842.3 1619.4,1845.5 "/>
<polygon class="st0" points="1644.1,1622.6 1641.8,1625.2 1644.9,1630.2 1647.2,1627.6 "/>
<polygon class="st0" points="1638.6,1704.1 1644.5,1704.3 1644.9,1700.5 1639,1700.3 "/>
<polygon class="st0" points="1591.6,1711.1 1591.1,1715.1 1594.1,1715.1 1594.5,1711.1 "/>
<polygon class="st0" points="1547.6,1821.6 1549.5,1818.5 1545.8,1814 1543.9,1817 "/>
<polygon class="st0" points="1528.5,1840.8 1525.8,1844.2 1531.3,1846.4 1533.9,1843 "/>
<polygon class="st0" points="2241.1,1935.8 2243.4,1942.3 2246.5,1942.3 2243.9,1934.9 "/>
<rect x="2354.2" y="1911.5" transform="matrix(0.9001 -0.4356 0.4356 0.9001 -598.6705 1217.4578)" class="st0" width="2.9" height="5.5"/>
<polygon class="st0" points="2173.3,1939.4 2174,1942.1 2179.9,1942.1 2179.1,1939.6 "/>
<polygon class="st0" points="2105.7,1876 2103.7,1877.8 2107.5,1882.3 2109.4,1880.5 "/>
<polygon class="st0" points="2108.4,1934.5 2114.2,1933.4 2112.8,1928.3 2107,1929.3 "/>
<polygon class="st0" points="2299.1,1924.9 2299.5,1921.8 2293.7,1920.8 2293.3,1924 "/>
<polygon class="st0" points="2376.8,1886.2 2377.2,1883 2371.4,1882 2371,1885.2 "/>
<polygon class="st0" points="2221.4,1900 2223.4,1897 2219.6,1892.4 2217.7,1895.5 "/>
<polygon class="st0" points="2202.4,1919.2 2199.7,1922.6 2205.1,1924.9 2207.8,1921.5 "/>
<polygon class="st0" points="1532.6,1623.8 1535.6,1624.5 1537.7,1619 1534.7,1618.3 "/>
<rect x="2125.3" y="1697.2" transform="matrix(0.9751 -0.2217 0.2217 0.9751 -324.621 513.8605)" class="st0" width="2.9" height="11.5"/>
<rect x="2232.3" y="1700" transform="matrix(0.9424 -0.3346 0.3346 0.9424 -440.9863 845.4883)" class="st0" width="2.9" height="5.5"/>
<polygon class="st0" points="2178.8,1623.6 2184.3,1625.7 2186.3,1622.3 2180.8,1620.1 "/>
<polygon class="st0" points="2205,1758.1 2202.2,1759.1 2204.1,1761.5 2206.9,1760.5 "/>
<polygon class="st0" points="2245.3,1775.3 2250.8,1777.5 2252.1,1774.6 2246.6,1772.3 "/>
<polygon class="st0" points="2278.7,1617.8 2272.9,1616.9 2272.8,1620.2 2278.6,1621 "/>
<polygon class="st0" points="2297.2,1860 2297,1865.9 2302.8,1865.9 2303,1860.2 "/>
<polygon class="st0" points="2313.6,1889.5 2313.4,1895.4 2319.3,1895.4 2319.5,1889.7 "/>
<polygon class="st0" points="2409.5,1788.6 2415.1,1790.1 2417.5,1784.1 2411.8,1782.6 "/>
<polygon class="st0" points="2344.4,1787.4 2338.7,1788.4 2339.4,1791.7 2345.2,1790.6 "/>
<polygon class="st0" points="2321.6,1629 2325.2,1629.1 2327.3,1623.6 2323.7,1623.6 "/>
<polygon class="st0" points="2331.1,1649.5 2325.4,1651.1 2326.3,1655.2 2332,1653.5 "/>
<polygon class="st0" points="2298.5,1767.5 2292.7,1767.2 2292.7,1770.2 2298.5,1770.6 "/>
<polygon class="st0" points="2195.5,1792.7 2189.6,1792.3 2189.6,1795.4 2195.5,1795.7 "/>
<polygon class="st0" points="2297.4,1698.6 2297.5,1704.5 2301.5,1704.9 2301.4,1699.1 "/>
<polygon class="st0" points="2343,1829.5 2346.1,1827.1 2342.4,1822.5 2339.3,1824.9 "/>
<polygon class="st0" points="1785.2,1920.1 1791.1,1920.4 1791.5,1916.8 1785.6,1916.6 "/>
<polygon class="st0" points="1957.9,1924.6 1959.3,1920.4 1956.3,1920.2 1955,1924.4 "/>
<polygon class="st0" points="1838.3,1943.7 1842.2,1943.4 1841.4,1937.6 1837.6,1937.8 "/>
<polygon class="st0" points="1679.9,1928.1 1685.5,1929.7 1687.9,1923.6 1682.2,1922.1 "/>
<polygon class="st0" points="1645.8,1877.4 1640,1878.5 1640.7,1881.7 1646.5,1880.7 "/>
<polygon class="st0" points="1586.7,1885.2 1589.8,1882.8 1586.1,1878.3 1583,1880.7 "/>
<polygon class="st0" points="2325.1,1849.3 2323.8,1851.6 2329.2,1853.9 2330.6,1851.5 "/>
<rect x="2176.7" y="1689.5" transform="matrix(0.2717 -0.9624 0.9624 0.2717 -41.0813 3330.5337)" class="st0" width="6.4" height="5.9"/>
<polygon class="st0" points="1995.5,1674.7 1998.4,1674.9 2000,1668.7 1997,1668.5 "/>
<polygon class="st0" points="2014,1863.2 2018.4,1864.6 2019.9,1858.9 2015.5,1857.5 "/>
<polygon class="st0" points="2022.9,1788.8 2026.1,1787.9 2025.3,1782 2022.2,1783 "/>
<polygon class="st0" points="2183.3,1737 2184.1,1733.3 2178.9,1730.5 2178.1,1734.3 "/>
<rect x="1940.3" y="1766.5" transform="matrix(0.9931 -0.1169 0.1169 0.9931 -193.7363 239.0988)" class="st0" width="2.9" height="9.8"/>
<polygon class="st0" points="1973.6,1698.8 1970.7,1699.1 1971.3,1704.9 1974.3,1704.5 "/>
<polygon class="st0" points="2081.8,1761.4 2086.2,1760.9 2087.3,1755.1 2082.8,1755.7 "/>
<polygon class="st0" points="2139.2,1752.7 2144.7,1754.8 2145.7,1753 2140.2,1750.9 "/>
<polygon class="st0" points="2160.8,1852.4 2164.2,1848.2 2158.5,1846.7 2155.1,1850.8 "/>
<polygon class="st0" points="2037.1,1935.2 2041.2,1938.7 2042.8,1933 2038.8,1929.6 "/>
<rect x="939.6" y="1900.9" transform="matrix(0.9001 -0.4356 0.4356 0.9001 -735.3304 600.1372)" class="st0" width="2.9" height="5.5"/>
<polygon class="st0" points="1111.3,1902.7 1111.8,1897.3 1108.8,1897.1 1108.3,1902.5 "/>
<polygon class="st0" points="1001,1920.1 1005.1,1920.1 1004.4,1914.3 1000.3,1914.3 "/>
<rect x="1084.1" y="1926.8" transform="matrix(0.9931 -0.1169 0.1169 0.9931 -218.339 140.1199)" class="st0" width="2.9" height="9.8"/>
<polygon class="st0" points="876.5,1923.2 876.9,1920 871.1,1919 870.7,1922.2 "/>
<polygon class="st0" points="1158,1934.8 1149.5,1941.5 1159,1941.5 1161.7,1939.4 "/>
<polygon class="st0" points="1265.2,1939.9 1269.7,1941.3 1271.1,1935.6 1266.7,1934.2 "/>
<polygon class="st0" points="1427,1939.5 1430.4,1935.4 1424.7,1933.9 1421.3,1938 "/>
<polygon class="st0" points="2107.4,1652.2 2103.7,1655.3 2106.9,1660.2 2110.6,1657.2 "/>
<polygon class="st0" points="2081.6,1687.4 2086.7,1690.3 2088.8,1687.2 2083.7,1684.3 "/>
<polygon class="st0" points="2063,1691.9 2057.2,1691.1 2056.6,1696.8 2062.4,1697.7 "/>
<polygon class="st0" points="2102.3,1714.3 2104.7,1709.7 2099.6,1706.8 2097.2,1711.4 "/>
<rect x="2097.7" y="1773.2" transform="matrix(0.9001 -0.4356 0.4356 0.9001 -564.0228 1091.8849)" class="st0" width="2.9" height="5.5"/>
</svg>
