
<!-- Generator: Adobe Illustrator 26.4.1, SVG Export Plug-In . SVG Version: 6.00 Build 0)  -->
<svg version="1.1" id="Pattern_3" xmlns="http://www.w3.org/2000/svg" xmlns:xlink="http://www.w3.org/1999/xlink" x="0px" y="0px"
	 viewBox="0 0 3200 3200" style="enable-background:new 0 0 3200 3200;" xml:space="preserve">
<style type="text/css">
	.st0{fill:#b98e68;}
</style>
<rect x="802.3" y="1753.6" transform="matrix(0.4372 -0.8994 0.8994 0.4372 -1123.123 1715.3931)" class="st0" width="13.4" height="2.9"/>
<rect x="741" y="1751.4" transform="matrix(0.9988 -4.874483e-02 4.874483e-02 0.9988 -84.6337 38.2868)" class="st0" width="3.4" height="5.9"/>
<rect x="813.3" y="1807.3" transform="matrix(0.2862 -0.9582 0.9582 0.2862 -1151.9851 2074.2212)" class="st0" width="5.9" height="6.1"/>
<rect x="845.2" y="1772" transform="matrix(0.9988 -4.874483e-02 4.874483e-02 0.9988 -85.5216 43.3806)" class="st0" width="2.9" height="6.2"/>
<rect x="801.4" y="1621.5" transform="matrix(0.8798 -0.4753 0.4753 0.8798 -677.6967 577.3228)" class="st0" width="2.9" height="14.7"/>
<polygon class="st0" points="893.3,1628 889.1,1624.4 884.3,1627.8 888.5,1631.5 "/>
<polygon class="st0" points="933.9,1661.9 936.6,1663.1 937.5,1660 934.8,1658.7 "/>
<rect x="934.2" y="1604.8" transform="matrix(0.8989 -0.4383 0.4383 0.8989 -609.8027 572.6488)" class="st0" width="2.9" height="5.2"/>
<rect x="844" y="1741.2" transform="matrix(0.5207 -0.8538 0.8538 0.5207 -1082.1334 1557.9961)" class="st0" width="4.9" height="2.9"/>
<rect x="576.5" y="1557.1" transform="matrix(6.077728e-02 -0.9982 0.9982 6.077728e-02 -1011.6448 2042.4097)" class="st0" width="5.9" height="3.4"/>
<polygon class="st0" points="893.1,1740.2 898.9,1741.6 898.7,1739.2 893,1737.8 "/>
<polygon class="st0" points="963.5,1760.3 969,1758.4 966.6,1755.1 961,1756.9 "/>
<rect x="610.4" y="1795.4" transform="matrix(0.4372 -0.8994 0.8994 0.4372 -1268.6864 1566.3324)" class="st0" width="13.4" height="2.9"/>
<polygon class="st0" points="677.9,1861.5 677,1859.5 672.3,1863 673.2,1865 "/>
<polygon class="st0" points="700.7,1845.8 706.5,1844.9 706.7,1841.4 700.9,1842.3 "/>
<polygon class="st0" points="644.3,1644.4 641.3,1642.1 636.9,1646 639.9,1648.3 "/>
<polygon class="st0" points="686.5,1598.1 683.5,1595.8 679.2,1599.8 682.2,1602 "/>
<polygon class="st0" points="728.9,1824.7 732.3,1819.9 730.7,1818.3 727.3,1823.1 "/>
<rect x="616.3" y="1439.4" transform="matrix(0.7934 -0.6087 0.6087 0.7934 -748.3223 675.8232)" class="st0" width="10.3" height="2"/>
<polygon class="st0" points="689.2,1819.9 686.5,1817.9 683.9,1823.2 686.7,1825.2 "/>
<rect x="631.1" y="1583.4" transform="matrix(0.6109 -0.7917 0.7917 0.6109 -1008.2947 1118.3136)" class="st0" width="4.9" height="2.9"/>
<rect x="612.1" y="1612.9" transform="matrix(6.077724e-02 -0.9982 0.9982 6.077724e-02 -1033.5409 2130.2656)" class="st0" width="6.2" height="2.9"/>
<rect x="623.6" y="1813.5" transform="matrix(0.2864 -0.9581 0.9581 0.2864 -1293.2886 1896.6908)" class="st0" width="5.9" height="6.1"/>
<rect x="680.4" y="1740.2" transform="matrix(0.8989 -0.4383 0.4383 0.8989 -694.8027 475.1091)" class="st0" width="2.9" height="5.2"/>
<polygon class="st0" points="633.7,1488.3 636.3,1485.2 635.1,1484.2 632.5,1487.3 "/>
<rect x="1307.4" y="1733.1" transform="matrix(0.9971 -7.602774e-02 7.602774e-02 0.9971 -128.4487 104.5469)" class="st0" width="2.9" height="12.5"/>
<rect x="1347.5" y="1837.4" transform="matrix(0.9988 -4.874483e-02 4.874483e-02 0.9988 -88.11 67.9452)" class="st0" width="2.9" height="6.2"/>
<rect x="1336.1" y="1650.6" transform="matrix(0.5333 -0.8459 0.8459 0.5333 -770.8008 1907.0052)" class="st0" width="13.4" height="2.9"/>
<polygon class="st0" points="1313.8,1810.2 1317.7,1805.8 1313.9,1802.4 1310,1806.8 "/>
<polygon class="st0" points="1204.2,1639.4 1201.3,1644.5 1203.5,1644.8 1206.3,1639.6 "/>
<polygon class="st0" points="1246.1,1670.8 1252,1670.6 1251.7,1666 1245.8,1666.3 "/>
<polygon class="st0" points="1299.2,1725.7 1300.4,1721.6 1294.9,1719.6 1293.6,1723.7 "/>
<polygon class="st0" points="1202.4,1854.2 1202.8,1862.8 1208.7,1862.9 1208.3,1853.9 "/>
<rect x="1395.9" y="1615.1" transform="matrix(6.077724e-02 -0.9982 0.9982 6.077724e-02 -299.67 2914.6636)" class="st0" width="6.2" height="2.9"/>
<polygon class="st0" points="1419.8,1848.7 1417.3,1854 1420,1855.2 1422.6,1849.9 "/>
<rect x="1421.5" y="1720" transform="matrix(3.385512e-02 -0.9994 0.9994 3.385512e-02 -341.1176 3090.1299)" class="st0" width="12.5" height="2.9"/>
<polygon class="st0" points="1392,1680.4 1393.6,1684.4 1399.1,1682.5 1397.6,1678.5 "/>
<rect x="1407.4" y="1815.7" transform="matrix(0.2865 -0.9581 0.9581 0.2865 -736.2445 2648.9036)" class="st0" width="5.9" height="6.1"/>
<rect x="1397" y="1854.5" transform="matrix(0.8988 -0.4384 0.4384 0.8988 -672.5365 800.9369)" class="st0" width="2.9" height="5.2"/>
<polygon class="st0" points="1404.3,1796.4 1405.1,1793.7 1402.5,1792.4 1401.6,1795.1 "/>
<rect x="1256.1" y="1820.1" transform="matrix(0.9482 -0.3176 0.3176 0.9482 -514.5305 494.4377)" class="st0" width="5.9" height="10"/>
<polygon class="st0" points="1033.7,1764.4 1031.8,1762.1 1029.4,1763.8 1031.3,1766.1 "/>
<polygon class="st0" points="1010.2,1653.1 1012.2,1655.1 1016.1,1650.7 1014.1,1648.7 "/>
<polygon class="st0" points="1023.3,1719 1024.2,1724 1027.1,1723.8 1026.2,1718.8 "/>
<polygon class="st0" points="1162.4,1849.4 1163.9,1853.5 1166.3,1851.8 1164.8,1847.7 "/>
<polygon class="st0" points="963,1940.8 964.4,1944.9 966.8,1943.2 965.4,1939.1 "/>
<rect x="1171.7" y="1610.5" transform="matrix(0.8226 -0.5687 0.5687 0.8226 -711.8917 954.2826)" class="st0" width="2.9" height="14.7"/>
<polygon class="st0" points="1489.9,1843.6 1484.1,1844.5 1484.4,1848 1490.2,1847.2 "/>
<polygon class="st0" points="1139.2,1723.6 1144.7,1721.5 1143.4,1718.7 1137.9,1720.9 "/>
<polygon class="st0" points="1160.1,1793 1158,1798.6 1163.6,1800.4 1165.7,1794.9 "/>
<polygon class="st0" points="369.6,1678.6 367.6,1681.5 371.6,1684.7 373.6,1681.8 "/>
<polygon class="st0" points="487.3,1552.8 488.1,1549.8 485.6,1549.1 484.8,1552.1 "/>
<polygon class="st0" points="340.5,1910.2 342.3,1907 339.6,1905.7 337.9,1908.9 "/>
<polygon class="st0" points="241.3,1860.1 241.4,1860.1 241.4,1860.1 "/>
<polygon class="st0" points="371.7,1805.2 370.6,1807.9 376.2,1809.8 377.3,1807.1 "/>
<polygon class="st0" points="378.1,1848.1 380.1,1851.2 382.5,1849.5 380.5,1846.4 "/>
<rect x="678" y="1322.7" transform="matrix(0.3116 -0.9502 0.9502 0.3116 -790.5577 1558.8229)" class="st0" width="5" height="4.7"/>
<rect x="373.1" y="1760.7" transform="matrix(0.2324 -0.9726 0.9726 0.2324 -1425.5966 1718.0392)" class="st0" width="5.2" height="2.9"/>
<polygon class="st0" points="591.2,1596.3 592.3,1597.4 596.8,1594.9 595.8,1593.8 "/>
<polygon class="st0" points="280.6,1936.7 284.9,1939.3 286.2,1937.2 282,1934.6 "/>
<rect x="331.5" y="1791.1" transform="matrix(0.9891 -0.1475 0.1475 0.9891 -261.0389 68.961)" class="st0" width="5.9" height="6.8"/>
<polygon class="st0" points="1013.2,1857.3 1015.1,1862.3 1021.4,1862.3 1018.6,1855.2 "/>
<polygon class="st0" points="2192.6,1863.9 2193.4,1865.6 2196.7,1865.6 2195.2,1862.6 "/>
<polygon class="st0" points="1796.9,1859.5 1798.8,1864.5 1805.2,1864.5 1802.4,1857.4 "/>
<polygon class="st0" points="2503.1,1307.8 2511.3,1301.5 2511.2,1301.3 2508,1301.4 2501.8,1306.1 "/>
<polygon class="st0" points="2220,1858.9 2217.4,1864.2 2220.5,1865.7 2223.5,1865.7 2225.5,1861.5 "/>
<polygon class="st0" points="604.7,1865.9 602.2,1866.5 603.2,1868.2 605.7,1867.6 "/>
<polygon class="st0" points="536.5,1907.6 533.6,1907.8 533.7,1909.6 536.7,1909.3 "/>
<polygon class="st0" points="404.5,1921 399,1923.1 401.2,1925.7 406.6,1923.5 "/>
<polygon class="st0" points="630.4,1939.5 634.9,1946 638.5,1946.1 632.8,1937.8 "/>
<rect x="730.9" y="1918.2" transform="matrix(0.9482 -0.3176 0.3176 0.9482 -572.8848 332.7124)" class="st0" width="5.9" height="10"/>
<polygon class="st0" points="786.7,1906.9 790.6,1902.5 788.7,1900.5 784.8,1904.9 "/>
<polygon class="st0" points="530.8,1557.9 535.7,1557.8 535.9,1554.8 530.9,1554.9 "/>
<polygon class="st0" points="566.6,1503 563.2,1506.6 565.6,1507.6 569,1504 "/>
<rect x="548.4" y="1421.5" transform="matrix(0.4896 -0.872 0.872 0.4896 -957.9469 1208.5566)" class="st0" width="9.9" height="2"/>
<polygon class="st0" points="512.2,1600.4 514.3,1602.4 519.4,1599.5 517.3,1597.5 "/>
<rect x="566.4" y="1589.8" transform="matrix(0.9414 -0.3372 0.3372 0.9414 -503.731 284.7752)" class="st0" width="2.9" height="5.2"/>
<polygon class="st0" points="513,1729.7 515.7,1727.8 510.1,1725.8 507.5,1727.7 "/>
<polygon class="st0" points="529.6,1806.5 533.6,1802.1 530.1,1800.1 526.2,1804.5 "/>
<rect x="640.1" y="1856.3" transform="matrix(0.2864 -0.9581 0.9581 0.2864 -1322.5593 1943.0023)" class="st0" width="5.9" height="6.1"/>
<polygon class="st0" points="537.1,1866.1 541,1861.7 537.6,1859.8 533.7,1864.2 "/>
<polygon class="st0" points="558.4,1759.5 553,1762 554.6,1766 559.9,1763.5 "/>
<polygon class="st0" points="650.8,1408 651.1,1409.7 655,1410.6 654.8,1408.9 "/>
<polygon class="st0" points="598.1,1335.4 595.6,1336.9 598.7,1339.6 601.2,1338.1 "/>
<rect x="548.9" y="1626.1" transform="matrix(0.3896 -0.921 0.921 0.3896 -1163.6094 1502.7269)" class="st0" width="5.9" height="6.1"/>
<polygon class="st0" points="546.5,1315.9 544.5,1316.1 544.6,1318.3 546.7,1318.2 "/>
<polygon class="st0" points="438.2,1563.2 438.5,1561.4 436.1,1560.7 435.8,1562.5 "/>
<polygon class="st0" points="418.4,1858.3 419.1,1860.6 425,1860.7 424.3,1858 "/>
<rect x="698.5" y="1328.6" transform="matrix(0.7056 -0.7087 0.7087 0.7056 -735.9928 888.3146)" class="st0" width="4.9" height="2.5"/>
<polygon class="st0" points="704.6,1371.5 705.2,1374.7 710.2,1374.2 709.5,1371 "/>
<polygon class="st0" points="410.3,1687.4 407.8,1689.6 409.6,1691.4 412.2,1689.2 "/>
<rect x="391.6" y="1732.4" transform="matrix(0.9959 -9.097639e-02 9.097639e-02 0.9959 -156.1849 42.9367)" class="st0" width="2.6" height="4.5"/>
<polygon class="st0" points="471.4,1640.7 470.7,1639.3 467.9,1643.4 468.6,1644.8 "/>
<polygon class="st0" points="499.2,1684.2 494.2,1683.1 493.2,1686.2 498.3,1687.3 "/>
<polygon class="st0" points="725.6,1314.9 728.6,1317.6 730.2,1316 727.1,1313.3 "/>
<polygon class="st0" points="488.5,1493.8 483.6,1493.6 483.4,1496.7 488.4,1496.9 "/>
<polygon class="st0" points="474,1626.2 469.6,1623.4 467.6,1625.4 471.9,1628.2 "/>
<rect x="354.8" y="1707.4" transform="matrix(0.3013 -0.9535 0.9535 0.3013 -1379.4625 1534.7845)" class="st0" width="5.5" height="2.6"/>
<polygon class="st0" points="2812.3,1820.9 2809.9,1822.6 2811.9,1824.9 2814.3,1823.2 "/>
<polygon class="st0" points="2869.4,1767.3 2867,1769 2869,1771.3 2871.4,1769.6 "/>
<polygon class="st0" points="2760,1763.3 2757.4,1766.3 2762.7,1770.6 2765.3,1767.7 "/>
<polygon class="st0" points="2840.9,1730.8 2847.5,1732.5 2850.4,1728.4 2843.8,1726.6 "/>
<polygon class="st0" points="2794.8,1780.9 2789,1781.2 2790.1,1786.3 2796,1786 "/>
<polygon class="st0" points="2739.9,1720.2 2737.4,1714.8 2731.9,1716.9 2734.4,1722.3 "/>
<polygon class="st0" points="2756.5,1632.4 2754.1,1634 2756.5,1635.5 2758.9,1633.9 "/>
<polygon class="st0" points="2758.2,1669.4 2760.1,1665.1 2754.5,1663.2 2752.7,1667.5 "/>
<polygon class="st0" points="2485.1,1905.3 2487,1899 2480.6,1896.7 2478.7,1903 "/>
<polygon class="st0" points="2434.5,1941.9 2436.4,1935.6 2430,1933.3 2428.1,1939.6 "/>
<polygon class="st0" points="2778.6,1931.6 2785.1,1933.6 2786.3,1927 2779.8,1924.9 "/>
<rect x="2605.6" y="1886.2" transform="matrix(0.7568 -0.6537 0.6537 0.7568 -599.3907 2164.9529)" class="st0" width="7.6" height="3.4"/>
<polygon class="st0" points="2517.7,1900.7 2520.4,1902.9 2525.8,1898.8 2523.1,1896.5 "/>
<rect x="2546.3" y="1899.3" transform="matrix(0.2383 -0.9712 0.9712 0.2383 95.7498 3924.0818)" class="st0" width="6.5" height="3.4"/>
<rect x="2789.9" y="1892.3" transform="matrix(0.5038 -0.8638 0.8638 0.5038 -249.4978 3353.6326)" class="st0" width="9.2" height="3.4"/>
<polygon class="st0" points="2559.9,1674.5 2565.3,1672.1 2564.8,1668.8 2559.5,1671.3 "/>
<polygon class="st0" points="2615.9,1833.4 2617.9,1828.3 2612.3,1826.4 2610.3,1831.5 "/>
<rect x="2713.7" y="1760.5" transform="matrix(0.55 -0.8352 0.8352 0.55 -247.8724 3063.9019)" class="st0" width="10.9" height="2.9"/>
<rect x="2506.9" y="1674.7" transform="matrix(0.4372 -0.8994 0.8994 0.4372 -92.8014 3204.05)" class="st0" width="13.4" height="2.9"/>
<rect x="2514.5" y="1615.6" transform="matrix(0.8989 -0.4381 0.4381 0.8989 -454.6234 1265.8983)" class="st0" width="2.9" height="5.2"/>
<polygon class="st0" points="2487,1775.3 2492.6,1773.4 2491.5,1770.1 2485.9,1771.9 "/>
<polygon class="st0" points="2713.1,1830.7 2710.4,1828.2 2707.6,1833.3 2710.2,1835.8 "/>
<polygon class="st0" points="2656.6,1644.5 2651.1,1646.3 2652.5,1650.1 2658.1,1648.2 "/>
<rect x="2650.7" y="1728.3" transform="matrix(0.9971 -7.582357e-02 7.582357e-02 0.9971 -123.887 206.0898)" class="st0" width="2.9" height="12.5"/>
<polygon class="st0" points="2563.4,1792.6 2569.2,1792.3 2568.6,1787.6 2562.7,1787.8 "/>
<polygon class="st0" points="2565.2,1946.1 2570.5,1939.3 2565.5,1934.7 2560.1,1941.5 "/>
<rect x="1489.7" y="1770.2" transform="matrix(0.989 -0.148 0.148 0.989 -246.0333 240.41)" class="st0" width="5.9" height="6.8"/>
<rect x="2565.1" y="1327.6" transform="matrix(0.4898 -0.8718 0.8718 0.4898 152.8359 2918.488)" class="st0" width="9.9" height="2"/>
<polygon class="st0" points="2642.8,1370.9 2640.2,1373.6 2641.6,1375.1 2644.1,1372.4 "/>
<rect x="2671.5" y="1439.5" transform="matrix(0.5572 -0.8304 0.8304 0.5572 -13.6095 2858.7915)" class="st0" width="4.1" height="5.3"/>
<polygon class="st0" points="2654.4,1454.4 2652.3,1452.1 2649.9,1453.8 2652,1456.1 "/>
<rect x="2582.2" y="1377.7" transform="matrix(0.8948 -0.4465 0.4465 0.8948 -344.7938 1299.2173)" class="st0" width="4.1" height="6.9"/>
<rect x="2527.6" y="1438.5" transform="matrix(0.5079 -0.8614 0.8614 0.5079 4.9465 2887.6694)" class="st0" width="4.9" height="2"/>
<path class="st0" d="M756.9,1605.8l5.9,0.4l0.9-3.7c-2-0.1-4.3-0.2-6.3-0.3L756.9,1605.8z"/>
<path class="st0" d="M781.3,1676.2l5.9,0.4l0.8-3.2c-2-0.1-4.3-0.2-6.3-0.3L781.3,1676.2z"/>
<path class="st0" d="M1915.4,1612.5l-0.2-4.8c-2,0-3.9,0-5.9,0l0.2,5.1L1915.4,1612.5z"/>
<path class="st0" d="M1546.4,1609.6l0.5-3.1c-2,0-3.9,0-5.9,0l-0.5,2.7L1546.4,1609.6z"/>
<polygon class="st0" points="511.2,1386.2 520.7,1377.9 519.8,1376.9 514.5,1380.5 509.8,1384.7 "/>
<path class="st0" d="M2126.8,1608c-0.9,0-1.8,0-2.7,0l2,1.2L2126.8,1608z"/>
<rect x="2659.7" y="1398.8" transform="matrix(0.9953 -9.633119e-02 9.633119e-02 0.9953 -122.7019 262.9354)" class="st0" width="4.1" height="7"/>
<path class="st0" d="M2711.8,1610.9l-0.6-7.5c-1.9,0.1-3.9,0.1-5.9,0.2l0.6,7.6L2711.8,1610.9z"/>
<rect x="2630.8" y="1545.2" transform="matrix(0.2223 -0.975 0.975 0.2223 539.9614 3773.1875)" class="st0" width="8.8" height="5.9"/>
<polygon class="st0" points="2692.9,1589.6 2695.8,1589.4 2695.6,1585.2 2692.7,1585.4 "/>
<polygon class="st0" points="2683.9,1496.1 2689.2,1493.6 2686.5,1489.1 2681.2,1491.6 "/>
<polygon class="st0" points="2934.2,1916.7 2934.5,1921.1 2937.9,1921.4 2937.6,1917.1 "/>
<rect x="2562.5" y="1462" transform="matrix(0.4374 -0.8992 0.8992 0.4374 129.3603 3133.6274)" class="st0" width="13.4" height="2.9"/>
<rect x="2570.8" y="1413.5" transform="matrix(0.6562 -0.7546 0.7546 0.6562 -182.9567 2429.4431)" class="st0" width="7.8" height="4.1"/>
<polygon class="st0" points="2628.3,1517.4 2633.8,1519.3 2635.1,1517 2629.6,1515.1 "/>
<polygon class="st0" points="2537,1640.5 2536.3,1644.9 2542,1646.3 2542.7,1641.8 "/>
<polygon class="st0" points="2607.9,1451.7 2613.8,1451.4 2612.3,1446.6 2606.4,1446.8 "/>
<polygon class="st0" points="2599,1418.3 2602.2,1414.6 2599.3,1411.7 2596.1,1415.4 "/>
<polygon class="st0" points="2714.7,1494.5 2720.3,1492.6 2718.5,1487.8 2712.9,1489.6 "/>
<rect x="2504.4" y="1389.5" transform="matrix(0.9981 -6.133010e-02 6.133010e-02 0.9981 -80.7606 156.2813)" class="st0" width="2.1" height="8.4"/>
<polygon class="st0" points="2529.7,1354.4 2532.6,1357.3 2534.7,1354.7 2531.8,1351.9 "/>
<polygon class="st0" points="1829.2,1786.4 1826.4,1783.4 1824,1785.1 1826.7,1788.1 "/>
<rect x="1767.4" y="1623.1" transform="matrix(0.9988 -4.874483e-02 4.874483e-02 0.9988 -77.1675 88.1548)" class="st0" width="2.9" height="6.2"/>
<polygon class="st0" points="1819.3,1824.8 1822.2,1818.6 1816.6,1816.7 1813.7,1823 "/>
<rect x="1807.5" y="1721.1" transform="matrix(0.9971 -7.582045e-02 7.582045e-02 0.9971 -125.7635 142.1272)" class="st0" width="2.9" height="12.5"/>
<polygon class="st0" points="1793.9,1655.4 1796.5,1658.1 1800.4,1653.7 1797.8,1651 "/>
<polygon class="st0" points="1775.7,1704.9 1781.1,1702.5 1780.7,1698.2 1775.3,1700.7 "/>
<polygon class="st0" points="1717.2,1792.5 1722.8,1790.6 1721.6,1787.1 1716,1788.9 "/>
<polygon class="st0" points="1623.1,1815.7 1628.6,1813.9 1627.4,1810.3 1621.8,1812.2 "/>
<polygon class="st0" points="1718.6,1661 1715.9,1665.1 1718.5,1666.4 1721.2,1662.2 "/>
<polygon class="st0" points="1669.1,1629.8 1666.5,1635.1 1670,1637.7 1672.5,1632.4 "/>
<polygon class="st0" points="1944.3,1710.7 1940.8,1706.3 1935.3,1708.4 1938.8,1712.8 "/>
<rect x="1917.1" y="1752" transform="matrix(0.5498 -0.8353 0.8353 0.5498 -599.0925 2395.2966)" class="st0" width="10.9" height="2.9"/>
<rect x="1955.5" y="1612.8" transform="matrix(0.8225 -0.5687 0.5687 0.8225 -574.105 1400.5159)" class="st0" width="2.9" height="14.7"/>
<polygon class="st0" points="1962.8,1660.4 1963.5,1656.5 1957.9,1654.7 1957.2,1658.6 "/>
<polygon class="st0" points="1861.9,1642.7 1856.3,1644.5 1857.6,1647.2 1863.2,1645.4 "/>
<polygon class="st0" points="1906,1816.3 1903.1,1821.4 1906.2,1822.4 1909.1,1817.3 "/>
<polygon class="st0" points="1637.3,1856.1 1642.6,1853.6 1641.1,1849.1 1635.8,1851.6 "/>
<polygon class="st0" points="1555.4,1716.5 1556.5,1718.6 1562.2,1717.1 1561.1,1715 "/>
<rect x="1563.5" y="1770.6" transform="matrix(0.2867 -0.958 0.958 0.2867 -581.819 2765.9136)" class="st0" width="5.9" height="6.1"/>
<polygon class="st0" points="2467.6,1632.4 2466.3,1628.7 2461.5,1632.2 2462.9,1635.8 "/>
<polygon class="st0" points="1585.6,1672 1589.1,1668 1583.8,1665.5 1580.2,1669.5 "/>
<polygon class="st0" points="1490,1642.5 1484.2,1643.8 1484.9,1647.2 1490.6,1645.9 "/>
<polygon class="st0" points="1526.5,1774.8 1527.8,1776.9 1532.5,1773.5 1531.3,1771.3 "/>
<rect x="1515.2" y="1721.8" transform="matrix(0.6381 -0.77 0.77 0.6381 -776.5593 1794.6207)" class="st0" width="10.9" height="2.9"/>
<polygon class="st0" points="1674.2,1750.7 1679.9,1752.1 1680.8,1749 1675,1747.7 "/>
<polygon class="st0" points="1665.1,1809.4 1661.2,1813.7 1665.5,1815.5 1669.5,1811.1 "/>
<rect x="1622.3" y="1689.7" transform="matrix(0.989 -0.1479 0.1479 0.989 -232.5774 259.0498)" class="st0" width="5.9" height="6.8"/>
<rect x="1571.8" y="1817.3" transform="matrix(0.4372 -0.8994 0.8994 0.4372 -747.3156 2443.3621)" class="st0" width="13.4" height="2.9"/>
<polygon class="st0" points="2093.7,1927.1 2091.1,1932.4 2093.9,1933.6 2096.4,1928.3 "/>
<rect x="2081.2" y="1894.1" transform="matrix(0.2865 -0.9581 0.9581 0.2865 -330.6023 3350.4795)" class="st0" width="5.9" height="6.1"/>
<rect x="2070.8" y="1932.9" transform="matrix(0.8988 -0.4384 0.4384 0.8988 -638.7303 1104.2606)" class="st0" width="2.9" height="5.2"/>
<polygon class="st0" points="2163.8,1922.1 2158,1922.9 2158.3,1926.5 2164.1,1925.6 "/>
<polygon class="st0" points="2007.8,1947.4 2002,1948.3 2002.3,1951.8 2008.1,1951 "/>
<polygon class="st0" points="2311.1,1934.5 2316.5,1932 2314.9,1927.6 2309.6,1930.1 "/>
<rect x="2168.4" y="1876.1" transform="matrix(0.2867 -0.958 0.958 0.2867 -251.4176 3420.6172)" class="st0" width="5.9" height="6.1"/>
<rect x="2272.8" y="1908" transform="matrix(0.2867 -0.958 0.958 0.2867 -207.4889 3543.4783)" class="st0" width="5.9" height="6.1"/>
<polygon class="st0" points="2338.9,1887.8 2335,1892.2 2339.4,1893.9 2343.3,1889.5 "/>
<polygon class="st0" points="2365.6,1931.4 2361.7,1935.8 2366.1,1937.5 2370,1933.1 "/>
<polygon class="st0" points="1955.9,1803.9 1961.5,1805.8 1962.3,1803.4 1956.7,1801.5 "/>
<polygon class="st0" points="1493.2,1937.9 1496.1,1931.7 1490.5,1929.8 1487.7,1936.1 "/>
<polygon class="st0" points="1517.3,1912.5 1514.4,1917.6 1517.5,1918.6 1520.4,1913.5 "/>
<polygon class="st0" points="1567.2,1900.1 1572.8,1902 1573.6,1899.6 1568,1897.7 "/>
<rect x="1627.8" y="1743.5" transform="matrix(0.5207 -0.8538 0.8538 0.5207 -708.3773 2228.1965)" class="st0" width="4.9" height="2.9"/>
<rect x="1628.9" y="1774.3" transform="matrix(0.9988 -4.874483e-02 4.874483e-02 0.9988 -84.6992 81.5866)" class="st0" width="2.9" height="6.2"/>
<rect x="1587.1" y="1723.1" transform="matrix(0.9988 -4.874483e-02 4.874483e-02 0.9988 -82.2471 79.4977)" class="st0" width="3.4" height="5.9"/>
<rect x="2329" y="1766.9" transform="matrix(0.6381 -0.7699 0.7699 0.6381 -516.7452 2437.2949)" class="st0" width="10.9" height="2.9"/>
<rect x="2362.7" y="1804.6" transform="matrix(0.2867 -0.958 0.958 0.2867 -44.2218 3555.832)" class="st0" width="5.9" height="6.1"/>
<polygon class="st0" points="2384.6,1680.4 2385.7,1676.5 2380.4,1674.1 2379.3,1677.9 "/>
<polygon class="st0" points="2227,1726.9 2226,1723.8 2223.1,1723.7 2224.1,1726.8 "/>
<polygon class="st0" points="2317.6,1833.9 2314.2,1838.7 2317.5,1840.8 2320.9,1836 "/>
<polygon class="st0" points="2413.5,1835.7 2410.1,1840.5 2413.4,1842.7 2416.8,1837.9 "/>
<rect x="2280.5" y="1849.3" transform="matrix(0.9891 -0.1475 0.1475 0.9891 -248.3123 357.0798)" class="st0" width="5.9" height="6.8"/>
<polygon class="st0" points="2285.1,1644.7 2279.4,1646 2280.1,1648.3 2285.9,1647.1 "/>
<rect x="2418.9" y="1698.2" transform="matrix(0.989 -0.1477 0.1477 0.989 -224.7702 376.3754)" class="st0" width="5.9" height="6.8"/>
<rect x="2381.7" y="1632.3" transform="matrix(0.8798 -0.4753 0.4753 0.8798 -492.9084 1329.7358)" class="st0" width="2.9" height="14.7"/>
<rect x="2425.5" y="1782.8" transform="matrix(0.9988 -4.874483e-02 4.874483e-02 0.9988 -84.1682 120.4271)" class="st0" width="2.9" height="6.2"/>
<polygon class="st0" points="2217.3,1656.8 2220.9,1659.7 2225.2,1655.8 2221.6,1652.9 "/>
<polygon class="st0" points="2456,1810.6 2452.1,1815 2453.1,1817 2457,1812.6 "/>
<polygon class="st0" points="1917.2,1923.4 1919.2,1918.3 1913.6,1916.5 1911.7,1921.6 "/>
<polygon class="st0" points="1891,1946.1 1888.3,1943.6 1885.5,1948.7 1888.2,1951.3 "/>
<polygon class="st0" points="1864.7,1882.7 1870.5,1882.4 1869.9,1877.6 1864,1877.9 "/>
<rect x="1802.2" y="1890.4" transform="matrix(0.2867 -0.958 0.958 0.2867 -526.3821 3080.0701)" class="st0" width="5.9" height="6.1"/>
<polygon class="st0" points="1641.5,1917.2 1638.1,1922 1641.4,1924.1 1644.8,1919.3 "/>
<polygon class="st0" points="1714.8,1925.8 1711.4,1930.6 1714.7,1932.7 1718.1,1927.9 "/>
<rect x="1726.8" y="1872.9" transform="matrix(0.9988 -4.874483e-02 4.874483e-02 0.9988 -89.3879 86.4766)" class="st0" width="2.9" height="6.2"/>
<polygon class="st0" points="1757.3,1900.7 1753.4,1905.1 1754.4,1907.1 1758.3,1902.7 "/>
<rect x="2424.4" y="1752" transform="matrix(0.5202 -0.854 0.854 0.5202 -333.193 2913.9058)" class="st0" width="4.9" height="2.9"/>
<rect x="2376.1" y="1766.7" transform="matrix(0.8991 -0.4377 0.4377 0.8991 -534.5605 1219.085)" class="st0" width="2.9" height="5.2"/>
<rect x="2383.7" y="1731.6" transform="matrix(0.9988 -4.874483e-02 4.874483e-02 0.9988 -81.7161 118.3381)" class="st0" width="3.4" height="5.9"/>
<rect x="2192.5" y="1623.6" transform="matrix(6.077724e-02 -0.9982 0.9982 6.077724e-02 439.9999 3717.8096)" class="st0" width="6.2" height="2.9"/>
<polygon class="st0" points="2106.5,1741.5 2103.6,1741.7 2103.7,1745 2106.7,1744.8 "/>
<rect x="2069.4" y="1847.6" transform="matrix(0.9483 -0.3175 0.3175 0.9483 -480.9873 753.8619)" class="st0" width="5.9" height="10"/>
<polygon class="st0" points="2091.5,1728.2 2090.3,1731.1 2095.8,1733.1 2097.1,1730.2 "/>
<polygon class="st0" points="2116.6,1824.3 2120.5,1819.9 2115.3,1816.1 2111.4,1820.5 "/>
<rect x="2042.5" y="1672.4" transform="matrix(0.9993 -3.850117e-02 3.850117e-02 0.9993 -63.0054 79.9963)" class="st0" width="5.9" height="6.8"/>
<polygon class="st0" points="1989.7,1722.8 1987.7,1725.5 1990.1,1727.2 1992.1,1724.4 "/>
<polygon class="st0" points="1999,1862.7 1999.1,1865.1 2005,1865.1 2004.9,1862.4 "/>
<polygon class="st0" points="1960.5,1862 1962.9,1860.3 1960,1855.7 1957.5,1857.3 "/>
<polygon class="st0" points="2205.4,1829.9 2209,1831 2210.7,1825.4 2207.1,1824.3 "/>
<polygon class="st0" points="2200.5,1805 2201.7,1802.2 2199.1,1800.9 2197.9,1803.7 "/>
<rect x="2144.1" y="1845.9" transform="matrix(0.9988 -4.874483e-02 4.874483e-02 0.9988 -87.579 106.7855)" class="st0" width="2.9" height="6.2"/>
<rect x="2037.5" y="1918.6" transform="matrix(0.9992 -3.970302e-02 3.970302e-02 0.9992 -74.6237 82.533)" class="st0" width="6.2" height="2.9"/>
<polygon class="st0" points="1048.2,1936.2 1050.1,1941.2 1056.4,1941.2 1053.6,1934.1 "/>
<polygon class="st0" points="1070.6,1901.5 1073.4,1895.3 1067.8,1893.4 1065,1899.7 "/>
<polygon class="st0" points="1157.2,1893 1154.4,1898.1 1157.5,1899.1 1160.4,1894 "/>
<polygon class="st0" points="906.4,1895.3 911.7,1892.9 910.2,1888.4 904.8,1890.9 "/>
<polygon class="st0" points="853,1865.2 849.1,1869.6 853.4,1871.3 857.4,1866.9 "/>
<polygon class="st0" points="1207.2,1880.6 1212.8,1882.5 1213.5,1880.1 1208,1878.2 "/>
<rect x="1320.7" y="1902.4" transform="matrix(0.9483 -0.3175 0.3175 0.9483 -537.1458 518.964)" class="st0" width="5.9" height="10"/>
<polygon class="st0" points="1367.9,1901 1371.8,1896.6 1366.6,1892.8 1362.7,1897.2 "/>
<polygon class="st0" points="1367.8,1877.8 1371.7,1873.5 1366.5,1869.6 1362.6,1874 "/>
<polygon class="st0" points="1250.3,1939.4 1250.4,1941.8 1256.3,1941.8 1256.2,1939.1 "/>
<polygon class="st0" points="1211.7,1938.7 1214.1,1937 1211.2,1932.4 1208.8,1934 "/>
<rect x="1395.4" y="1922.6" transform="matrix(0.9988 -4.874483e-02 4.874483e-02 0.9988 -92.2077 70.3796)" class="st0" width="2.9" height="6.2"/>
<polygon class="st0" points="2142.7,1659.5 2144.3,1655.7 2141.8,1654.1 2140.2,1658 "/>
<rect x="2129.3" y="1636.9" transform="matrix(0.3894 -0.9211 0.9211 0.3894 -208.6063 2965.2732)" class="st0" width="5.9" height="6.1"/>
<polygon class="st0" points="2068.4,1617.5 2070.4,1619.8 2075.5,1616.9 2073.5,1614.6 "/>
</svg>
