<?xml version="1.0" encoding="utf-8"?>
    <!-- Generator: Adobe Illustrator 26.4.1, SVG Export Plug-In . SVG Version: 6.00 Build 0)  -->
    <svg version="1.1" id="Pattern_4" xmlns="http://www.w3.org/2000/svg" xmlns:xlink="http://www.w3.org/1999/xlink" x="0px" y="0px"
         viewBox="0 0 3200 3200" style="enable-background:new 0 0 3200 3200;" xml:space="preserve">
    <style type="text/css">
        .Pattern_4_st0_sprinkle{fill:#00AF9D;}
    </style>
    <rect x="626.1" y="1739.2" transform="matrix(0.4353 -0.9003 0.9003 0.4353 -1215.2781 1551.5415)" class="Pattern_4_st0_sprinkle" width="6.2" height="10.6"/>
    <rect x="701.3" y="1807.9" transform="matrix(0.669 -0.7433 0.7433 0.669 -1115.9584 1124.4081)" class="Pattern_4_st0_sprinkle" width="6.2" height="14.3"/>
    <rect x="449" y="1719.6" transform="matrix(3.901232e-02 -0.9992 0.9992 3.901232e-02 -1281.9625 2109.2537)" class="Pattern_4_st0_sprinkle" width="13.3" height="3.1"/>
    <rect x="575.3" y="1455.9" transform="matrix(0.9514 -0.3079 0.3079 0.9514 -422.0363 248.5577)" class="Pattern_4_st0_sprinkle" width="2.6" height="11.3"/>
    <rect x="1194.3" y="1770.6" transform="matrix(0.9083 -0.4183 0.4183 0.9083 -634.4667 664.1101)" class="Pattern_4_st0_sprinkle" width="6.2" height="17"/>
    <rect x="1334.8" y="1820.3" transform="matrix(0.8121 -0.5835 0.5835 0.8121 -814.6071 1123.8865)" class="Pattern_4_st0_sprinkle" width="6.2" height="13.2"/>
    <rect x="1284.7" y="1646.1" transform="matrix(0.7463 -0.6656 0.6656 0.7463 -773.7001 1276.6011)" class="Pattern_4_st0_sprinkle" width="6.2" height="14.3"/>
    <rect x="861.4" y="1819.8" transform="matrix(0.3224 -0.9466 0.9466 0.3224 -1135.3556 2059.7463)" class="Pattern_4_st0_sprinkle" width="19.2" height="6.2"/>
    <rect x="547.9" y="1894.4" transform="matrix(0.3224 -0.9466 0.9466 0.3224 -1418.3738 1813.5366)" class="Pattern_4_st0_sprinkle" width="19.2" height="6.2"/>
    <rect x="910.7" y="1633.3" transform="matrix(0.9498 -0.3127 0.3127 0.9498 -466.6041 367.9684)" class="Pattern_4_st0_sprinkle" width="6.2" height="10.6"/>
    <rect x="1035.3" y="1716.2" transform="matrix(0.5542 -0.8324 0.8324 0.5542 -965.7617 1632.3315)" class="Pattern_4_st0_sprinkle" width="11.5" height="3.1"/>
    <rect x="929.5" y="1925.8" transform="matrix(1 -1.246265e-03 1.246265e-03 1 -2.4068 1.1633)" class="Pattern_4_st0_sprinkle" width="5.5" height="11.9"/>
    <rect x="482.7" y="1510.4" transform="matrix(0.6602 -0.751 0.751 0.6602 -968.9108 881.5133)" class="Pattern_4_st0_sprinkle" width="14.2" height="2.6"/>
    <rect x="1294.7" y="1897.6" transform="matrix(0.5372 -0.8435 0.8435 0.5372 -1001.7361 1975.142)" class="Pattern_4_st0_sprinkle" width="8.5" height="5.5"/>
    <rect x="374.1" y="1666.2" transform="matrix(0.5376 -0.8432 0.8432 0.5376 -1229.9783 1092.5508)" class="Pattern_4_st0_sprinkle" width="14.2" height="3.1"/>
    <rect x="592.9" y="1358.5" transform="matrix(0.292 -0.9564 0.9564 0.292 -879.0618 1533.9161)" class="Pattern_4_st0_sprinkle" width="7.2" height="4.4"/>
    <rect x="646" y="1330.1" transform="matrix(0.5121 -0.8589 0.8589 0.5121 -824.9626 1212.2242)" class="Pattern_4_st0_sprinkle" width="17.1" height="4.3"/>
    <rect x="650.1" y="1459" transform="matrix(0.5236 -0.852 0.852 0.5236 -933.4216 1254.0176)" class="Pattern_4_st0_sprinkle" width="8.9" height="5.3"/>
    <rect x="336" y="1899.4" transform="matrix(0.9651 -0.2617 0.2617 0.9651 -486.7484 155.0544)" class="Pattern_4_st0_sprinkle" width="5.5" height="11.3"/>
    <rect x="566.7" y="1498" transform="matrix(0.7957 -0.6057 0.6057 0.7957 -794.0923 651.9287)" class="Pattern_4_st0_sprinkle" width="5.3" height="10.1"/>
    <rect x="488.3" y="1605.7" transform="matrix(0.4903 -0.8715 0.8715 0.4903 -1154.5861 1249.9204)" class="Pattern_4_st0_sprinkle" width="6.2" height="12.8"/>
    <rect x="518.1" y="1368.3" transform="matrix(0.1689 -0.9856 0.9856 0.1689 -915.7265 1654.9193)" class="Pattern_4_st0_sprinkle" width="10.8" height="4.3"/>
    <rect x="2685.5" y="1704.9" transform="matrix(0.4544 -0.8908 0.8908 0.4544 -53.7857 3329.1553)" class="Pattern_4_st0_sprinkle" width="10.5" height="7.2"/>
    <rect x="2838.4" y="1782.6" transform="matrix(0.4942 -0.8693 0.8693 0.4942 -110.6697 3378.5747)" class="Pattern_4_st0_sprinkle" width="19.6" height="3.6"/>
    <rect x="2786.5" y="1913.5" transform="matrix(0.6354 -0.7722 0.7722 0.6354 -461.7848 2856.3142)" class="Pattern_4_st0_sprinkle" width="14.6" height="7.2"/>
    <rect x="1865.2" y="1915.4" transform="matrix(0.9832 -0.1826 0.1826 0.9832 -319.5984 373.5515)" class="Pattern_4_st0_sprinkle" width="7.3" height="14"/>
    <rect x="2060.8" y="1926.1" transform="matrix(0.7725 -0.6351 0.6351 0.7725 -753.3782 1753.0969)" class="Pattern_4_st0_sprinkle" width="17.9" height="3.6"/>
    <rect x="2527.2" y="1668.3" transform="matrix(0.669 -0.7433 0.7433 0.669 -407.7928 2435.3296)" class="Pattern_4_st0_sprinkle" width="6.2" height="14.3"/>
    <rect x="2724.5" y="1535.5" transform="matrix(0.9991 -4.357074e-02 4.357074e-02 0.9991 -64.408 120.2245)" class="Pattern_4_st0_sprinkle" width="2.6" height="4.4"/>
    <rect x="2649.3" y="1323.3" transform="matrix(0.6642 -0.7475 0.7475 0.6642 -99.5259 2429.4512)" class="Pattern_4_st0_sprinkle" width="10.4" height="4.4"/>
    <path class="Pattern_4_st0_sprinkle" d="M2260,1633.1l1.4-21.1c-2.1,0-4.2,0-6.3,0l-1.4,20.7L2260,1633.1z"/>
    <rect x="2727.1" y="1515.6" transform="matrix(0.6692 -0.743 0.743 0.6692 -228.4398 2532.3694)" class="Pattern_4_st0_sprinkle" width="6.2" height="14.3"/>
    <rect x="2594.7" y="1448.1" transform="matrix(0.5121 -0.8589 0.8589 0.5121 24.3868 2943.5117)" class="Pattern_4_st0_sprinkle" width="17.1" height="4.3"/>
    <rect x="2691.3" y="1462" transform="matrix(0.2563 -0.9666 0.9666 0.2563 584.7441 3696.1113)" class="Pattern_4_st0_sprinkle" width="6.2" height="12"/>
    <rect x="1455.5" y="1624.9" transform="matrix(0.8823 -0.4707 0.4707 0.8823 -597.0218 878.0706)" class="Pattern_4_st0_sprinkle" width="3.1" height="15.6"/>
    <rect x="1449" y="1713.5" transform="matrix(0.9012 -0.4334 0.4334 0.9012 -600.4591 798.14)" class="Pattern_4_st0_sprinkle" width="3.1" height="5.5"/>
    <rect x="2270.6" y="1718.8" transform="matrix(0.4953 -0.8687 0.8687 0.4953 -351.5179 2846.1958)" class="Pattern_4_st0_sprinkle" width="6.2" height="13.6"/>
    <rect x="2385.7" y="1750" transform="matrix(0.3414 -0.9399 0.9399 0.3414 -71.7301 3403.9382)" class="Pattern_4_st0_sprinkle" width="15.1" height="6.2"/>
    <rect x="2351.8" y="1841.7" transform="matrix(0.9081 -0.4187 0.4187 0.9081 -558.3759 1156.1705)" class="Pattern_4_st0_sprinkle" width="6.2" height="17"/>
    <rect x="2170.8" y="1836.3" transform="matrix(0.8121 -0.5835 0.5835 0.8121 -666.8828 1614.7858)" class="Pattern_4_st0_sprinkle" width="6.2" height="13.2"/>
    <rect x="2040.2" y="1784.1" transform="matrix(0.9083 -0.4183 0.4183 0.9083 -562.5172 1019.2006)" class="Pattern_4_st0_sprinkle" width="6.2" height="17"/>
    </svg>
    