<?xml version="1.0" encoding="utf-8"?>
    <!-- Generator: Adobe Illustrator 26.4.1, SVG Export Plug-In . SVG Version: 6.00 Build 0)  -->
    <svg version="1.1" id="Pattern_3" xmlns="http://www.w3.org/2000/svg" xmlns:xlink="http://www.w3.org/1999/xlink" x="0px" y="0px"
         viewBox="0 0 3200 3200" style="enable-background:new 0 0 3200 3200;" xml:space="preserve">
    <style type="text/css">
        .Pattern_3_st0_sprinkle{fill:#FFDA29;}
    </style>
    <rect x="616.6" y="1760.9" transform="matrix(0.9012 -0.4334 0.4334 0.9012 -703.2427 442.0959)" class="Pattern_3_st0_sprinkle" width="3.1" height="5.5"/>
    <rect x="673.6" y="1847.6" transform="matrix(0.9083 -0.4183 0.4183 0.9083 -714.4346 453.3102)" class="Pattern_3_st0_sprinkle" width="6.2" height="17"/>
    <rect x="608.1" y="1823.7" transform="matrix(0.4418 -0.8971 0.8971 0.4418 -1294.019 1570.7368)" class="Pattern_3_st0_sprinkle" width="14.2" height="3.1"/>
    <rect x="624.8" y="1723.7" transform="matrix(0.9991 -4.357074e-02 4.357074e-02 0.9991 -74.6444 28.9431)" class="Pattern_3_st0_sprinkle" width="3.6" height="6.2"/>
    <rect x="610.8" y="1669.5" transform="matrix(0.4241 -0.9056 0.9056 0.4241 -1157.4377 1525.1313)" class="Pattern_3_st0_sprinkle" width="19.2" height="6.2"/>
    <rect x="602.2" y="1801" transform="matrix(0.2912 -0.9567 0.9567 0.2912 -1297.0477 1857.9755)" class="Pattern_3_st0_sprinkle" width="6.2" height="6.5"/>
    <rect x="669" y="1778.3" transform="matrix(0.9991 -4.357074e-02 4.357074e-02 0.9991 -76.9871 30.9076)" class="Pattern_3_st0_sprinkle" width="3.1" height="6.5"/>
    <rect x="623.3" y="1618.2" transform="matrix(0.8823 -0.4707 0.4707 0.8823 -691.8428 485.5268)" class="Pattern_3_st0_sprinkle" width="3.1" height="15.6"/>
    <rect x="711.3" y="1615.5" transform="matrix(0.8122 -0.5834 0.5834 0.8122 -812.1624 721.5126)" class="Pattern_3_st0_sprinkle" width="6.2" height="13.2"/>
    <rect x="764.4" y="1601.2" transform="matrix(0.9011 -0.4336 0.4336 0.9011 -619.705 490.7377)" class="Pattern_3_st0_sprinkle" width="3.1" height="5.5"/>
    <rect x="750" y="1641.3" transform="matrix(0.2912 -0.9566 0.9566 0.2912 -1039.47 1886.0713)" class="Pattern_3_st0_sprinkle" width="6.2" height="6.5"/>
    <rect x="667.9" y="1745.6" transform="matrix(0.5251 -0.851 0.851 0.5251 -1168.4871 1400.361)" class="Pattern_3_st0_sprinkle" width="5.2" height="3.1"/>
    <rect x="715.8" y="1745.5" transform="matrix(0.2367 -0.9716 0.9716 0.2367 -1148.1223 2035.8367)" class="Pattern_3_st0_sprinkle" width="11.6" height="6.2"/>
    <rect x="762.9" y="1793.1" transform="matrix(0.9498 -0.3127 0.3127 0.9498 -523.9697 329.7492)" class="Pattern_3_st0_sprinkle" width="6.2" height="10.6"/>
    <rect x="419.6" y="1801.8" transform="matrix(0.4418 -0.8971 0.8971 0.4418 -1379.6201 1389.3491)" class="Pattern_3_st0_sprinkle" width="14.2" height="3.1"/>
    <rect x="492.9" y="1805.5" transform="matrix(0.8122 -0.5834 0.5834 0.8122 -964.0753 629.7887)" class="Pattern_3_st0_sprinkle" width="6.2" height="13.2"/>
    <rect x="514.6" y="1848.1" transform="matrix(0.9897 -0.1429 0.1429 0.9897 -259.2336 92.9508)" class="Pattern_3_st0_sprinkle" width="6.2" height="7.2"/>
    <rect x="462.3" y="1717.1" transform="matrix(0.2367 -0.9716 0.9716 0.2367 -1314.0208 1767.9796)" class="Pattern_3_st0_sprinkle" width="11.6" height="6.2"/>
    <rect x="452.5" y="1639.4" transform="matrix(0.7464 -0.6655 0.6655 0.7464 -980.2346 720.755)" class="Pattern_3_st0_sprinkle" width="6.2" height="14.3"/>
    <rect x="521.1" y="1773.2" transform="matrix(0.9897 -0.1429 0.1429 0.9897 -248.4588 93.1153)" class="Pattern_3_st0_sprinkle" width="6.2" height="7.2"/>
    <rect x="511.1" y="1620.5" transform="matrix(0.9784 -0.2069 0.2069 0.9784 -325.2632 141.5847)" class="Pattern_3_st0_sprinkle" width="6.2" height="10.6"/>
    <rect x="420.5" y="1675.8" transform="matrix(0.9486 -0.3165 0.3165 0.9486 -511.3881 220.694)" class="Pattern_3_st0_sprinkle" width="6.2" height="17"/>
    <rect x="637.2" y="1443.4" transform="matrix(0.7966 -0.6045 0.6045 0.7966 -742.5355 682.3502)" class="Pattern_3_st0_sprinkle" width="11" height="2.2"/>
    <rect x="543.5" y="1368.7" transform="matrix(0.8971 -0.4418 0.4418 0.8971 -550.165 382.3103)" class="Pattern_3_st0_sprinkle" width="4.4" height="7.4"/>
    <rect x="566.6" y="1760.9" transform="matrix(0.642 -0.7667 0.7667 0.642 -1146.342 1069.6812)" class="Pattern_3_st0_sprinkle" width="11.5" height="3.1"/>
    <rect x="446.8" y="1855.9" transform="matrix(0.4353 -0.9003 0.9003 0.4353 -1421.5546 1456.0383)" class="Pattern_3_st0_sprinkle" width="6.2" height="10.6"/>
    <rect x="426.8" y="1573.8" transform="matrix(0.615 -0.7885 0.7885 0.615 -1076.9183 945.1008)" class="Pattern_3_st0_sprinkle" width="5.2" height="3.1"/>
    <rect x="537.2" y="1321" transform="matrix(0.5126 -0.8586 0.8586 0.5126 -872.0681 1107.9509)" class="Pattern_3_st0_sprinkle" width="5.3" height="2.2"/>
    <rect x="422.4" y="1608" transform="matrix(6.594668e-02 -0.9978 0.9978 6.594668e-02 -1208.4801 1928.0875)" class="Pattern_3_st0_sprinkle" width="6.5" height="3.1"/>
    <rect x="422.2" y="1862.2" transform="matrix(0.9011 -0.4336 0.4336 0.9011 -766.7123 368.1671)" class="Pattern_3_st0_sprinkle" width="3.1" height="5.5"/>
    <rect x="598.6" y="1491.3" transform="matrix(0.6481 -0.7615 0.7615 0.6481 -926.8121 983.4096)" class="Pattern_3_st0_sprinkle" width="4.4" height="6.7"/>
    <rect x="1202.1" y="1850.4" transform="matrix(0.9991 -4.357074e-02 4.357074e-02 0.9991 -79.6249 54.203)" class="Pattern_3_st0_sprinkle" width="3.1" height="6.5"/>
    <rect x="1191" y="1652" transform="matrix(0.5377 -0.8432 0.8432 0.5377 -840.3155 1774.7338)" class="Pattern_3_st0_sprinkle" width="14.3" height="3.1"/>
    <rect x="1166.6" y="1813" transform="matrix(0.669 -0.7433 0.7433 0.669 -965.6902 1471.9644)" class="Pattern_3_st0_sprinkle" width="6.2" height="14.3"/>
    <rect x="1095.1" y="1665.7" transform="matrix(0.9994 -3.381263e-02 3.381263e-02 0.9994 -55.8151 38.0893)" class="Pattern_3_st0_sprinkle" width="6.2" height="7.2"/>
    <rect x="1142" y="1728.5" transform="matrix(0.3417 -0.9398 0.9398 0.3417 -871.8177 2218.6978)" class="Pattern_3_st0_sprinkle" width="11.6" height="6.2"/>
    <polygon class="Pattern_3_st0_sprinkle" points="1047.9,1867.5 1048.3,1876.7 1054.5,1876.7 1054.1,1867.2 "/>
    <rect x="1254.6" y="1614.7" transform="matrix(6.594668e-02 -0.9978 0.9978 6.594668e-02 -437.7982 2764.7678)" class="Pattern_3_st0_sprinkle" width="6.5" height="3.1"/>
    <rect x="1281.2" y="1726.3" transform="matrix(3.903128e-02 -0.9992 0.9992 3.903128e-02 -488.8965 2947.2593)" class="Pattern_3_st0_sprinkle" width="13.3" height="3.1"/>
    <rect x="1254.4" y="1868.9" transform="matrix(0.9011 -0.4337 0.4337 0.9011 -687.4371 729.8953)" class="Pattern_3_st0_sprinkle" width="3.1" height="5.5"/>
    <rect x="1251.8" y="1808.5" transform="matrix(0.4422 -0.8969 0.8969 0.4422 -921.2164 2138.8325)" class="Pattern_3_st0_sprinkle" width="14.2" height="3.1"/>
    <rect x="1105" y="1831.6" transform="matrix(0.9498 -0.3127 0.3127 0.9498 -518.8715 438.6778)" class="Pattern_3_st0_sprinkle" width="6.2" height="10.6"/>
    <rect x="868.8" y="1768.3" transform="matrix(0.8255 -0.5645 0.5645 0.8255 -850.6429 801.2773)" class="Pattern_3_st0_sprinkle" width="3.1" height="15.6"/>
    <rect x="849.1" y="1648.2" transform="matrix(0.669 -0.7432 0.7432 0.669 -948.256 1181.248)" class="Pattern_3_st0_sprinkle" width="6.2" height="14.3"/>
    <rect x="816.8" y="1618.6" transform="matrix(0.9991 -4.357074e-02 4.357074e-02 0.9991 -69.8872 37.197)" class="Pattern_3_st0_sprinkle" width="3.1" height="6.5"/>
    <rect x="1002.3" y="1851.4" transform="matrix(0.8255 -0.5644 0.5644 0.8255 -874.1683 891.0229)" class="Pattern_3_st0_sprinkle" width="3.1" height="15.6"/>
    <rect x="996.9" y="1708.4" transform="matrix(0.934 -0.3573 0.3573 0.934 -546.8306 470.5392)" class="Pattern_3_st0_sprinkle" width="6.2" height="13.6"/>
    <rect x="1009.2" y="1660.1" transform="matrix(0.3224 -0.9466 0.9466 0.3224 -883.9827 2091.4502)" class="Pattern_3_st0_sprinkle" width="19.2" height="6.2"/>
    <rect x="1016.6" y="1608.6" transform="matrix(0.8255 -0.5644 0.5644 0.8255 -734.6404 856.7531)" class="Pattern_3_st0_sprinkle" width="3.1" height="15.6"/>
    <rect x="1346.8" y="1854.8" transform="matrix(0.9897 -0.1429 0.1429 0.9897 -251.6529 211.9134)" class="Pattern_3_st0_sprinkle" width="6.2" height="7.2"/>
    <rect x="993.5" y="1809.2" transform="matrix(0.3224 -0.9466 0.9466 0.3224 -1035.8756 2177.6531)" class="Pattern_3_st0_sprinkle" width="19.2" height="6.2"/>
    <rect x="975.2" y="1756.2" transform="matrix(0.5542 -0.8324 0.8324 0.5542 -1025.8237 1600.0764)" class="Pattern_3_st0_sprinkle" width="11.5" height="3.1"/>
    <rect x="1502.2" y="1926.5" transform="matrix(0.3224 -0.9466 0.9466 0.3224 -802.1541 2738.5989)" class="Pattern_3_st0_sprinkle" width="19.2" height="6.2"/>
    <rect x="1540.2" y="1900.6" transform="matrix(0.5542 -0.8324 0.8324 0.5542 -894.1825 2134.7747)" class="Pattern_3_st0_sprinkle" width="11.5" height="3.1"/>
    <rect x="955.9" y="1899" transform="matrix(0.7808 -0.6248 0.6248 0.7808 -976.612 1017.0615)" class="Pattern_3_st0_sprinkle" width="10.6" height="2.7"/>
    <rect x="1028.5" y="1902.9" transform="matrix(0.2823 -0.9593 0.9593 0.2823 -1084.3916 2359.1506)" class="Pattern_3_st0_sprinkle" width="11.9" height="2.7"/>
    <rect x="1388.7" y="1899.2" transform="matrix(4.564750e-02 -0.999 0.999 4.564750e-02 -570.1337 3207.0176)" class="Pattern_3_st0_sprinkle" width="9.3" height="5.5"/>
    <rect x="1265" y="1893.6" transform="matrix(0.2367 -0.9716 0.9716 0.2367 -872.8513 2682.4529)" class="Pattern_3_st0_sprinkle" width="11.6" height="6.2"/>
    <rect x="1806" y="1925.7" transform="matrix(0.4422 -0.8969 0.8969 0.4422 -717.2548 2701.3262)" class="Pattern_3_st0_sprinkle" width="14.2" height="3.1"/>
    <rect x="374.5" y="1923.3" transform="matrix(0.3224 -0.9466 0.9466 0.3224 -1563.2698 1668.9772)" class="Pattern_3_st0_sprinkle" width="19.2" height="6.2"/>
    <rect x="526.3" y="1889.3" transform="matrix(0.8255 -0.5645 0.5645 0.8255 -978.6927 629.0572)" class="Pattern_3_st0_sprinkle" width="3.1" height="15.6"/>
    <rect x="485.3" y="1491.7" transform="matrix(0.3165 -0.9486 0.9486 0.3165 -1083.8241 1484.1725)" class="Pattern_3_st0_sprinkle" width="5.3" height="5"/>
    <rect x="262.7" y="1940.1" transform="matrix(0.9942 -0.1071 0.1071 0.9942 -206.6545 39.5022)" class="Pattern_3_st0_sprinkle" width="3.1" height="5.5"/>
    <rect x="1446.3" y="1896.5" transform="matrix(0.881 -0.4731 0.4731 0.881 -727.6165 911.8505)" class="Pattern_3_st0_sprinkle" width="5.5" height="12.1"/>
    <polygon class="Pattern_3_st0_sprinkle" points="865.6,1856.7 867.6,1862.1 874.3,1862.1 871.4,1854.5 "/>
    <rect x="888.6" y="1925" transform="matrix(0.9991 -4.357074e-02 4.357074e-02 0.9991 -83.1721 40.6151)" class="Pattern_3_st0_sprinkle" width="3.1" height="6.5"/>
    <rect x="840.3" y="1868.6" transform="matrix(0.669 -0.7433 0.7433 0.669 -1115.0299 1247.8354)" class="Pattern_3_st0_sprinkle" width="6.2" height="14.3"/>
    <polygon class="Pattern_3_st0_sprinkle" points="734.4,1942 734.8,1951.2 741,1951.3 740.6,1941.8 "/>
    <rect x="791.5" y="1906.2" transform="matrix(0.9498 -0.3127 0.3127 0.9498 -557.9177 344.3844)" class="Pattern_3_st0_sprinkle" width="6.2" height="10.6"/>
    <rect x="688.8" y="1925.9" transform="matrix(0.8255 -0.5644 0.5644 0.8255 -970.9693 727.1016)" class="Pattern_3_st0_sprinkle" width="3.1" height="15.6"/>
    <rect x="680" y="1883.8" transform="matrix(0.3224 -0.9466 0.9466 0.3224 -1318.8938 1931.4434)" class="Pattern_3_st0_sprinkle" width="19.2" height="6.2"/>
    <polygon class="Pattern_3_st0_sprinkle" points="533.4,1944.3 535.5,1949.6 542.2,1949.7 539.2,1942.1 "/>
    <polygon class="Pattern_3_st0_sprinkle" points="2099.3,1883.3 2100.1,1885.1 2103.6,1885.1 2102.1,1881.9 "/>
    <polygon class="Pattern_3_st0_sprinkle" points="1679.1,1876.4 1681.2,1881.7 1687.9,1881.8 1685,1874.2 "/>
    <polygon class="Pattern_3_st0_sprinkle" points="2552.7,1313.1 2561.4,1306.4 2561.3,1306.3 2557.9,1306.3 2551.3,1311.3 "/>
    <polygon class="Pattern_3_st0_sprinkle" points="2124.6,1876.3 2121.9,1881.9 2128.9,1885.3 2132.1,1885.3 2134.2,1880.9 "/>
    <polygon class="Pattern_3_st0_sprinkle" points="586.1,1322.1 596,1312.3 593.1,1309.3 592.9,1309.3 583.1,1319 "/>
    <path class="Pattern_3_st0_sprinkle" d="M1598,1613.8l2.8-1.4l-2.1-4.3c-0.5,0-1,0-1.5,0l-1.6,0.8L1598,1613.8z"/>
    <path class="Pattern_3_st0_sprinkle" d="M1160.5,1609.3l-3.1-5.5c-2.4,0-4.8-0.1-7.2-0.1l4.9,8.7L1160.5,1609.3z"/>
    <rect x="1130.4" y="1909.2" transform="matrix(0.9975 -7.086190e-02 7.086190e-02 0.9975 -132.9172 85.0285)" class="Pattern_3_st0_sprinkle" width="3.1" height="13.3"/>
    <rect x="1544.3" y="1853.5" transform="matrix(0.5945 -0.8041 0.8041 0.5945 -866.1907 1995.8434)" class="Pattern_3_st0_sprinkle" width="3.1" height="6.5"/>
    <rect x="450.7" y="1938.5" transform="matrix(0.2915 -0.9566 0.9566 0.2915 -1535.9174 1809.7791)" class="Pattern_3_st0_sprinkle" width="6.2" height="6.5"/>
    <rect x="1469.6" y="1915.2" transform="matrix(0.3544 -0.9351 0.9351 0.3544 -844.9462 2617.1282)" class="Pattern_3_st0_sprinkle" width="6.2" height="10.6"/>
    <rect x="1720.8" y="1930.3" transform="matrix(0.669 -0.7433 0.7433 0.669 -869.4036 1922.7091)" class="Pattern_3_st0_sprinkle" width="6.2" height="14.3"/>
    <rect x="615.7" y="1535.6" transform="matrix(0.9999 -1.528401e-02 1.528401e-02 0.9999 -23.4788 9.6302)" class="Pattern_3_st0_sprinkle" width="5.3" height="10.6"/>
    <rect x="645.5" y="1481.4" transform="matrix(0.9993 -3.702122e-02 3.702122e-02 0.9993 -54.747 25.016)" class="Pattern_3_st0_sprinkle" width="5.3" height="18.8"/>
    <rect x="653.4" y="1580.4" transform="matrix(0.9432 -0.3323 0.3323 0.9432 -488.9015 307.6573)" class="Pattern_3_st0_sprinkle" width="3.1" height="5.5"/>
    <rect x="346.9" y="1741.8" transform="matrix(0.9975 -7.086190e-02 7.086190e-02 0.9975 -123.0221 29.0901)" class="Pattern_3_st0_sprinkle" width="3.1" height="13.3"/>
    <rect x="582.7" y="1575.2" transform="matrix(0.7259 -0.6878 0.6878 0.7259 -922.9474 836.8541)" class="Pattern_3_st0_sprinkle" width="11.7" height="2.6"/>
    <rect x="334.4" y="1806.3" transform="matrix(0.669 -0.7433 0.7433 0.669 -1236.2047 851.1608)" class="Pattern_3_st0_sprinkle" width="6.2" height="14.3"/>
    <rect x="667.3" y="1359.4" transform="matrix(0.9936 -0.113 0.113 0.9936 -150.3632 84.4331)" class="Pattern_3_st0_sprinkle" width="4.4" height="17.7"/>
    <rect x="362.1" y="1763.9" transform="matrix(0.9083 -0.4183 0.4183 0.9083 -707.9916 315.3371)" class="Pattern_3_st0_sprinkle" width="6.2" height="17"/>
    <rect x="618.8" y="1411.3" transform="matrix(0.2434 -0.9699 0.9699 0.2434 -899.362 1673.9515)" class="Pattern_3_st0_sprinkle" width="9" height="4.3"/>
    <rect x="602.1" y="1319.5" transform="matrix(0.6598 -0.7514 0.7514 0.6598 -786.8875 905.1496)" class="Pattern_3_st0_sprinkle" width="8.3" height="4.4"/>
    <rect x="687.8" y="1322.6" transform="matrix(0.9984 -5.617686e-02 5.617686e-02 0.9984 -73.4609 40.7966)" class="Pattern_3_st0_sprinkle" width="2.2" height="8.9"/>
    <rect x="1109.5" y="1900.7" transform="matrix(0.2904 -0.9569 0.9569 0.2904 -1028.6946 2416.8721)" class="Pattern_3_st0_sprinkle" width="11.6" height="2.6"/>
    <rect x="472.5" y="1464.5" transform="matrix(0.366 -0.9306 0.9306 0.366 -1062.9089 1371.46)" class="Pattern_3_st0_sprinkle" width="5.2" height="2.6"/>
    <rect x="345.8" y="1929.3" transform="matrix(0.4115 -0.9114 0.9114 0.4115 -1557.3566 1455.679)" class="Pattern_3_st0_sprinkle" width="5.5" height="8.9"/>
    <rect x="530.1" y="1530.9" transform="matrix(0.9955 -9.510451e-02 9.510451e-02 0.9955 -143.8021 57.6328)" class="Pattern_3_st0_sprinkle" width="5.3" height="13"/>
    <rect x="270.4" y="1906.8" transform="matrix(0.9077 -0.4196 0.4196 0.9077 -776.0134 290.2076)" class="Pattern_3_st0_sprinkle" width="2.7" height="4.8"/>
    <rect x="533" y="1591.3" transform="matrix(0.5689 -0.8224 0.8224 0.5689 -1081.6096 1128.5588)" class="Pattern_3_st0_sprinkle" width="5.3" height="9.2"/>
    <rect x="374.5" y="1830.3" transform="matrix(0.215 -0.9766 0.9766 0.215 -1493.6813 1807.8645)" class="Pattern_3_st0_sprinkle" width="6.5" height="5.5"/>
    <rect x="491.1" y="1434.4" transform="matrix(0.3077 -0.9515 0.9515 0.3077 -1023.2217 1466.8806)" class="Pattern_3_st0_sprinkle" width="10.4" height="4.4"/>
    <rect x="547" y="1433.9" transform="matrix(0.6819 -0.7314 0.7314 0.6819 -877.0447 859.4478)" class="Pattern_3_st0_sprinkle" width="5.3" height="8.4"/>
    <rect x="548" y="1473.7" transform="matrix(0.3147 -0.9492 0.9492 0.3147 -1022.5828 1533.6938)" class="Pattern_3_st0_sprinkle" width="5.8" height="2.6"/>
    <rect x="1463.4" y="1937.7" transform="matrix(0.3063 -0.9519 0.9519 0.3063 -828.6352 2741.0911)" class="Pattern_3_st0_sprinkle" width="5.9" height="2.7"/>
    <rect x="2794.6" y="1686.8" transform="matrix(0.7262 -0.6875 0.6875 0.7262 -392.6005 2391.4001)" class="Pattern_3_st0_sprinkle" width="22.5" height="3.6"/>
    <rect x="2786.4" y="1622.3" transform="matrix(7.953806e-02 -0.9968 0.9968 7.953806e-02 950.8412 4281.623)" class="Pattern_3_st0_sprinkle" width="14.8" height="7.2"/>
    <rect x="2752.5" y="1830.1" transform="matrix(0.8254 -0.5646 0.5646 0.8254 -556.7405 1875.7526)" class="Pattern_3_st0_sprinkle" width="3.1" height="15.6"/>
    <rect x="2690.1" y="1785.3" transform="matrix(0.6397 -0.7686 0.7686 0.6397 -402.4631 2719.3025)" class="Pattern_3_st0_sprinkle" width="18.3" height="7.2"/>
    <rect x="2829.4" y="1733.3" transform="matrix(0.2573 -0.9663 0.9663 0.2573 430.9991 4034.625)" class="Pattern_3_st0_sprinkle" width="21.6" height="7.2"/>
    <rect x="2675.1" y="1728.6" transform="matrix(0.934 -0.3573 0.3573 0.934 -443.2551 1071.4479)" class="Pattern_3_st0_sprinkle" width="6.2" height="13.6"/>
    <rect x="2694.7" y="1628.7" transform="matrix(0.8254 -0.5646 0.5646 0.8254 -453.1245 1807.9806)" class="Pattern_3_st0_sprinkle" width="3.1" height="15.6"/>
    <rect x="2687.3" y="1680.2" transform="matrix(0.3224 -0.9466 0.9466 0.3224 233.9718 3693.491)" class="Pattern_3_st0_sprinkle" width="19.2" height="6.2"/>
    <rect x="1934.4" y="1906.2" transform="matrix(0.3431 -0.9393 0.9393 0.3431 -518.5477 3078.167)" class="Pattern_3_st0_sprinkle" width="14.2" height="7.2"/>
    <rect x="2639.8" y="1822" transform="matrix(0.309 -0.9511 0.9511 0.309 94.0673 3780.6453)" class="Pattern_3_st0_sprinkle" width="17.8" height="7.2"/>
    <rect x="2152.8" y="1881.7" transform="matrix(0.7601 -0.6498 0.6498 0.7601 -706.4776 1853.265)" class="Pattern_3_st0_sprinkle" width="8.1" height="3.6"/>
    <rect x="2302.7" y="1879.5" transform="matrix(0.7601 -0.6498 0.6498 0.7601 -669.1118 1950.0935)" class="Pattern_3_st0_sprinkle" width="8.1" height="3.6"/>
    <rect x="2189" y="1909.8" transform="matrix(0.7987 -0.6018 0.6018 0.7987 -710.6011 1704.927)" class="Pattern_3_st0_sprinkle" width="7.2" height="9.2"/>
    <rect x="2568.7" y="1703.3" transform="matrix(0.2433 -0.9699 0.9699 0.2433 292.4378 3785.0371)" class="Pattern_3_st0_sprinkle" width="6.9" height="3.6"/>
    <rect x="1858.3" y="1872.8" transform="matrix(0.5083 -0.8612 0.8612 0.5083 -698.2733 2526.2285)" class="Pattern_3_st0_sprinkle" width="9.8" height="3.6"/>
    <rect x="2417.8" y="1758.8" transform="matrix(0.2272 -0.9738 0.9738 0.2272 156.1852 3720.675)" class="Pattern_3_st0_sprinkle" width="9.3" height="6.2"/>
    <rect x="2494.9" y="1638.7" transform="matrix(0.9991 -4.357074e-02 4.357074e-02 0.9991 -69.1708 110.3326)" class="Pattern_3_st0_sprinkle" width="3.1" height="6.5"/>
    <rect x="2499.5" y="1708" transform="matrix(0.9081 -0.4187 0.4187 0.9081 -488.8134 1205.72)" class="Pattern_3_st0_sprinkle" width="6.2" height="17"/>
    <rect x="2539.5" y="1839.9" transform="matrix(0.3225 -0.9466 0.9466 0.3225 -17.4442 3661.7078)" class="Pattern_3_st0_sprinkle" width="19.2" height="6.2"/>
    <rect x="2653.3" y="1776.3" transform="matrix(0.5543 -0.8323 0.8323 0.5543 -294.6358 3005.5503)" class="Pattern_3_st0_sprinkle" width="11.5" height="3.1"/>
    <rect x="2414.8" y="1622.4" transform="matrix(0.435 -0.9005 0.9005 0.435 -99.4828 3096.9341)" class="Pattern_3_st0_sprinkle" width="6.2" height="10.6"/>
    <rect x="2434.1" y="1684.1" transform="matrix(0.4418 -0.8971 0.8971 0.4418 -149.5986 3130.8687)" class="Pattern_3_st0_sprinkle" width="14.2" height="3.1"/>
    <rect x="2442.5" y="1621.3" transform="matrix(0.9012 -0.4335 0.4335 0.9012 -462.4267 1219.9197)" class="Pattern_3_st0_sprinkle" width="3.1" height="5.5"/>
    <rect x="2441" y="1813.2" transform="matrix(0.9499 -0.3126 0.3126 0.9499 -445.9716 855.1619)" class="Pattern_3_st0_sprinkle" width="6.2" height="10.6"/>
    <rect x="2642" y="1844" transform="matrix(0.4904 -0.8715 0.8715 0.4904 -264.7265 3248.1062)" class="Pattern_3_st0_sprinkle" width="6.2" height="12.8"/>
    <polygon class="Pattern_3_st0_sprinkle" points="2528.6,1888.5 2531.2,1888.5 2530.8,1887.6 "/>
    <rect x="2588.8" y="1653.5" transform="matrix(0.9499 -0.3126 0.3126 0.9499 -388.6319 893.369)" class="Pattern_3_st0_sprinkle" width="6.2" height="10.6"/>
    <rect x="2536.9" y="1743" transform="matrix(0.9975 -7.065786e-02 7.065786e-02 0.9975 -117.2779 183.7385)" class="Pattern_3_st0_sprinkle" width="3.1" height="13.3"/>
    <rect x="2314.1" y="1933.8" transform="matrix(0.676 -0.7369 0.7369 0.676 -673.0069 2344.2339)" class="Pattern_3_st0_sprinkle" width="30.4" height="7.2"/>
    <rect x="2709.1" y="1895.5" transform="matrix(0.2915 -0.9566 0.9566 0.2915 109.5298 3946.0557)" class="Pattern_3_st0_sprinkle" width="19.2" height="7.3"/>
    <rect x="1353.3" y="1779.9" transform="matrix(0.9897 -0.1429 0.1429 0.9897 -240.8784 212.078)" class="Pattern_3_st0_sprinkle" width="6.2" height="7.2"/>
    <rect x="2623.4" y="1327.1" transform="matrix(0.4943 -0.8693 0.8693 0.4943 174.6866 2956.7368)" class="Pattern_3_st0_sprinkle" width="10.5" height="2.2"/>
    <rect x="2633.9" y="1348.8" transform="matrix(0.1683 -0.9857 0.9857 0.1683 863.4632 3725.3401)" class="Pattern_3_st0_sprinkle" width="10.8" height="4.3"/>
    <rect x="2641.9" y="1380.4" transform="matrix(0.7524 -0.6588 0.6588 0.7524 -254.1826 2086.9197)" class="Pattern_3_st0_sprinkle" width="13.4" height="2.2"/>
    <rect x="2720.1" y="1475.4" transform="matrix(0.5614 -0.8275 0.8275 0.5614 -29.412 2900.9771)" class="Pattern_3_st0_sprinkle" width="4.4" height="5.7"/>
    <rect x="2682.7" y="1571.5" transform="matrix(0.8255 -0.5644 0.5644 0.8255 -422.943 1790.6395)" class="Pattern_3_st0_sprinkle" width="3.1" height="15.6"/>
    <rect x="2692.3" y="1391.9" transform="matrix(0.8971 -0.4419 0.4419 0.8971 -339.3299 1334.2167)" class="Pattern_3_st0_sprinkle" width="4.4" height="7.4"/>
    <rect x="2711.7" y="1440.2" transform="matrix(0.5124 -0.8587 0.8587 0.5124 85.7894 3033.6475)" class="Pattern_3_st0_sprinkle" width="5.3" height="2.2"/>
    <path class="Pattern_3_st0_sprinkle" d="M575.7,1612.5l6.2,0.4l1.4-15.1c-2.1-0.2-4.6-0.2-6.7-0.4L575.7,1612.5z"/>
    <path class="Pattern_3_st0_sprinkle" d="M1806.4,1614.8l-0.2-5c-2.1,0-4.2,0-6.3,0l0.2,5.4L1806.4,1614.8z"/>
    <path class="Pattern_3_st0_sprinkle" d="M1414.2,1619.6l0.9-13.2c-2.1,0-4.2,0-6.3-0.1l-0.8,12.9L1414.2,1619.6z"/>
    <path class="Pattern_3_st0_sprinkle" d="M974.1,1608.1l-0.3-6.4c-2.1,0-4.2,0-6.3-0.1l0.3,6.7L974.1,1608.1z"/>
    <path class="Pattern_3_st0_sprinkle" d="M2682.4,1623.9c2.2-2.2,4.4-4.4,6.5-6.6l-3.8-1.3L2682.4,1623.9z"/>
    <path class="Pattern_3_st0_sprinkle" d="M2030.8,1611.1c-1,0-1.9,0-2.9,0l2.1,1.3L2030.8,1611.1z"/>
    <rect x="2601.4" y="1492.5" transform="matrix(0.9958 -9.117418e-02 9.117418e-02 0.9958 -125.5676 243.6058)" class="Pattern_3_st0_sprinkle" width="4.3" height="7.4"/>
    <path class="Pattern_3_st0_sprinkle" d="M2652.2,1628.2l-0.8-18.8c-2.1,0.1-4.1,0.1-6.2,0.2l0.8,18.9L2652.2,1628.2z"/>
    <rect x="2657.6" y="1419.7" transform="matrix(0.2914 -0.9566 0.9566 0.2914 525.6649 3553.3542)" class="Pattern_3_st0_sprinkle" width="7.2" height="4.4"/>
    <rect x="2686.3" y="1496.9" transform="matrix(0.2273 -0.9738 0.9738 0.2273 618.3802 3779.4673)" class="Pattern_3_st0_sprinkle" width="9.3" height="6.2"/>
    <rect x="2607.9" y="1934.6" transform="matrix(0.9975 -7.086190e-02 7.086190e-02 0.9975 -130.9962 189.7886)" class="Pattern_3_st0_sprinkle" width="3.1" height="13.3"/>
    <rect x="2570.4" y="1899.6" transform="matrix(0.9083 -0.4183 0.4183 0.9083 -562.2278 1251.6052)" class="Pattern_3_st0_sprinkle" width="6.2" height="17"/>
    <rect x="2050.8" y="1894.6" transform="matrix(0.1036 -0.9946 0.9946 0.1036 -39.866 3748.5098)" class="Pattern_3_st0_sprinkle" width="17.9" height="3.6"/>
    <rect x="1989.6" y="1934.3" transform="matrix(0.7766 -0.63 0.63 0.7766 -773.2785 1691.7686)" class="Pattern_3_st0_sprinkle" width="17.9" height="3.6"/>
    <rect x="2505" y="1875.7" transform="matrix(0.4421 -0.897 0.897 0.4421 -282.3144 3300.593)" class="Pattern_3_st0_sprinkle" width="14.2" height="3.1"/>
    <rect x="2647.3" y="1458.7" transform="matrix(0.6601 -0.7512 0.7512 0.6601 -196.163 2488.2346)" class="Pattern_3_st0_sprinkle" width="8.3" height="4.4"/>
    <rect x="2523.4" y="1466.4" transform="matrix(0.3413 -0.9399 0.9399 0.3413 285.7108 3346.8687)" class="Pattern_3_st0_sprinkle" width="15.1" height="6.2"/>
    <rect x="2560.3" y="1504.7" transform="matrix(0.9991 -4.357060e-02 4.357060e-02 0.9991 -63.591 113.1277)" class="Pattern_3_st0_sprinkle" width="6.2" height="21.3"/>
    <rect x="2576.9" y="1432.9" transform="matrix(0.9984 -5.615921e-02 5.615921e-02 0.9984 -76.6527 147.048)" class="Pattern_3_st0_sprinkle" width="2.2" height="8.9"/>
    <rect x="2589.4" y="1402.9" transform="matrix(0.7029 -0.7113 0.7113 0.7029 -227.4964 2265.4543)" class="Pattern_3_st0_sprinkle" width="17.7" height="4.4"/>
    <rect x="2674.7" y="1476.7" transform="matrix(0.1488 -0.9889 0.9889 0.1488 816.9803 3904.5569)" class="Pattern_3_st0_sprinkle" width="3.5" height="2.2"/>
    <rect x="1649" y="1625.2" transform="matrix(0.9991 -4.357074e-02 4.357074e-02 0.9991 -69.3884 73.4648)" class="Pattern_3_st0_sprinkle" width="3.1" height="6.5"/>
    <rect x="1693.7" y="1826.5" transform="matrix(0.3223 -0.9466 0.9466 0.3223 -577.6772 2852.2561)" class="Pattern_3_st0_sprinkle" width="19.2" height="6.2"/>
    <rect x="1691.1" y="1729.5" transform="matrix(0.9975 -7.065475e-02 7.065475e-02 0.9975 -118.4372 123.9323)" class="Pattern_3_st0_sprinkle" width="3.1" height="13.3"/>
    <rect x="1681.4" y="1654.9" transform="matrix(0.6691 -0.7432 0.7432 0.6691 -677.8087 1801.8239)" class="Pattern_3_st0_sprinkle" width="6.2" height="14.3"/>
    <rect x="1653.6" y="1694.6" transform="matrix(0.9083 -0.4183 0.4183 0.9083 -560.5318 849.278)" class="Pattern_3_st0_sprinkle" width="6.2" height="17"/>
    <rect x="1595.1" y="1799.8" transform="matrix(0.9499 -0.3126 0.3126 0.9499 -484.1595 590.0723)" class="Pattern_3_st0_sprinkle" width="6.2" height="10.6"/>
    <rect x="1582.3" y="1648" transform="matrix(0.2915 -0.9566 0.9566 0.2915 -456.2423 2686.5264)" class="Pattern_3_st0_sprinkle" width="6.2" height="6.5"/>
    <rect x="1568.9" y="1609" transform="matrix(0.4357 -0.9001 0.9001 0.4357 -565.9373 2325.8413)" class="Pattern_3_st0_sprinkle" width="6.2" height="10.6"/>
    <rect x="1571.9" y="1745.4" transform="matrix(0.2275 -0.9738 0.9738 0.2275 -484.748 2885.8965)" class="Pattern_3_st0_sprinkle" width="9.3" height="6.2"/>
    <rect x="1845.9" y="1724.5" transform="matrix(0.934 -0.3573 0.3573 0.934 -496.5629 774.9926)" class="Pattern_3_st0_sprinkle" width="6.2" height="13.6"/>
    <rect x="1807.4" y="1762.9" transform="matrix(0.5541 -0.8324 0.8324 0.5541 -660.333 2296.0603)" class="Pattern_3_st0_sprinkle" width="11.5" height="3.1"/>
    <rect x="1848.8" y="1615.3" transform="matrix(0.8255 -0.5645 0.5645 0.8255 -593.1957 1327.7811)" class="Pattern_3_st0_sprinkle" width="3.1" height="15.6"/>
    <rect x="1841.5" y="1666.7" transform="matrix(0.3225 -0.9466 0.9466 0.3225 -326.4705 2883.6294)" class="Pattern_3_st0_sprinkle" width="19.2" height="6.2"/>
    <rect x="1743" y="1640" transform="matrix(0.9499 -0.3126 0.3126 0.9499 -426.8198 628.2795)" class="Pattern_3_st0_sprinkle" width="6.2" height="10.6"/>
    <rect x="1796.1" y="1830.6" transform="matrix(0.4908 -0.8713 0.8713 0.4908 -684.3324 2503.0337)" class="Pattern_3_st0_sprinkle" width="6.2" height="12.8"/>
    <rect x="1505.8" y="1854.3" transform="matrix(0.908 -0.4189 0.4189 0.908 -641.5849 803.4518)" class="Pattern_3_st0_sprinkle" width="6.2" height="17"/>
    <rect x="1425.1" y="1722.2" transform="matrix(0.9675 -0.2529 0.2529 0.9675 -390.7891 417.3609)" class="Pattern_3_st0_sprinkle" width="6.2" height="13.6"/>
    <rect x="1434.4" y="1807.7" transform="matrix(0.2916 -0.9565 0.9565 0.2916 -713.9326 2657.906)" class="Pattern_3_st0_sprinkle" width="6.2" height="6.5"/>
    <rect x="2389.4" y="1635.6" transform="matrix(0.8122 -0.5834 0.5834 0.8122 -508.6987 1704.2598)" class="Pattern_3_st0_sprinkle" width="6.2" height="13.2"/>
    <rect x="1443" y="1676.1" transform="matrix(0.4241 -0.9056 0.9056 0.4241 -684.1834 2282.6885)" class="Pattern_3_st0_sprinkle" width="19.2" height="6.2"/>
    <rect x="1313.4" y="1651.6" transform="matrix(0.9784 -0.2069 0.2069 0.9784 -314.3401 308.2496)" class="Pattern_3_st0_sprinkle" width="6.2" height="10.6"/>
    <rect x="1398.8" y="1767.6" transform="matrix(0.642 -0.7667 0.7667 0.642 -853.5566 1710.1378)" class="Pattern_3_st0_sprinkle" width="11.5" height="3.1"/>
    <rect x="1533.5" y="1814.6" transform="matrix(0.669 -0.7433 0.7433 0.669 -845.4429 1745.2112)" class="Pattern_3_st0_sprinkle" width="6.2" height="14.3"/>
    <rect x="1543.6" y="1622.2" transform="matrix(0.8121 -0.5836 0.5836 0.8121 -659.8063 1208.6805)" class="Pattern_3_st0_sprinkle" width="6.2" height="13.2"/>
    <rect x="1440.4" y="1830.4" transform="matrix(0.4418 -0.8971 0.8971 0.4418 -835.4857 2321.0767)" class="Pattern_3_st0_sprinkle" width="14.2" height="3.1"/>
    <rect x="1839.4" y="1822.7" transform="matrix(0.3224 -0.9466 0.9466 0.3224 -475.3945 2987.5427)" class="Pattern_3_st0_sprinkle" width="19.2" height="6.2"/>
    <rect x="1500.1" y="1752.3" transform="matrix(0.5251 -0.851 0.851 0.5251 -778.9388 2111.8181)" class="Pattern_3_st0_sprinkle" width="5.2" height="3.1"/>
    <rect x="1501.2" y="1785" transform="matrix(0.9991 -4.357074e-02 4.357074e-02 0.9991 -76.4883 67.1754)" class="Pattern_3_st0_sprinkle" width="3.1" height="6.5"/>
    <rect x="2244.7" y="1781" transform="matrix(0.6421 -0.7666 0.7666 0.6421 -561.1221 2363.2056)" class="Pattern_3_st0_sprinkle" width="11.5" height="3.1"/>
    <rect x="2278.3" y="1803.7" transform="matrix(0.2916 -0.9565 0.9565 0.2916 -112.3158 3462.2537)" class="Pattern_3_st0_sprinkle" width="6.2" height="6.5"/>
    <rect x="2241.6" y="1795.3" transform="matrix(0.8122 -0.5834 0.5834 0.8122 -629.6409 1647.832)" class="Pattern_3_st0_sprinkle" width="6.2" height="13.2"/>
    <rect x="2127.1" y="1739.7" transform="matrix(3.903128e-02 -0.9992 0.9992 3.903128e-02 310.5182 3805.3977)" class="Pattern_3_st0_sprinkle" width="13.3" height="3.1"/>
    <rect x="2225.5" y="1846.7" transform="matrix(0.5824 -0.8129 0.8129 0.5824 -575.7596 2585.4763)" class="Pattern_3_st0_sprinkle" width="6.2" height="12.8"/>
    <rect x="2192.7" y="1868.3" transform="matrix(0.9898 -0.1424 0.1424 0.9898 -244.1495 331.7057)" class="Pattern_3_st0_sprinkle" width="6.2" height="7.2"/>
    <rect x="2193.7" y="1651.5" transform="matrix(0.9783 -0.2074 0.2074 0.9783 -295.8306 491.5829)" class="Pattern_3_st0_sprinkle" width="6.2" height="10.6"/>
    <rect x="2340.5" y="1708.6" transform="matrix(0.9898 -0.1426 0.1426 0.9898 -220.174 351.6401)" class="Pattern_3_st0_sprinkle" width="6.2" height="7.2"/>
    <rect x="2301.4" y="1638.3" transform="matrix(0.8823 -0.4707 0.4707 0.8823 -503.7746 1277.8221)" class="Pattern_3_st0_sprinkle" width="3.1" height="15.6"/>
    <rect x="2347.1" y="1798.4" transform="matrix(0.9991 -4.357074e-02 4.357074e-02 0.9991 -76.2707 104.0431)" class="Pattern_3_st0_sprinkle" width="3.1" height="6.5"/>
    <rect x="2130.6" y="1659.6" transform="matrix(0.7464 -0.6655 0.6655 0.7464 -568.0911 1842.608)" class="Pattern_3_st0_sprinkle" width="6.2" height="14.3"/>
    <rect x="2379.4" y="1828.1" transform="matrix(0.6692 -0.743 0.743 0.6692 -575.6266 2377.3457)" class="Pattern_3_st0_sprinkle" width="6.2" height="14.3"/>
    <rect x="2346" y="1765.7" transform="matrix(0.5246 -0.8513 0.8513 0.5246 -388.0806 2839.5752)" class="Pattern_3_st0_sprinkle" width="5.2" height="3.1"/>
    <rect x="2302.9" y="1743.8" transform="matrix(0.9991 -4.357074e-02 4.357074e-02 0.9991 -73.928 102.0786)" class="Pattern_3_st0_sprinkle" width="3.6" height="6.2"/>
    <rect x="2005.9" y="1752.9" transform="matrix(0.9975 -7.086190e-02 7.086190e-02 0.9975 -119.6374 146.6748)" class="Pattern_3_st0_sprinkle" width="3.1" height="13.3"/>
    <rect x="1950.9" y="1845.1" transform="matrix(0.9499 -0.3126 0.3126 0.9499 -480.4987 703.5526)" class="Pattern_3_st0_sprinkle" width="6.2" height="10.6"/>
    <rect x="1987.8" y="1742" transform="matrix(0.3417 -0.9398 0.9398 0.3417 -327.6605 3022.3914)" class="Pattern_3_st0_sprinkle" width="11.6" height="6.2"/>
    <rect x="2012.5" y="1826.5" transform="matrix(0.6692 -0.743 0.743 0.6692 -695.7783 2104.1841)" class="Pattern_3_st0_sprinkle" width="6.2" height="14.3"/>
    <rect x="1941" y="1679.1" transform="matrix(0.9994 -3.332467e-02 3.332467e-02 0.9994 -54.9967 65.7216)" class="Pattern_3_st0_sprinkle" width="6.2" height="7.2"/>
    <rect x="1881.2" y="1729.7" transform="matrix(0.5541 -0.8324 0.8324 0.5541 -599.8113 2342.6665)" class="Pattern_3_st0_sprinkle" width="11.5" height="3.1"/>
    <polygon class="Pattern_3_st0_sprinkle" points="1893.7,1880.9 1893.8,1883.4 1900.1,1883.5 1900,1880.6 "/>
    <rect x="2106.3" y="1675.8" transform="matrix(0.9485 -0.3167 0.3167 0.9485 -424.8761 754.8366)" class="Pattern_3_st0_sprinkle" width="6.2" height="17"/>
    <rect x="1816.1" y="1909.4" transform="matrix(0.8254 -0.5646 0.5646 0.8254 -764.9774 1360.9482)" class="Pattern_3_st0_sprinkle" width="3.1" height="15.6"/>
    <rect x="2111.6" y="1841.2" transform="matrix(0.2912 -0.9566 0.9566 0.2912 -265.6631 3330.303)" class="Pattern_3_st0_sprinkle" width="6.2" height="6.5"/>
    <rect x="2097.7" y="1821.9" transform="matrix(0.4423 -0.8969 0.8969 0.4423 -461.5344 2904.77)" class="Pattern_3_st0_sprinkle" width="14.2" height="3.1"/>
    <rect x="2047.9" y="1863.9" transform="matrix(0.9991 -4.357074e-02 4.357074e-02 0.9991 -79.4074 91.0707)" class="Pattern_3_st0_sprinkle" width="3.1" height="6.5"/>
    <rect x="2036.9" y="1665.5" transform="matrix(0.5376 -0.8432 0.8432 0.5376 -460.5511 2494.2158)" class="Pattern_3_st0_sprinkle" width="14.2" height="3.1"/>
    <rect x="2033.3" y="1641.9" transform="matrix(0.3942 -0.919 0.919 0.3942 -278.2101 2868.1934)" class="Pattern_3_st0_sprinkle" width="6.2" height="6.5"/>
    <rect x="1997.3" y="1611.9" transform="matrix(0.8711 -0.4911 0.4911 0.8711 -537.007 1190.991)" class="Pattern_3_st0_sprinkle" width="6.2" height="13.2"/>
    </svg>
    