<?xml version="1.0" encoding="utf-8"?>
    <!-- Generator: Adobe Illustrator 26.4.1, SVG Export Plug-In . SVG Version: 6.00 Build 0)  -->
    <svg version="1.1" id="Pattern_2" xmlns="http://www.w3.org/2000/svg" xmlns:xlink="http://www.w3.org/1999/xlink" x="0px" y="0px"
         viewBox="0 0 3200 3200" style="enable-background:new 0 0 3200 3200;" xml:space="preserve">
    <style type="text/css">
        .Pattern_2_st0_sprinkle{fill:#0086BB;}
    </style>
    <polygon class="Pattern_2_st0_sprinkle" points="538.5,1859.8 538,1872.6 531.7,1872.5 532.2,1859.5 "/>
    <rect x="556.1" y="1852.3" transform="matrix(0.3867 -0.9222 0.9222 0.3867 -1366.0996 1656.4812)" class="Pattern_2_st0_sprinkle" width="12.7" height="6.2"/>
    <rect x="570.9" y="1823.4" transform="matrix(0.7757 -0.6311 0.6311 0.7757 -1023.2194 774.1111)" class="Pattern_2_st0_sprinkle" width="13" height="6.2"/>
    <rect x="564.9" y="1636.8" transform="matrix(0.9625 -0.2713 0.2713 0.9625 -424.3062 215.6775)" class="Pattern_2_st0_sprinkle" width="6.2" height="11.8"/>
    <rect x="587.7" y="1394.2" transform="matrix(0.994 -0.1098 0.1098 0.994 -149.7374 73.5643)" class="Pattern_2_st0_sprinkle" width="10.9" height="4.3"/>
    <rect x="601.4" y="1450.8" transform="matrix(0.5122 -0.8589 0.8589 0.5122 -951.054 1231.5182)" class="Pattern_2_st0_sprinkle" width="14.4" height="4.3"/>
    <rect x="565.2" y="1345.4" transform="matrix(0.218 -0.976 0.976 0.218 -866.7592 1613.5098)" class="Pattern_2_st0_sprinkle" width="16.5" height="4.4"/>
    <rect x="677.1" y="1749.4" transform="matrix(0.8979 -0.4403 0.4403 0.8979 -701.5227 481.2954)" class="Pattern_2_st0_sprinkle" width="18.8" height="6.2"/>
    <rect x="563.1" y="1607.7" transform="matrix(0.3606 -0.9327 0.9327 0.3606 -1143.0914 1559.8831)" class="Pattern_2_st0_sprinkle" width="6.2" height="12"/>
    <rect x="676.4" y="1703.4" transform="matrix(3.853353e-02 -0.9993 0.9993 3.853353e-02 -1048.6229 2323.1777)" class="Pattern_2_st0_sprinkle" width="13.2" height="6.2"/>
    <rect x="648.5" y="1672.6" transform="matrix(0.1878 -0.9822 0.9822 0.1878 -1105.7777 2011.0723)" class="Pattern_2_st0_sprinkle" width="29.3" height="3.1"/>
    <rect x="676.1" y="1620" transform="matrix(0.8504 -0.5262 0.5262 0.8504 -752.023 601.9342)" class="Pattern_2_st0_sprinkle" width="12.3" height="6.2"/>
    <rect x="658" y="1851.3" transform="matrix(0.1698 -0.9855 0.9855 0.1698 -1278.3125 2191.3926)" class="Pattern_2_st0_sprinkle" width="6.8" height="6.2"/>
    <rect x="533.4" y="1688.1" transform="matrix(1 -8.913426e-03 8.913426e-03 1 -15.0528 4.8856)" class="Pattern_2_st0_sprinkle" width="14.4" height="6.2"/>
    <rect x="718" y="1336.6" transform="matrix(0.8887 -0.4585 0.4585 0.8887 -533.2452 480.8005)" class="Pattern_2_st0_sprinkle" width="11.5" height="4.4"/>
    <rect x="717.9" y="1856.5" transform="matrix(0.9025 -0.4308 0.4308 0.9025 -730.7881 491.2819)" class="Pattern_2_st0_sprinkle" width="3.1" height="5.9"/>
    <rect x="614.4" y="1373.5" transform="matrix(0.2226 -0.9749 0.9749 0.2226 -860.5564 1672.1632)" class="Pattern_2_st0_sprinkle" width="7.7" height="4.4"/>
    <rect x="433.8" y="1751" transform="matrix(0.9468 -0.3218 0.3218 0.9468 -542.3218 233.5988)" class="Pattern_2_st0_sprinkle" width="3.1" height="12.2"/>
    <rect x="458" y="1799" transform="matrix(0.7757 -0.6311 0.6311 0.7757 -1033.1239 697.3877)" class="Pattern_2_st0_sprinkle" width="13" height="6.2"/>
    <path class="Pattern_2_st0_sprinkle" d="M434.8,1582.7l2.1,5.9l17.7-6.4l-2-5.5c-0.3-0.1-0.5-0.1-0.8-0.2L434.8,1582.7z"/>
    <rect x="473" y="1690.5" transform="matrix(7.579100e-02 -0.9971 0.9971 7.579100e-02 -1250.131 2041.2574)" class="Pattern_2_st0_sprinkle" width="6.2" height="9.1"/>
    <rect x="475.6" y="1762.3" transform="matrix(0.5849 -0.8111 0.8111 0.5849 -1231.0574 1125.5258)" class="Pattern_2_st0_sprinkle" width="16.9" height="6.2"/>
    <rect x="473.5" y="1833.2" transform="matrix(8.200352e-02 -0.9966 0.9966 8.200352e-02 -1400.4032 2167.9497)" class="Pattern_2_st0_sprinkle" width="6.2" height="21.9"/>
    <rect x="494.2" y="1661.2" transform="matrix(0.9442 -0.3294 0.3294 0.9442 -520.55 256.2244)" class="Pattern_2_st0_sprinkle" width="3.1" height="5.9"/>
    <rect x="1073.2" y="1782" transform="matrix(0.993 -0.1183 0.1183 0.993 -203.5243 140.2928)" class="Pattern_2_st0_sprinkle" width="14.4" height="6.2"/>
    <rect x="1185.7" y="1624.2" transform="matrix(0.8401 -0.5425 0.5425 0.8401 -692.1142 906.9919)" class="Pattern_2_st0_sprinkle" width="13" height="6.2"/>
    <rect x="1107.7" y="1855.2" transform="matrix(4.256239e-02 -0.9991 0.9991 4.256239e-02 -784.0952 2898.3904)" class="Pattern_2_st0_sprinkle" width="25" height="6.2"/>
    <rect x="986" y="1765" transform="matrix(0.9937 -0.1117 0.1117 0.9937 -191.6104 121.4325)" class="Pattern_2_st0_sprinkle" width="3.1" height="10.4"/>
    <rect x="1638.2" y="1926.5" transform="matrix(0.993 -0.1183 0.1183 0.993 -216.6417 208.1233)" class="Pattern_2_st0_sprinkle" width="14.4" height="6.2"/>
    <rect x="1551" y="1909.4" transform="matrix(0.9937 -0.1117 0.1117 0.9937 -204.2124 185.4702)" class="Pattern_2_st0_sprinkle" width="3.1" height="10.4"/>
    <rect x="1032.9" y="1700.2" transform="matrix(0.9937 -0.1117 0.1117 0.9937 -184.075 126.2626)" class="Pattern_2_st0_sprinkle" width="3.1" height="10.4"/>
    <rect x="1055.3" y="1830.4" transform="matrix(0.9269 -0.3752 0.3752 0.9269 -611.7045 531.3284)" class="Pattern_2_st0_sprinkle" width="6.2" height="11.8"/>
    <rect x="1060.3" y="1859" transform="matrix(0.2564 -0.9666 0.9666 0.2564 -1011.8466 2414.7744)" class="Pattern_2_st0_sprinkle" width="6.2" height="12"/>
    <rect x="1237.5" y="1684.5" transform="matrix(0.2766 -0.961 0.961 0.2766 -724.1196 2413.3164)" class="Pattern_2_st0_sprinkle" width="6.8" height="6.2"/>
    <rect x="1227.6" y="1620.7" transform="matrix(0.3734 -0.9277 0.9277 0.3734 -729.1816 2168.0547)" class="Pattern_2_st0_sprinkle" width="25.5" height="6.2"/>
    <rect x="1219.8" y="1824.7" transform="matrix(0.2699 -0.9629 0.9629 0.2699 -860.1008 2521.332)" class="Pattern_2_st0_sprinkle" width="25.5" height="6.2"/>
    <rect x="1182.8" y="1692.5" transform="matrix(0.9763 -0.2166 0.2166 0.9763 -339.8484 296.9225)" class="Pattern_2_st0_sprinkle" width="3.1" height="12.2"/>
    <rect x="1136" y="1674.6" transform="matrix(0.4852 -0.8744 0.8744 0.4852 -878.9919 1862.4818)" class="Pattern_2_st0_sprinkle" width="12.7" height="6.2"/>
    <rect x="1153.1" y="1772.9" transform="matrix(0.9025 -0.4308 0.4308 0.9025 -652.3684 670.6132)" class="Pattern_2_st0_sprinkle" width="3.1" height="5.9"/>
    <rect x="1046.9" y="1658.5" transform="matrix(7.875032e-02 -0.9969 0.9969 7.875032e-02 -676.9941 2587.5405)" class="Pattern_2_st0_sprinkle" width="29.3" height="3.1"/>
    <rect x="809.1" y="1728.5" transform="matrix(0.3664 -0.9305 0.9305 0.3664 -1092.6913 1858.6434)" class="Pattern_2_st0_sprinkle" width="18.5" height="6.2"/>
    <rect x="799.6" y="1651.1" transform="matrix(0.2698 -0.9629 0.9629 0.2698 -999.7424 1990.0396)" class="Pattern_2_st0_sprinkle" width="25.5" height="6.2"/>
    <rect x="786.6" y="1847" transform="matrix(0.993 -0.1182 0.1182 0.993 -213.0368 106.741)" class="Pattern_2_st0_sprinkle" width="14.4" height="6.2"/>
    <rect x="767.6" y="1671.7" transform="matrix(0.9468 -0.3218 0.3218 0.9468 -499.0419 336.8052)" class="Pattern_2_st0_sprinkle" width="3.1" height="12.2"/>
    <rect x="750.4" y="1607.7" transform="matrix(0.9847 -0.1744 0.1744 0.9847 -270.7888 156.2502)" class="Pattern_2_st0_sprinkle" width="6.2" height="21.9"/>
    <rect x="865.7" y="1696.7" transform="matrix(0.9024 -0.4309 0.4309 0.9024 -647.6813 539.537)" class="Pattern_2_st0_sprinkle" width="3.1" height="5.9"/>
    <rect x="889.3" y="1614.1" transform="matrix(4.246426e-02 -0.9991 0.9991 4.246426e-02 -752.2968 2449.5491)" class="Pattern_2_st0_sprinkle" width="25" height="6.2"/>
    <rect x="940.8" y="1865.2" transform="matrix(0.7876 -0.6162 0.6162 0.7876 -950.0385 980.2946)" class="Pattern_2_st0_sprinkle" width="12.3" height="6.2"/>
    <rect x="934.4" y="1687.3" transform="matrix(0.993 -0.1182 0.1182 0.993 -193.129 123.0887)" class="Pattern_2_st0_sprinkle" width="14.4" height="6.2"/>
    <rect x="845.8" y="1923.1" transform="matrix(0.9937 -0.1117 0.1117 0.9937 -210.1563 106.7518)" class="Pattern_2_st0_sprinkle" width="3.1" height="10.4"/>
    <rect x="921" y="1763.9" transform="matrix(0.7877 -0.6161 0.6161 0.7877 -891.7927 946.43)" class="Pattern_2_st0_sprinkle" width="12.3" height="6.2"/>
    <rect x="899" y="1818.2" transform="matrix(7.914227e-02 -0.9969 0.9969 7.914227e-02 -972.7175 2586.5764)" class="Pattern_2_st0_sprinkle" width="29.3" height="3.1"/>
    <rect x="1164.8" y="1910.6" transform="matrix(0.3665 -0.9304 0.9304 0.3665 -1036.8398 2304.5735)" class="Pattern_2_st0_sprinkle" width="18.5" height="6.2"/>
    <rect x="567" y="1537.9" transform="matrix(0.9938 -0.1115 0.1115 0.9938 -168.2258 72.992)" class="Pattern_2_st0_sprinkle" width="2.6" height="4.5"/>
    <rect x="1747.7" y="1930.4" transform="matrix(0.7757 -0.6311 0.6311 0.7757 -826.7947 1540.8411)" class="Pattern_2_st0_sprinkle" width="13" height="6.2"/>
    <rect x="1223.1" y="1899.3" transform="matrix(0.9468 -0.3218 0.3218 0.9468 -548.0563 495.4734)" class="Pattern_2_st0_sprinkle" width="3.1" height="12.2"/>
    <rect x="1246" y="1886.9" transform="matrix(0.9295 -0.3689 0.3689 0.9295 -608.8493 595.017)" class="Pattern_2_st0_sprinkle" width="11.1" height="5.5"/>
    <rect x="1152.8" y="1878.6" transform="matrix(0.7878 -0.6159 0.6159 0.7878 -913.1039 1113.0916)" class="Pattern_2_st0_sprinkle" width="12.3" height="6.2"/>
    <rect x="990.3" y="1897.1" transform="matrix(0.3068 -0.9518 0.9518 0.3068 -1116.1741 2267.2)" class="Pattern_2_st0_sprinkle" width="16.1" height="5.5"/>
    <rect x="1022" y="1922.5" transform="matrix(0.1611 -0.9869 0.9869 0.1611 -1043.8372 2629.2603)" class="Pattern_2_st0_sprinkle" width="5.5" height="12.4"/>
    <rect x="1253.9" y="1725.2" transform="matrix(0.9468 -0.3218 0.3218 0.9468 -490.3928 496.1479)" class="Pattern_2_st0_sprinkle" width="3.1" height="12.2"/>
    <rect x="1302.8" y="1935.7" transform="matrix(3.863311e-02 -0.9993 0.9993 3.863311e-02 -678.5497 3172.3701)" class="Pattern_2_st0_sprinkle" width="13.2" height="6.2"/>
    <rect x="1214.7" y="1934.8" transform="matrix(0.4923 -0.8704 0.8704 0.4923 -1065.804 2048.4851)" class="Pattern_2_st0_sprinkle" width="16.9" height="6.2"/>
    <path class="Pattern_2_st0_sprinkle" d="M1171,1611.3l-0.5-7.4c-2.1,0-4.2,0-6.3-0.1l0.5,7.8L1171,1611.3z"/>
    <path class="Pattern_2_st0_sprinkle" d="M1904.3,1620.2l9.7-7.6l-1.7-2.2c-1.9,0-3.7,0-5.6,0l-6.3,4.9L1904.3,1620.2z"/>
    <polygon class="Pattern_2_st0_sprinkle" points="464.1,1511.6 461.3,1507.1 451.3,1513.3 450.2,1514.1 452.9,1518.5 "/>
    <path class="Pattern_2_st0_sprinkle" d="M1072.1,1613.5l9.7-7.6l-2.4-3c-1.3,0-2.6,0-3.8,0l-7.3,5.7L1072.1,1613.5z"/>
    <path class="Pattern_2_st0_sprinkle" d="M2494.6,1349.2l3.8-7.1l-1.7-0.9c-0.2,0.2-0.4,0.4-0.5,0.5l-3.4,6.5L2494.6,1349.2z"/>
    <polygon class="Pattern_2_st0_sprinkle" points="1368.9,1938.2 1380.8,1948.7 1384.8,1943.9 1373,1933.5 "/>
    <polygon class="Pattern_2_st0_sprinkle" points="2562.6,1880.2 2563.5,1888.8 2566.7,1888.8 2565.7,1879.9 "/>
    <polygon class="Pattern_2_st0_sprinkle" points="603.1,1866.2 605.4,1873.1 608.7,1873.2 606,1865.2 "/>
    <polygon class="Pattern_2_st0_sprinkle" points="1435.3,1872.9 1437.7,1879.8 1441,1879.8 1438.3,1871.9 "/>
    <rect x="669.6" y="1426.2" transform="matrix(0.2746 -0.9615 0.9615 0.2746 -888.2725 1684.3087)" class="Pattern_2_st0_sprinkle" width="5.3" height="9.3"/>
    <rect x="487.5" y="1457.6" transform="matrix(0.2673 -0.9636 0.9636 0.2673 -1047.3146 1542.2007)" class="Pattern_2_st0_sprinkle" width="6" height="4.4"/>
    <rect x="382.2" y="1891.6" transform="matrix(0.6601 -0.7512 0.7512 0.6601 -1291.1434 935.353)" class="Pattern_2_st0_sprinkle" width="11.6" height="5.5"/>
    <rect x="411.4" y="1731.7" transform="matrix(0.9763 -0.2166 0.2166 0.9763 -366.6656 130.7281)" class="Pattern_2_st0_sprinkle" width="3.1" height="12.2"/>
    <rect x="316.9" y="1891.1" transform="matrix(2.083196e-02 -0.9998 0.9998 2.083196e-02 -1576.5522 2175.6328)" class="Pattern_2_st0_sprinkle" width="11.1" height="3.1"/>
    <rect x="304.4" y="1838.7" transform="matrix(0.9824 -0.1868 0.1868 0.9824 -338.5551 91.6512)" class="Pattern_2_st0_sprinkle" width="25" height="6.2"/>
    <rect x="550.7" y="1574.5" transform="matrix(0.3576 -0.9339 0.9339 0.3576 -1118.5237 1530.696)" class="Pattern_2_st0_sprinkle" width="5.5" height="7.7"/>
    <rect x="517" y="1533.3" transform="matrix(0.4832 -0.8755 0.8755 0.4832 -1075.8982 1249.1732)" class="Pattern_2_st0_sprinkle" width="6.4" height="5.3"/>
    <rect x="376.1" y="1855.7" transform="matrix(0.9937 -0.1117 0.1117 0.9937 -205.5654 53.8562)" class="Pattern_2_st0_sprinkle" width="3.1" height="10.4"/>
    <rect x="1055.7" y="1899.3" transform="matrix(0.7375 -0.6754 0.6754 0.7375 -1005.4145 1217.5393)" class="Pattern_2_st0_sprinkle" width="15.5" height="5.5"/>
    <rect x="377.1" y="1771.1" transform="matrix(0.1697 -0.9855 0.9855 0.1697 -1432.5659 1848.1688)" class="Pattern_2_st0_sprinkle" width="6.8" height="6.2"/>
    <rect x="646.3" y="1531.3" transform="matrix(0.252 -0.9677 0.9677 0.252 -996.3525 1776.123)" class="Pattern_2_st0_sprinkle" width="8.9" height="2.6"/>
    <rect x="362.1" y="1734.1" transform="matrix(0.3664 -0.9305 0.9305 0.3664 -1381.1158 1446.3394)" class="Pattern_2_st0_sprinkle" width="18.5" height="6.2"/>
    <rect x="426.1" y="1888.4" transform="matrix(0.2564 -0.9666 0.9666 0.2564 -1511.8649 1823.6049)" class="Pattern_2_st0_sprinkle" width="6.2" height="12"/>
    <rect x="411.4" y="1926.8" transform="matrix(0.184 -0.9829 0.9829 0.184 -1552.9148 1988.4845)" class="Pattern_2_st0_sprinkle" width="19.5" height="5.5"/>
    <rect x="521.1" y="1393.2" transform="matrix(0.9919 -0.1273 0.1273 0.9919 -173.5737 77.8075)" class="Pattern_2_st0_sprinkle" width="2.2" height="8.3"/>
    <rect x="794.2" y="1929.8" transform="matrix(4.256239e-02 -0.9991 0.9991 4.256239e-02 -1158.7484 2656.5964)" class="Pattern_2_st0_sprinkle" width="25" height="6.2"/>
    <rect x="741.8" y="1905" transform="matrix(0.9269 -0.3752 0.3752 0.9269 -662.5942 419.1501)" class="Pattern_2_st0_sprinkle" width="6.2" height="11.8"/>
    <rect x="746.8" y="1933.6" transform="matrix(0.2564 -0.9666 0.9666 0.2564 -1317.0504 2167.2278)" class="Pattern_2_st0_sprinkle" width="6.2" height="12"/>
    <rect x="473.1" y="1921.6" transform="matrix(0.993 -0.1182 0.1182 0.993 -224.0443 70.2247)" class="Pattern_2_st0_sprinkle" width="14.4" height="6.2"/>
    <rect x="627.3" y="1939.7" transform="matrix(0.7876 -0.6162 0.6162 0.7876 -1062.5702 802.9768)" class="Pattern_2_st0_sprinkle" width="12.3" height="6.2"/>
    <rect x="571.5" y="1934.5" transform="matrix(0.9937 -0.1117 0.1117 0.9937 -213.1447 76.184)" class="Pattern_2_st0_sprinkle" width="3.1" height="10.4"/>
    <rect x="585.6" y="1892.8" transform="matrix(7.914227e-02 -0.9969 0.9969 7.914227e-02 -1335.7372 2342.7534)" class="Pattern_2_st0_sprinkle" width="29.3" height="3.1"/>
    <polygon class="Pattern_2_st0_sprinkle" points="876.8,1953.4 881.9,1953.4 880.9,1951.4 "/>
    <rect x="2711" y="1720.3" transform="matrix(0.9937 -0.1117 0.1117 0.9937 -175.8161 313.8952)" class="Pattern_2_st0_sprinkle" width="3.1" height="10.4"/>
    <rect x="2798.6" y="1817.8" transform="matrix(0.9416 -0.3367 0.3367 0.9416 -449.145 1052.6224)" class="Pattern_2_st0_sprinkle" width="24.3" height="7.2"/>
    <rect x="2725" y="1678.6" transform="matrix(7.875032e-02 -0.9969 0.9969 7.875032e-02 848.8891 4278.9839)" class="Pattern_2_st0_sprinkle" width="29.3" height="3.1"/>
    <rect x="2691.3" y="1826.1" transform="matrix(0.2563 -0.9666 0.9666 0.2563 232.8614 3966.8408)" class="Pattern_2_st0_sprinkle" width="6.2" height="12"/>
    <rect x="2612.5" y="1707.4" transform="matrix(0.993 -0.1182 0.1182 0.993 -183.7537 321.5009)" class="Pattern_2_st0_sprinkle" width="14.4" height="6.2"/>
    <rect x="2615.2" y="1781.1" transform="matrix(0.9991 -4.357060e-02 4.357060e-02 0.9991 -75.5076 115.781)" class="Pattern_2_st0_sprinkle" width="6.2" height="17.9"/>
    <rect x="2759" y="1871" transform="matrix(4.246426e-02 -0.9991 0.9991 4.246426e-02 781.3761 4563.5029)" class="Pattern_2_st0_sprinkle" width="25" height="6.2"/>
    <rect x="2879.2" y="1844" transform="matrix(0.5083 -0.8612 0.8612 0.5083 -168.9154 3399.4792)" class="Pattern_2_st0_sprinkle" width="26.7" height="7.2"/>
    <rect x="2354.2" y="1640.2" transform="matrix(0.8504 -0.5262 0.5262 0.8504 -511.4934 1487.9893)" class="Pattern_2_st0_sprinkle" width="12.3" height="6.2"/>
    <rect x="2752.2" y="1744.6" transform="matrix(0.3362 -0.9418 0.9418 0.3362 187.5381 3758.9563)" class="Pattern_2_st0_sprinkle" width="16.3" height="3.6"/>
    <rect x="2759.1" y="1681.1" transform="matrix(0.874 -0.486 0.486 0.874 -469.8433 1557.6044)" class="Pattern_2_st0_sprinkle" width="18.7" height="7.2"/>
    <rect x="2746.9" y="1624.3" transform="matrix(0.7878 -0.6159 0.6159 0.7878 -418.1726 2040.9988)" class="Pattern_2_st0_sprinkle" width="12.3" height="6.2"/>
    <rect x="2821.6" y="1728.9" transform="matrix(0.6102 -0.7922 0.7922 0.6102 -270.6452 2914.9004)" class="Pattern_2_st0_sprinkle" width="10.6" height="7.2"/>
    <rect x="2401.4" y="1625.3" transform="matrix(0.9847 -0.1744 0.1744 0.9847 -248.5607 444.5188)" class="Pattern_2_st0_sprinkle" width="6.2" height="21.9"/>
    <rect x="2430.9" y="1725.7" transform="matrix(0.9467 -0.3221 0.3221 0.9467 -428.1757 875.7314)" class="Pattern_2_st0_sprinkle" width="3.1" height="12.2"/>
    <rect x="2419.6" y="1794" transform="matrix(4.246426e-02 -0.9991 0.9991 4.246426e-02 533.296 4150.6699)" class="Pattern_2_st0_sprinkle" width="25" height="6.2"/>
    <rect x="2359.8" y="1878.4" transform="matrix(0.9024 -0.431 0.431 0.9024 -580.2465 1201.3922)" class="Pattern_2_st0_sprinkle" width="3.1" height="5.9"/>
    <rect x="2388.6" y="1789.4" transform="matrix(7.573860e-02 -0.9971 0.9971 7.573860e-02 421.7857 4043.0076)" class="Pattern_2_st0_sprinkle" width="6.2" height="9.1"/>
    <rect x="2396.8" y="1683.8" transform="matrix(0.7758 -0.631 0.631 0.7758 -525.5765 1894.6953)" class="Pattern_2_st0_sprinkle" width="13" height="6.2"/>
    <rect x="2543.8" y="1716.9" transform="matrix(0.9025 -0.4306 0.4306 0.9025 -492.4977 1263.801)" class="Pattern_2_st0_sprinkle" width="3.1" height="5.9"/>
    <rect x="2567.4" y="1634.3" transform="matrix(4.246426e-02 -0.9991 0.9991 4.246426e-02 834.434 4145.4224)" class="Pattern_2_st0_sprinkle" width="25" height="6.2"/>
    <rect x="2484" y="1711.7" transform="matrix(0.1695 -0.9855 0.9855 0.1695 375.6865 3875.4077)" class="Pattern_2_st0_sprinkle" width="6.8" height="6.2"/>
    <rect x="2487.2" y="1748.6" transform="matrix(0.3664 -0.9305 0.9305 0.3664 -48.1345 3432.825)" class="Pattern_2_st0_sprinkle" width="18.5" height="6.2"/>
    <rect x="2467.2" y="1648.3" transform="matrix(0.2698 -0.9629 0.9629 0.2698 220.5738 3593.7449)" class="Pattern_2_st0_sprinkle" width="25.5" height="6.2"/>
    <rect x="2464.7" y="1867.1" transform="matrix(0.993 -0.1182 0.1182 0.993 -203.6615 305.1532)" class="Pattern_2_st0_sprinkle" width="14.4" height="6.2"/>
    <rect x="2663.5" y="1558.6" transform="matrix(0.9381 -0.3465 0.3465 0.9381 -375.2735 1022.4274)" class="Pattern_2_st0_sprinkle" width="16.5" height="4.4"/>
    <rect x="2578" y="1335.2" transform="matrix(0.1524 -0.9883 0.9883 0.1524 866.056 3682.3589)" class="Pattern_2_st0_sprinkle" width="3.7" height="2.2"/>
    <rect x="2497.3" y="1318" transform="matrix(0.994 -0.1098 0.1098 0.994 -129.8117 282.7593)" class="Pattern_2_st0_sprinkle" width="10.9" height="4.3"/>
    <rect x="2544.2" y="1560.9" transform="matrix(0.993 -0.1182 0.1182 0.993 -166.9187 312.4011)" class="Pattern_2_st0_sprinkle" width="14.4" height="6.2"/>
    <rect x="2217.1" y="1923.4" transform="matrix(1 -8.230773e-03 8.230773e-03 1 -15.7855 18.3756)" class="Pattern_2_st0_sprinkle" width="15.1" height="7.2"/>
    <rect x="2678.5" y="1421.8" transform="matrix(0.7145 -0.6996 0.6996 0.7145 -236.7805 2284.3071)" class="Pattern_2_st0_sprinkle" width="4.4" height="20.9"/>
    <path class="Pattern_2_st0_sprinkle" d="M547.5,1593.8l2.8-2.7c-2-0.2-4.1-0.4-6.1-0.6L547.5,1593.8z"/>
    <rect x="2689.3" y="1352.1" transform="matrix(0.8838 -0.4679 0.4679 0.8838 -320.4295 1418.6174)" class="Pattern_2_st0_sprinkle" width="12.2" height="4.4"/>
    <rect x="2555.2" y="1469.3" transform="matrix(0.4181 -0.9084 0.9084 0.4181 154.9683 3184.8218)" class="Pattern_2_st0_sprinkle" width="16.4" height="4.3"/>
    <rect x="2524" y="1385.1" transform="matrix(0.5623 -0.827 0.827 0.5623 -39.9941 2699.0491)" class="Pattern_2_st0_sprinkle" width="11" height="4.4"/>
    <rect x="2501.8" y="1917.3" transform="matrix(0.9467 -0.3221 0.3221 0.9467 -486.1036 908.7814)" class="Pattern_2_st0_sprinkle" width="3.1" height="12.2"/>
    <rect x="2884.9" y="1916.9" transform="matrix(0.4715 -0.8818 0.8818 0.4715 -163.4368 3564.7903)" class="Pattern_2_st0_sprinkle" width="15.2" height="3.6"/>
    <rect x="1325.6" y="1723.4" transform="matrix(7.586498e-02 -0.9971 0.9971 7.586498e-02 -495.0026 2921.699)" class="Pattern_2_st0_sprinkle" width="6.2" height="9.1"/>
    <rect x="2154.4" y="1918.9" transform="matrix(7.569871e-02 -0.9971 0.9971 7.569871e-02 76.2898 3929.1826)" class="Pattern_2_st0_sprinkle" width="6.2" height="9.1"/>
    <rect x="2933.8" y="1930.8" transform="matrix(0.2945 -0.9557 0.9557 0.2945 226.5556 4175.7998)" class="Pattern_2_st0_sprinkle" width="15.3" height="7.2"/>
    <rect x="2554.9" y="1903.2" transform="matrix(0.1695 -0.9855 0.9855 0.1695 245.7643 4104.4019)" class="Pattern_2_st0_sprinkle" width="6.8" height="6.2"/>
    <rect x="2452.9" y="1904.3" transform="matrix(0.3866 -0.9222 0.9222 0.3866 -250.6216 3437.9165)" class="Pattern_2_st0_sprinkle" width="12.7" height="6.2"/>
    <rect x="2645" y="1500.4" transform="matrix(0.898 -0.4401 0.4401 0.898 -390.8235 1321.4838)" class="Pattern_2_st0_sprinkle" width="18.8" height="6.2"/>
    <rect x="2367.4" y="1921.6" transform="matrix(0.9969 -7.873885e-02 7.873885e-02 0.9969 -144.0294 194.1518)" class="Pattern_2_st0_sprinkle" width="45" height="3.6"/>
    <rect x="2477.8" y="1601.4" transform="matrix(0.9026 -0.4306 0.4306 0.9026 -449.1752 1223.911)" class="Pattern_2_st0_sprinkle" width="3.1" height="5.9"/>
    <rect x="2310.3" y="1615.3" transform="matrix(0.88 -0.4749 0.4749 0.88 -490.6472 1295.6066)" class="Pattern_2_st0_sprinkle" width="17.5" height="7.2"/>
    <rect x="2626.5" y="1596.2" transform="matrix(0.9269 -0.3752 0.3752 0.9269 -409.015 1103.7686)" class="Pattern_2_st0_sprinkle" width="6.2" height="11.8"/>
    <rect x="1585" y="1712.3" transform="matrix(0.9467 -0.3221 0.3221 0.9467 -468.9196 602.5795)" class="Pattern_2_st0_sprinkle" width="3.1" height="12.2"/>
    <rect x="1644.8" y="1799.7" transform="matrix(0.9269 -0.3752 0.3752 0.9269 -557.1133 750.2949)" class="Pattern_2_st0_sprinkle" width="6.2" height="11.8"/>
    <rect x="1638.1" y="1698.2" transform="matrix(0.1695 -0.9855 0.9855 0.1695 -313.5106 3030.6277)" class="Pattern_2_st0_sprinkle" width="6.8" height="6.2"/>
    <rect x="1551" y="1670.3" transform="matrix(0.7756 -0.6312 0.6312 0.7756 -706.8165 1358.4803)" class="Pattern_2_st0_sprinkle" width="13" height="6.2"/>
    <rect x="1542.8" y="1776" transform="matrix(7.586498e-02 -0.9971 0.9971 7.586498e-02 -346.7871 3186.9087)" class="Pattern_2_st0_sprinkle" width="6.2" height="9.1"/>
    <rect x="1575" y="1934.5" transform="matrix(0.9024 -0.431 0.431 0.9024 -681.0659 868.6536)" class="Pattern_2_st0_sprinkle" width="3.1" height="5.9"/>
    <rect x="1721.5" y="1620.8" transform="matrix(4.246426e-02 -0.9991 0.9991 4.246426e-02 37.9196 3287.4473)" class="Pattern_2_st0_sprinkle" width="25" height="6.2"/>
    <rect x="1731.3" y="1824.9" transform="matrix(7.914864e-02 -0.9969 0.9969 7.914864e-02 -213.022 3422.3562)" class="Pattern_2_st0_sprinkle" width="29.3" height="3.1"/>
    <rect x="1766.6" y="1694" transform="matrix(0.993 -0.1182 0.1182 0.993 -188.0903 221.4663)" class="Pattern_2_st0_sprinkle" width="14.4" height="6.2"/>
    <rect x="1686" y="1777.6" transform="matrix(0.4925 -0.8703 0.8703 0.4925 -689.9204 2378.2588)" class="Pattern_2_st0_sprinkle" width="16.9" height="6.2"/>
    <rect x="1618.8" y="1853.7" transform="matrix(0.993 -0.1183 0.1183 0.993 -208.1726 205.3126)" class="Pattern_2_st0_sprinkle" width="14.4" height="6.2"/>
    <rect x="1718.7" y="1662.5" transform="matrix(0.9024 -0.431 0.431 0.9024 -549.8219 904.0063)" class="Pattern_2_st0_sprinkle" width="3.1" height="5.9"/>
    <rect x="1717.3" y="1866.6" transform="matrix(0.9937 -0.1117 0.1117 0.9937 -198.3842 203.7787)" class="Pattern_2_st0_sprinkle" width="3.1" height="10.4"/>
    <rect x="1328.8" y="1617.7" transform="matrix(0.1514 -0.9885 0.9885 0.1514 -463.916 2701.2239)" class="Pattern_2_st0_sprinkle" width="25" height="6.2"/>
    <rect x="1332.5" y="1765.9" transform="matrix(3.853353e-02 -0.9993 0.9993 3.853353e-02 -480.272 3038.9314)" class="Pattern_2_st0_sprinkle" width="13.2" height="6.2"/>
    <rect x="1276.3" y="1769.2" transform="matrix(0.585 -0.8111 0.8111 0.585 -904.2474 1777.6005)" class="Pattern_2_st0_sprinkle" width="16.9" height="6.2"/>
    <rect x="1365.6" y="1694.8" transform="matrix(1 -8.913426e-03 8.913426e-03 1 -15.0793 12.304)" class="Pattern_2_st0_sprinkle" width="14.4" height="6.2"/>
    <polygon class="Pattern_2_st0_sprinkle" points="1364.5,1866.2 1364,1879.2 1370.2,1879.2 1370.7,1866.5 "/>
    <rect x="1325.2" y="1680" transform="matrix(0.9442 -0.3294 0.3294 0.9442 -480.3476 531.0083)" class="Pattern_2_st0_sprinkle" width="3.1" height="5.9"/>
    <rect x="1509.4" y="1756.1" transform="matrix(0.8978 -0.4404 0.4404 0.8978 -619.5248 848.5716)" class="Pattern_2_st0_sprinkle" width="18.8" height="6.2"/>
    <rect x="1480.7" y="1679.3" transform="matrix(0.1878 -0.9822 0.9822 0.1878 -436.3971 2833.9407)" class="Pattern_2_st0_sprinkle" width="29.3" height="3.1"/>
    <rect x="1490.3" y="1857.9" transform="matrix(0.1696 -0.9855 0.9855 0.1696 -593.7587 3017.4668)" class="Pattern_2_st0_sprinkle" width="6.8" height="6.2"/>
    <rect x="1508.4" y="1626.7" transform="matrix(0.8503 -0.5263 0.5263 0.8503 -631.0645 1041.1038)" class="Pattern_2_st0_sprinkle" width="12.3" height="6.2"/>
    <rect x="1508.6" y="1710.1" transform="matrix(3.853353e-02 -0.9993 0.9993 3.853353e-02 -255.137 3161.2356)" class="Pattern_2_st0_sprinkle" width="13.2" height="6.2"/>
    <rect x="1484.4" y="1716.7" transform="matrix(1 -2.740131e-03 2.740131e-03 1 -4.7127 4.0781)" class="Pattern_2_st0_sprinkle" width="3.1" height="10.4"/>
    <rect x="1403.1" y="1830.1" transform="matrix(0.7757 -0.6311 0.6311 0.7757 -840.7621 1300.8522)" class="Pattern_2_st0_sprinkle" width="13" height="6.2"/>
    <rect x="1374.3" y="1630.6" transform="matrix(0.3607 -0.9327 0.9327 0.3607 -645.8464 2331.0056)" class="Pattern_2_st0_sprinkle" width="6.2" height="12"/>
    <rect x="1426.9" y="1758.9" transform="matrix(0.9847 -0.1744 0.1744 0.9847 -286.8037 276.5782)" class="Pattern_2_st0_sprinkle" width="6.2" height="21.9"/>
    <rect x="2028.7" y="1705.9" transform="matrix(0.9763 -0.2166 0.2166 0.9763 -322.6728 480.4886)" class="Pattern_2_st0_sprinkle" width="3.1" height="12.2"/>
    <rect x="2142.3" y="1709.5" transform="matrix(0.9441 -0.3297 0.3297 0.9441 -444.6961 802.5517)" class="Pattern_2_st0_sprinkle" width="3.1" height="5.9"/>
    <rect x="2178.3" y="1779.4" transform="matrix(3.849352e-02 -0.9993 0.9993 3.849352e-02 319.649 3897.1682)" class="Pattern_2_st0_sprinkle" width="13.2" height="6.2"/>
    <rect x="2073.5" y="1634.1" transform="matrix(0.3736 -0.9276 0.9276 0.3736 -211.9397 2960.6821)" class="Pattern_2_st0_sprinkle" width="25.5" height="6.2"/>
    <rect x="2111.9" y="1771.2" transform="matrix(0.9467 -0.3221 0.3221 0.9467 -459.8021 775.424)" class="Pattern_2_st0_sprinkle" width="3.1" height="12.2"/>
    <polygon class="Pattern_2_st0_sprinkle" points="2210.3,1879.7 2210.1,1885.9 2216.4,1886 2216.6,1879.9 "/>
    <rect x="1792.7" y="1640" transform="matrix(0.9269 -0.3752 0.3752 0.9269 -486.377 794.0943)" class="Pattern_2_st0_sprinkle" width="6.2" height="11.8"/>
    <rect x="2322.3" y="1839.8" transform="matrix(0.1694 -0.9855 0.9855 0.1694 115.4449 3822.7798)" class="Pattern_2_st0_sprinkle" width="6.8" height="6.2"/>
    <rect x="2319.4" y="1808" transform="matrix(0.2698 -0.9629 0.9629 0.2698 -41.1691 3568.0261)" class="Pattern_2_st0_sprinkle" width="25.5" height="6.2"/>
    <rect x="2243" y="1657" transform="matrix(0.9625 -0.2712 0.2712 0.9625 -366.7379 671.3454)" class="Pattern_2_st0_sprinkle" width="6.2" height="11.8"/>
    <rect x="2211.5" y="1708.2" transform="matrix(1 -8.425520e-03 8.425520e-03 1 -14.34 18.7543)" class="Pattern_2_st0_sprinkle" width="14.4" height="6.2"/>
    <rect x="2254.9" y="1863.7" transform="matrix(0.7757 -0.6311 0.6311 0.7757 -670.9249 1845.7325)" class="Pattern_2_st0_sprinkle" width="13" height="6.2"/>
    <rect x="2083.3" y="1697.9" transform="matrix(0.2766 -0.961 0.961 0.2766 -125.228 3235.7524)" class="Pattern_2_st0_sprinkle" width="6.8" height="6.2"/>
    <rect x="1879.1" y="1665.2" transform="matrix(7.875032e-02 -0.9969 0.9969 7.875032e-02 83.0382 3423.3606)" class="Pattern_2_st0_sprinkle" width="29.3" height="3.1"/>
    <rect x="1901.2" y="1843.9" transform="matrix(0.9269 -0.3752 0.3752 0.9269 -554.9006 849.5955)" class="Pattern_2_st0_sprinkle" width="6.2" height="11.8"/>
    <rect x="1906.2" y="1872.4" transform="matrix(0.2564 -0.9666 0.9666 0.2564 -395.9422 3242.1743)" class="Pattern_2_st0_sprinkle" width="6.2" height="12"/>
    <rect x="1919.1" y="1795.5" transform="matrix(0.993 -0.1182 0.1182 0.993 -199.0139 240.1916)" class="Pattern_2_st0_sprinkle" width="14.4" height="6.2"/>
    <rect x="2082.4" y="1735.7" transform="matrix(0.466 -0.8848 0.8848 0.466 -421.4937 2779.2312)" class="Pattern_2_st0_sprinkle" width="18.5" height="6.2"/>
    <rect x="1791.7" y="1827.4" transform="matrix(7.914227e-02 -0.9969 0.9969 7.914227e-02 -159.8072 3484.8667)" class="Pattern_2_st0_sprinkle" width="29.3" height="3.1"/>
    <polygon class="Pattern_2_st0_sprinkle" points="1963.5,1859.1 1962.4,1884 1968.7,1884 1969.7,1859.4 "/>
    <rect x="1831.9" y="1778.4" transform="matrix(0.9937 -0.1117 0.1117 0.9937 -187.8155 216.0311)" class="Pattern_2_st0_sprinkle" width="3.1" height="10.4"/>
    <rect x="1865.1" y="1706.9" transform="matrix(0.9937 -0.1117 0.1117 0.9937 -179.611 219.2966)" class="Pattern_2_st0_sprinkle" width="3.1" height="10.4"/>
    <rect x="2326.6" y="1692.7" transform="matrix(0.1878 -0.9822 0.9822 0.1878 237.4155 3675.676)" class="Pattern_2_st0_sprinkle" width="29.3" height="3.1"/>
    <rect x="1979.9" y="1764.8" transform="matrix(0.1843 -0.9829 0.9829 0.1843 -121.4404 3392.3123)" class="Pattern_2_st0_sprinkle" width="6.2" height="9.1"/>
    <rect x="2053.3" y="1854.6" transform="matrix(0.2699 -0.9629 0.9629 0.2699 -280.3014 3345.7314)" class="Pattern_2_st0_sprinkle" width="25.5" height="6.2"/>
    <rect x="2021.5" y="1911.3" transform="matrix(0.3431 -0.9393 0.9393 0.3431 -466.047 3162.4539)" class="Pattern_2_st0_sprinkle" width="13" height="6.2"/>
    <rect x="1999.7" y="1661" transform="matrix(0.8401 -0.5424 0.5424 0.8401 -581.8944 1354.337)" class="Pattern_2_st0_sprinkle" width="13" height="6.2"/>
    <rect x="1912.6" y="1722.1" transform="matrix(0.4852 -0.8744 0.8744 0.4852 -520.688 2565.9438)" class="Pattern_2_st0_sprinkle" width="12.7" height="6.2"/>
    <rect x="2034.1" y="1739.8" transform="matrix(0.4925 -0.8703 0.8703 0.4925 -480.3813 2662.0789)" class="Pattern_2_st0_sprinkle" width="16.9" height="6.2"/>
    </svg>
    