<?xml version="1.0" encoding="utf-8"?>
<!-- Generator: Adobe Illustrator 26.4.1, SVG Export Plug-In . SVG Version: 6.00 Build 0)  -->
<svg version="1.1" id="blush_layer_1" xmlns="http://www.w3.org/2000/svg" xmlns:xlink="http://www.w3.org/1999/xlink" x="0px" y="0px"
	 viewBox="0 0 3200 3200" style="enable-background:new 0 0 3200 3200;" xml:space="preserve">
<style type="text/css">
	.Pattern_1_sto_blush{fill:#af6d04;} 
</style>
<rect x="678.4" y="1630.1" transform="matrix(0.3784 -0.9257 0.9257 0.3784 -1084.5651 1651.2028)" class="Pattern_1_sto_blush" width="17.3" height="5.9"/>
<rect x="676.5" y="1719.1" transform="matrix(0.2549 -0.967 0.967 0.2549 -1160.4436 1938.9659)" class="Pattern_1_sto_blush" width="3" height="6.7"/>
<rect x="728" y="1619.9" transform="matrix(0.9725 -0.2329 0.2329 0.9725 -358.7832 214.9434)" class="Pattern_1_sto_blush" width="5.9" height="14.1"/>
<rect x="660.2" y="1768.5" class="Pattern_1_sto_blush" width="3" height="3.5"/>
<rect x="613.3" y="1795.3" transform="matrix(0.9768 -0.2143 0.2143 0.9768 -371.0282 174.4768)" class="Pattern_1_sto_blush" width="11.6" height="5.9"/>
<rect x="714.4" y="1761.4" transform="matrix(0.9974 -7.225315e-02 7.225315e-02 0.9974 -125.9065 56.4538)" class="Pattern_1_sto_blush" width="5.9" height="14.2"/>
<rect x="620" y="1761.7" transform="matrix(0.9199 -0.3921 0.3921 0.9199 -643.3313 385.8144)" class="Pattern_1_sto_blush" width="5.9" height="12.5"/>
<rect x="837.4" y="1711.6" transform="matrix(0.7071 -0.7071 0.7071 0.7071 -967.4764 1096.932)" class="Pattern_1_sto_blush" width="5.9" height="9.4"/>
<rect x="849.6" y="1660.4" transform="matrix(0.731 -0.6824 0.6824 0.731 -906.7047 1035.4558)" class="Pattern_1_sto_blush" width="21" height="14.8"/>
<rect x="798.3" y="1832.6" transform="matrix(0.7345 -0.6786 0.6786 0.7345 -1029.8788 1035.9951)" class="Pattern_1_sto_blush" width="21.3" height="3"/>
<rect x="825.2" y="1601.6" transform="matrix(0.5675 -0.8234 0.8234 0.5675 -961.0076 1379.6678)" class="Pattern_1_sto_blush" width="15.1" height="5.9"/>
<rect x="771.5" y="1825.5" transform="matrix(8.495191e-02 -0.9964 0.9964 8.495191e-02 -1112.5812 2442.5093)" class="Pattern_1_sto_blush" width="4" height="3"/>
<rect x="760.7" y="1748.2" transform="matrix(0.3204 -0.9473 0.9473 0.3204 -1142.7811 1915.597)" class="Pattern_1_sto_blush" width="5.9" height="12.2"/>
<rect x="809.7" y="1778.2" transform="matrix(0.998 -6.386155e-02 6.386155e-02 0.998 -112.5688 55.8354)" class="Pattern_1_sto_blush" width="14.8" height="21.3"/>
<rect x="807.1" y="1623.1" class="Pattern_1_sto_blush" width="3" height="3.5"/>
<rect x="623.2" y="1625.4" transform="matrix(0.9206 -0.3906 0.3906 0.9206 -587.739 373.5747)" class="Pattern_1_sto_blush" width="3" height="12.9"/>
<rect x="439.4" y="1598.3" transform="matrix(0.1094 -0.994 0.994 0.1094 -1197.2816 1863.3267)" class="Pattern_1_sto_blush" width="3.5" height="3"/>
<rect x="503.9" y="1393.9" transform="matrix(0.6591 -0.7521 0.7521 0.6591 -876.0364 859.3896)" class="Pattern_1_sto_blush" width="12" height="4.1"/>
<rect x="587.7" y="1389.3" transform="matrix(0.9997 -2.523740e-02 2.523740e-02 0.9997 -35.0593 15.3019)" class="Pattern_1_sto_blush" width="2.1" height="14.6"/>
<rect x="662.2" y="1587.9" transform="matrix(0.2936 -0.9559 0.9559 0.2936 -1051.4691 1760.1747)" class="Pattern_1_sto_blush" width="5.9" height="7.3"/>
<rect x="635.4" y="1477.4" transform="matrix(0.19 -0.9818 0.9818 0.19 -936.6915 1825.4045)" class="Pattern_1_sto_blush" width="5" height="5.9"/>
<rect x="1180.6" y="1761.2" transform="matrix(0.7345 -0.6786 0.6786 0.7345 -879.8854 1276.3536)" class="Pattern_1_sto_blush" width="21.3" height="3"/>
<rect x="1143.7" y="1796.5" transform="matrix(0.8722 -0.4891 0.4891 0.8722 -735.4711 790.4553)" class="Pattern_1_sto_blush" width="3" height="12.9"/>
<rect x="1224.7" y="1768.3" transform="matrix(8.498554e-02 -0.9964 0.9964 8.498554e-02 -640.9263 2841.6367)" class="Pattern_1_sto_blush" width="4" height="3"/>
<rect x="853.5" y="1787.4" transform="matrix(0.8723 -0.489 0.489 0.8723 -767.9269 647.1161)" class="Pattern_1_sto_blush" width="3" height="12.9"/>
<rect x="1327.4" y="1695.2" transform="matrix(0.1936 -0.9811 0.9811 0.1936 -592.5746 2672.4341)" class="Pattern_1_sto_blush" width="4" height="3"/>
<rect x="1324.7" y="1617.2" transform="matrix(0.4218 -0.9067 0.9067 0.4218 -704.2541 2142.2505)" class="Pattern_1_sto_blush" width="5.9" height="12.2"/>
<rect x="1260.4" y="1669" transform="matrix(0.8013 -0.5982 0.5982 0.8013 -750.3764 1093.332)" class="Pattern_1_sto_blush" width="21" height="14.8"/>
<rect x="1272.9" y="1629.5" transform="matrix(3.740261e-02 -0.9993 0.9993 3.740261e-02 -399.1683 2850.4717)" class="Pattern_1_sto_blush" width="14.2" height="5.9"/>
<rect x="907.6" y="1602.7" transform="matrix(0.3204 -0.9473 0.9473 0.3204 -905.189 1955.8939)" class="Pattern_1_sto_blush" width="5.9" height="12.2"/>
<rect x="923.6" y="1733.5" transform="matrix(0.9989 -4.638209e-02 4.638209e-02 0.9989 -79.7456 44.8502)" class="Pattern_1_sto_blush" width="5.9" height="14.7"/>
<rect x="918.4" y="1680.1" transform="matrix(8.530926e-02 -0.9964 0.9964 8.530926e-02 -833.5385 2455.1423)" class="Pattern_1_sto_blush" width="4" height="3"/>
<rect x="1100.9" y="1822.4" transform="matrix(6.437348e-02 -0.9979 0.9979 6.437348e-02 -785.1432 2810.3066)" class="Pattern_1_sto_blush" width="10.6" height="3"/>
<rect x="1104" y="1624.8" transform="matrix(0.9412 -0.3378 0.3378 0.9412 -486.2056 469.9032)" class="Pattern_1_sto_blush" width="5.9" height="14.1"/>
<rect x="1012.1" y="1777.6" transform="matrix(0.8716 -0.4903 0.4903 0.8716 -744.2521 726.8284)" class="Pattern_1_sto_blush" width="5.9" height="12.5"/>
<rect x="595.9" y="1934.4" transform="matrix(0.5674 -0.8235 0.8235 0.5674 -1334.2286 1335.0787)" class="Pattern_1_sto_blush" width="15.1" height="5.9"/>
<rect x="1625.8" y="1911.9" transform="matrix(0.8833 -0.4687 0.4687 0.8833 -710.0529 993.0201)" class="Pattern_1_sto_blush" width="28.3" height="22.2"/>
<rect x="311.5" y="1781.6" transform="matrix(6.437348e-02 -0.9979 0.9979 6.437348e-02 -1483.0283 1984.3768)" class="Pattern_1_sto_blush" width="10.6" height="3"/>
<rect x="1155.9" y="1907.8" transform="matrix(0.8996 -0.4367 0.4367 0.8996 -716.6415 700.6101)" class="Pattern_1_sto_blush" width="19.4" height="2.6"/>
<polygon class="Pattern_1_sto_blush" points="2693.9,1921.5 2680.3,1938 2683.4,1940.6 2686.9,1940.7 2699.2,1925.9 "/>
<rect x="344.5" y="1914.1" transform="matrix(0.9412 -0.3378 0.3378 0.9412 -628.5721 230.3379)" class="Pattern_1_sto_blush" width="5.9" height="14.1"/>
<path class="Pattern_1_sto_blush" d="M2925.8,1920.3l4,5.6l0.9-0.7c4.6-4.3,10.4-9.7,17.4-16.2l-2.3-3.2L2925.8,1920.3z"/>
<polygon class="Pattern_1_sto_blush" points="524.6,1345.3 530.1,1335.7 528.9,1335 528.3,1334.7 526.4,1333.8 521,1343.2 "/>
<polygon class="Pattern_1_sto_blush" points="2649.7,1388.3 2650.4,1392.4 2659.7,1390.8 2658.9,1386.6 "/>
<rect x="372.6" y="1881.1" transform="matrix(0.8833 -0.4687 0.4687 0.8833 -841.8678 402.0504)" class="Pattern_1_sto_blush" width="28.3" height="22.2"/>
<rect x="1017.3" y="1918.1" transform="matrix(1.913020e-02 -0.9998 0.9998 1.913020e-02 -916.4858 2907.3069)" class="Pattern_1_sto_blush" width="12.3" height="5.2"/>
<rect x="445" y="1813.5" transform="matrix(0.845 -0.5347 0.5347 0.845 -907.4323 521.812)" class="Pattern_1_sto_blush" width="3" height="25.8"/>
<rect x="688" y="1341" transform="matrix(0.2608 -0.9654 0.9654 0.2608 -784.5912 1661.351)" class="Pattern_1_sto_blush" width="9.2" height="4.1"/>
<rect x="632.4" y="1312.3" transform="matrix(0.9219 -0.3875 0.3875 0.9219 -459.9039 348.6068)" class="Pattern_1_sto_blush" width="4.1" height="4.8"/>
<rect x="653.6" y="1546.5" transform="matrix(0.3426 -0.9395 0.9395 0.3426 -1026.064 1636.1833)" class="Pattern_1_sto_blush" width="5" height="9.4"/>
<rect x="605.6" y="1353.1" transform="matrix(5.294140e-02 -0.9986 0.9986 5.294140e-02 -775.1325 1890.9197)" class="Pattern_1_sto_blush" width="7.6" height="2.1"/>
<rect x="363.5" y="1676" transform="matrix(0.3479 -0.9375 0.9375 0.3479 -1334.4717 1435.9536)" class="Pattern_1_sto_blush" width="3.1" height="2.6"/>
<rect x="565.6" y="1334.5" transform="matrix(0.3679 -0.9299 0.9299 0.3679 -885.3846 1373.6469)" class="Pattern_1_sto_blush" width="4.1" height="7.1"/>
<rect x="575.3" y="1451.8" transform="matrix(0.6365 -0.7712 0.7712 0.6365 -908.7138 979.4495)" class="Pattern_1_sto_blush" width="19" height="4.1"/>
<rect x="1226.8" y="1925.6" transform="matrix(0.5173 -0.8558 0.8558 0.5173 -1055.0031 1986.0741)" class="Pattern_1_sto_blush" width="12.5" height="5.2"/>
<rect x="487.2" y="1735.3" transform="matrix(0.7311 -0.6823 0.6823 0.7311 -1055.2637 808.2769)" class="Pattern_1_sto_blush" width="21" height="14.8"/>
<rect x="517.4" y="1803" transform="matrix(0.5675 -0.8234 0.8234 0.5675 -1259.9543 1213.3596)" class="Pattern_1_sto_blush" width="15.1" height="5.9"/>
<rect x="476.8" y="1718.4" transform="matrix(0.1993 -0.9799 0.9799 0.1993 -1299.5618 1852.2368)" class="Pattern_1_sto_blush" width="13.7" height="5.9"/>
<rect x="538" y="1654.4" transform="matrix(0.1933 -0.9811 0.9811 0.1933 -1189.0564 1865.5665)" class="Pattern_1_sto_blush" width="4" height="3"/>
<rect x="576.9" y="1615.3" transform="matrix(4.570000e-02 -0.999 0.999 4.570000e-02 -1060.3407 2135.5168)" class="Pattern_1_sto_blush" width="21.3" height="14.8"/>
<rect x="565.8" y="1728" transform="matrix(6.765823e-02 -0.9977 0.9977 6.765823e-02 -1194.771 2183.4395)" class="Pattern_1_sto_blush" width="10.1" height="5.9"/>
<rect x="547.6" y="1784" class="Pattern_1_sto_blush" width="3" height="3.5"/>
<rect x="548.2" y="1380.1" transform="matrix(0.8768 -0.4809 0.4809 0.8768 -595.4115 438.7088)" class="Pattern_1_sto_blush" width="20.2" height="2.1"/>
<rect x="391.5" y="1732.5" transform="matrix(0.7344 -0.6787 0.6787 0.7344 -1070.0007 733.3875)" class="Pattern_1_sto_blush" width="21.3" height="3"/>
<rect x="1190.7" y="1922.2" transform="matrix(0.4221 -0.9066 0.9066 0.4221 -1054.6366 2192.7014)" class="Pattern_1_sto_blush" width="3.6" height="2.6"/>
<rect x="646.4" y="1437.3" transform="matrix(0.6118 -0.791 0.791 0.6118 -886.8165 1080.1667)" class="Pattern_1_sto_blush" width="21.3" height="12.5"/>
<rect x="1337" y="1824.8" class="Pattern_1_sto_blush" width="3" height="3.5"/>
<rect x="453.4" y="1490.6" transform="matrix(0.4788 -0.8779 0.8779 0.4788 -1069.1953 1185.1948)" class="Pattern_1_sto_blush" width="20.4" height="5"/>
<rect x="408.4" y="1615.9" transform="matrix(0.9943 -0.1062 0.1062 0.9943 -169.5121 53.1173)" class="Pattern_1_sto_blush" width="11.6" height="5.9"/>
<rect x="957.5" y="1917.3" transform="matrix(0.8361 -0.5486 0.5486 0.8361 -893.7337 845.6111)" class="Pattern_1_sto_blush" width="21.7" height="2.5"/>
<rect x="2593.5" y="1683.3" transform="matrix(0.1873 -0.9823 0.9823 0.1873 453.1978 3921.5698)" class="Pattern_1_sto_blush" width="5.9" height="7.3"/>
<rect x="2603.6" y="1866.2" transform="matrix(0.8716 -0.4902 0.4902 0.8716 -583.2147 1518.1709)" class="Pattern_1_sto_blush" width="5.9" height="12.5"/>
<rect x="2591.9" y="1730.5" transform="matrix(0.8723 -0.489 0.489 0.8723 -518.1537 1489.9878)" class="Pattern_1_sto_blush" width="3" height="12.9"/>
<rect x="2627.1" y="1714.5" transform="matrix(6.436468e-02 -0.9979 0.9979 6.436468e-02 750.5272 4232.5161)" class="Pattern_1_sto_blush" width="10.6" height="3"/>
<rect x="2825.7" y="1805.3" transform="matrix(0.5873 -0.8094 0.8094 0.5873 -295.0668 3035.4031)" class="Pattern_1_sto_blush" width="6.1" height="3.4"/>
<rect x="2646.9" y="1728.4" transform="matrix(0.2747 -0.9615 0.9615 0.2747 261.4029 3809.1914)" class="Pattern_1_sto_blush" width="17.3" height="5.9"/>
<rect x="2515.1" y="1822" transform="matrix(0.9989 -4.638209e-02 4.638209e-02 0.9989 -82.1398 118.7607)" class="Pattern_1_sto_blush" width="5.9" height="14.7"/>
<rect x="2761.6" y="1719.7" transform="matrix(0.5453 -0.8382 0.8382 0.5453 -186.1606 3099.5776)" class="Pattern_1_sto_blush" width="5.2" height="3.4"/>
<rect x="2401.2" y="1866.7" transform="matrix(0.998 -6.386155e-02 6.386155e-02 0.998 -114.9751 157.6492)" class="Pattern_1_sto_blush" width="14.8" height="21.3"/>
<rect x="2352.2" y="1836.7" transform="matrix(0.3204 -0.9473 0.9473 0.3204 -145.0762 3483.4163)" class="Pattern_1_sto_blush" width="5.9" height="12.2"/>
<rect x="2351.6" y="1738.4" transform="matrix(0.9768 -0.2139 0.2139 0.9768 -317.9446 544.6351)" class="Pattern_1_sto_blush" width="11.6" height="5.9"/>
<polygon class="Pattern_1_sto_blush" points="2392.2,1942.3 2379.9,1953.6 2384,1953.8 2394.2,1944.4 "/>
<rect x="2268" y="1807.7" transform="matrix(0.254 -0.9672 0.9672 0.254 -58.6739 3546.0176)" class="Pattern_1_sto_blush" width="3" height="6.7"/>
<polygon class="Pattern_1_sto_blush" points="2317,1940.6 2315.9,1946.4 2321.9,1946.7 2322.8,1941.8 "/>
<rect x="2393" y="1686.7" transform="matrix(0.5675 -0.8234 0.8234 0.5675 -352.9485 2707.3501)" class="Pattern_1_sto_blush" width="15.1" height="5.9"/>
<rect x="2446.7" y="1828.7" transform="matrix(0.1871 -0.9823 0.9823 0.1871 191.3565 3895.9343)" class="Pattern_1_sto_blush" width="5.9" height="7.3"/>
<rect x="2499.1" y="1691.3" transform="matrix(0.3204 -0.9473 0.9473 0.3204 92.5216 3523.7107)" class="Pattern_1_sto_blush" width="5.9" height="12.2"/>
<rect x="2445" y="1875.9" transform="matrix(0.8723 -0.489 0.489 0.8723 -608.0098 1436.5702)" class="Pattern_1_sto_blush" width="3" height="12.9"/>
<rect x="2509.8" y="1768.6" transform="matrix(8.495191e-02 -0.9964 0.9964 8.495191e-02 534.7725 4122.502)" class="Pattern_1_sto_blush" width="4" height="3"/>
<rect x="2545.5" y="1359.9" transform="matrix(0.5069 -0.862 0.862 0.5069 82.4799 2874.3765)" class="Pattern_1_sto_blush" width="16.6" height="10.3"/>
<rect x="2731.1" y="1533.6" transform="matrix(0.2747 -0.9615 0.9615 0.2747 509.746 3748.9395)" class="Pattern_1_sto_blush" width="17.3" height="5.9"/>
<rect x="2570.6" y="1506.2" transform="matrix(0.3673 -0.9301 0.9301 0.3673 223.5106 3348.2)" class="Pattern_1_sto_blush" width="4.1" height="7.1"/>
<path class="Pattern_1_sto_blush" d="M2679.5,1595.4l9.6,15.2c0.7-0.7,1.5-1.4,2.2-2.1l-9.3-14.7L2679.5,1595.4z"/>
<rect x="2700" y="1485.3" transform="matrix(6.444501e-02 -0.9979 0.9979 6.444501e-02 1047.2159 4090.6921)" class="Pattern_1_sto_blush" width="10.6" height="3"/>
<rect x="2637.5" y="1459.8" transform="matrix(0.9217 -0.3879 0.3879 0.9217 -360.5109 1138.2596)" class="Pattern_1_sto_blush" width="4.1" height="4.8"/>
<rect x="2388.4" y="1614.5" transform="matrix(0.5491 -0.8357 0.8357 0.5491 -272.7155 2725.5908)" class="Pattern_1_sto_blush" width="2.8" height="2.1"/>
<polygon class="Pattern_1_sto_blush" points="2639.9,1309 2644.4,1301.5 2639.7,1301.3 2636.3,1306.9 "/>
<rect x="2540" y="1539.7" transform="matrix(0.5012 -0.8653 0.8653 0.5012 -64.4345 2971.7202)" class="Pattern_1_sto_blush" width="11" height="4.1"/>
<rect x="2519.2" y="1576.7" transform="matrix(0.4763 -0.8793 0.8793 0.4763 -71.695 3047.2415)" class="Pattern_1_sto_blush" width="5.9" height="14.2"/>
<rect x="2157.2" y="1626.3" transform="matrix(0.5121 -0.8589 0.8589 0.5121 -344.112 2663.9739)" class="Pattern_1_sto_blush" width="31.2" height="17.2"/>
<rect x="2880.3" y="1855" transform="matrix(0.1387 -0.9903 0.9903 0.1387 654.596 4466.1909)" class="Pattern_1_sto_blush" width="29.3" height="3.4"/>
<rect x="2594.1" y="1573.9" transform="matrix(8.566657e-02 -0.9963 0.9963 8.566657e-02 804.1231 4026.9534)" class="Pattern_1_sto_blush" width="4" height="3"/>
<rect x="2621.7" y="1499.2" transform="matrix(0.998 -6.386155e-02 6.386155e-02 0.998 -91.0527 170.9798)" class="Pattern_1_sto_blush" width="14.8" height="21.3"/>
<rect x="2575.2" y="1419.2" transform="matrix(0.2606 -0.9654 0.9654 0.2606 535.3277 3541.5327)" class="Pattern_1_sto_blush" width="9.2" height="4.1"/>
<rect x="2584.6" y="1466.7" transform="matrix(0.7071 -0.7071 0.7071 0.7071 -282.5891 2260.6558)" class="Pattern_1_sto_blush" width="5.9" height="9.4"/>
<rect x="2599.3" y="1627.3" transform="matrix(0.9989 -4.638209e-02 4.638209e-02 0.9989 -73.0169 122.4579)" class="Pattern_1_sto_blush" width="5.9" height="14.7"/>
<rect x="2620.9" y="1581" transform="matrix(0.7345 -0.6786 0.6786 0.7345 -375.2058 2205.8943)" class="Pattern_1_sto_blush" width="21.3" height="3"/>
<rect x="2251.7" y="1857.1" class="Pattern_1_sto_blush" width="3" height="3.5"/>
<rect x="2251.7" y="1921.6" class="Pattern_1_sto_blush" width="3" height="3.5"/>
<rect x="1642.9" y="1828.2" transform="matrix(0.8723 -0.489 0.489 0.8723 -687.1155 1038.4342)" class="Pattern_1_sto_blush" width="3" height="12.9"/>
<rect x="1587.7" y="1873.4" transform="matrix(0.7345 -0.6786 0.6786 0.7345 -847.9382 1582.4218)" class="Pattern_1_sto_blush" width="21.3" height="3"/>
<rect x="1599.1" y="1818.9" transform="matrix(0.998 -6.386155e-02 6.386155e-02 0.998 -113.5623 106.3314)" class="Pattern_1_sto_blush" width="14.8" height="21.3"/>
<rect x="1678.3" y="1662.9" transform="matrix(0.998 -6.385850e-02 6.385850e-02 0.998 -103.4284 111.0617)" class="Pattern_1_sto_blush" width="14.8" height="21.3"/>
<rect x="1746.6" y="1811.1" transform="matrix(0.9412 -0.3378 0.3378 0.9412 -511.3199 697.8589)" class="Pattern_1_sto_blush" width="5.9" height="14.1"/>
<rect x="1799.9" y="1739.6" transform="matrix(0.845 -0.5348 0.5348 0.845 -657.984 1234.9966)" class="Pattern_1_sto_blush" width="3" height="25.8"/>
<rect x="1713" y="1774.3" transform="matrix(0.9989 -4.638209e-02 4.638209e-02 0.9989 -80.7879 81.5084)" class="Pattern_1_sto_blush" width="5.9" height="14.7"/>
<rect x="1596.5" y="1663.9" class="Pattern_1_sto_blush" width="3" height="3.5"/>
<rect x="1452.7" y="1620.8" transform="matrix(6.752548e-02 -0.9977 0.9977 6.752548e-02 -260.7892 2968.5605)" class="Pattern_1_sto_blush" width="10.1" height="5.9"/>
<rect x="1412.6" y="1666.2" transform="matrix(0.9205 -0.3907 0.3907 0.9205 -541.074 685.3304)" class="Pattern_1_sto_blush" width="3" height="12.9"/>
<rect x="1451" y="1698.5" transform="matrix(0.9293 -0.3692 0.3692 0.9293 -527.7144 661.7701)" class="Pattern_1_sto_blush" width="28.3" height="22.2"/>
<rect x="1415.6" y="1723.8" transform="matrix(0.8983 -0.4394 0.4394 0.8983 -618.9573 799.2783)" class="Pattern_1_sto_blush" width="3" height="25.8"/>
<rect x="1641.7" y="1652.6" transform="matrix(0.9767 -0.2144 0.2144 0.9767 -316.6433 391.7174)" class="Pattern_1_sto_blush" width="11.6" height="5.9"/>
<rect x="1492.1" y="1846.6" transform="matrix(0.731 -0.6824 0.6824 0.731 -860.9535 1523.9805)" class="Pattern_1_sto_blush" width="21" height="14.8"/>
<rect x="1560.9" y="1866.3" transform="matrix(8.495191e-02 -0.9964 0.9964 8.495191e-02 -430.8781 3266.3833)" class="Pattern_1_sto_blush" width="4" height="3"/>
<rect x="1633.2" y="1885.1" transform="matrix(8.495191e-02 -0.9964 0.9964 8.495191e-02 -383.3816 3355.615)" class="Pattern_1_sto_blush" width="4" height="3"/>
<rect x="1503.8" y="1802.2" transform="matrix(0.9974 -7.225315e-02 7.225315e-02 0.9974 -126.7903 113.5974)" class="Pattern_1_sto_blush" width="5.9" height="14.2"/>
<rect x="1449.6" y="1809.3" class="Pattern_1_sto_blush" width="3" height="3.5"/>
<rect x="1902.9" y="1870.1" transform="matrix(6.437348e-02 -0.9979 0.9979 6.437348e-02 -82.3822 3655.3813)" class="Pattern_1_sto_blush" width="10.6" height="3"/>
<rect x="2108.9" y="1891.6" transform="matrix(0.5675 -0.8234 0.8234 0.5675 -644.5292 2562.0415)" class="Pattern_1_sto_blush" width="15.1" height="5.9"/>
<rect x="2139.1" y="1872.5" class="Pattern_1_sto_blush" width="3" height="3.5"/>
<rect x="2129.5" y="1743" transform="matrix(0.1936 -0.9811 0.9811 0.1936 7.3244 3497.8196)" class="Pattern_1_sto_blush" width="4" height="3"/>
<rect x="2155.3" y="1753.9" transform="matrix(0.8043 -0.5942 0.5942 0.8043 -619.2122 1630.3528)" class="Pattern_1_sto_blush" width="21.3" height="3"/>
<rect x="2168.4" y="1703.9" transform="matrix(4.570892e-02 -0.999 0.999 4.570892e-02 369.9143 3809.7974)" class="Pattern_1_sto_blush" width="21.3" height="14.8"/>
<rect x="2181.4" y="1772.4" transform="matrix(0.9205 -0.3907 0.3907 0.9205 -521.5037 994.2393)" class="Pattern_1_sto_blush" width="3" height="12.9"/>
<rect x="2294.1" y="1894.4" transform="matrix(0.731 -0.6824 0.6824 0.731 -677.8057 2084.113)" class="Pattern_1_sto_blush" width="21" height="14.8"/>
<rect x="2211.4" y="1850.3" transform="matrix(0.9199 -0.3921 0.3921 0.9199 -550.6163 1016.9022)" class="Pattern_1_sto_blush" width="5.9" height="12.5"/>
<rect x="2045.2" y="1655.4" transform="matrix(0.6542 -0.7563 0.7563 0.6542 -544.3964 2126.0015)" class="Pattern_1_sto_blush" width="15.1" height="5.9"/>
<rect x="1945.8" y="1844.3" transform="matrix(0.8723 -0.489 0.489 0.8723 -656.2911 1188.5745)" class="Pattern_1_sto_blush" width="3" height="12.9"/>
<rect x="1935.7" y="1774.5" transform="matrix(0.845 -0.5348 0.5348 0.845 -655.5706 1313.066)" class="Pattern_1_sto_blush" width="3" height="25.8"/>
<rect x="1900.9" y="1628.1" transform="matrix(0.9741 -0.2261 0.2261 0.9741 -318.8521 474.8368)" class="Pattern_1_sto_blush" width="25.8" height="3"/>
<rect x="1913.4" y="1671" transform="matrix(0.9412 -0.3378 0.3378 0.9412 -454.2197 746.0294)" class="Pattern_1_sto_blush" width="5.9" height="14.1"/>
<rect x="1868.8" y="1788.9" transform="matrix(0.6167 -0.7872 0.7872 0.6167 -691.149 2164.0994)" class="Pattern_1_sto_blush" width="16" height="5.9"/>
<rect x="2026.7" y="1816.1" transform="matrix(8.498554e-02 -0.9964 0.9964 8.498554e-02 45.3759 3684.488)" class="Pattern_1_sto_blush" width="4" height="3"/>
<rect x="2019.6" y="1750.9" transform="matrix(0.9989 -4.638209e-02 4.638209e-02 0.9989 -79.3755 95.7035)" class="Pattern_1_sto_blush" width="5.9" height="14.7"/>
<rect x="2024.8" y="1674.3" transform="matrix(0.1094 -0.994 0.994 0.1094 139.157 3506.9399)" class="Pattern_1_sto_blush" width="3.5" height="3"/>
<rect x="1985.8" y="1810.6" transform="matrix(0.998 -6.386155e-02 6.386155e-02 0.998 -112.2389 131.0071)" class="Pattern_1_sto_blush" width="14.8" height="21.3"/>
</svg>
