<?xml version="1.0" encoding="utf-8"?>
    <!-- Generator: Adobe Illustrator 26.4.1, SVG Export Plug-In . SVG Version: 6.00 Build 0)  -->
    <svg version="1.1" id="Pattern_4" xmlns="http://www.w3.org/2000/svg" xmlns:xlink="http://www.w3.org/1999/xlink" x="0px" y="0px"
         viewBox="0 0 3200 3200" style="enable-background:new 0 0 3200 3200;" xml:space="preserve">
    <style type="text/css">
        .Pattern_4_sto_jade{fill:#c5bbae;}
    </style>
    <rect x="1347.2" y="1841.5" transform="matrix(0.8368 -0.5475 0.5475 0.8368 -791.3424 1040.8647)" class="Pattern_4_sto_jade" width="5.9" height="12.5"/>
    <rect x="982.5" y="1622.5" transform="matrix(0.9626 -0.271 0.271 0.9626 -404.2505 328.0284)" class="Pattern_4_sto_jade" width="5.9" height="10"/>
    <rect x="708.2" y="1859.1" transform="matrix(4.232547e-02 -0.9991 0.9991 4.232547e-02 -1176.3777 2496.1653)" class="Pattern_4_sto_jade" width="11.3" height="5.2"/>
    <rect x="637.3" y="1897.9" transform="matrix(0.9931 -0.1169 0.1169 0.9931 -218.2586 88.9175)" class="Pattern_4_sto_jade" width="23.3" height="14.8"/>
    <rect x="853" y="1869.7" transform="matrix(0.6923 -0.7216 0.7216 0.6923 -1085.4678 1195.9956)" class="Pattern_4_sto_jade" width="13.5" height="2.5"/>
    <polygon class="Pattern_4_sto_jade" points="2611.8,1919.1 2588.7,1921.9 2590.3,1935.8 2595.4,1936 2613.5,1933.9 "/>
    <rect x="458.4" y="1611.3" transform="matrix(0.5739 -0.819 0.819 0.5739 -1122.5308 1068.2109)" class="Pattern_4_sto_jade" width="13.5" height="3"/>
    <rect x="603.2" y="1338.1" transform="matrix(0.3333 -0.9428 0.9428 0.3333 -859.0567 1465.3613)" class="Pattern_4_sto_jade" width="6.9" height="4.1"/>
    <rect x="608.8" y="1460.5" transform="matrix(0.5602 -0.8284 0.8284 0.5602 -942.3368 1151.2452)" class="Pattern_4_sto_jade" width="8.5" height="5"/>
    <rect x="535.6" y="1429.4" transform="matrix(0.9756 -0.2194 0.2194 0.9756 -301.677 153.0368)" class="Pattern_4_sto_jade" width="5.2" height="10.7"/>
    <rect x="553.7" y="1507.6" transform="matrix(0.8213 -0.5705 0.5705 0.8213 -763.3547 587.4766)" class="Pattern_4_sto_jade" width="5" height="9.5"/>
    <rect x="525.1" y="1369.4" transform="matrix(1.341055e-02 -0.9999 0.9999 1.341055e-02 -848.214 1883.2839)" class="Pattern_4_sto_jade" width="10.3" height="4.1"/>
    <rect x="2864.3" y="1781.8" transform="matrix(0.9902 -0.1396 0.1396 0.9902 -221.553 417.7855)" class="Pattern_4_sto_jade" width="6.9" height="13.3"/>
    <rect x="2892.7" y="1898.9" transform="matrix(0.7994 -0.6008 0.6008 0.7994 -559.8909 2124.3169)" class="Pattern_4_sto_jade" width="17" height="3.4"/>
    <rect x="2514.8" y="1722.7" transform="matrix(0.7007 -0.7134 0.7134 0.7007 -480.3542 2313.7727)" class="Pattern_4_sto_jade" width="5.9" height="13.6"/>
    <rect x="2769.2" y="1566.6" class="Pattern_4_sto_jade" width="2.5" height="4.1"/>
    <polygon class="Pattern_4_sto_jade" points="2696,1642 2701.5,1652.4 2726.3,1638 2721,1628.8 "/>
    <rect x="1501.8" y="1637" transform="matrix(0.902 -0.4318 0.4318 0.902 -562.7206 810.4052)" class="Pattern_4_sto_jade" width="3" height="14.8"/>
    <rect x="1511.1" y="1758.6" transform="matrix(0.9192 -0.3937 0.3937 0.9192 -571.235 737.688)" class="Pattern_4_sto_jade" width="3" height="5.2"/>
    <rect x="2285.8" y="1751.8" transform="matrix(0.9776 -0.2105 0.2105 0.9776 -318.8368 521.1947)" class="Pattern_4_sto_jade" width="5.9" height="12.9"/>
    <rect x="2163" y="1878.3" transform="matrix(0.8368 -0.5476 0.5476 0.8368 -678.3591 1493.6479)" class="Pattern_4_sto_jade" width="5.9" height="12.5"/>
    <rect x="2102.1" y="1916.7" transform="matrix(0.9099 -0.4148 0.4148 0.9099 -606.8032 1045.3815)" class="Pattern_4_sto_jade" width="3" height="6.2"/>
    <rect x="2132.2" y="1793.2" transform="matrix(0.9935 -0.1139 0.1139 0.9935 -191.2588 254.9133)" class="Pattern_4_sto_jade" width="5.9" height="16.1"/>
    <rect x="2047.9" y="1812.3" transform="matrix(0.9257 -0.3784 0.3784 0.9257 -536.309 911.3002)" class="Pattern_4_sto_jade" width="5.9" height="16.2"/>
    <rect x="1993" y="1927.9" transform="matrix(0.6698 -0.7426 0.7426 0.6698 -778.4885 2121.4907)" class="Pattern_4_sto_jade" width="5.9" height="16.2"/>
    </svg>
    