   <svg viewBox="0 0 3200 3200" version="1.1" xmlns="http://www.w3.org/2000/svg" xmlns:xlink="http://www.w3.org/1999/xlink">
                                    <g id="Artboard" stroke="none" stroke-width="1" fill="none" fill-rule="evenodd">
                                        <path d="M2460.735,1303.079 C2466.563,1302.802 2470.482,1302.456 2474.4,1302.453 C2531.392,1302.417 2588.384,1302.345 2645.376,1302.468 C2666.734,1302.514 2666.697,1302.751 2675.546,1321.524 C2772.693,1527.61 2869.853,1733.691 2967.003,1939.776 C2969.092,1944.207 2971.101,1948.676 2973.621,1954.155 C2058.74,1954.155 1145.361,1954.155 230.531,1954.155 C232.223,1950.165 233.478,1946.898 234.965,1943.741 C293.592,1819.291 352.237,1694.851 410.885,1570.411 C450.504,1486.347 490.13,1402.286 529.754,1318.225 C530.89,1315.815 532.031,1313.407 533.199,1311.013 C535.596,1306.101 539.503,1303.389 544.986,1303.063 C548.976,1302.826 552.969,1302.478 556.961,1302.475 C614.619,1302.443 672.278,1302.446 729.936,1302.498 C733.803,1302.502 737.669,1302.96 742.646,1303.277 C741.053,1307.844 739.96,1311.226 738.702,1314.545 C720.284,1363.125 701.72,1411.651 683.557,1460.326 C681.169,1466.726 679.39,1473.968 679.801,1480.668 C680.602,1493.699 677.992,1505.586 673.107,1517.513 C665.968,1534.944 668.818,1543.916 684.113,1555.098 C697.743,1565.062 713.336,1570.978 729.294,1575.901 C760.944,1585.665 793.503,1590.714 826.365,1594.053 C865.876,1598.067 905.509,1598.607 945.188,1598.6 C1389.458,1598.521 1833.729,1598.541 2277.999,1598.558 C2330.072,1598.56 2381.912,1595.735 2433.188,1586.018 C2454.821,1581.919 2476.172,1576.658 2496.409,1567.789 C2503.699,1564.594 2510.87,1560.857 2517.46,1556.423 C2522.332,1553.144 2526.698,1548.745 2530.345,1544.103 C2535.109,1538.039 2536.67,1530.991 2533.037,1523.504 C2532.023,1521.414 2531.45,1519.114 2530.489,1516.995 C2525.312,1505.576 2523.16,1493.819 2523.955,1481.124 C2524.375,1474.42 2522.685,1467.164 2520.3,1460.771 C2502.136,1412.095 2483.564,1363.572 2465.126,1314.999 C2463.849,1311.629 2462.634,1308.237 2460.735,1303.079 Z" id="Path" fill="#a9bdb1" fill-rule="nonzero"></path>
                                    </g>
                                </svg>