<?xml version="1.0" encoding="utf-8"?>
    <!-- Generator: Adobe Illustrator 26.4.1, SVG Export Plug-In . SVG Version: 6.00 Build 0)  -->
    <svg version="1.1" id="Pattern_3" xmlns="http://www.w3.org/2000/svg" xmlns:xlink="http://www.w3.org/1999/xlink" x="0px" y="0px"
         viewBox="0 0 3200 3200" style="enable-background:new 0 0 3200 3200;" xml:space="preserve">
    <style type="text/css">
        .Pattern_3_sto_jade{fill:#29495c;}
    </style>
    <rect x="698.2" y="1731.4" transform="matrix(0.9192 -0.3937 0.3937 0.9192 -626.1297 415.4942)" class="Pattern_3_sto_jade" width="3" height="5.2"/>
    <rect x="748.5" y="1816" transform="matrix(0.9257 -0.3784 0.3784 0.9257 -634.327 419.936)" class="Pattern_3_sto_jade" width="5.9" height="16.2"/>
    <rect x="687.6" y="1790.8" transform="matrix(0.4805 -0.877 0.877 0.4805 -1211.0778 1540.1044)" class="Pattern_3_sto_jade" width="13.5" height="3"/>
    <rect x="696.5" y="1644.7" transform="matrix(0.4631 -0.8863 0.8863 0.4631 -1081.4619 1509.9587)" class="Pattern_3_sto_jade" width="18.3" height="5.9"/>
    <rect x="747.2" y="1750" class="Pattern_3_sto_jade" width="3" height="6.2"/>
    <rect x="710.3" y="1596.2" transform="matrix(0.902 -0.4318 0.4318 0.902 -622.7155 464.5884)" class="Pattern_3_sto_jade" width="3" height="14.8"/>
    <rect x="794" y="1597.3" transform="matrix(0.8368 -0.5475 0.5475 0.8368 -747.9009 698.0137)" class="Pattern_3_sto_jade" width="5.9" height="12.5"/>
    <rect x="834.5" y="1645.4" transform="matrix(0.4805 -0.877 0.877 0.4805 -1007.2195 1593.3601)" class="Pattern_3_sto_jade" width="13.5" height="3"/>
    <rect x="829.8" y="1623.5" transform="matrix(0.3326 -0.9431 0.9431 0.3326 -978.1802 1870.7834)" class="Pattern_3_sto_jade" width="5.9" height="6.2"/>
    <rect x="744.7" y="1664.5" transform="matrix(0.995 -9.952455e-02 9.952455e-02 0.995 -162.2923 82.6896)" class="Pattern_3_sto_jade" width="5.9" height="6.9"/>
    <rect x="747.6" y="1719" transform="matrix(0.5617 -0.8274 0.8274 0.5617 -1094.6725 1374.7133)" class="Pattern_3_sto_jade" width="4.9" height="3"/>
    <rect x="487.2" y="1520.3" transform="matrix(0.1094 -0.994 0.994 0.1094 -1076.3527 1842.7941)" class="Pattern_3_sto_jade" width="5.9" height="3.4"/>
    <rect x="793" y="1721" transform="matrix(0.2788 -0.9604 0.9604 0.2788 -1079.7291 2010.1881)" class="Pattern_3_sto_jade" width="11.1" height="5.9"/>
    <rect x="835.6" y="1768" transform="matrix(0.9626 -0.271 0.271 0.9626 -449.1697 293.6616)" class="Pattern_3_sto_jade" width="5.9" height="10"/>
    <rect x="509.6" y="1762.2" transform="matrix(0.4805 -0.877 0.877 0.4805 -1278.4865 1369.1342)" class="Pattern_3_sto_jade" width="13.5" height="3"/>
    <rect x="812.8" y="1927.2" transform="matrix(0.995 -9.960040e-02 9.960040e-02 0.995 -188.2408 90.8491)" class="Pattern_3_sto_jade" width="5.9" height="6.9"/>
    <rect x="553.7" y="1683.6" transform="matrix(0.2788 -0.9604 0.9604 0.2788 -1216.4036 1753.4261)" class="Pattern_3_sto_jade" width="11.1" height="5.9"/>
    <polygon class="Pattern_3_sto_jade" points="560.7,1621.7 547.2,1604.6 540,1610.7 553.5,1627.7 "/>
    <rect x="607.1" y="1739.1" transform="matrix(0.995 -9.960040e-02 9.960040e-02 0.995 -170.5268 69.4268)" class="Pattern_3_sto_jade" width="5.9" height="6.9"/>
    <rect x="607.6" y="1604.3" transform="matrix(0.9864 -0.1641 0.1641 0.9864 -255.7927 122.0009)" class="Pattern_3_sto_jade" width="5.9" height="10"/>
    <rect x="592.8" y="1416.8" transform="matrix(0.8222 -0.5693 0.5693 0.8222 -700.7617 592.5915)" class="Pattern_3_sto_jade" width="10.4" height="2.1"/>
    <rect x="641.1" y="1578.7" transform="matrix(0.8222 -0.5693 0.5693 0.8222 -784.3493 648.8415)" class="Pattern_3_sto_jade" width="10.4" height="2.1"/>
    <rect x="576.9" y="1492.1" transform="matrix(0.8222 -0.5693 0.5693 0.8222 -746.4379 596.8799)" class="Pattern_3_sto_jade" width="10.4" height="2.1"/>
    <rect x="546.5" y="1344.5" transform="matrix(0.9155 -0.4023 0.4023 0.9155 -495.9565 334.5957)" class="Pattern_3_sto_jade" width="4.1" height="7"/>
    <rect x="576.7" y="1780.7" transform="matrix(0.4742 -0.8804 0.8804 0.4742 -1267.4197 1449.3621)" class="Pattern_3_sto_jade" width="5.9" height="10.1"/>
    <rect x="525.9" y="1546" transform="matrix(0.6487 -0.761 0.761 0.6487 -992.0334 945.6377)" class="Pattern_3_sto_jade" width="4.9" height="3"/>
    <rect x="545.7" y="1319.5" transform="matrix(0.5495 -0.8355 0.8355 0.5495 -856.2931 1052.869)" class="Pattern_3_sto_jade" width="5" height="2.1"/>
    <rect x="520.3" y="1578.3" transform="matrix(0.1094 -0.994 0.994 0.1094 -1104.106 1927.2781)" class="Pattern_3_sto_jade" width="6.2" height="3"/>
    <rect x="494.5" y="1447.5" transform="matrix(0.6807 -0.7326 0.7326 0.6807 -904.173 826.9442)" class="Pattern_3_sto_jade" width="4.1" height="6.3"/>
    <rect x="1250" y="1840.5" class="Pattern_3_sto_jade" width="3" height="6.2"/>
    <rect x="1247.8" y="1652.1" transform="matrix(0.5739 -0.8189 0.8189 0.5739 -819.5428 1732.022)" class="Pattern_3_sto_jade" width="13.5" height="3"/>
    <rect x="1247.8" y="1782.7" transform="matrix(0.7007 -0.7134 0.7134 0.7007 -902.3443 1427.8289)" class="Pattern_3_sto_jade" width="5.9" height="13.6"/>
    <rect x="1155.7" y="1661.3" transform="matrix(9.765159e-03 -1 1 9.765159e-03 -516.3515 2807.1641)" class="Pattern_3_sto_jade" width="6.9" height="5.9"/>
    <rect x="1198.1" y="1722.5" transform="matrix(0.3823 -0.924 0.924 0.3823 -850.9728 2178.0244)" class="Pattern_3_sto_jade" width="11.1" height="5.9"/>
    <polygon class="Pattern_3_sto_jade" points="1103.2,1850.2 1103.2,1859 1109.1,1859.3 1109.1,1850.2 "/>
    <rect x="1182.5" y="1625.3" transform="matrix(0.9932 -0.1168 0.1168 0.9932 -182.5245 150.6451)" class="Pattern_3_sto_jade" width="23.3" height="14.8"/>
    <rect x="1309.7" y="1619.1" transform="matrix(0.1094 -0.994 0.994 0.1094 -441.5734 2748.2769)" class="Pattern_3_sto_jade" width="6.2" height="3"/>
    <rect x="1322.5" y="1855.3" transform="matrix(0.4742 -0.8804 0.8804 0.4742 -940.9729 2145.2979)" class="Pattern_3_sto_jade" width="5.9" height="10.1"/>
    <rect x="1330.4" y="1726.2" transform="matrix(8.253177e-02 -0.9966 0.9966 8.253177e-02 -495.4157 2917.198)" class="Pattern_3_sto_jade" width="12.6" height="3"/>
    <rect x="1304.8" y="1683.3" transform="matrix(0.9614 -0.275 0.275 0.9614 -414.7453 424.8866)" class="Pattern_3_sto_jade" width="5.9" height="16.2"/>
    <rect x="1299" y="1860.2" transform="matrix(0.9191 -0.394 0.394 0.9191 -628.7731 663.1187)" class="Pattern_3_sto_jade" width="3" height="5.2"/>
    <rect x="1299" y="1803" transform="matrix(0.4808 -0.8768 0.8768 0.4808 -904.266 2081.7629)" class="Pattern_3_sto_jade" width="13.5" height="3"/>
    <rect x="941.3" y="1811.2" transform="matrix(0.9932 -0.1168 0.1168 0.9932 -205.922 123.7764)" class="Pattern_3_sto_jade" width="23.3" height="14.8"/>
    <rect x="923.4" y="1634.1" transform="matrix(0.7008 -0.7134 0.7134 0.7008 -893.4015 1151.7708)" class="Pattern_3_sto_jade" width="5.9" height="13.6"/>
    <rect x="929.5" y="1705.2" transform="matrix(0.9996 -2.701406e-02 2.701406e-02 0.9996 -45.896 25.7749)" class="Pattern_3_sto_jade" width="3" height="12.6"/>
    <rect x="894.1" y="1604.6" class="Pattern_3_sto_jade" width="3" height="6.2"/>
    <rect x="995.2" y="1699.5" transform="matrix(0.3733 -0.9277 0.9277 0.3733 -962.2438 2004.5468)" class="Pattern_3_sto_jade" width="14.8" height="30.1"/>
    <rect x="1060.2" y="1833.1" transform="matrix(0.8493 -0.5279 0.5279 0.8493 -811.6493 837.8785)" class="Pattern_3_sto_jade" width="3" height="14.8"/>
    <rect x="1054" y="1661.3" transform="matrix(0.9487 -0.3163 0.3163 0.9487 -473.1995 419.8647)" class="Pattern_3_sto_jade" width="5.9" height="12.9"/>
    <rect x="1083.9" y="1603.4" transform="matrix(0.8493 -0.5279 0.5279 0.8493 -686.7888 815.7418)" class="Pattern_3_sto_jade" width="3" height="14.8"/>
    <rect x="1387.2" y="1850.8" transform="matrix(0.995 -9.960040e-02 9.960040e-02 0.995 -177.7669 147.6808)" class="Pattern_3_sto_jade" width="5.9" height="6.9"/>
    <rect x="1053.9" y="1793.2" transform="matrix(0.3633 -0.9317 0.9317 0.3633 -996.5947 2133.8992)" class="Pattern_3_sto_jade" width="18.3" height="5.9"/>
    <rect x="1038.7" y="1741.9" transform="matrix(0.59 -0.8074 0.8074 0.59 -979.4967 1557.9807)" class="Pattern_3_sto_jade" width="11" height="3"/>
    <rect x="749.6" y="1880.1" transform="matrix(0.8073 -0.5902 0.5902 0.8073 -964.8962 807.9008)" class="Pattern_3_sto_jade" width="10" height="2.6"/>
    <rect x="636.3" y="1932" transform="matrix(0.8369 -0.5474 0.5474 0.8369 -956.6741 666.0377)" class="Pattern_3_sto_jade" width="5.9" height="12.5"/>
    <rect x="1187.5" y="1894.4" transform="matrix(0.3238 -0.9461 0.9461 0.3238 -986.7448 2410.8096)" class="Pattern_3_sto_jade" width="11.3" height="2.6"/>
    <rect x="1400.5" y="1893.8" transform="matrix(8.912931e-02 -0.996 0.996 8.912931e-02 -609.122 3126.6643)" class="Pattern_3_sto_jade" width="8.8" height="5.2"/>
    <rect x="567" y="1818.5" transform="matrix(0.2788 -0.9603 0.9603 0.2788 -1336.3899 1863.4735)" class="Pattern_3_sto_jade" width="11.1" height="5.9"/>
    <rect x="588.1" y="1893.6" transform="matrix(0.4808 -0.8768 0.8768 0.4808 -1352.7402 1505.465)" class="Pattern_3_sto_jade" width="13.5" height="3"/>
    <polygon class="Pattern_3_sto_jade" points="611.6,1946 611.6,1946 611.6,1946 "/>
    <rect x="369.1" y="1706.7" transform="matrix(0.3633 -0.9317 0.9317 0.3633 -1351.9934 1440.8265)" class="Pattern_3_sto_jade" width="18.3" height="5.9"/>
    <rect x="1338.7" y="1911.4" transform="matrix(0.3481 -0.9374 0.9374 0.3481 -915.6279 2511.1523)" class="Pattern_3_sto_jade" width="18.2" height="5.2"/>
    <rect x="290.4" y="1842.5" transform="matrix(0.8493 -0.528 0.528 0.8493 -932.6713 432.9417)" class="Pattern_3_sto_jade" width="3" height="14.8"/>
    <rect x="856.2" y="1851.8" transform="matrix(0.3575 -0.9339 0.9339 0.3575 -1179.946 1993.2697)" class="Pattern_3_sto_jade" width="5" height="4.7"/>
    <rect x="317.1" y="1841.3" transform="matrix(0.2795 -0.9601 0.9601 0.2795 -1539.0092 1634.6534)" class="Pattern_3_sto_jade" width="5.2" height="2.9"/>
    <rect x="1455.1" y="1893.5" transform="matrix(0.9008 -0.4342 0.4342 0.9008 -680.1096 821.3839)" class="Pattern_3_sto_jade" width="5.2" height="11.5"/>
    <rect x="1578.3" y="1918.6" transform="matrix(0.7671 -0.6415 0.6415 0.7671 -863.5357 1463.6484)" class="Pattern_3_sto_jade" width="11.5" height="5.2"/>
    <rect x="751.7" y="1917.5" transform="matrix(0.5665 -0.8241 0.8241 0.5665 -1254.024 1456.078)" class="Pattern_3_sto_jade" width="10.6" height="5"/>
    <rect x="649.3" y="1836" transform="matrix(0.7879 -0.6158 0.6158 0.7879 -993.2332 790.899)" class="Pattern_3_sto_jade" width="4.5" height="2.6"/>
    <polygon class="Pattern_3_sto_jade" points="912.4,1844.1 914.1,1849.2 920.5,1849.6 918,1842.2 "/>
    <polygon class="Pattern_3_sto_jade" points="2492.3,1307.3 2500.9,1301.4 2500.8,1301.2 2497.6,1301.1 2491.2,1305.6 "/>
    <rect x="2145.4" y="1935.5" transform="matrix(0.4745 -0.8802 0.8802 0.4745 -579.2067 2910.7742)" class="Pattern_3_sto_jade" width="5.9" height="10.1"/>
    <path class="Pattern_3_sto_jade" d="M1635.7,1632.3l2.7-1.2l-1.8-4.2c-0.5,0-1-0.1-1.5-0.1l-1.5,0.6L1635.7,1632.3z"/>
    <polygon class="Pattern_3_sto_jade" points="273.4,1933.5 271.7,1918.8 253.1,1921 248.5,1921.5 250.3,1936.2 "/>
    <path class="Pattern_3_sto_jade" d="M1220.7,1609.9l-2.7-5.4c-2.3-0.1-4.6-0.2-6.8-0.4l4.3,8.4L1220.7,1609.9z"/>
    <rect x="1296.8" y="1885.4" transform="matrix(0.9806 -0.1961 0.1961 0.9806 -345.7982 291.3166)" class="Pattern_3_sto_jade" width="2.6" height="12.7"/>
    <rect x="539.2" y="1931.1" class="Pattern_3_sto_jade" width="3" height="6.2"/>
    <rect x="369.1" y="1831.6" transform="matrix(0.9486 -0.3164 0.3164 0.9486 -562.4058 212.135)" class="Pattern_3_sto_jade" width="5.9" height="12.9"/>
    <polygon class="Pattern_3_sto_jade" points="352.7,1946.8 356.9,1953.6 360.6,1953.8 355.2,1945.2 "/>
    <rect x="447.8" y="1909.3" transform="matrix(0.9626 -0.271 0.271 0.9626 -501.9916 193.8284)" class="Pattern_3_sto_jade" width="5.9" height="10"/>
    <rect x="506.9" y="1894.2" transform="matrix(0.7007 -0.7134 0.7134 0.7007 -1203.6173 932.6732)" class="Pattern_3_sto_jade" width="5.9" height="13.6"/>
    <rect x="509.4" y="1498.9" transform="matrix(2.829600e-02 -0.9996 0.9996 2.829600e-02 -1000.8456 1973.1497)" class="Pattern_3_sto_jade" width="10.1" height="5"/>
    <rect x="525.3" y="1395.5" transform="matrix(0.5315 -0.8471 0.8471 0.5315 -934.4866 1103.3904)" class="Pattern_3_sto_jade" width="10" height="2.1"/>
    <rect x="419.1" y="1576.3" transform="matrix(0.8917 -0.4526 0.4526 0.8917 -670.5193 362.3793)" class="Pattern_3_sto_jade" width="5.9" height="12.5"/>
    <rect x="428.1" y="1553.7" transform="matrix(0.7552 -0.6555 0.6555 0.7552 -913.0986 664.8737)" class="Pattern_3_sto_jade" width="11.1" height="2.5"/>
    <rect x="408.7" y="1681.8" transform="matrix(0.3822 -0.9241 0.9241 0.3822 -1300.9312 1423.5945)" class="Pattern_3_sto_jade" width="11.1" height="5.9"/>
    <rect x="1136.1" y="1868" transform="matrix(0.7007 -0.7134 0.7134 0.7007 -996.6025 1373.715)" class="Pattern_3_sto_jade" width="5.9" height="13.6"/>
    <rect x="1113.5" y="1931.2" transform="matrix(0.5298 -0.8481 0.8481 0.5298 -1113.113 1860.7104)" class="Pattern_3_sto_jade" width="16.1" height="5.9"/>
    <rect x="657.4" y="1356.6" transform="matrix(0.7328 -0.6804 0.6804 0.7328 -746.5759 815.975)" class="Pattern_3_sto_jade" width="16.8" height="4.1"/>
    <rect x="456.4" y="1723.8" transform="matrix(0.9257 -0.3784 0.3784 0.9257 -621.1212 302.5627)" class="Pattern_3_sto_jade" width="5.9" height="16.2"/>
    <rect x="625.6" y="1389.2" transform="matrix(0.2854 -0.9584 0.9584 0.2854 -883.3229 1597.8943)" class="Pattern_3_sto_jade" width="8.6" height="4.1"/>
    <rect x="613.9" y="1315.8" transform="matrix(0.6919 -0.722 0.722 0.6919 -761.0884 852.0274)" class="Pattern_3_sto_jade" width="7.9" height="4.1"/>
    <rect x="460.6" y="1799.8" class="Pattern_3_sto_jade" width="3" height="6.2"/>
    <rect x="677.5" y="1328.9" transform="matrix(0.9999 -1.262172e-02 1.262172e-02 0.9999 -16.7721 8.6703)" class="Pattern_3_sto_jade" width="2.1" height="8.5"/>
    <rect x="926.4" y="1930.4" transform="matrix(0.3318 -0.9433 0.9433 0.3318 -1199.5188 2169.7205)" class="Pattern_3_sto_jade" width="11" height="2.5"/>
    <polygon class="Pattern_3_sto_jade" points="313.8,1809.5 313.8,1818.2 319.7,1818.5 319.7,1809.5 "/>
    <rect x="548.8" y="1456.9" transform="matrix(0.7393 -0.6734 0.6734 0.7393 -838.2056 751.4171)" class="Pattern_3_sto_jade" width="5" height="2.5"/>
    <rect x="908.1" y="1794" transform="matrix(0.9987 -5.164096e-02 5.164096e-02 0.9987 -91.7482 49.4252)" class="Pattern_3_sto_jade" width="5" height="12.3"/>
    <rect x="901.3" y="1886.9" transform="matrix(0.1609 -0.987 0.987 0.1609 -1110 2480.6211)" class="Pattern_3_sto_jade" width="5" height="12.3"/>
    <rect x="341.3" y="1798.9" transform="matrix(0.7316 -0.6818 0.6818 0.7316 -1134.0389 720.163)" class="Pattern_3_sto_jade" width="12.4" height="2.6"/>
    <rect x="447.7" y="1637.2" transform="matrix(9.765159e-03 -1 1 9.765159e-03 -1193.4131 2075.2698)" class="Pattern_3_sto_jade" width="6.9" height="5.9"/>
    <rect x="684.5" y="1387.2" transform="matrix(0.6962 -0.7179 0.7179 0.6962 -787.8694 917.0483)" class="Pattern_3_sto_jade" width="9.9" height="4.1"/>
    <rect x="607.7" y="1498.9" transform="matrix(8.256762e-02 -0.9966 0.9966 8.256762e-02 -935.0116 1987.0463)" class="Pattern_3_sto_jade" width="8" height="5"/>
    <rect x="1469.8" y="1933.4" transform="matrix(0.3475 -0.9377 0.9377 0.3475 -853.1768 2643.3181)" class="Pattern_3_sto_jade" width="5.6" height="2.6"/>
    <rect x="2768" y="1751.5" transform="matrix(0.7554 -0.6552 0.6552 0.7554 -469.2143 2249.3784)" class="Pattern_3_sto_jade" width="21.3" height="3.4"/>
    <rect x="2762.8" y="1689.9" transform="matrix(0.1229 -0.9924 0.9924 0.1229 748.9676 4234.0986)" class="Pattern_3_sto_jade" width="14.1" height="6.9"/>
    <rect x="2685.7" y="1825.2" transform="matrix(0.8492 -0.5281 0.5281 0.8492 -562.5463 1695.3749)" class="Pattern_3_sto_jade" width="3" height="14.8"/>
    <rect x="2621.3" y="1785.9" transform="matrix(0.9487 -0.3163 0.3163 0.9487 -432.1581 921.9546)" class="Pattern_3_sto_jade" width="5.9" height="12.9"/>
    <rect x="2675.4" y="1675.8" transform="matrix(0.8492 -0.5281 0.5281 0.8492 -485.2077 1667.3789)" class="Pattern_3_sto_jade" width="3" height="14.8"/>
    <rect x="2688.3" y="1742.2" transform="matrix(0.6728 -0.7398 0.7398 0.6728 -415.1422 2563.9482)" class="Pattern_3_sto_jade" width="5.9" height="18.3"/>
    <rect x="2845.6" y="1829.2" transform="matrix(0.3837 -0.9234 0.9234 0.3837 65.4479 3763.387)" class="Pattern_3_sto_jade" width="13.5" height="6.9"/>
    <rect x="2896.4" y="1932.1" transform="matrix(0.3501 -0.9367 0.9367 0.3501 74.8547 3978.9089)" class="Pattern_3_sto_jade" width="16.9" height="6.9"/>
    <rect x="2778.9" y="1625.5" transform="matrix(0.7877 -0.616 0.616 0.7877 -411.6815 2059.6594)" class="Pattern_3_sto_jade" width="7.7" height="3.4"/>
    <rect x="2827.1" y="1847.9" transform="matrix(0.9401 -0.341 0.341 0.9401 -461.9297 1075.7107)" class="Pattern_3_sto_jade" width="3.4" height="7.7"/>
    <rect x="2801.2" y="1676.4" transform="matrix(0.8241 -0.5664 0.5664 0.8241 -458.7114 1884.1595)" class="Pattern_3_sto_jade" width="6.9" height="8.7"/>
    <rect x="2833.9" y="1714.5" transform="matrix(0.5453 -0.8382 0.8382 0.5453 -148.0041 3159.5422)" class="Pattern_3_sto_jade" width="9.3" height="3.4"/>
    <rect x="2425.1" y="1700.3" transform="matrix(0.333 -0.9429 0.9429 0.333 13.3864 3425.6399)" class="Pattern_3_sto_jade" width="5.9" height="6.2"/>
    <rect x="2375" y="1650.4" transform="matrix(0.333 -0.9429 0.9429 0.333 27.004 3345.0815)" class="Pattern_3_sto_jade" width="5.9" height="6.2"/>
    <rect x="2485.5" y="1693.1" class="Pattern_3_sto_jade" width="3" height="6.2"/>
    <rect x="2519.5" y="1886.2" transform="matrix(0.3634 -0.9316 0.9316 0.3634 -150.2721 3558.4783)" class="Pattern_3_sto_jade" width="18.3" height="5.9"/>
    <rect x="2630.2" y="1830.4" transform="matrix(0.59 -0.8074 0.8074 0.59 -398.5339 2878.967)" class="Pattern_3_sto_jade" width="11" height="3"/>
    <rect x="2388.9" y="1743" transform="matrix(1 -7.456914e-03 7.456914e-03 1 -12.986 17.9491)" class="Pattern_3_sto_jade" width="23.3" height="14.8"/>
    <rect x="2556.1" y="1772.9" transform="matrix(0.3734 -0.9277 0.9277 0.3734 -52.2467 3498.5061)" class="Pattern_3_sto_jade" width="14.8" height="30.1"/>
    <rect x="2616.5" y="1894.1" transform="matrix(0.5279 -0.8493 0.8493 0.5279 -377.2315 3121.6819)" class="Pattern_3_sto_jade" width="5.9" height="12.2"/>
    <polygon class="Pattern_3_sto_jade" points="2507.3,1931.5 2509.7,1931.6 2509.5,1930.8 "/>
    <rect x="2574" y="1711.1" transform="matrix(0.9626 -0.2709 0.2709 0.9626 -368.5521 762.3056)" class="Pattern_3_sto_jade" width="5.9" height="10"/>
    <rect x="2516.2" y="1798.6" transform="matrix(0.9571 -0.2898 0.2898 0.9571 -413.3841 808.1486)" class="Pattern_3_sto_jade" width="12.6" height="3"/>
    <rect x="2472.9" y="1889.9" transform="matrix(0.8833 -0.4687 0.4687 0.8833 -600.9407 1387.5825)" class="Pattern_3_sto_jade" width="28.3" height="22.2"/>
    <rect x="2854.4" y="1887.8" transform="matrix(0.81 -0.5864 0.5864 0.81 -572.5405 2037.3802)" class="Pattern_3_sto_jade" width="6.9" height="28.9"/>
    <rect x="1396.5" y="1779.9" transform="matrix(0.995 -9.960040e-02 9.960040e-02 0.995 -170.6641 148.2548)" class="Pattern_3_sto_jade" width="5.9" height="6.9"/>
    <rect x="2561.4" y="1308" transform="matrix(0.5317 -0.8469 0.8469 0.5317 93.1666 2786.4937)" class="Pattern_3_sto_jade" width="10" height="2.1"/>
    <rect x="2581" y="1395.8" transform="matrix(0.2111 -0.9775 0.9775 0.2111 673.9863 3630.6885)" class="Pattern_3_sto_jade" width="10.3" height="4.1"/>
    <rect x="2663.3" y="1405.3" transform="matrix(0.998 -6.365525e-02 6.365525e-02 0.998 -84.7475 172.5376)" class="Pattern_3_sto_jade" width="4.1" height="21.9"/>
    <rect x="2560.1" y="1560.6" transform="matrix(0.597 -0.8023 0.8023 0.597 -221.5882 2685.5757)" class="Pattern_3_sto_jade" width="4.1" height="5.4"/>
    <rect x="2615.9" y="1327.3" transform="matrix(0.3856 -0.9227 0.9227 0.3856 382.1339 3232.134)" class="Pattern_3_sto_jade" width="4.1" height="3.6"/>
    <rect x="2741" y="1497.2" transform="matrix(0.8493 -0.5279 0.5279 0.8493 -380.9939 1674.5662)" class="Pattern_3_sto_jade" width="3" height="14.8"/>
    <rect x="2712.4" y="1411.7" transform="matrix(0.9155 -0.4024 0.4024 0.9155 -340.0025 1211.8096)" class="Pattern_3_sto_jade" width="4.1" height="7"/>
    <rect x="2719.5" y="1436.5" transform="matrix(0.5493 -0.8356 0.8356 0.5493 25.5517 2922.3992)" class="Pattern_3_sto_jade" width="5" height="2.1"/>
    <path class="Pattern_3_sto_jade" d="M1833.3,1641.9v-4.8c-2-0.1-4-0.2-5.9-0.3v5.1H1833.3z"/>
    <path class="Pattern_3_sto_jade" d="M1767.4,1622.8v-4.8c-2-0.1-4-0.2-5.9-0.3v5.1H1767.4z"/>
    <polygon class="Pattern_3_sto_jade" points="655,1414.3 664.9,1406.3 664.1,1405.3 658.6,1408.7 653.7,1412.7 "/>
    <path class="Pattern_3_sto_jade" d="M2046.5,1647.7c-0.9,0-1.8-0.1-2.7-0.1l1.9,1.3L2046.5,1647.7z"/>
    <rect x="2583.5" y="1551.3" transform="matrix(0.9989 -4.769846e-02 4.769846e-02 0.9989 -71.2201 125.0961)" class="Pattern_3_sto_jade" width="4.1" height="7"/>
    <path class="Pattern_3_sto_jade" d="M2635.4,1689.6v-17.9c-1.9,0-3.9-0.1-5.9-0.1v18H2635.4z"/>
    <rect x="2605.2" y="1599.1" transform="matrix(0.9996 -2.733353e-02 2.733353e-02 0.9996 -42.9061 71.85)" class="Pattern_3_sto_jade" width="3" height="12.6"/>
    <rect x="2545" y="1620.8" transform="matrix(0.9257 -0.3784 0.3784 0.9257 -426.8853 1085.1603)" class="Pattern_3_sto_jade" width="5.9" height="16.2"/>
    <rect x="2246.9" y="1601.1" transform="matrix(0.1469 -0.9892 0.9892 0.1469 338.7374 3598.3813)" class="Pattern_3_sto_jade" width="17" height="3.4"/>
    <rect x="2484.2" y="1595.5" transform="matrix(0.4808 -0.8769 0.8769 0.4808 -106.9538 3013.4282)" class="Pattern_3_sto_jade" width="13.5" height="3"/>
    <rect x="2061.7" y="1616.8" transform="matrix(0.5455 -0.8381 0.8381 0.5455 -414.0393 2477.0137)" class="Pattern_3_sto_jade" width="30.2" height="6.9"/>
    <rect x="2675.3" y="1466.3" transform="matrix(0.6922 -0.7217 0.7217 0.6922 -235.0379 2385.5305)" class="Pattern_3_sto_jade" width="7.9" height="4.1"/>
    <rect x="2533" y="1461.1" transform="matrix(0.382 -0.9242 0.9242 0.382 216.8624 3252.3669)" class="Pattern_3_sto_jade" width="14.4" height="5.9"/>
    <rect x="2658.2" y="1516.4" transform="matrix(0.9626 -0.2709 0.2709 0.9626 -312.6451 777.8436)" class="Pattern_3_sto_jade" width="5.9" height="10"/>
    <rect x="1718.9" y="1746" transform="matrix(0.9996 -2.712581e-02 2.712581e-02 0.9996 -46.9004 47.3123)" class="Pattern_3_sto_jade" width="3" height="12.6"/>
    <rect x="1703.1" y="1842.9" transform="matrix(0.9996 -2.712608e-02 2.712608e-02 0.9996 -49.4009 47.0493)" class="Pattern_3_sto_jade" width="12.6" height="3"/>
    <rect x="1684.8" y="1711.4" transform="matrix(0.9257 -0.3784 0.3784 0.9257 -525.1219 766.4152)" class="Pattern_3_sto_jade" width="5.9" height="16.2"/>
    <rect x="1625" y="1808.8" transform="matrix(0.9626 -0.2709 0.2709 0.9626 -430.5032 508.8788)" class="Pattern_3_sto_jade" width="5.9" height="10"/>
    <rect x="1799.3" y="1933.3" transform="matrix(0.9626 -0.2709 0.2709 0.9626 -457.7242 560.735)" class="Pattern_3_sto_jade" width="5.9" height="10"/>
    <rect x="1623.9" y="1686.1" transform="matrix(0.4808 -0.8769 0.8769 0.4808 -633.0743 2306.1799)" class="Pattern_3_sto_jade" width="13.5" height="3"/>
    <rect x="1619.2" y="1664.2" transform="matrix(0.3329 -0.943 0.943 0.3329 -490.0498 2641.9871)" class="Pattern_3_sto_jade" width="5.9" height="6.2"/>
    <rect x="1828.1" y="1782.7" transform="matrix(0.5899 -0.8075 0.8075 0.5899 -688.6917 2212.3701)" class="Pattern_3_sto_jade" width="11" height="3"/>
    <rect x="1873.3" y="1644.2" transform="matrix(0.8493 -0.528 0.528 0.8493 -589.3763 1238.7568)" class="Pattern_3_sto_jade" width="3" height="14.8"/>
    <rect x="1830.5" y="1673.5" transform="matrix(0.3634 -0.9316 0.9316 0.3634 -390.6645 2781.1274)" class="Pattern_3_sto_jade" width="18.3" height="5.9"/>
    <rect x="1771.9" y="1663.3" transform="matrix(0.9626 -0.2709 0.2709 0.9626 -385.6075 543.2321)" class="Pattern_3_sto_jade" width="5.9" height="10"/>
    <rect x="1846.9" y="1840.9" transform="matrix(0.9932 -0.1168 0.1168 0.9932 -203.1819 229.7609)" class="Pattern_3_sto_jade" width="23.3" height="14.8"/>
    <rect x="1466.9" y="1728.1" transform="matrix(0.9776 -0.2105 0.2105 0.9776 -332.1633 348.228)" class="Pattern_3_sto_jade" width="5.9" height="12.9"/>
    <rect x="1472.3" y="1809.7" transform="matrix(0.333 -0.9429 0.9429 0.333 -725.3307 2600.1211)" class="Pattern_3_sto_jade" width="5.9" height="6.2"/>
    <rect x="1554.9" y="1914.4" transform="matrix(0.333 -0.9429 0.9429 0.333 -768.9987 2747.8059)" class="Pattern_3_sto_jade" width="5.9" height="6.2"/>
    <rect x="1702.6" y="1910" transform="matrix(0.333 -0.9429 0.9429 0.333 -666.2994 2884.156)" class="Pattern_3_sto_jade" width="5.9" height="6.2"/>
    <rect x="1397" y="1645.1" transform="matrix(0.9864 -0.1641 0.1641 0.9864 -251.7864 252.0812)" class="Pattern_3_sto_jade" width="5.9" height="10"/>
    <rect x="1565.9" y="1820.3" transform="matrix(0.7007 -0.7134 0.7134 0.7007 -834.0209 1666.0654)" class="Pattern_3_sto_jade" width="5.9" height="13.6"/>
    <rect x="1534.1" y="1705.3" transform="matrix(0.995 -9.954540e-02 9.954540e-02 0.995 -162.4649 161.493)" class="Pattern_3_sto_jade" width="5.9" height="6.9"/>
    <rect x="1546.5" y="1614" transform="matrix(0.8367 -0.5476 0.5476 0.8367 -634.3015 1113.0981)" class="Pattern_3_sto_jade" width="5.9" height="12.5"/>
    <rect x="1477.1" y="1831.6" transform="matrix(0.4805 -0.877 0.877 0.4805 -836.7478 2253.6018)" class="Pattern_3_sto_jade" width="13.5" height="3"/>
    <rect x="1789.9" y="1902.7" transform="matrix(0.3633 -0.9317 0.9317 0.3633 -630.0139 2889.4814)" class="Pattern_3_sto_jade" width="18.3" height="5.9"/>
    <rect x="1536.6" y="1790.8" class="Pattern_3_sto_jade" width="3" height="6.2"/>
    <rect x="2192.5" y="1811.9" transform="matrix(0.8369 -0.5474 0.5474 0.8369 -637.0925 1498.4482)" class="Pattern_3_sto_jade" width="5.9" height="12.5"/>
    <rect x="2189.2" y="1898.5" transform="matrix(0.9951 -9.911697e-02 9.911697e-02 0.9951 -177.722 226.6514)" class="Pattern_3_sto_jade" width="5.9" height="6.9"/>
    <rect x="2216.6" y="1713.3" transform="matrix(0.9864 -0.1646 0.1646 0.9864 -252.4995 388.6702)" class="Pattern_3_sto_jade" width="5.9" height="10"/>
    <rect x="2371.2" y="1722.1" transform="matrix(0.9951 -9.931622e-02 9.931622e-02 0.9951 -159.6403 244.3274)" class="Pattern_3_sto_jade" width="5.9" height="6.9"/>
    <rect x="2301.7" y="1684.8" transform="matrix(0.902 -0.4318 0.4318 0.902 -504.9148 1160.5183)" class="Pattern_3_sto_jade" width="3" height="14.8"/>
    <rect x="2325.4" y="1818.1" class="Pattern_3_sto_jade" width="3" height="6.2"/>
    <rect x="2117.4" y="1705" transform="matrix(0.7747 -0.6323 0.6323 0.7747 -604.7197 1726.4012)" class="Pattern_3_sto_jade" width="5.9" height="13.6"/>
    <rect x="2364.9" y="1902.3" transform="matrix(0.701 -0.7132 0.7132 0.701 -653.494 2259.6208)" class="Pattern_3_sto_jade" width="5.9" height="13.6"/>
    <rect x="2355.4" y="1786.1" transform="matrix(0.5612 -0.8277 0.8277 0.5612 -444.8982 2735.8752)" class="Pattern_3_sto_jade" width="4.9" height="3"/>
    <rect x="2289.7" y="1819.9" transform="matrix(0.9194 -0.3933 0.3933 0.9194 -532.1757 1048.0902)" class="Pattern_3_sto_jade" width="3" height="5.2"/>
    <rect x="2279.1" y="1879.4" transform="matrix(0.4805 -0.877 0.877 0.4805 -461.9622 2981.811)" class="Pattern_3_sto_jade" width="13.5" height="3"/>
    <rect x="2111.8" y="1666.8" transform="matrix(0.1094 -0.994 0.994 0.1094 225.2937 3588.0562)" class="Pattern_3_sto_jade" width="6.2" height="3"/>
    <rect x="1971.9" y="1666.1" transform="matrix(0.9932 -0.1168 0.1168 0.9932 -181.9095 243.1595)" class="Pattern_3_sto_jade" width="23.3" height="14.8"/>
    <rect x="1960.7" y="1866.5" transform="matrix(0.9626 -0.2709 0.2709 0.9626 -433.5887 601.9804)" class="Pattern_3_sto_jade" width="5.9" height="10"/>
    <rect x="1892.9" y="1927.3" transform="matrix(0.1191 -0.9929 0.9929 0.1191 -247.698 3584.0039)" class="Pattern_3_sto_jade" width="5.9" height="8.6"/>
    <rect x="2000.1" y="1770.3" transform="matrix(0.3823 -0.924 0.924 0.3823 -399.7332 2948.533)" class="Pattern_3_sto_jade" width="11.1" height="5.9"/>
    <rect x="2019.9" y="1874" transform="matrix(0.701 -0.7132 0.7132 0.701 -736.5079 2005.0549)" class="Pattern_3_sto_jade" width="5.9" height="13.6"/>
    <rect x="1957.8" y="1709.1" transform="matrix(1.025337e-02 -0.9999 0.9999 1.025337e-02 229.1624 3655.625)" class="Pattern_3_sto_jade" width="6.9" height="5.9"/>
    <rect x="1899.5" y="1754.2" transform="matrix(0.5899 -0.8075 0.8075 0.5899 -636.4538 2258.3347)" class="Pattern_3_sto_jade" width="11" height="3"/>
    <polygon class="Pattern_3_sto_jade" points="1905.2,1898 1905.2,1900.4 1911.2,1900.7 1911.2,1898 "/>
    <rect x="2068.8" y="1718.8" transform="matrix(0.9614 -0.2751 0.2751 0.9614 -395.1386 636.5772)" class="Pattern_3_sto_jade" width="5.9" height="16.2"/>
    <rect x="1844.3" y="1910.1" transform="matrix(0.8492 -0.5281 0.5281 0.8492 -734.2215 1263.8369)" class="Pattern_3_sto_jade" width="3" height="14.8"/>
    <rect x="2113.5" y="1869.5" transform="matrix(0.3326 -0.9431 0.9431 0.3326 -353.515 3245.5391)" class="Pattern_3_sto_jade" width="5.9" height="6.2"/>
    <rect x="2080.6" y="1840.2" transform="matrix(0.4809 -0.8768 0.8768 0.4809 -531.1865 2786.1216)" class="Pattern_3_sto_jade" width="13.5" height="3"/>
    <rect x="2052.1" y="1888.3" class="Pattern_3_sto_jade" width="3" height="6.2"/>
    <rect x="2047.4" y="1677.1" transform="matrix(0.4338 -0.901 0.901 0.4338 -352.991 2798.6055)" class="Pattern_3_sto_jade" width="5.9" height="6.2"/>
    <rect x="2014.3" y="1647.2" transform="matrix(0.8917 -0.4527 0.4527 0.8917 -529.9514 1092.2725)" class="Pattern_3_sto_jade" width="5.9" height="12.5"/>
    </svg>
    