<?xml version="1.0" encoding="utf-8"?>
    <!-- Generator: Adobe Illustrator 26.4.1, SVG Export Plug-In . SVG Version: 6.00 Build 0)  -->
    <svg version="1.1" id="Pattern_2" xmlns="http://www.w3.org/2000/svg" xmlns:xlink="http://www.w3.org/1999/xlink" x="0px" y="0px"
         viewBox="0 0 3200 3200" style="enable-background:new 0 0 3200 3200;" xml:space="preserve">
    <style type="text/css">
        .Pattern_2_sto_milk{fill:#ca9a8e;}
    </style>
    <polygon class="Pattern_2_sto_milk" points="620.1,1821.9 619.2,1834 613.2,1833.7 614.2,1821.4 "/>
    <rect x="494.4" y="1583.3" transform="matrix(0.4137 -0.9104 0.9104 0.4137 -1147.1703 1391.1547)" class="Pattern_2_sto_milk" width="24.2" height="5.9"/>
    <rect x="652.3" y="1789" transform="matrix(0.8025 -0.5967 0.5967 0.8025 -939.1912 746.9058)" class="Pattern_2_sto_milk" width="12.4" height="5.9"/>
    <rect x="695.9" y="1920.4" transform="matrix(0.8025 -0.5967 0.5967 0.8025 -1008.998 798.9206)" class="Pattern_2_sto_milk" width="12.4" height="5.9"/>
    <rect x="654.2" y="1611.5" transform="matrix(0.9734 -0.2291 0.2291 0.9734 -352.9572 193.5354)" class="Pattern_2_sto_milk" width="5.9" height="11.2"/>
    <rect x="596.8" y="1371.8" transform="matrix(0.9978 -6.638859e-02 6.638859e-02 0.9978 -89.8818 42.9945)" class="Pattern_2_sto_milk" width="10.3" height="4.1"/>
    <rect x="558.6" y="1422.4" transform="matrix(0.5491 -0.8357 0.8357 0.5491 -935.5768 1114.8094)" class="Pattern_2_sto_milk" width="13.7" height="4.1"/>
    <rect x="689" y="1363.8" transform="matrix(0.5491 -0.8357 0.8357 0.5491 -827.8236 1197.3987)" class="Pattern_2_sto_milk" width="13.7" height="4.1"/>
    <rect x="585.1" y="1317.1" transform="matrix(0.9524 -0.3049 0.3049 0.9524 -373.9153 243.5502)" class="Pattern_2_sto_milk" width="15.7" height="4.1"/>
    <rect x="783.9" y="1670.3" transform="matrix(0.4265 -0.9045 0.9045 0.4265 -1060.4069 1674.1764)" class="Pattern_2_sto_milk" width="12" height="5.9"/>
    <rect x="756.1" y="1723.3" transform="matrix(0.9162 -0.4008 0.4008 0.9162 -627.6939 451.2953)" class="Pattern_2_sto_milk" width="17.8" height="5.9"/>
    <rect x="760.5" y="1600.3" transform="matrix(0.8725 -0.4887 0.4887 0.8725 -685.7384 578.9792)" class="Pattern_2_sto_milk" width="11.7" height="5.9"/>
    <polygon class="Pattern_2_sto_milk" points="505.1,1483.6 507.4,1484.7 517.6,1464.6 517.6,1461.4 516.7,1460.9 "/>
    <rect x="608.1" y="1707.9" transform="matrix(8.203515e-02 -0.9966 0.9966 8.203515e-02 -1141.1786 2182.8237)" class="Pattern_2_sto_milk" width="12.5" height="5.9"/>
    <rect x="662.2" y="1676.9" transform="matrix(0.6085 -0.7936 0.7936 0.6085 -1075.6859 1187.092)" class="Pattern_2_sto_milk" width="5.9" height="13.7"/>
    <rect x="717.1" y="1324.2" transform="matrix(0.9078 -0.4193 0.4193 0.9078 -489.5305 425.1732)" class="Pattern_2_sto_milk" width="10.9" height="4.1"/>
    <rect x="590.5" y="1584.6" transform="matrix(0.1943 -0.9809 0.9809 0.1943 -1071.968 1869.9443)" class="Pattern_2_sto_milk" width="23.7" height="5.9"/>
    <rect x="680.3" y="1304.8" transform="matrix(0.3372 -0.9414 0.9414 0.3372 -779.2817 1509.5511)" class="Pattern_2_sto_milk" width="4.1" height="6.8"/>
    <rect x="650.5" y="1321.4" transform="matrix(0.2649 -0.9643 0.9643 0.2649 -795.3647 1603.6689)" class="Pattern_2_sto_milk" width="7.3" height="4.1"/>
    <rect x="625.3" y="1347.2" transform="matrix(0.3897 -0.9209 0.9209 0.3897 -858.413 1414.5197)" class="Pattern_2_sto_milk" width="25.5" height="15.5"/>
    <rect x="525.1" y="1714.4" transform="matrix(0.9599 -0.2803 0.2803 0.9599 -461.0095 216.5234)" class="Pattern_2_sto_milk" width="3" height="11.6"/>
    <rect x="546.2" y="1761.1" transform="matrix(0.8025 -0.5967 0.5967 0.8025 -943.5328 678.0909)" class="Pattern_2_sto_milk" width="12.4" height="5.9"/>
    <path class="Pattern_2_sto_milk" d="M533.2,1554.7l1.8,5.7l17-5.3l-1.6-5.3c-0.2-0.1-0.5-0.1-0.7-0.2L533.2,1554.7z"/>
    <rect x="564.8" y="1658.6" transform="matrix(0.1192 -0.9929 0.9929 0.1192 -1150.991 2028.5048)" class="Pattern_2_sto_milk" width="5.9" height="8.6"/>
    <rect x="498.7" y="1679.8" transform="matrix(0.5042 -0.8636 0.8636 0.5042 -1201.6608 1272.6632)" class="Pattern_2_sto_milk" width="17.6" height="5.9"/>
    <rect x="1139.1" y="1689.6" class="Pattern_2_sto_milk" width="5.9" height="17"/>
    <rect x="1160.3" y="1841.6" transform="matrix(8.605325e-02 -0.9963 0.9963 8.605325e-02 -766.3885 2853.6514)" class="Pattern_2_sto_milk" width="23.7" height="5.9"/>
    <rect x="1048.5" y="1750.5" transform="matrix(0.9977 -6.833305e-02 6.833305e-02 0.9977 -117.5006 75.8514)" class="Pattern_2_sto_milk" width="3" height="9.9"/>
    <rect x="1063.9" y="1872.7" transform="matrix(0.2982 -0.9545 0.9545 0.2982 -1044.2368 2336.5513)" class="Pattern_2_sto_milk" width="5.9" height="11.4"/>
    <rect x="1208.5" y="1821.5" transform="matrix(0.402 -0.9156 0.9156 0.402 -947.7104 2207.1775)" class="Pattern_2_sto_milk" width="14.8" height="15.2"/>
    <rect x="1247.3" y="1736.5" transform="matrix(0.4067 -0.9135 0.9135 0.4067 -843.892 2179.4875)" class="Pattern_2_sto_milk" width="17.6" height="5.9"/>
    <rect x="1288.1" y="1720.6" transform="matrix(0.5041 -0.8636 0.8636 0.5041 -845.451 1974.7773)" class="Pattern_2_sto_milk" width="17.6" height="5.9"/>
    <rect x="1258.8" y="1826.6" transform="matrix(0.3116 -0.9502 0.9502 0.3116 -863.588 2467.2507)" class="Pattern_2_sto_milk" width="24.2" height="5.9"/>
    <rect x="1238.2" y="1689.8" transform="matrix(0.9848 -0.1739 0.1739 0.9848 -275.9778 241.4154)" class="Pattern_2_sto_milk" width="3" height="11.6"/>
    <rect x="1194.6" y="1671.2" transform="matrix(0.5229 -0.8524 0.8524 0.5229 -854.2164 1822.2318)" class="Pattern_2_sto_milk" width="12" height="5.9"/>
    <rect x="1092" y="1723.4" transform="matrix(0.8834 -0.4687 0.4687 0.8834 -683.9677 720.7792)" class="Pattern_2_sto_milk" width="28.3" height="22.2"/>
    <rect x="956.6" y="1632.7" transform="matrix(0.998 -6.385850e-02 6.385850e-02 0.998 -102.976 64.9153)" class="Pattern_2_sto_milk" width="14.8" height="21.3"/>
    <rect x="1110.8" y="1652.5" transform="matrix(0.1221 -0.9925 0.9925 0.1221 -654.2789 2568.321)" class="Pattern_2_sto_milk" width="27.8" height="3"/>
    <rect x="855.9" y="1820.3" transform="matrix(0.9972 -7.477413e-02 7.477413e-02 0.9972 -133.9193 69.6162)" class="Pattern_2_sto_milk" width="13.7" height="5.9"/>
    <rect x="829.6" y="1684.5" transform="matrix(0.9599 -0.2803 0.2803 0.9599 -440.4248 300.6707)" class="Pattern_2_sto_milk" width="3" height="11.6"/>
    <rect x="879.2" y="1742.5" transform="matrix(0.2984 -0.9545 0.9545 0.2984 -1049.6393 2068.6179)" class="Pattern_2_sto_milk" width="5.9" height="11.4"/>
    <rect x="937.3" y="1680.8" transform="matrix(0.9203 -0.3911 0.3911 0.9203 -583.7003 501.3057)" class="Pattern_2_sto_milk" width="3" height="5.6"/>
    <rect x="1001.6" y="1843.9" transform="matrix(0.8137 -0.5813 0.5813 0.8137 -885.8319 929.6152)" class="Pattern_2_sto_milk" width="11.7" height="5.9"/>
    <rect x="1026.1" y="1613.2" transform="matrix(0.2982 -0.9545 0.9545 0.2982 -823.0948 2118.3838)" class="Pattern_2_sto_milk" width="5.9" height="11.4"/>
    <rect x="1002.8" y="1674.9" transform="matrix(0.9972 -7.477413e-02 7.477413e-02 0.9972 -122.6327 80.192)" class="Pattern_2_sto_milk" width="13.7" height="5.9"/>
    <rect x="948.8" y="1836.4" transform="matrix(0.9977 -6.833305e-02 6.833305e-02 0.9977 -123.6024 69.2369)" class="Pattern_2_sto_milk" width="3" height="9.9"/>
    <rect x="963" y="1757.5" transform="matrix(0.8138 -0.5812 0.5812 0.8138 -842.7614 890.9589)" class="Pattern_2_sto_milk" width="11.7" height="5.9"/>
    <rect x="536.4" y="1827.1" transform="matrix(0.4067 -0.9135 0.9135 0.4067 -1348.3779 1583.7833)" class="Pattern_2_sto_milk" width="17.6" height="5.9"/>
    <rect x="955.6" y="1904.3" transform="matrix(0.9977 -6.812838e-02 6.812838e-02 0.9977 -127.6549 69.6161)" class="Pattern_2_sto_milk" width="2.5" height="4.2"/>
    <rect x="603.6" y="1845.8" transform="matrix(0.9599 -0.2803 0.2803 0.9599 -494.676 243.7924)" class="Pattern_2_sto_milk" width="3" height="11.6"/>
    <rect x="1363" y="1928.7" transform="matrix(0.8813 -0.4726 0.4726 0.8813 -752.8047 877.0876)" class="Pattern_2_sto_milk" width="13" height="16.7"/>
    <rect x="640.3" y="1865.7" transform="matrix(0.4264 -0.9045 0.9045 0.4264 -1319.5499 1656.4703)" class="Pattern_2_sto_milk" width="12" height="5.9"/>
    <rect x="549.1" y="1862.5" transform="matrix(0.2124 -0.9772 0.9772 0.2124 -1387.9575 2008.8851)" class="Pattern_2_sto_milk" width="6.4" height="5.9"/>
    <rect x="495.9" y="1855.5" transform="matrix(0.9205 -0.3908 0.3908 0.9205 -686.7077 342.1985)" class="Pattern_2_sto_milk" width="3" height="5.6"/>
    <rect x="544.6" y="1923" transform="matrix(0.3115 -0.9502 0.9502 0.3115 -1446.7833 1854.9928)" class="Pattern_2_sto_milk" width="24.2" height="5.9"/>
    <rect x="1396.3" y="1913.8" transform="matrix(0.423 -0.9061 0.9061 0.423 -924.6448 2380.718)" class="Pattern_2_sto_milk" width="21.5" height="5.2"/>
    <rect x="296" y="1924.5" transform="matrix(0.8139 -0.581 0.581 0.8139 -1063.7166 534.09)" class="Pattern_2_sto_milk" width="11.7" height="5.9"/>
    <rect x="782.2" y="1879.8" transform="matrix(0.348 -0.9375 0.9375 0.348 -1249.7671 1967.9391)" class="Pattern_2_sto_milk" width="15.3" height="5.2"/>
    <rect x="832.7" y="1905.4" transform="matrix(7.157521e-02 -0.9974 0.9974 7.157521e-02 -1124.3895 2605.3997)" class="Pattern_2_sto_milk" width="9.2" height="2.5"/>
    <rect x="1115.4" y="1899.4" transform="matrix(0.204 -0.979 0.979 0.204 -975.3238 2611.1287)" class="Pattern_2_sto_milk" width="5.2" height="11.8"/>
    <rect x="1314.5" y="1755.2" transform="matrix(0.9599 -0.2803 0.2803 0.9599 -440.8044 439.3987)" class="Pattern_2_sto_milk" width="3" height="11.6"/>
    <rect x="1362.1" y="1880.3" transform="matrix(2.283527e-02 -0.9997 0.9997 2.283527e-02 -546.6299 3206.4695)" class="Pattern_2_sto_milk" width="9.8" height="5.2"/>
    <rect x="1271.6" y="1915.1" transform="matrix(0.5969 -0.8023 0.8023 0.5969 -1026.7808 1796.1877)" class="Pattern_2_sto_milk" width="5.2" height="9.8"/>
    <path class="Pattern_2_sto_milk" d="M1230.6,1612.3l-0.2-7c-2-0.1-4-0.2-5.9-0.3l0.2,7.5L1230.6,1612.3z"/>
    <path class="Pattern_2_sto_milk" d="M2550,1439.2l-1.7-3.8l-0.2,0.1c-2.8,2.5-5.5,4.9-8.3,7.4l0.4,0.8L2550,1439.2z"/>
    <polygon class="Pattern_2_sto_milk" points="835.4,1869.8 832.9,1865.4 823.1,1870.8 822,1871.5 824.4,1875.8 "/>
    <path class="Pattern_2_sto_milk" d="M1136.6,1610.3l9.5-6.8l-2.1-3c-1.2-0.1-2.4-0.1-3.6-0.2l-7.2,5.1L1136.6,1610.3z"/>
    <rect x="342.7" y="1856.5" transform="matrix(0.6988 -0.7154 0.7154 0.6988 -1227.9512 806.9438)" class="Pattern_2_sto_milk" width="3" height="9.9"/>
    <path class="Pattern_2_sto_milk" d="M2539.7,1336.7l3.9-6.6l-1.6-0.9c-0.2,0.2-0.4,0.3-0.5,0.5l-3.5,6L2539.7,1336.7z"/>
    <rect x="436.9" y="1856.4" transform="matrix(0.9972 -7.477413e-02 7.477413e-02 0.9972 -137.7887 38.3834)" class="Pattern_2_sto_milk" width="13.7" height="5.9"/>
    <rect x="294.5" y="1884.8" transform="matrix(0.1225 -0.9925 0.9925 0.1225 -1601.4613 1961.1787)" class="Pattern_2_sto_milk" width="27.8" height="3"/>
    <polygon class="Pattern_2_sto_milk" points="459.4,1923 458.1,1938 464,1938.3 465.3,1923.5 "/>
    <polygon class="Pattern_2_sto_milk" points="2539.9,1925 2540.4,1933.2 2543.4,1933.3 2542.8,1924.8 "/>
    <polygon class="Pattern_2_sto_milk" points="681.2,1830.6 683.1,1837.3 686.3,1837.5 684,1829.8 "/>
    <polygon class="Pattern_2_sto_milk" points="1680.5,1932.5 1682.4,1939.2 1685.6,1939.3 1683.3,1931.7 "/>
    <rect x="503.7" y="1421.5" transform="matrix(0.7869 -0.6171 0.6171 0.7869 -772.8525 619.1345)" class="Pattern_2_sto_milk" width="12.5" height="13.9"/>
    <rect x="418.8" y="1653.7" transform="matrix(0.53 -0.848 0.848 0.53 -1204.1924 1140.62)" class="Pattern_2_sto_milk" width="16.1" height="5.9"/>
    <rect x="419.1" y="1780.7" transform="matrix(0.402 -0.9157 0.9157 0.402 -1382.4436 1460.063)" class="Pattern_2_sto_milk" width="14.8" height="15.2"/>
    <rect x="456.6" y="1559.2" transform="matrix(0.1551 -0.9879 0.9879 0.1551 -1148.7231 1781.3275)" class="Pattern_2_sto_milk" width="20.8" height="5.9"/>
    <rect x="475.1" y="1469.3" transform="matrix(5.773576e-03 -1 1 5.773576e-03 -995.1564 1942.7482)" class="Pattern_2_sto_milk" width="8.7" height="5"/>
    <rect x="447.2" y="1697.6" transform="matrix(0.9204 -0.391 0.391 0.9204 -629.1828 310.8321)" class="Pattern_2_sto_milk" width="3" height="5.6"/>
    <rect x="495" y="1632.6" transform="matrix(0.9848 -0.1739 0.1739 0.9848 -277.3439 111.3058)" class="Pattern_2_sto_milk" width="3" height="11.6"/>
    <rect x="341.2" y="1729.7" transform="matrix(0.9972 -7.477413e-02 7.477413e-02 0.9972 -128.5865 30.8764)" class="Pattern_2_sto_milk" width="13.7" height="5.9"/>
    <rect x="1055.1" y="1922.4" transform="matrix(0.991 -0.1338 0.1338 0.991 -247.941 159.4913)" class="Pattern_2_sto_milk" width="15.8" height="5.2"/>
    <rect x="370.9" y="1800.8" transform="matrix(8.595521e-02 -0.9963 0.9963 8.595521e-02 -1447.2037 2030.0754)" class="Pattern_2_sto_milk" width="23.7" height="5.9"/>
    <rect x="357.9" y="1766.9" transform="matrix(0.1871 -0.9823 0.9823 0.1871 -1445.8629 1793.7911)" class="Pattern_2_sto_milk" width="5.9" height="7.3"/>
    <rect x="393.1" y="1640.7" transform="matrix(0.398 -0.9174 0.9174 0.398 -1270.282 1352.9276)" class="Pattern_2_sto_milk" width="5.2" height="7.3"/>
    <rect x="1238.7" y="1878.8" transform="matrix(0.9753 -0.2208 0.2208 0.9753 -385.9174 320.5783)" class="Pattern_2_sto_milk" width="5.2" height="16.1"/>
    <rect x="944.9" y="1873.3" transform="matrix(0.5209 -0.8536 0.8536 0.5209 -1147.0746 1707.8202)" class="Pattern_2_sto_milk" width="6.1" height="5"/>
    <rect x="592.6" y="1527.7" transform="matrix(0.9214 -0.3886 0.3886 0.9214 -549.6896 356.5981)" class="Pattern_2_sto_milk" width="28.1" height="18.8"/>
    <rect x="1519.9" y="1916" transform="matrix(0.1226 -0.9925 0.9925 0.1226 -557.2397 3204.6753)" class="Pattern_2_sto_milk" width="27.8" height="3"/>
    <rect x="1477.4" y="1928.9" transform="matrix(0.6061 -0.7954 0.7954 0.6061 -950.0035 1944.8661)" class="Pattern_2_sto_milk" width="22.1" height="5.2"/>
    <rect x="473.5" y="1673.5" transform="matrix(0.9977 -6.833305e-02 6.833305e-02 0.9977 -113.5854 36.3789)" class="Pattern_2_sto_milk" width="3" height="9.9"/>
    <rect x="860.5" y="1931.8" transform="matrix(0.7662 -0.6426 0.6426 0.7662 -1040.1312 1009.9355)" class="Pattern_2_sto_milk" width="14.7" height="5.2"/>
    <rect x="466.1" y="1791.6" transform="matrix(0.3115 -0.9502 0.9502 0.3115 -1376.0223 1689.9113)" class="Pattern_2_sto_milk" width="24.2" height="5.9"/>
    <rect x="470.7" y="1506" transform="matrix(0.294 -0.9558 0.9558 0.294 -1105.3213 1518.1709)" class="Pattern_2_sto_milk" width="8.5" height="2.5"/>
    <rect x="778" y="1931.6" transform="matrix(0.2266 -0.974 0.974 0.2266 -1275.0654 2262.5823)" class="Pattern_2_sto_milk" width="18.5" height="5.2"/>
    <rect x="616.1" y="1418.5" transform="matrix(0.3238 -0.9461 0.9461 0.3238 -923.7893 1546.6754)" class="Pattern_2_sto_milk" width="7.9" height="2.1"/>
    <rect x="653.8" y="1383.7" transform="matrix(0.898 -0.4401 0.4401 0.898 -543.8685 429.7945)" class="Pattern_2_sto_milk" width="2.1" height="7.9"/>
    <rect x="447.5" y="1527.9" transform="matrix(0.9976 -6.895714e-02 6.895714e-02 0.9976 -104.4525 34.9191)" class="Pattern_2_sto_milk" width="12.2" height="5"/>
    <rect x="2642.2" y="1868.5" transform="matrix(0.3004 -0.9538 0.9538 0.3004 64.8861 3833.467)" class="Pattern_2_sto_milk" width="6.9" height="8"/>
    <rect x="2566.9" y="1881.7" transform="matrix(0.3004 -0.9538 0.9538 0.3004 -0.4341 3770.8782)" class="Pattern_2_sto_milk" width="6.9" height="8"/>
    <rect x="2744.4" y="1649" transform="matrix(0.9554 -0.2953 0.2953 0.9554 -365.0755 887.5944)" class="Pattern_2_sto_milk" width="23" height="6.9"/>
    <rect x="2702.3" y="1741.1" transform="matrix(0.1221 -0.9925 0.9925 0.1221 654.9597 4225.604)" class="Pattern_2_sto_milk" width="27.8" height="3"/>
    <rect x="2667.3" y="1792" transform="matrix(0.5856 -0.8106 0.8106 0.5856 -346.1332 2913.9192)" class="Pattern_2_sto_milk" width="19.1" height="6.9"/>
    <rect x="2707.6" y="1887.5" transform="matrix(0.53 -0.848 0.848 0.53 -326.7746 3191.4595)" class="Pattern_2_sto_milk" width="16.1" height="5.9"/>
    <rect x="2594.3" y="1763.4" transform="matrix(0.9972 -7.477413e-02 7.477413e-02 0.9972 -124.7985 199.4398)" class="Pattern_2_sto_milk" width="13.7" height="5.9"/>
    <rect x="2667.6" y="1906.6" transform="matrix(0.9424 -0.3345 0.3345 0.9424 -485.7876 1003.3934)" class="Pattern_2_sto_milk" width="5.9" height="11.2"/>
    <rect x="2726.5" y="1924.9" transform="matrix(8.595521e-02 -0.9963 0.9963 8.595521e-02 582.2506 4490.3965)" class="Pattern_2_sto_milk" width="23.7" height="5.9"/>
    <rect x="2799.8" y="1910.1" transform="matrix(0.5453 -0.8382 0.8382 0.5453 -325.2224 3227.4866)" class="Pattern_2_sto_milk" width="25.4" height="6.9"/>
    <rect x="2352" y="1688.9" transform="matrix(0.8725 -0.4887 0.4887 0.8725 -526.0536 1367.9584)" class="Pattern_2_sto_milk" width="11.7" height="5.9"/>
    <rect x="2725.4" y="1804.6" transform="matrix(0.3769 -0.9262 0.9262 0.3769 29.8826 3656.9761)" class="Pattern_2_sto_milk" width="15.5" height="3.4"/>
    <rect x="2725.3" y="1690.1" transform="matrix(0.8139 -0.581 0.581 0.8139 -475.3969 1901.8835)" class="Pattern_2_sto_milk" width="11.7" height="5.9"/>
    <rect x="2791.8" y="1792.4" transform="matrix(0.6441 -0.7649 0.7649 0.6441 -378.3506 2778.3289)" class="Pattern_2_sto_milk" width="10.1" height="6.9"/>
    <rect x="2578.4" y="1835.5" transform="matrix(0.8138 -0.5811 0.5811 0.8138 -587.2341 1844.0558)" class="Pattern_2_sto_milk" width="11.7" height="5.9"/>
    <rect x="2421.1" y="1773.1" transform="matrix(0.9598 -0.2805 0.2805 0.9598 -401.7431 751.0186)" class="Pattern_2_sto_milk" width="3" height="11.6"/>
    <rect x="2373.9" y="1800.3" transform="matrix(8.595521e-02 -0.9963 0.9963 8.595521e-02 384.1732 4025.2341)" class="Pattern_2_sto_milk" width="23.7" height="5.9"/>
    <rect x="2467.3" y="1748.4" transform="matrix(0.8025 -0.5966 0.5966 0.8025 -556.4296 1821.4697)" class="Pattern_2_sto_milk" width="12.4" height="5.9"/>
    <rect x="2554.5" y="1692.4" transform="matrix(8.595521e-02 -0.9963 0.9963 8.595521e-02 656.7253 4106.4863)" class="Pattern_2_sto_milk" width="23.7" height="5.9"/>
    <rect x="2647.4" y="1622.8" transform="matrix(0.2667 -0.9638 0.9638 0.2667 368.1261 3753.074)" class="Pattern_2_sto_milk" width="5.9" height="23.7"/>
    <rect x="2473.7" y="1797.4" transform="matrix(0.4066 -0.9136 0.9136 0.4066 -171.7058 3336.4495)" class="Pattern_2_sto_milk" width="17.6" height="5.9"/>
    <rect x="2761.1" y="1837.6" transform="matrix(0.725 -0.6887 0.6887 0.725 -504.9542 2417.3225)" class="Pattern_2_sto_milk" width="27.8" height="6.9"/>
    <rect x="2697.5" y="1423.5" transform="matrix(0.4861 -0.8739 0.8739 0.4861 141.0971 3095.5012)" class="Pattern_2_sto_milk" width="10.3" height="8.5"/>
    <rect x="2579.7" y="1370.7" transform="matrix(0.1953 -0.9807 0.9807 0.1953 731.9604 3635.5713)" class="Pattern_2_sto_milk" width="3.5" height="2.1"/>
    <rect x="2522.6" y="1373.5" transform="matrix(0.9978 -6.637929e-02 6.637929e-02 0.9978 -85.7338 170.8239)" class="Pattern_2_sto_milk" width="10.3" height="4.1"/>
    <rect x="2653.5" y="1341.7" transform="matrix(0.9092 -0.4163 0.4163 0.9092 -320.9071 1228.0876)" class="Pattern_2_sto_milk" width="4.1" height="16.3"/>
    <rect x="2678.5" y="1568.7" transform="matrix(0.9972 -7.477413e-02 7.477413e-02 0.9972 -110.0015 205.1932)" class="Pattern_2_sto_milk" width="13.7" height="5.9"/>
    <rect x="2736.4" y="1589.9" transform="matrix(3.534632e-02 -0.9994 0.9994 3.534632e-02 1046.9303 4278.6558)" class="Pattern_2_sto_milk" width="6.9" height="14.3"/>
    <rect x="2528" y="1409.1" transform="matrix(0.6 -0.8 0.8 0.6 -113.7754 2594.814)" class="Pattern_2_sto_milk" width="19.8" height="4.1"/>
    <rect x="2615.2" y="1374.5" transform="matrix(0.6649 -0.7469 0.7469 0.6649 -150.925 2416.6394)" class="Pattern_2_sto_milk" width="5.7" height="4.1"/>
    <rect x="2500" y="1335.8" transform="matrix(0.9372 -0.3488 0.3488 0.9372 -310.8066 960.7122)" class="Pattern_2_sto_milk" width="25.5" height="15.5"/>
    <rect x="2592.6" y="1524" transform="matrix(0.9033 -0.429 0.429 0.9033 -403.4153 1262.1677)" class="Pattern_2_sto_milk" width="11.6" height="4.1"/>
    <rect x="2347.4" y="1621.4" transform="matrix(0.4573 -0.8893 0.8893 0.4573 -165.5658 2975.5481)" class="Pattern_2_sto_milk" width="15.6" height="4.1"/>
    <rect x="2589.2" y="1332.5" transform="matrix(0.5978 -0.8017 0.8017 0.5978 -26.2779 2616.7239)" class="Pattern_2_sto_milk" width="10.4" height="4.1"/>
    <rect x="1968.8" y="1611.5" transform="matrix(0.9598 -0.2805 0.2805 0.9598 -374.5758 617.6508)" class="Pattern_2_sto_milk" width="3" height="11.6"/>
    <rect x="2831.3" y="1933.8" transform="matrix(0.5095 -0.8605 0.8605 0.5095 -273.1788 3391.7847)" class="Pattern_2_sto_milk" width="14.5" height="3.4"/>
    <rect x="2823.4" y="1756.4" transform="matrix(0.7316 -0.6817 0.6817 0.7316 -441.7523 2403.769)" class="Pattern_2_sto_milk" width="17.2" height="13"/>
    <rect x="2256.2" y="1638.4" transform="matrix(0.4415 -0.8972 0.8972 0.4415 -216.2828 2947.5142)" class="Pattern_2_sto_milk" width="6.9" height="18.3"/>
    <rect x="1375.9" y="1721" transform="matrix(0.1192 -0.9929 0.9929 0.1192 -498.5226 2888.5862)" class="Pattern_2_sto_milk" width="5.9" height="8.6"/>
    <rect x="2433.5" y="1620.5" transform="matrix(0.4265 -0.9045 0.9045 0.4265 -69.2069 3137.7095)" class="Pattern_2_sto_milk" width="12" height="5.9"/>
    <rect x="2646.8" y="1461.1" transform="matrix(8.611379e-02 -0.9963 0.9963 8.611379e-02 971.158 3986.7983)" class="Pattern_2_sto_milk" width="23.7" height="5.9"/>
    <rect x="2057.9" y="1926.1" transform="matrix(0.4066 -0.9136 0.9136 0.4066 -536.0019 3032.9678)" class="Pattern_2_sto_milk" width="17.6" height="5.9"/>
    <rect x="2629.2" y="1420.3" transform="matrix(0.265 -0.9642 0.9642 0.265 563.5699 3584.1758)" class="Pattern_2_sto_milk" width="7.3" height="4.1"/>
    <rect x="2627.6" y="1544.5" transform="matrix(0.9205 -0.3909 0.3909 0.9205 -395.6297 1150.6646)" class="Pattern_2_sto_milk" width="3" height="5.6"/>
    <rect x="2306" y="1598.6" transform="matrix(0.8999 -0.4361 0.4361 0.8999 -467.0001 1169.7216)" class="Pattern_2_sto_milk" width="16.7" height="6.9"/>
    <rect x="2705.3" y="1518.4" transform="matrix(0.9424 -0.3345 0.3345 0.9424 -353.7584 993.6653)" class="Pattern_2_sto_milk" width="5.9" height="11.2"/>
    <rect x="1619" y="1725.3" transform="matrix(0.9598 -0.2805 0.2805 0.9598 -420.5503 524.1055)" class="Pattern_2_sto_milk" width="3" height="11.6"/>
    <rect x="1672.2" y="1810.8" transform="matrix(0.9424 -0.3345 0.3345 0.9424 -511.0768 664.9308)" class="Pattern_2_sto_milk" width="5.9" height="11.2"/>
    <rect x="1590.6" y="1787.8" transform="matrix(0.402 -0.9156 0.9156 0.402 -688.4071 2536.781)" class="Pattern_2_sto_milk" width="14.8" height="15.2"/>
    <rect x="1713.2" y="1631.8" transform="matrix(0.3115 -0.9502 0.9502 0.3115 -365.6693 2764.9036)" class="Pattern_2_sto_milk" width="24.2" height="5.9"/>
    <rect x="1642.9" y="1749.3" transform="matrix(0.6718 -0.7407 0.7407 0.6718 -761.494 1799.7429)" class="Pattern_2_sto_milk" width="14.8" height="19.8"/>
    <rect x="1785.2" y="1830.6" transform="matrix(0.1225 -0.9925 0.9925 0.1225 -239.6397 3393.1355)" class="Pattern_2_sto_milk" width="27.8" height="3"/>
    <rect x="1733.6" y="1916" transform="matrix(0.9997 -2.254297e-02 2.254297e-02 0.9997 -42.7816 39.8815)" class="Pattern_2_sto_milk" width="27.8" height="3"/>
    <rect x="1776.3" y="1787.8" transform="matrix(0.8138 -0.5812 0.5812 0.8138 -708.8513 1369.3246)" class="Pattern_2_sto_milk" width="11.7" height="5.9"/>
    <rect x="1792.2" y="1715.7" transform="matrix(0.9972 -7.477413e-02 7.477413e-02 0.9972 -123.4728 139.3333)" class="Pattern_2_sto_milk" width="13.7" height="5.9"/>
    <rect x="1645.3" y="1861.1" transform="matrix(0.9972 -7.487959e-02 7.487959e-02 0.9972 -134.9428 128.9465)" class="Pattern_2_sto_milk" width="13.7" height="5.9"/>
    <rect x="1726.7" y="1721.6" transform="matrix(0.9203 -0.3913 0.3913 0.9203 -536.8914 813.626)" class="Pattern_2_sto_milk" width="3" height="5.6"/>
    <rect x="1738.2" y="1877.2" transform="matrix(0.9977 -6.833305e-02 6.833305e-02 0.9977 -124.5444 123.2747)" class="Pattern_2_sto_milk" width="3" height="9.9"/>
    <rect x="1397.2" y="1774.3" transform="matrix(0.1094 -0.994 0.994 0.1094 -514.5834 2980.1401)" class="Pattern_2_sto_milk" width="17" height="5.9"/>
    <polygon class="Pattern_2_sto_milk" points="1403.6,1862.2 1402.6,1874.4 1408.6,1874.8 1409.6,1862.7 "/>
    <rect x="1339.2" y="1631.2" transform="matrix(0.4998 -0.8662 0.8662 0.4998 -745.899 1986.1837)" class="Pattern_2_sto_milk" width="14.8" height="15.2"/>
    <rect x="1335.6" y="1801.9" transform="matrix(0.8025 -0.5967 0.5967 0.8025 -811.9254 1157.2008)" class="Pattern_2_sto_milk" width="12.4" height="5.9"/>
    <rect x="1569.5" y="1697.1" transform="matrix(8.203515e-02 -0.9966 0.9966 8.203515e-02 -247.7957 3131.0405)" class="Pattern_2_sto_milk" width="12.5" height="5.9"/>
    <rect x="1441.7" y="1829.7" transform="matrix(0.8025 -0.5967 0.5967 0.8025 -807.5846 1226.016)" class="Pattern_2_sto_milk" width="12.4" height="5.9"/>
    <rect x="1443.6" y="1652.3" transform="matrix(0.9733 -0.2295 0.2295 0.9733 -341.9202 376.2964)" class="Pattern_2_sto_milk" width="5.9" height="11.2"/>
    <rect x="1577.1" y="1639" transform="matrix(0.401 -0.9161 0.9161 0.401 -560.2242 2432.6536)" class="Pattern_2_sto_milk" width="5.9" height="11.4"/>
    <rect x="1473.3" y="1775.2" transform="matrix(0.7745 -0.6326 0.6326 0.7745 -796.6448 1336.6204)" class="Pattern_2_sto_milk" width="5.9" height="20.8"/>
    <rect x="2137.6" y="1849.6" transform="matrix(0.8024 -0.5968 0.5968 0.8024 -681.9943 1645.4321)" class="Pattern_2_sto_milk" width="12.4" height="5.9"/>
    <rect x="2144.1" y="1663.3" transform="matrix(0.4998 -0.8662 0.8662 0.4998 -371.0415 2699.3606)" class="Pattern_2_sto_milk" width="14.8" height="15.2"/>
    <rect x="2085.9" y="1671.8" transform="matrix(0.4137 -0.9104 0.9104 0.4137 -294.7044 2891.9722)" class="Pattern_2_sto_milk" width="24.2" height="5.9"/>
    <rect x="2201.8" y="1660.9" transform="matrix(0.1944 -0.9809 0.9809 0.1944 151.1336 3511.791)" class="Pattern_2_sto_milk" width="23.7" height="5.9"/>
    <polygon class="Pattern_2_sto_milk" points="2205.7,1909.9 2205.2,1915.9 2211.1,1916.2 2211.6,1910.4 "/>
    <rect x="2230.4" y="1786.1" transform="matrix(0.9913 -0.1316 0.1316 0.9913 -216.9985 309.5406)" class="Pattern_2_sto_milk" width="5.9" height="20.8"/>
    <rect x="2278.2" y="1665.9" transform="matrix(0.4009 -0.9161 0.9161 0.4009 -164.7387 3091.1921)" class="Pattern_2_sto_milk" width="5.9" height="11.4"/>
    <rect x="2245.7" y="1700.1" transform="matrix(0.9734 -0.229 0.229 0.9734 -330.7969 560.1511)" class="Pattern_2_sto_milk" width="5.9" height="11.2"/>
    <rect x="2315.3" y="1712.5" transform="matrix(0.8549 -0.5188 0.5188 0.8549 -553.0286 1453.8656)" class="Pattern_2_sto_milk" width="14.1" height="5.9"/>
    <rect x="2466.5" y="1659.6" transform="matrix(0.8549 -0.5188 0.5188 0.8549 -503.6229 1524.5917)" class="Pattern_2_sto_milk" width="14.1" height="5.9"/>
    <rect x="2217.6" y="1743.7" transform="matrix(3.515169e-02 -0.9994 0.9994 3.515169e-02 393.0672 3908.2095)" class="Pattern_2_sto_milk" width="5.9" height="13.7"/>
    <rect x="2243.7" y="1877.5" transform="matrix(0.8025 -0.5967 0.5967 0.8025 -677.6268 1713.8453)" class="Pattern_2_sto_milk" width="12.4" height="5.9"/>
    <rect x="1938.6" y="1907.4" transform="matrix(0.2983 -0.9545 0.9545 0.2983 -463.591 3195.5161)" class="Pattern_2_sto_milk" width="5.9" height="11.4"/>
    <rect x="1932.7" y="1818.3" transform="matrix(0.9972 -7.477413e-02 7.477413e-02 0.9972 -130.7522 150.1241)" class="Pattern_2_sto_milk" width="13.7" height="5.9"/>
    <rect x="1868" y="1880.2" transform="matrix(0.9972 -7.477413e-02 7.477413e-02 0.9972 -135.5665 145.4575)" class="Pattern_2_sto_milk" width="13.7" height="5.9"/>
    <rect x="2090.1" y="1768.4" transform="matrix(0.5041 -0.8636 0.8636 0.5041 -488.9624 2691.1484)" class="Pattern_2_sto_milk" width="17.6" height="5.9"/>
    <rect x="1815.5" y="1637.9" transform="matrix(0.2983 -0.9545 0.9545 0.2983 -292.763 2888.9119)" class="Pattern_2_sto_milk" width="5.9" height="11.4"/>
    <rect x="1654.7" y="1611.6" transform="matrix(0.2983 -0.9545 0.9545 0.2983 -380.4648 2717.0359)" class="Pattern_2_sto_milk" width="5.9" height="11.4"/>
    <polygon class="Pattern_2_sto_milk" points="1972.3,1880.2 1970.3,1903.7 1976.2,1904.1 1978.2,1880.7 "/>
    <rect x="1831.9" y="1709.2" transform="matrix(0.8833 -0.4687 0.4687 0.8833 -591.0018 1065.9933)" class="Pattern_2_sto_milk" width="28.3" height="22.2"/>
    <rect x="1850.5" y="1798.3" transform="matrix(0.9977 -6.833305e-02 6.833305e-02 0.9977 -118.8894 130.7698)" class="Pattern_2_sto_milk" width="3" height="9.9"/>
    <rect x="1885" y="1731.7" transform="matrix(0.9977 -6.833305e-02 6.833305e-02 0.9977 -114.2626 132.9716)" class="Pattern_2_sto_milk" width="3" height="9.9"/>
    <rect x="2313" y="1785.9" transform="matrix(0.2304 -0.9731 0.9731 0.2304 51.4816 3639.8425)" class="Pattern_2_sto_milk" width="27.8" height="3"/>
    <rect x="2014.8" y="1694" transform="matrix(0.8629 -0.5053 0.5053 0.8629 -580.515 1253.7981)" class="Pattern_2_sto_milk" width="12.4" height="5.9"/>
    <rect x="1969.2" y="1725.2" transform="matrix(0.1909 -0.9816 0.9816 0.1909 -98.0925 3337.2976)" class="Pattern_2_sto_milk" width="12.5" height="5.9"/>
    <rect x="2319.3" y="1858.4" transform="matrix(0.7691 -0.6391 0.6391 0.7691 -656.0995 1915.0474)" class="Pattern_2_sto_milk" width="5.9" height="14.2"/>
    <rect x="2440.5" y="1922.6" transform="matrix(0.2547 -0.967 0.967 0.2547 -45.3819 3799.2886)" class="Pattern_2_sto_milk" width="3" height="12.9"/>
    </svg>
    